<?xml version="1.0" encoding="utf-8"?>
<!-- Generator: Adobe Illustrator 23.1.0, SVG Export Plug-In . SVG Version: 6.00 Build 0)  -->
<svg version="1.1" id="レイヤー_1" xmlns="http://www.w3.org/2000/svg" xmlns:xlink="http://www.w3.org/1999/xlink" x="0px"
	 y="0px" viewBox="0 0 1139.1 380.7" style="enable-background:new 0 0 1139.1 380.7;" xml:space="preserve">
<style type="text/css">
	.st0{fill:#008484;fill-opacity:0;stroke:#000000;stroke-linecap:round;stroke-linejoin:round;stroke-miterlimit:10;}
	.st1{fill:#C2C2C2;fill-opacity:0;stroke:#000000;stroke-linecap:round;stroke-linejoin:round;stroke-miterlimit:10;}
	.st2{fill:#C2C200;fill-opacity:0;stroke:#000000;stroke-linecap:round;stroke-linejoin:round;stroke-miterlimit:10;}
</style>
<title>SVG Picture created as dboard_alice15_ver.1-brd.svg date 2019/10/08 18:15:55</title>
<desc>Picture generated by PCBNEW</desc>
<g transform="translate(0 0) scale(1 1)">
</g>
<path class="st0" d="M788.3,218.9h-39.7"/>
<path class="st0" d="M788.3,258.6v-39.7"/>
<path class="st0" d="M748.6,258.6h39.7"/>
<path class="st0" d="M748.6,218.9v39.7"/>
<path class="st0" d="M236.9,165h-39.7"/>
<path class="st0" d="M236.9,204.7V165"/>
<path class="st0" d="M197.2,204.7h39.7"/>
<path class="st0" d="M197.2,165v39.7"/>
<path class="st0" d="M902.3,165.1v39.7"/>
<path class="st0" d="M902.3,204.8H942"/>
<path class="st0" d="M942,204.8v-39.7"/>
<path class="st0" d="M942,165.1h-39.7"/>
<path class="st0" d="M910.1,272.8v39.7"/>
<path class="st0" d="M910.1,312.5h39.7"/>
<path class="st0" d="M949.8,312.5v-39.7"/>
<path class="st0" d="M949.8,272.8h-39.7"/>
<path class="st0" d="M50.8,63.5v-18"/>
<path class="st0" d="M50.8,63.5H30.9"/>
<path class="st0" d="M30.9,45.5v18"/>
<path class="st0" d="M50.8,45.5H30.9"/>
<path class="st0" d="M64.9,106.9v131.3"/>
<path class="st0" d="M43.3,106.9h21.6"/>
<path class="st0" d="M43.3,238.2V106.9"/>
<path class="st0" d="M64.9,238.2H43.3"/>
<path class="st0" d="M11,238.1V106.8"/>
<path class="st0" d="M32.6,238.1H11"/>
<path class="st0" d="M32.6,106.8v131.3"/>
<path class="st0" d="M11,106.8h21.6"/>
<path class="st0" d="M498.2,114.9l-38.3-10.3"/>
<path class="st0" d="M487.9,153.3l10.3-38.3"/>
<path class="st0" d="M449.6,143l38.3,10.3"/>
<path class="st0" d="M459.9,104.7L449.6,143"/>
<path class="st0" d="M419.9,149.7L409.6,188"/>
<path class="st0" d="M409.6,188.1l38.3,10.3"/>
<path class="st0" d="M448,198.3l10.3-38.3"/>
<path class="st0" d="M458.2,160l-38.3-10.3"/>
<path class="st0" d="M418.9,205.2l-10.3,38.3"/>
<path class="st0" d="M408.6,243.5l38.3,10.3"/>
<path class="st0" d="M447,253.8l10.3-38.3"/>
<path class="st0" d="M457.2,215.4l-38.3-10.3"/>
<path class="st0" d="M469.3,274.3L431,264.1"/>
<path class="st0" d="M459.1,312.7l10.3-38.3"/>
<path class="st0" d="M420.7,302.4l38.3,10.3"/>
<path class="st0" d="M431,264.1l-10.3,38.3"/>
<path class="st0" d="M436,321.2L397.6,311"/>
<path class="st0" d="M425.7,359.6l10.3-38.3"/>
<path class="st0" d="M387.4,349.3l38.3,10.3"/>
<path class="st0" d="M397.6,311l-10.3,38.3"/>
<path class="st0" d="M561.5,321.1l10.3,38.3"/>
<path class="st0" d="M571.8,359.5l38.3-10.3"/>
<path class="st0" d="M610.2,349.2l-10.3-38.3"/>
<path class="st0" d="M599.9,310.9l-38.3,10.3"/>
<path class="st0" d="M566.4,264.3l-38.3,10.3"/>
<path class="st0" d="M576.7,302.7l-10.3-38.3"/>
<path class="st0" d="M538.4,312.9l38.3-10.3"/>
<path class="st0" d="M528.1,274.6l10.3,38.3"/>
<path class="st0" d="M578.5,205.3l-38.3,10.3"/>
<path class="st0" d="M588.8,243.6l-10.3-38.3"/>
<path class="st0" d="M550.4,253.9l38.3-10.3"/>
<path class="st0" d="M540.2,215.6l10.3,38.3"/>
<path class="st0" d="M513.2,166.9l10.3,38.3"/>
<path class="st0" d="M523.4,205.2l38.3-10.3"/>
<path class="st0" d="M561.8,194.9l-10.3-38.3"/>
<path class="st0" d="M551.5,156.6l-38.3,10.3"/>
<path class="st0" d="M563.5,97.6l-38.3,10.3"/>
<path class="st0" d="M573.8,135.9l-10.3-38.3"/>
<path class="st0" d="M535.4,146.2l38.3-10.3"/>
<path class="st0" d="M525.2,107.9l10.3,38.3"/>
<path class="st0" d="M446.2,101l-38.3-10.3"/>
<path class="st0" d="M435.9,139.3l10.3-38.3"/>
<path class="st0" d="M397.6,129l38.3,10.3"/>
<path class="st0" d="M407.9,90.7L397.6,129"/>
<path class="st0" d="M406.3,146.1L368,135.9"/>
<path class="st0" d="M396,184.5l10.3-38.3"/>
<path class="st0" d="M357.7,174.2l38.3,10.3"/>
<path class="st0" d="M368,135.9l-10.3,38.3"/>
<path class="st0" d="M366.8,191.3l-10.3,38.3"/>
<path class="st0" d="M356.6,229.6l38.3,10.3"/>
<path class="st0" d="M394.9,239.9l10.3-38.3"/>
<path class="st0" d="M405.2,201.5l-38.3-10.3"/>
<path class="st0" d="M417.4,260.5l-38.3-10.3"/>
<path class="st0" d="M407.1,298.8l10.3-38.3"/>
<path class="st0" d="M368.8,288.6l38.3,10.3"/>
<path class="st0" d="M379.1,250.2l-10.3,38.3"/>
<path class="st0" d="M580.2,260.5l10.3,38.3"/>
<path class="st0" d="M590.5,298.8l38.3-10.3"/>
<path class="st0" d="M628.8,288.6l-10.3-38.3"/>
<path class="st0" d="M618.5,250.2l-38.3,10.3"/>
<path class="st0" d="M592.2,201.5l10.3,38.3"/>
<path class="st0" d="M602.5,239.9l38.3-10.3"/>
<path class="st0" d="M640.8,229.6l-10.3-38.3"/>
<path class="st0" d="M630.6,191.3l-38.3,10.3"/>
<path class="st0" d="M565.1,152.9l10.3,38.3"/>
<path class="st0" d="M575.4,191.2l38.3-10.3"/>
<path class="st0" d="M613.8,181l-10.3-38.3"/>
<path class="st0" d="M603.5,142.6l-38.3,10.3"/>
<path class="st0" d="M615.6,83.6l-38.3,10.3"/>
<path class="st0" d="M625.9,122l-10.3-38.3"/>
<path class="st0" d="M587.5,132.2l38.3-10.3"/>
<path class="st0" d="M577.3,93.9l10.3,38.3"/>
<path class="st0" d="M394.2,87l-38.3-10.3"/>
<path class="st0" d="M383.9,125.4L394.2,87"/>
<path class="st0" d="M345.5,115.1l38.3,10.3"/>
<path class="st0" d="M355.8,76.8l-10.3,38.3"/>
<path class="st0" d="M316,121.8l-10.3,38.3"/>
<path class="st0" d="M305.8,160.2l38.3,10.3"/>
<path class="st0" d="M344.1,170.4l10.3-38.3"/>
<path class="st0" d="M354.4,132.1L316,121.8"/>
<path class="st0" d="M314.8,177.2l-10.3,38.3"/>
<path class="st0" d="M304.6,215.6l38.3,10.3"/>
<path class="st0" d="M342.9,225.8l10.3-38.3"/>
<path class="st0" d="M353.2,187.5l-38.3-10.3"/>
<path class="st0" d="M365.3,246.6L327,236.3"/>
<path class="st0" d="M355,284.9l10.3-38.3"/>
<path class="st0" d="M316.7,274.6l38.3,10.3"/>
<path class="st0" d="M326.9,236.3l-10.3,38.3"/>
<path class="st0" d="M331.8,293.4l-38.3-10.3"/>
<path class="st0" d="M321.5,331.8l10.3-38.3"/>
<path class="st0" d="M283.2,321.5l38.3,10.3"/>
<path class="st0" d="M293.5,283.2l-10.3,38.3"/>
<path class="st0" d="M665.5,293.5l10.3,38.3"/>
<path class="st0" d="M675.8,331.8l38.3-10.3"/>
<path class="st0" d="M714.1,321.5l-10.3-38.3"/>
<path class="st0" d="M703.9,283.2l-38.3,10.3"/>
<path class="st0" d="M632.1,246.6l10.3,38.3"/>
<path class="st0" d="M642.4,285l38.3-10.3"/>
<path class="st0" d="M680.7,274.7l-10.3-38.3"/>
<path class="st0" d="M670.5,236.3l-38.3,10.3"/>
<path class="st0" d="M644.2,187.6l10.3,38.3"/>
<path class="st0" d="M654.4,226l38.3-10.3"/>
<path class="st0" d="M692.8,215.7l-10.3-38.3"/>
<path class="st0" d="M682.5,177.4l-38.3,10.3"/>
<path class="st0" d="M655.6,128.7L617.3,139"/>
<path class="st0" d="M665.9,167l-10.3-38.3"/>
<path class="st0" d="M627.6,177.3l38.3-10.3"/>
<path class="st0" d="M617.3,139l10.3,38.3"/>
<path class="st0" d="M629.3,80l10.3,38.3"/>
<path class="st0" d="M639.6,118.3l38.3-10.3"/>
<path class="st0" d="M677.9,108l-10.3-38.3"/>
<path class="st0" d="M667.7,69.7L629.3,80"/>
<path class="st0" d="M303.8,62.8l-10.3,38.3"/>
<path class="st0" d="M293.5,101.1l38.3,10.3"/>
<path class="st0" d="M331.9,111.4l10.3-38.3"/>
<path class="st0" d="M342.1,73.1l-38.3-10.3"/>
<path class="st0" d="M302.1,118.2l-38.3-10.3"/>
<path class="st0" d="M291.8,156.5l10.3-38.3"/>
<path class="st0" d="M253.5,146.2l38.3,10.3"/>
<path class="st0" d="M263.8,107.9l-10.3,38.3"/>
<path class="st0" d="M263.1,163.2l-10.3,38.3"/>
<path class="st0" d="M252.8,201.5l38.3,10.3"/>
<path class="st0" d="M291.1,211.8l10.3-38.3"/>
<path class="st0" d="M301.4,173.5l-38.3-10.3"/>
<path class="st0" d="M275.3,222.4L265,260.7"/>
<path class="st0" d="M265,260.7l38.3,10.3"/>
<path class="st0" d="M303.4,271l10.3-38.3"/>
<path class="st0" d="M313.6,232.6l-38.3-10.3"/>
<path class="st0" d="M722.6,222.3l-38.3,10.3"/>
<path class="st0" d="M732.8,260.7l-10.3-38.3"/>
<path class="st0" d="M694.5,270.9l38.3-10.3"/>
<path class="st0" d="M684.2,232.6l10.3,38.3"/>
<path class="st0" d="M734.6,163.4l-38.3,10.3"/>
<path class="st0" d="M744.9,201.8l-10.3-38.3"/>
<path class="st0" d="M706.5,212l38.3-10.3"/>
<path class="st0" d="M696.3,173.7l10.3,38.3"/>
<path class="st0" d="M669.3,125.2l10.3,38.3"/>
<path class="st0" d="M679.5,163.5l38.3-10.3"/>
<path class="st0" d="M717.9,153.2l-10.3-38.3"/>
<path class="st0" d="M707.6,114.9l-38.3,10.3"/>
<path class="st0" d="M719.7,55.8L681.3,66"/>
<path class="st0" d="M729.9,94.1l-10.3-38.3"/>
<path class="st0" d="M691.6,104.4l38.3-10.3"/>
<path class="st0" d="M681.3,66l10.3,38.3"/>
<path class="st0" d="M239.9,52.4V92"/>
<path class="st0" d="M239.9,92h39.7"/>
<path class="st0" d="M279.5,92V52.4"/>
<path class="st0" d="M279.5,52.4h-39.7"/>
<path class="st0" d="M760.6,165v39.7"/>
<path class="st0" d="M760.6,204.7h39.7"/>
<path class="st0" d="M800.3,204.7V165"/>
<path class="st0" d="M800.3,165h-39.7"/>
<path class="st0" d="M739.5,107.9v39.7"/>
<path class="st0" d="M739.5,147.6h39.7"/>
<path class="st0" d="M779.2,147.6v-39.7"/>
<path class="st0" d="M779.2,107.9h-39.7"/>
<path class="st0" d="M745.7,53.9v39.7"/>
<path class="st0" d="M745.7,93.6h39.7"/>
<path class="st0" d="M785.4,93.6V53.9"/>
<path class="st0" d="M785.4,53.9h-39.7"/>
<path class="st0" d="M186.1,57.4v39.7"/>
<path class="st0" d="M186.1,97.1h39.7"/>
<path class="st0" d="M225.8,97.1V57.4"/>
<path class="st0" d="M225.8,57.4h-39.7"/>
<path class="st0" d="M237.8,111.3h-39.7"/>
<path class="st0" d="M237.8,151v-39.7"/>
<path class="st0" d="M198.1,151h39.7"/>
<path class="st0" d="M198.1,111.3V151"/>
<path class="st0" d="M209.3,219v39.7"/>
<path class="st0" d="M209.3,258.7H249"/>
<path class="st0" d="M249,258.7V219"/>
<path class="st0" d="M249,219h-39.7"/>
<path class="st0" d="M242.2,272.8h-39.7"/>
<path class="st0" d="M242.2,312.5v-39.7"/>
<path class="st0" d="M202.6,312.5h39.7"/>
<path class="st0" d="M202.6,272.8v39.7"/>
<path class="st0" d="M842.1,272.8h-39.7"/>
<path class="st0" d="M842.1,312.4v-39.7"/>
<path class="st0" d="M802.4,312.4h39.7"/>
<path class="st0" d="M802.4,272.8v39.7"/>
<path class="st0" d="M842.1,218.8h-39.7"/>
<path class="st0" d="M842.1,258.5v-39.7"/>
<path class="st0" d="M802.4,258.5h39.7"/>
<path class="st0" d="M802.4,218.8v39.7"/>
<path class="st0" d="M854.3,165h-39.7"/>
<path class="st0" d="M854.3,204.6V165"/>
<path class="st0" d="M814.6,204.6h39.7"/>
<path class="st0" d="M814.6,165v39.7"/>
<path class="st0" d="M793.4,111.1v39.7"/>
<path class="st0" d="M793.4,150.8h39.7"/>
<path class="st0" d="M833.1,150.8v-39.7"/>
<path class="st0" d="M833.1,111.1h-39.7"/>
<path class="st0" d="M799.5,57.4v39.7"/>
<path class="st0" d="M799.5,97.1h39.7"/>
<path class="st0" d="M839.2,97.1V57.4"/>
<path class="st0" d="M839.2,57.4h-39.7"/>
<path class="st0" d="M172,57.4h-39.7"/>
<path class="st0" d="M172,97.1V57.4"/>
<path class="st0" d="M132.3,97.1H172"/>
<path class="st0" d="M132.3,57.4v39.7"/>
<path class="st0" d="M170.5,111.3h-39.7"/>
<path class="st0" d="M170.5,151v-39.7"/>
<path class="st0" d="M130.8,151h39.7"/>
<path class="st0" d="M130.8,111.3V151"/>
<path class="st0" d="M123.1,165.2v39.7"/>
<path class="st0" d="M123.1,204.8h39.7"/>
<path class="st0" d="M162.8,204.8v-39.7"/>
<path class="st0" d="M162.8,165.2h-39.7"/>
<path class="st0" d="M161.4,218.9h-39.7"/>
<path class="st0" d="M161.4,258.6v-39.7"/>
<path class="st0" d="M121.7,258.6h39.7"/>
<path class="st0" d="M121.7,218.9v39.7"/>
<path class="st0" d="M135.1,272.7v39.7"/>
<path class="st0" d="M135.1,312.4h39.7"/>
<path class="st0" d="M174.8,312.4v-39.7"/>
<path class="st0" d="M174.8,272.7h-39.7"/>
<path class="st0" d="M895.8,272.8h-39.7"/>
<path class="st0" d="M895.8,312.5v-39.7"/>
<path class="st0" d="M856.1,312.5h39.7"/>
<path class="st0" d="M856.1,272.8v39.7"/>
<path class="st0" d="M896,219h-39.7"/>
<path class="st0" d="M896,258.7V219"/>
<path class="st0" d="M856.3,258.7H896"/>
<path class="st0" d="M856.3,219v39.7"/>
<path class="st0" d="M847.2,111.3V151"/>
<path class="st0" d="M847.2,151h39.7"/>
<path class="st0" d="M886.9,151v-39.7"/>
<path class="st0" d="M886.9,111.3h-39.7"/>
<path class="st0" d="M104,52.5H64.3"/>
<path class="st0" d="M104,92.2V52.5"/>
<path class="st0" d="M64.3,92.2H104"/>
<path class="st0" d="M64.3,52.5v39.7"/>
<path class="st0" d="M970.2,219h-39.7"/>
<path class="st0" d="M970.2,258.7V219"/>
<path class="st0" d="M930.5,258.7h39.7"/>
<path class="st0" d="M930.5,219v39.7"/>
<path class="st0" d="M914.6,111.3V151"/>
<path class="st0" d="M914.6,151h39.7"/>
<path class="st0" d="M954.3,151v-39.7"/>
<path class="st0" d="M954.3,111.3h-39.7"/>
<path class="st0" d="M880.4,57.4v39.7"/>
<path class="st0" d="M880.4,97.1h39.7"/>
<path class="st0" d="M920.1,97.1V57.4"/>
<path class="st0" d="M920.1,57.4h-39.7"/>
<path class="st1" d="M895.7,272.8v19.8"/>
<path class="st1" d="M895.7,238.1v19.8"/>
<path class="st1" d="M941.6,204.8L941.6,204.8"/>
<path class="st1" d="M875.9,272.8h19.8"/>
<path class="st1" d="M895.7,218.2V238"/>
<path class="st1" d="M605,330.2l5.1,19.2"/>
<path class="st1" d="M591,354.5l-19.2,5.1"/>
<path class="st1" d="M856,272.8h19.8"/>
<path class="st1" d="M856,218.2L856,218.2"/>
<path class="st1" d="M856,257.9v-19.8"/>
<path class="st1" d="M610.1,349.3L610.1,349.3"/>
<path class="st1" d="M856,218.2h19.8"/>
<path class="st1" d="M875.9,257.9H856"/>
<path class="st1" d="M895.7,257.9h-19.8"/>
<path class="st1" d="M875.9,218.2h19.8"/>
<path class="st1" d="M902,184.9v-19.8"/>
<path class="st1" d="M670.7,312.6l-5.1-19.2"/>
<path class="st1" d="M675.8,331.7l-5.1-19.2"/>
<path class="st1" d="M571.8,359.6l-5.1-19.2"/>
<path class="st1" d="M941.6,204.8h-19.8"/>
<path class="st1" d="M695,326.6l-19.2,5.1"/>
<path class="st1" d="M709,302.3l5.1,19.2"/>
<path class="st1" d="M580.7,316.1l19.2-5.1"/>
<path class="st1" d="M566.6,340.4l-5.1-19.2"/>
<path class="st1" d="M921.8,165.1h19.8"/>
<path class="st1" d="M684.7,288.3l19.2-5.1"/>
<path class="st1" d="M956.5,258.6L956.5,258.6"/>
<path class="st1" d="M941.6,184.9v19.8"/>
<path class="st1" d="M902,204.8V185"/>
<path class="st1" d="M714.2,321.5l-19.2,5.1"/>
<path class="st1" d="M856,238.1v-19.8"/>
<path class="st1" d="M665.6,293.4l19.2-5.1"/>
<path class="st1" d="M921.8,204.8H902"/>
<path class="st1" d="M902,165.1h19.8"/>
<path class="st1" d="M599.8,311l5.1,19.2"/>
<path class="st1" d="M941.6,165.1v19.8"/>
<path class="st1" d="M856,272.8L856,272.8"/>
<path class="st1" d="M856,292.7v-19.8"/>
<path class="st1" d="M856,312.5v-19.8"/>
<path class="st1" d="M665.6,293.4L665.6,293.4"/>
<path class="st1" d="M875.9,312.5H856"/>
<path class="st1" d="M895.7,312.5h-19.8"/>
<path class="st1" d="M610.1,349.3l-19.2,5.1"/>
<path class="st1" d="M561.5,321.3l19.2-5.1"/>
<path class="st1" d="M703.9,283.1l5.1,19.2"/>
<path class="st1" d="M895.7,292.7v19.8"/>
<path class="st1" d="M635.6,210.4l5.1,19.2"/>
<path class="st1" d="M673.6,220.8l-19.2,5.1"/>
<path class="st1" d="M687.6,196.5l5.1,19.2"/>
<path class="st1" d="M682.5,177.3l5.1,19.2"/>
<path class="st1" d="M611.3,196.4l19.2-5.1"/>
<path class="st1" d="M597.3,220.7l-5.1-19.2"/>
<path class="st1" d="M654.5,225.9L654.5,225.9"/>
<path class="st1" d="M592.2,201.5l19.2-5.1"/>
<path class="st1" d="M630.5,191.3l5.1,19.2"/>
<path class="st1" d="M692.8,215.7l-19.2,5.1"/>
<path class="st1" d="M602.4,239.9l-5.1-19.2"/>
<path class="st1" d="M717.9,153.2l-19.2,5.1"/>
<path class="st1" d="M603.5,142.7l5.1,19.2"/>
<path class="st1" d="M674.4,144.3l-5.1-19.2"/>
<path class="st1" d="M608.7,161.9l5.1,19.2"/>
<path class="st1" d="M594.7,186.2l-19.2,5.1"/>
<path class="st1" d="M669.3,125.1l19.2-5.1"/>
<path class="st1" d="M575.5,191.3L575.5,191.3"/>
<path class="st1" d="M698.7,158.3l-19.2,5.1"/>
<path class="st1" d="M613.8,181.1l-19.2,5.1"/>
<path class="st1" d="M584.4,147.9l19.2-5.1"/>
<path class="st1" d="M679.5,163.5l-5.1-19.2"/>
<path class="st1" d="M599.3,255.4l19.2-5.1"/>
<path class="st1" d="M557.5,307.7l-19.2,5.1"/>
<path class="st1" d="M618.4,250.3l5.1,19.2"/>
<path class="st1" d="M580.1,260.5l19.2-5.1"/>
<path class="st1" d="M533.2,293.6l-5.1-19.2"/>
<path class="st1" d="M590.4,298.9l-5.1-19.2"/>
<path class="st1" d="M609.5,293.7l-19.2,5.1"/>
<path class="st1" d="M538.3,312.8l-5.1-19.2"/>
<path class="st1" d="M528.1,274.5L528.1,274.5"/>
<path class="st1" d="M628.7,288.6l-19.2,5.1"/>
<path class="st1" d="M623.6,269.4l5.1,19.2"/>
<path class="st1" d="M191,104.1V158"/>
<path class="st1" d="M179,50.3v53.9"/>
<path class="st1" d="M190.1,211.8H95.8"/>
<path class="st1" d="M95.8,158h94.3"/>
<path class="st1" d="M256,319.6h-67.3"/>
<path class="st1" d="M188.7,265.7v53.9"/>
<path class="st1" d="M81,211.8h121.2"/>
<path class="st1" d="M191,158h-80.8"/>
<path class="st1" d="M57.1,99.2V45.3"/>
<path class="st1" d="M179,104.1V50.3"/>
<path class="st1" d="M188.7,319.6h-67.3"/>
<path class="st1" d="M110.9,45.3v53.9"/>
<path class="st1" d="M188.7,265.7H256"/>
<path class="st1" d="M188.7,319.6v-53.9"/>
<path class="st1" d="M333.1,342.1l13.9-52"/>
<path class="st1" d="M256,265.7v53.9"/>
<path class="st1" d="M268.1,324.7l13.9-52"/>
<path class="st1" d="M179,50.3h53.9"/>
<path class="st1" d="M243.9,211.8H190"/>
<path class="st1" d="M191,158v-53.9"/>
<path class="st1" d="M347,290.1l143.1,38.3"/>
<path class="st1" d="M232.8,50.3v53.9"/>
<path class="st1" d="M110.2,158v-53.9"/>
<path class="st1" d="M202.2,265.7H81"/>
<path class="st1" d="M110.2,104.1H191"/>
<path class="st1" d="M232.8,99.2V45.3"/>
<path class="st1" d="M244.9,158H191"/>
<path class="st1" d="M191,104.1h53.9"/>
<path class="st1" d="M110.9,99.2H57.1"/>
<path class="st1" d="M179,104.1h-53.9"/>
<path class="st1" d="M232.8,104.1H179"/>
<path class="st1" d="M333.1,342.1l-65-17.4"/>
<path class="st1" d="M347,290.1l-13.9,52"/>
<path class="st1" d="M125.1,104.1V50.3"/>
<path class="st1" d="M282,272.7l65,17.4"/>
<path class="st1" d="M244.9,104.1V158"/>
<path class="st1" d="M190.1,158v53.9"/>
<path class="st1" d="M286.7,99.2h-53.9"/>
<path class="st1" d="M476.2,380.5l-143.1-38.3"/>
<path class="st1" d="M232.8,45.3h53.9"/>
<path class="st1" d="M490.1,328.4l-13.9,52"/>
<path class="st1" d="M202.2,211.8v53.9"/>
<path class="st1" d="M190.1,211.8V158"/>
<path class="st1" d="M95.8,211.8V158"/>
<path class="st1" d="M57.1,45.3H111"/>
<path class="st1" d="M125.1,50.3H179"/>
<path class="st1" d="M81,265.7v-53.9"/>
<path class="st1" d="M286.7,45.3v53.9"/>
<path class="st1" d="M243.9,158v53.9"/>
<path class="st1" d="M426,255.5l52,13.9"/>
<path class="st1" d="M363,127.1l52,13.9"/>
<path class="st1" d="M466.9,154.9L453,207"/>
<path class="st1" d="M190.1,158H244"/>
<path class="st1" d="M298.8,54.1l52,13.9"/>
<path class="st1" d="M400.9,193l13.9-52"/>
<path class="st1" d="M258.8,99.2l52,13.9"/>
<path class="st1" d="M336.8,120.1l-52-13.9"/>
<path class="st1" d="M296.1,220.7l-52-13.9"/>
<path class="st1" d="M361.9,182.6l52,13.9"/>
<path class="st1" d="M350.8,68.1l-13.9,52"/>
<path class="st1" d="M308.2,279.6l-52-13.9"/>
<path class="st1" d="M388.9,134l-52-13.9"/>
<path class="st1" d="M244.9,151.2l13.9-52"/>
<path class="st1" d="M310.8,113.1l-13.9,52"/>
<path class="st1" d="M296,220.7l13.9-52"/>
<path class="st1" d="M348,234.6l13.9-52"/>
<path class="st1" d="M349.1,179.1l-52-13.9"/>
<path class="st1" d="M415.1,141l-13.9,52"/>
<path class="st1" d="M452,262.5l-52-13.9"/>
<path class="st1" d="M202.2,265.7v-53.9"/>
<path class="st1" d="M202.2,211.8H256"/>
<path class="st1" d="M256,265.7h-53.9"/>
<path class="st1" d="M414.9,141l52,13.9"/>
<path class="st1" d="M256,211.8v53.9"/>
<path class="st1" d="M284.8,106.1l13.9-52"/>
<path class="st1" d="M336.8,120.1l13.9-52"/>
<path class="st1" d="M412.1,307.5l-52-13.9"/>
<path class="st1" d="M311,113.1l52,13.9"/>
<path class="st1" d="M402.8,82l-13.9,52"/>
<path class="st1" d="M350.8,68.1l52,13.9"/>
<path class="st1" d="M388.9,134l13.9-52"/>
<path class="st1" d="M440.9,148l-52-13.9"/>
<path class="st1" d="M402.8,82l52,13.9"/>
<path class="st1" d="M400,248.5l13.9-52"/>
<path class="st1" d="M440.9,148l13.9-52"/>
<path class="st1" d="M296.9,165.1l-52-13.9"/>
<path class="st1" d="M297.1,165.1l13.9-52"/>
<path class="st1" d="M453,207l-52-13.9"/>
<path class="st1" d="M413.9,196.5l52,13.9"/>
<path class="st1" d="M401.1,193l-52-13.9"/>
<path class="st1" d="M270.1,213.7l52,13.9"/>
<path class="st1" d="M348,234.6l-52-13.9"/>
<path class="st1" d="M492.9,161.9l-52-13.9"/>
<path class="st1" d="M454.8,95.9l52,13.9"/>
<path class="st1" d="M349.1,179.1l13.9-52"/>
<path class="st1" d="M400,248.5l-52-13.9"/>
<path class="st1" d="M309.9,168.6l52,13.9"/>
<path class="st1" d="M466,210.4l-13.9,52"/>
<path class="st1" d="M310.1,168.6l-13.9,52"/>
<path class="st1" d="M361.9,182.6l-13.9,52"/>
<path class="st1" d="M412.1,307.5l13.9-52"/>
<path class="st1" d="M322.2,227.6l-13.9,52"/>
<path class="st1" d="M360.1,293.6l13.9-52"/>
<path class="st1" d="M426,255.5l-13.9,52"/>
<path class="st1" d="M413.9,196.5l-13.9,52"/>
<path class="st1" d="M464.1,321.5l-52-13.9"/>
<path class="st1" d="M478,269.4l-13.9,52"/>
<path class="st1" d="M256.2,265.7l13.9-52"/>
<path class="st1" d="M244.1,206.7l13.9-52"/>
<path class="st1" d="M363,127.1l-13.9,52"/>
<path class="st1" d="M258.1,154.7l52,13.9"/>
<path class="st1" d="M454.8,95.9l-13.9,52"/>
<path class="st1" d="M506.9,109.9l-13.9,52"/>
<path class="st1" d="M982.4,316.3l-461.1,64.2"/>
<path class="st1" d="M521.3,380.5h-45.1"/>
<path class="st1" d="M121.4,319.6v-53.9"/>
<path class="st1" d="M121.4,265.7h67.3"/>
<path class="st1" d="M222.4,272.8h19.8"/>
<path class="st1" d="M242.2,292.6v19.8"/>
<path class="st1" d="M308,279.6l13.9-52"/>
<path class="st1" d="M222.4,312.5h-19.8"/>
<path class="st1" d="M174.9,272.8L174.9,272.8"/>
<path class="st1" d="M155,272.8h19.8"/>
<path class="st1" d="M174.9,292.6v19.8"/>
<path class="st1" d="M135.2,272.8H155"/>
<path class="st1" d="M174.9,272.8v19.8"/>
<path class="st1" d="M288.4,302.3l5.1-19.2"/>
<path class="st1" d="M202.5,272.8h19.8"/>
<path class="st1" d="M202.5,312.5v-19.8"/>
<path class="st1" d="M135.2,292.6v-19.8"/>
<path class="st1" d="M155,312.5h-19.8"/>
<path class="st1" d="M312.7,288.2l19.2,5.1"/>
<path class="st1" d="M202.5,292.6v-19.8"/>
<path class="st1" d="M242.2,272.8v19.8"/>
<path class="st1" d="M283.3,321.4l5.1-19.2"/>
<path class="st1" d="M174.9,312.5H155"/>
<path class="st1" d="M242.2,272.8L242.2,272.8"/>
<path class="st1" d="M293.5,283.1l19.2,5.1"/>
<path class="st1" d="M331.9,293.4L331.9,293.4"/>
<path class="st1" d="M374,241.6l52,13.9"/>
<path class="st1" d="M322,227.6l52,13.9"/>
<path class="st1" d="M360.1,293.6l-52-13.9"/>
<path class="st1" d="M242.2,312.5h-19.8"/>
<path class="st1" d="M374,241.6l-13.9,52"/>
<path class="st1" d="M135.2,312.5v-19.8"/>
<path class="st1" d="M64.2,92.1L64.2,92.1"/>
<path class="st1" d="M143,204.8h19.8"/>
<path class="st1" d="M64.2,92.1H84"/>
<path class="st1" d="M302.4,326.6l-19.2-5.1"/>
<path class="st1" d="M103.9,92.1V72.3"/>
<path class="st1" d="M130.8,150.9h19.8"/>
<path class="st1" d="M321.6,331.7l-19.2-5.1"/>
<path class="st1" d="M161.4,218.9L161.4,218.9"/>
<path class="st1" d="M387.3,349.3L387.3,349.3"/>
<path class="st1" d="M416.8,316.1l19.2,5.1"/>
<path class="st1" d="M170.5,131.1v-19.8"/>
<path class="st1" d="M141.6,258.6h19.8"/>
<path class="st1" d="M150.6,150.9h19.8"/>
<path class="st1" d="M130.8,111.2V131"/>
<path class="st1" d="M162.8,204.8V185"/>
<path class="st1" d="M123.1,184.9v19.8"/>
<path class="st1" d="M326.7,312.5l-5.1,19.2"/>
<path class="st1" d="M331.9,293.4l-5.1,19.2"/>
<path class="st1" d="M170.5,111.2L170.5,111.2"/>
<path class="st1" d="M406.5,354.4l-19.2-5.1"/>
<path class="st1" d="M430.8,340.4l-5.1,19.2"/>
<path class="st1" d="M387.3,349.3l5.1-19.2"/>
<path class="st1" d="M170.5,111.2h-19.8"/>
<path class="st1" d="M435.9,321.2l-5.1,19.2"/>
<path class="st1" d="M392.4,330.1l5.1-19.2"/>
<path class="st1" d="M123.1,204.8H143"/>
<path class="st1" d="M170.5,150.9v-19.8"/>
<path class="st1" d="M130.8,131.1v19.8"/>
<path class="st1" d="M84,92.1h19.8"/>
<path class="st1" d="M143,165.1h-19.8"/>
<path class="st1" d="M64.2,72.3v19.8"/>
<path class="st1" d="M162.8,184.9v-19.8"/>
<path class="st1" d="M121.7,258.6h19.8"/>
<path class="st1" d="M64.2,52.4v19.8"/>
<path class="st1" d="M425.6,359.6l-19.2-5.1"/>
<path class="st1" d="M397.6,311l19.2,5.1"/>
<path class="st1" d="M103.9,72.3V52.4"/>
<path class="st1" d="M84,52.4H64.2"/>
<path class="st1" d="M123.1,165.1v19.8"/>
<path class="st1" d="M161.4,238.8V219"/>
<path class="st1" d="M121.7,238.8v19.8"/>
<path class="st1" d="M162.8,165.1L162.8,165.1"/>
<path class="st1" d="M162.8,165.1H143"/>
<path class="st1" d="M150.6,111.2h-19.8"/>
<path class="st1" d="M161.4,258.6v-19.8"/>
<path class="st1" d="M103.9,52.4H84"/>
<path class="st1" d="M205.9,97h19.8"/>
<path class="st1" d="M186.1,97h19.8"/>
<path class="st1" d="M171.9,97V77.2"/>
<path class="st1" d="M132.2,77.2V97"/>
<path class="st1" d="M132.2,57.4v19.8"/>
<path class="st1" d="M186.1,57.4v19.8"/>
<path class="st1" d="M225.7,57.4L225.7,57.4"/>
<path class="st1" d="M152,57.4h-19.8"/>
<path class="st1" d="M225.7,77.2V57.4"/>
<path class="st1" d="M225.7,97V77.2"/>
<path class="st1" d="M186.1,77.2V97"/>
<path class="st1" d="M225.7,57.4h-19.8"/>
<path class="st1" d="M279.6,52.4L279.6,52.4"/>
<path class="st1" d="M259.8,92.1h19.8"/>
<path class="st1" d="M279.6,72.3V52.4"/>
<path class="st1" d="M239.9,72.3v19.8"/>
<path class="st1" d="M279.6,92.1V72.3"/>
<path class="st1" d="M161.4,218.9h-19.8"/>
<path class="st1" d="M171.9,57.4H152"/>
<path class="st1" d="M121.7,218.9v19.8"/>
<path class="st1" d="M141.6,218.9h-19.8"/>
<path class="st1" d="M239.9,52.4v19.8"/>
<path class="st1" d="M171.9,57.4L171.9,57.4"/>
<path class="st1" d="M205.9,57.4h-19.8"/>
<path class="st1" d="M171.9,77.2V57.4"/>
<path class="st1" d="M152,97h19.8"/>
<path class="st1" d="M132.2,97H152"/>
<path class="st1" d="M239.9,92.1h19.8"/>
<path class="st1" d="M293.5,101.1l19.2,5.1"/>
<path class="st1" d="M345.5,115.1l19.2,5.1"/>
<path class="st1" d="M259.8,52.4H240"/>
<path class="st1" d="M217.9,111.2h-19.8"/>
<path class="st1" d="M279.6,52.4h-19.8"/>
<path class="st1" d="M237.8,111.2L237.8,111.2"/>
<path class="st1" d="M237.8,150.9v-19.8"/>
<path class="st1" d="M198.1,131.1v19.8"/>
<path class="st1" d="M441,120.1l5.1-19.2"/>
<path class="st1" d="M487.9,153.2L493,134"/>
<path class="st1" d="M209.2,258.6L209.2,258.6"/>
<path class="st1" d="M248.9,238.8V219"/>
<path class="st1" d="M345.5,115.1L345.5,115.1"/>
<path class="st1" d="M217.9,150.9h19.8"/>
<path class="st1" d="M383.9,125.4l5.1-19.2"/>
<path class="st1" d="M397.5,129l19.2,5.1"/>
<path class="st1" d="M217,165.1h-19.8"/>
<path class="st1" d="M364.7,120.2l19.2,5.1"/>
<path class="st1" d="M402.7,109.9l-5.1,19.2"/>
<path class="st1" d="M454.7,123.8l-5.1,19.2"/>
<path class="st1" d="M293.5,101.1L293.5,101.1"/>
<path class="st1" d="M198.1,150.9h19.8"/>
<path class="st1" d="M237.8,111.2H218"/>
<path class="st1" d="M197.2,184.9v19.8"/>
<path class="st1" d="M375,81.9l-19.2-5.1"/>
<path class="st1" d="M197.2,165.1v19.8"/>
<path class="st1" d="M236.9,204.8V185"/>
<path class="st1" d="M197.2,204.8H217"/>
<path class="st1" d="M209.2,258.6H229"/>
<path class="st1" d="M209.2,238.8v19.8"/>
<path class="st1" d="M303.8,62.8L298.6,82"/>
<path class="st1" d="M236.9,165.1H217"/>
<path class="st1" d="M236.9,184.9v-19.8"/>
<path class="st1" d="M248.9,258.6v-19.8"/>
<path class="st1" d="M397.5,129L397.5,129"/>
<path class="st1" d="M449.6,143L449.6,143"/>
<path class="st1" d="M217,204.8h19.8"/>
<path class="st1" d="M312.7,106.3l19.2,5.1"/>
<path class="st1" d="M229.1,218.9h-19.8"/>
<path class="st1" d="M427,95.8l-19.2-5.1"/>
<path class="st1" d="M248.9,218.9h-19.8"/>
<path class="st1" d="M394.1,87L375,81.9"/>
<path class="st1" d="M389,106.2l5.1-19.2"/>
<path class="st1" d="M322.9,67.9l-19.2-5.1"/>
<path class="st1" d="M355.8,76.8L350.7,96"/>
<path class="st1" d="M479,109.8l-19.2-5.1"/>
<path class="st1" d="M498.2,114.9l-19.2-5.1"/>
<path class="st1" d="M331.8,111.4l5.1-19.2"/>
<path class="st1" d="M197.2,204.8L197.2,204.8"/>
<path class="st1" d="M198.1,111.2V131"/>
<path class="st1" d="M209.2,218.9v19.8"/>
<path class="st1" d="M468.7,148.1l19.2,5.1"/>
<path class="st1" d="M337,92.2l5.1-19.2"/>
<path class="st1" d="M459.8,104.6l-5.1,19.2"/>
<path class="st1" d="M407.8,90.7l-5.1,19.2"/>
<path class="st1" d="M435.9,139.3l5.1-19.2"/>
<path class="st1" d="M298.6,82l-5.1,19.2"/>
<path class="st1" d="M493,134.1l5.1-19.2"/>
<path class="st1" d="M229.1,258.6h19.8"/>
<path class="st1" d="M446.2,101L427,95.8"/>
<path class="st1" d="M237.8,131.1v-19.8"/>
<path class="st1" d="M416.7,134.2l19.2,5.1"/>
<path class="st1" d="M342.1,73.1L322.9,68"/>
<path class="st1" d="M350.7,95.9l-5.1,19.2"/>
<path class="st1" d="M344.1,170.4l5.1-19.2"/>
<path class="st1" d="M253.6,146.2L253.6,146.2"/>
<path class="st1" d="M453.1,179.1l5.1-19.2"/>
<path class="st1" d="M448,198.3l5.1-19.2"/>
<path class="st1" d="M428.8,193.1l19.2,5.1"/>
<path class="st1" d="M263.8,107.9l-5.1,19.2"/>
<path class="st1" d="M335.2,126.9l-19.2-5.1"/>
<path class="st1" d="M258.7,127l-5.1,19.2"/>
<path class="st1" d="M354.4,132.1l-19.2-5.1"/>
<path class="st1" d="M302.2,118.1L283,113"/>
<path class="st1" d="M324.9,165.3l19.2,5.1"/>
<path class="st1" d="M297,137.3l5.1-19.2"/>
<path class="st1" d="M291.9,156.5l5.1-19.2"/>
<path class="st1" d="M253.6,146.2l19.2,5.1"/>
<path class="st1" d="M310.9,141l-5.1,19.2"/>
<path class="st1" d="M305.8,160.1l19.2,5.1"/>
<path class="st1" d="M272.7,151.3l19.2,5.1"/>
<path class="st1" d="M458.2,160l-19.2-5.1"/>
<path class="st1" d="M449.6,143l19.2,5.1"/>
<path class="st1" d="M349.2,151.2l5.1-19.2"/>
<path class="st1" d="M409.6,188L409.6,188"/>
<path class="st1" d="M316,121.8l-5.1,19.2"/>
<path class="st1" d="M414.8,168.8l-5.1,19.2"/>
<path class="st1" d="M283,113l-19.2-5.1"/>
<path class="st1" d="M419.9,149.7l-5.1,19.2"/>
<path class="st1" d="M439.1,154.8l-19.2-5.1"/>
<path class="st1" d="M409.6,188l19.2,5.1"/>
<path class="st1" d="M305.8,160.1L305.8,160.1"/>
<path class="st1" d="M425.9,283.3l-5.1,19.2"/>
<path class="st1" d="M431,264.2l-5.1,19.2"/>
<path class="st1" d="M420.8,302.5l19.2,5.1"/>
<path class="st1" d="M387.2,140.9l-19.2-5.1"/>
<path class="st1" d="M375.8,234.7l19.2,5.1"/>
<path class="st1" d="M357.8,174.1L357.8,174.1"/>
<path class="st1" d="M362.9,154.9l-5.1,19.2"/>
<path class="st1" d="M368,135.7l-5.1,19.2"/>
<path class="st1" d="M406.4,146l-19.2-5.1"/>
<path class="st1" d="M401.2,165.2l5.1-19.2"/>
<path class="st1" d="M452.2,234.6l5.1-19.2"/>
<path class="st1" d="M257.9,182.5l-5.1,19.2"/>
<path class="st1" d="M348.1,206.7l5.1-19.2"/>
<path class="st1" d="M275.1,222.4l-5.1,19.2"/>
<path class="st1" d="M396.1,184.3l5.1-19.2"/>
<path class="st1" d="M366.9,191.2l-5.1,19.2"/>
<path class="st1" d="M376.9,179.2l19.2,5.1"/>
<path class="st1" d="M357.8,174.1l19.2,5.1"/>
<path class="st1" d="M408.7,243.5L408.7,243.5"/>
<path class="st1" d="M413.8,224.4l-5.1,19.2"/>
<path class="st1" d="M296.3,192.8l5.1-19.2"/>
<path class="st1" d="M419,205.2l-5.1,19.2"/>
<path class="st1" d="M438.1,210.3l-19.2-5.1"/>
<path class="st1" d="M450.2,269.3l-19.2-5.1"/>
<path class="st1" d="M304.6,215.6l19.2,5.1"/>
<path class="st1" d="M457.3,215.5l-19.2-5.1"/>
<path class="st1" d="M447,253.8l5.1-19.2"/>
<path class="st1" d="M427.9,248.7l19.2,5.1"/>
<path class="st1" d="M301.4,173.6l-19.2-5.1"/>
<path class="st1" d="M408.7,243.5l19.2,5.1"/>
<path class="st1" d="M272,206.8l19.2,5.1"/>
<path class="st1" d="M252.8,201.7L252.8,201.7"/>
<path class="st1" d="M405.3,201.5l-19.2-5.1"/>
<path class="st1" d="M263.1,163.4l-5.1,19.2"/>
<path class="st1" d="M252.8,201.7l19.2,5.1"/>
<path class="st1" d="M270,241.5l-5.1,19.2"/>
<path class="st1" d="M334.1,182.4l-19.2-5.1"/>
<path class="st1" d="M323.8,220.8l19.2,5.1"/>
<path class="st1" d="M313.5,232.6l-19.2-5.1"/>
<path class="st1" d="M356.7,229.6L356.7,229.6"/>
<path class="st1" d="M361.8,210.4l-5.1,19.2"/>
<path class="st1" d="M420.8,302.5L420.8,302.5"/>
<path class="st1" d="M439.9,307.6l19.2,5.1"/>
<path class="st1" d="M284,265.8l19.2,5.1"/>
<path class="st1" d="M264.9,260.7L264.9,260.7"/>
<path class="st1" d="M282.2,168.5l-19.2-5.1"/>
<path class="st1" d="M356.7,229.6l19.2,5.1"/>
<path class="st1" d="M314.9,177.3l-5.1,19.2"/>
<path class="st1" d="M264.9,260.7l19.2,5.1"/>
<path class="st1" d="M291.1,212l5.1-19.2"/>
<path class="st1" d="M368.7,288.6L368.7,288.6"/>
<path class="st1" d="M309.8,196.5l-5.1,19.2"/>
<path class="st1" d="M294.3,227.5l-19.2-5.1"/>
<path class="st1" d="M469.4,274.4l-19.2-5.1"/>
<path class="st1" d="M459.1,312.8l5.1-19.2"/>
<path class="st1" d="M304.6,215.6L304.6,215.6"/>
<path class="st1" d="M353.2,187.6l-19.2-5.1"/>
<path class="st1" d="M303.2,271l5.1-19.2"/>
<path class="st1" d="M343,225.9l5.1-19.2"/>
<path class="st1" d="M386.1,196.4l-19.2-5.1"/>
<path class="st1" d="M400.1,220.7l5.1-19.2"/>
<path class="st1" d="M464.2,293.6l5.1-19.2"/>
<path class="st1" d="M395,239.9l5.1-19.2"/>
<path class="st1" d="M308.3,251.8l5.1-19.2"/>
<path class="st1" d="M649.4,234.6l-13.9-52"/>
<path class="st1" d="M556.5,148l13.9,52"/>
<path class="st1" d="M518.4,214l-13.9-52"/>
<path class="st1" d="M672.7,61.1l13.9,52"/>
<path class="st1" d="M622.5,186.1l-13.9-52"/>
<path class="st1" d="M608.6,134l13.9,52"/>
<path class="st1" d="M516.6,102.9l52-13.9"/>
<path class="st1" d="M620.6,75.1l52-13.9"/>
<path class="st1" d="M608.6,134l52-13.9"/>
<path class="st1" d="M622.5,186.1l-52,13.9"/>
<path class="st1" d="M687.5,168.7l13.9,52"/>
<path class="st1" d="M634.6,127.1l-13.9-52"/>
<path class="st1" d="M726.5,158.2l-52,13.9"/>
<path class="st1" d="M620.6,75.1l13.9,52"/>
<path class="st1" d="M582.5,141l-13.9-52"/>
<path class="st1" d="M530.5,155l-13.9-52"/>
<path class="st1" d="M568.6,89l13.9,52"/>
<path class="st1" d="M712.6,106.2l13.9,52"/>
<path class="st1" d="M660.6,120.1l13.9,52"/>
<path class="st1" d="M753.5,206.7l-52,13.9"/>
<path class="st1" d="M583.5,196.5l13.9,52"/>
<path class="st1" d="M795.3,265.7h-53.9"/>
<path class="st1" d="M701.5,220.7l-13.9-52"/>
<path class="st1" d="M724.7,47.2l13.9,52"/>
<path class="st1" d="M556.5,148l52-13.9"/>
<path class="st1" d="M583.5,196.5l52-13.9"/>
<path class="st1" d="M635.5,182.6l13.9,52"/>
<path class="st1" d="M649.4,234.6l-52,13.9"/>
<path class="st1" d="M686.6,113.1l-52,13.9"/>
<path class="st1" d="M504.5,161.9l52-13.9"/>
<path class="st1" d="M687.5,168.7l52-13.9"/>
<path class="st1" d="M674.5,172.1l-13.9-52"/>
<path class="st1" d="M739.5,154.7l13.9,52"/>
<path class="st1" d="M634.6,127.1l-52,13.9"/>
<path class="st1" d="M597.4,248.6l-13.9-52"/>
<path class="st1" d="M582.5,141l-52,13.9"/>
<path class="st1" d="M674.5,172.1l-52,13.9"/>
<path class="st1" d="M635.5,182.6l52-13.9"/>
<path class="st1" d="M701.5,220.7l-52,13.9"/>
<path class="st1" d="M686.6,113.1l-13.9-52"/>
<path class="st1" d="M568.6,89l52-13.9"/>
<path class="st1" d="M672.7,61.1l52-13.9"/>
<path class="st1" d="M738.6,99.2l-52,13.9"/>
<path class="st1" d="M570.5,200l-13.9-52"/>
<path class="st1" d="M570.5,200l-52,13.9"/>
<path class="st1" d="M660.6,120.1l52-13.9"/>
<path class="st1" d="M651.3,241.5l19.2-5.1"/>
<path class="st1" d="M585.2,279.7l-5.1-19.2"/>
<path class="st1" d="M580.1,260.5L580.1,260.5"/>
<path class="st1" d="M632.1,246.6L632.1,246.6"/>
<path class="st1" d="M680.7,274.7l-19.2,5.1"/>
<path class="st1" d="M637.2,265.8l-5.1-19.2"/>
<path class="st1" d="M632.1,246.6l19.2-5.1"/>
<path class="st1" d="M642.4,284.9l-5.1-19.2"/>
<path class="st1" d="M661.5,279.8l-19.2,5.1"/>
<path class="st1" d="M675.6,255.5l5.1,19.2"/>
<path class="st1" d="M670.4,236.3l5.1,19.2"/>
<path class="st1" d="M954.3,131.1v-19.8"/>
<path class="st1" d="M842,292.7v19.8"/>
<path class="st1" d="M531.5,210.5l52-13.9"/>
<path class="st1" d="M623.4,241.6l52-13.9"/>
<path class="st1" d="M545.4,262.5l-13.9-52"/>
<path class="st1" d="M519.4,269.5l52-13.9"/>
<path class="st1" d="M910.1,312.5v-19.8"/>
<path class="st1" d="M533.3,321.5l-13.9-52"/>
<path class="st1" d="M934.4,150.9h19.8"/>
<path class="st1" d="M914.6,150.9h19.8"/>
<path class="st1" d="M954.3,111.2h-19.8"/>
<path class="st1" d="M949.8,292.7v19.8"/>
<path class="st1" d="M842,312.5h-19.8"/>
<path class="st1" d="M822.2,272.8H842"/>
<path class="st1" d="M929.9,272.8h19.8"/>
<path class="st1" d="M597.4,248.6l-52,13.9"/>
<path class="st1" d="M675.5,227.6l52-13.9"/>
<path class="st1" d="M954.3,150.9v-19.8"/>
<path class="st1" d="M637.4,293.6l-13.9-52"/>
<path class="st1" d="M675.5,227.6l13.9,52"/>
<path class="st1" d="M802.4,292.7v-19.8"/>
<path class="st1" d="M689.4,279.7l-52,13.9"/>
<path class="st1" d="M571.4,255.5l52-13.9"/>
<path class="st1" d="M637.4,293.6l-52,13.9"/>
<path class="st1" d="M842,272.8v19.8"/>
<path class="st1" d="M949.8,272.8v19.8"/>
<path class="st1" d="M623.4,241.6l13.9,52"/>
<path class="st1" d="M954.3,111.2L954.3,111.2"/>
<path class="st1" d="M910.1,272.8L910.1,272.8"/>
<path class="st1" d="M585.3,307.5l-52,13.9"/>
<path class="st1" d="M822.2,312.5h-19.8"/>
<path class="st1" d="M914.6,131.1v19.8"/>
<path class="st1" d="M689.4,279.7l-13.9-52"/>
<path class="st1" d="M741.4,265.7l-52,13.9"/>
<path class="st1" d="M571.4,255.5l13.9,52"/>
<path class="st1" d="M727.5,213.7l13.9,52"/>
<path class="st1" d="M934.4,111.2h-19.8"/>
<path class="st1" d="M802.4,312.5v-19.8"/>
<path class="st1" d="M910.1,272.8h19.8"/>
<path class="st1" d="M802.4,272.8h19.8"/>
<path class="st1" d="M929.9,312.5h-19.8"/>
<path class="st1" d="M914.6,111.2V131"/>
<path class="st1" d="M910.1,292.7v-19.8"/>
<path class="st1" d="M802.4,272.8L802.4,272.8"/>
<path class="st1" d="M949.8,312.5H930"/>
<path class="st1" d="M585.3,307.5l-13.9-52"/>
<path class="st1" d="M615.6,83.7l5.1,19.2"/>
<path class="st1" d="M596.5,88.9l19.2-5.1"/>
<path class="st1" d="M700.5,61l19.2-5.1"/>
<path class="st1" d="M748.5,238.8V219"/>
<path class="st1" d="M587.6,132.3L587.6,132.3"/>
<path class="st1" d="M748.5,258.6v-19.8"/>
<path class="st1" d="M729.9,94.2L729.9,94.2"/>
<path class="st1" d="M691.6,104.5l-5.1-19.2"/>
<path class="st1" d="M724.8,75l5.1,19.2"/>
<path class="st1" d="M686.5,85.3l-5.1-19.2"/>
<path class="st1" d="M606.7,127.2l-19.2,5.1"/>
<path class="st1" d="M710.8,99.3l-19.2,5.1"/>
<path class="st1" d="M729.9,94.2l-19.2,5.1"/>
<path class="st1" d="M625.9,122.1l-19.2,5.1"/>
<path class="st1" d="M582.4,113.2L577.3,94"/>
<path class="st1" d="M788.2,258.6h-19.8"/>
<path class="st1" d="M577.3,94l19.2-5.1"/>
<path class="st1" d="M768.3,219h19.8"/>
<path class="st1" d="M748.5,219h19.8"/>
<path class="st1" d="M768.3,258.6h-19.8"/>
<path class="st1" d="M719.7,55.9l5.1,19.2"/>
<path class="st1" d="M681.3,66.1l19.2-5.1"/>
<path class="st1" d="M620.8,102.9l5.1,19.2"/>
<path class="st1" d="M627.5,177.4l-5.1-19.2"/>
<path class="st1" d="M542.6,200.1l-19.2,5.1"/>
<path class="st1" d="M561.8,195l-19.2,5.1"/>
<path class="st1" d="M523.5,205.3L523.5,205.3"/>
<path class="st1" d="M556.7,175.8l5.1,19.2"/>
<path class="st1" d="M513.2,166.9l19.2-5.1"/>
<path class="st1" d="M551.5,156.7l5.1,19.2"/>
<path class="st1" d="M744.8,201.7L744.8,201.7"/>
<path class="st1" d="M532.4,161.8l19.2-5.1"/>
<path class="st1" d="M518.3,186.1l-5.1-19.2"/>
<path class="st1" d="M523.5,205.3l-5.1-19.2"/>
<path class="st1" d="M550.4,253.8L550.4,253.8"/>
<path class="st1" d="M663.3,182.5l19.2-5.1"/>
<path class="st1" d="M644.2,187.6l19.2-5.1"/>
<path class="st1" d="M654.5,225.9l-5.1-19.2"/>
<path class="st1" d="M649.3,206.8l-5.1-19.2"/>
<path class="st1" d="M583.6,224.4l5.1,19.2"/>
<path class="st1" d="M578.5,205.2l5.1,19.2"/>
<path class="st1" d="M540.1,215.5l19.2-5.1"/>
<path class="st1" d="M588.7,243.5l-19.2,5.1"/>
<path class="st1" d="M569.6,248.7l-19.2,5.1"/>
<path class="st1" d="M559.3,210.3l19.2-5.1"/>
<path class="st1" d="M833.1,150.9h-19.8"/>
<path class="st1" d="M793.4,150.9v-19.8"/>
<path class="st1" d="M834.3,165.1h19.8"/>
<path class="st1" d="M779.2,127.8v19.8"/>
<path class="st1" d="M779.2,147.6L779.2,147.6"/>
<path class="st1" d="M854.1,165.1v19.8"/>
<path class="st1" d="M759.4,107.9h19.8"/>
<path class="st1" d="M739.5,107.9h19.8"/>
<path class="st1" d="M739.5,127.8V108"/>
<path class="st1" d="M739.5,147.6v-19.8"/>
<path class="st1" d="M759.4,147.6h-19.8"/>
<path class="st1" d="M814.4,184.9v-19.8"/>
<path class="st1" d="M854.1,204.8L854.1,204.8"/>
<path class="st1" d="M833.1,111.2V131"/>
<path class="st1" d="M813.2,111.2H833"/>
<path class="st1" d="M779.2,107.9v19.8"/>
<path class="st1" d="M854.1,184.9v19.8"/>
<path class="st1" d="M814.4,165.1h19.8"/>
<path class="st1" d="M793.4,111.2h19.8"/>
<path class="st1" d="M793.4,131.1v-19.8"/>
<path class="st1" d="M813.2,150.9h-19.8"/>
<path class="st1" d="M814.4,204.8V185"/>
<path class="st1" d="M779.2,147.6h-19.8"/>
<path class="st1" d="M565.2,153l19.2-5.1"/>
<path class="st1" d="M646.7,172.3l-19.2,5.1"/>
<path class="st1" d="M617.2,139.1l19.2-5.1"/>
<path class="st1" d="M570.3,172.2l-5.1-19.2"/>
<path class="st1" d="M627.5,177.4L627.5,177.4"/>
<path class="st1" d="M575.5,191.3l-5.1-19.2"/>
<path class="st1" d="M665.8,167.1l-19.2,5.1"/>
<path class="st1" d="M655.6,128.8l5.1,19.2"/>
<path class="st1" d="M660.7,148l5.1,19.2"/>
<path class="st1" d="M622.4,158.2l-5.1-19.2"/>
<path class="st1" d="M636.4,133.9l19.2-5.1"/>
<path class="st1" d="M694.4,271l-5.1-19.2"/>
<path class="st1" d="M732.7,260.7l-19.2,5.1"/>
<path class="st1" d="M550.4,253.8l-5.1-19.2"/>
<path class="st1" d="M684.1,232.7l19.2-5.1"/>
<path class="st1" d="M545.3,234.6l-5.1-19.2"/>
<path class="st1" d="M713.6,265.9l-19.2,5.1"/>
<path class="st1" d="M727.6,241.6l5.1,19.2"/>
<path class="st1" d="M684.1,232.7L684.1,232.7"/>
<path class="st1" d="M703.3,227.5l19.2-5.1"/>
<path class="st1" d="M689.3,251.8l-5.1-19.2"/>
<path class="st1" d="M722.5,222.4l5.1,19.2"/>
<path class="st1" d="M346.2,241.4l-19.2-5.1"/>
<path class="st1" d="M956.9,319.6H903"/>
<path class="st1" d="M387.9,293.7l19.2,5.1"/>
<path class="st1" d="M327,236.3L327,236.3"/>
<path class="st1" d="M795.3,265.7h53.9"/>
<path class="st1" d="M360.2,265.7l5.1-19.2"/>
<path class="st1" d="M849.1,319.6h-53.9"/>
<path class="st1" d="M795.3,319.6v-53.9"/>
<path class="st1" d="M903,265.7h53.9"/>
<path class="st1" d="M407.1,298.8l5.1-19.2"/>
<path class="st1" d="M373.9,269.4l-5.1,19.2"/>
<path class="st1" d="M335.9,279.8l19.2,5.1"/>
<path class="st1" d="M379,250.2l-5.1,19.2"/>
<path class="st1" d="M368.7,288.6l19.2,5.1"/>
<path class="st1" d="M894,104.2h80.8"/>
<path class="st1" d="M365.3,246.6l-19.2-5.1"/>
<path class="st1" d="M398.2,255.4l-19.2-5.1"/>
<path class="st1" d="M321.8,255.5l-5.1,19.2"/>
<path class="st1" d="M903,265.7v53.9"/>
<path class="st1" d="M417.3,260.5l-19.2-5.1"/>
<path class="st1" d="M355,284.9l5.1-19.2"/>
<path class="st1" d="M316.7,274.6l19.2,5.1"/>
<path class="st1" d="M903,319.6v-53.9"/>
<path class="st1" d="M903,319.6h-53.9"/>
<path class="st1" d="M849.1,265.7v53.9"/>
<path class="st1" d="M327,236.3l-5.1,19.2"/>
<path class="st1" d="M412.2,279.7l5.1-19.2"/>
<path class="st1" d="M956.9,265.7v53.9"/>
<path class="st1" d="M846.3,104.2h-53.9"/>
<path class="st1" d="M729.3,324.7l-65,17.4"/>
<path class="st1" d="M954,50.3H846.3"/>
<path class="st1" d="M807.3,158h53.9"/>
<path class="st1" d="M738.6,47h53.9"/>
<path class="st1" d="M807.3,211.9V158"/>
<path class="st1" d="M786.3,104.2h53.9"/>
<path class="st1" d="M861.2,158h121.2"/>
<path class="st1" d="M521.3,380.5l-13.9-52"/>
<path class="st1" d="M849.1,265.7v-53.9"/>
<path class="st1" d="M954,50.3v53.9"/>
<path class="st1" d="M507.3,328.5l143.1-38.3"/>
<path class="st1" d="M903,265.7v-53.9"/>
<path class="st1" d="M846.3,104.2H894"/>
<path class="st1" d="M741.4,211.9h53.9"/>
<path class="st1" d="M861.2,158v53.9"/>
<path class="st1" d="M903,211.9v53.9"/>
<path class="st1" d="M732.5,154.7v-53.9"/>
<path class="st1" d="M741.4,265.7v-53.9"/>
<path class="st1" d="M715.4,272.7l13.9,52"/>
<path class="st1" d="M982.4,158v53.9"/>
<path class="st1" d="M664.3,342.1l-13.9-52"/>
<path class="st1" d="M970.3,211.9v53.9"/>
<path class="st1" d="M650.4,290.1l13.9,52"/>
<path class="st1" d="M974.8,158v-53.9"/>
<path class="st1" d="M894,104.2V158"/>
<path class="st1" d="M738.6,100.9V47"/>
<path class="st1" d="M753.5,211.9V158"/>
<path class="st1" d="M970.3,265.7H903"/>
<path class="st1" d="M861.2,211.9h-53.9"/>
<path class="st1" d="M786.3,158v-53.9"/>
<path class="st1" d="M840.2,104.2V158"/>
<path class="st1" d="M786.3,100.9v53.9"/>
<path class="st1" d="M849.1,265.7h-53.9"/>
<path class="st1" d="M807.3,158v53.9"/>
<path class="st1" d="M795.3,211.9h53.9"/>
<path class="st1" d="M840.2,158h-53.9"/>
<path class="st1" d="M786.3,154.7h-53.9"/>
<path class="st1" d="M807.3,211.9h-53.9"/>
<path class="st1" d="M846.3,50.3v53.9"/>
<path class="st1" d="M795.3,265.7v-53.9"/>
<path class="st1" d="M894,104.2h-53.9"/>
<path class="st1" d="M846.3,50.3v53.9"/>
<path class="st1" d="M732.5,100.9h53.9"/>
<path class="st1" d="M840.2,104.2V158"/>
<path class="st1" d="M840.2,158H894"/>
<path class="st1" d="M792.5,100.9h-53.9"/>
<path class="st1" d="M650.4,290.1l65-17.4"/>
<path class="st1" d="M982.4,211.9H861.2"/>
<path class="st1" d="M795.3,211.9v53.9"/>
<path class="st1" d="M849.1,265.7H903"/>
<path class="st1" d="M849.1,319.6v-53.9"/>
<path class="st1" d="M894,158h80.8"/>
<path class="st1" d="M792.5,47v53.9"/>
<path class="st1" d="M753.5,158h53.9"/>
<path class="st1" d="M903,265.7h-53.9"/>
<path class="st1" d="M664.3,342.1l-143.1,38.3"/>
<path class="st1" d="M861.2,211.9V158"/>
<path class="st1" d="M849.1,211.9H903"/>
<path class="st1" d="M903,211.9h67.3"/>
<path class="st1" d="M792.5,50.3h53.9"/>
<path class="st1" d="M792.5,104.2V50.3"/>
<path class="st1" d="M849.1,211.9v53.9"/>
<path class="st1" d="M894,158v-53.9"/>
<path class="st1" d="M566.4,264.2l5.1,19.2"/>
<path class="st1" d="M547.2,269.3l19.2-5.1"/>
<path class="st1" d="M528.1,274.5l19.2-5.1"/>
<path class="st1" d="M576.7,302.5l-19.2,5.1"/>
<path class="st1" d="M571.5,283.4l5.1,19.2"/>
<path class="st1" d="M833.1,150.9L833.1,150.9"/>
<path class="st1" d="M819.4,57.4h19.8"/>
<path class="st1" d="M956.5,238.8v19.8"/>
<path class="st1" d="M956.5,219v19.8"/>
<path class="st1" d="M936.7,219h19.8"/>
<path class="st1" d="M847.3,150.9v-19.8"/>
<path class="st1" d="M916.8,219h19.8"/>
<path class="st1" d="M916.8,238.8V219"/>
<path class="st1" d="M920,77.2V97"/>
<path class="st1" d="M867.1,111.2h19.8"/>
<path class="st1" d="M839.2,57.4v19.8"/>
<path class="st1" d="M785.4,54.1v19.8"/>
<path class="st1" d="M956.5,258.6h-19.8"/>
<path class="st1" d="M839.2,77.2V97"/>
<path class="st1" d="M847.3,111.2h19.8"/>
<path class="st1" d="M886.9,131.1v19.8"/>
<path class="st1" d="M880.4,77.2V57.4"/>
<path class="st1" d="M765.5,54.1h19.8"/>
<path class="st1" d="M745.7,54.1h19.8"/>
<path class="st1" d="M920,97.1h-19.8"/>
<path class="st1" d="M839.2,97.1L839.2,97.1"/>
<path class="st1" d="M819.4,97.1h-19.8"/>
<path class="st1" d="M839.2,97.1h-19.8"/>
<path class="st1" d="M785.4,73.9v19.8"/>
<path class="st1" d="M745.7,93.8V73.9"/>
<path class="st1" d="M886.9,150.9L886.9,150.9"/>
<path class="st1" d="M916.8,258.6v-19.8"/>
<path class="st1" d="M936.7,258.6h-19.8"/>
<path class="st1" d="M799.6,57.4h19.8"/>
<path class="st1" d="M765.5,93.8h-19.8"/>
<path class="st1" d="M920,57.4v19.8"/>
<path class="st1" d="M920,97.1L920,97.1"/>
<path class="st1" d="M847.3,131.1v-19.8"/>
<path class="st1" d="M900.2,57.4H920"/>
<path class="st1" d="M880.4,57.4h19.8"/>
<path class="st1" d="M900.2,97.1h-19.8"/>
<path class="st1" d="M880.4,97.1V77.2"/>
<path class="st1" d="M799.6,97.1V77.2"/>
<path class="st1" d="M785.4,93.8L785.4,93.8"/>
<path class="st1" d="M886.9,111.2V131"/>
<path class="st1" d="M867.1,150.9h-19.8"/>
<path class="st1" d="M886.9,150.9h-19.8"/>
<path class="st1" d="M833.1,131.1v19.8"/>
<path class="st1" d="M785.4,93.8h-19.8"/>
<path class="st1" d="M799.6,77.2V57.4"/>
<path class="st1" d="M745.7,73.9V54.1"/>
<path class="st1" d="M688.4,120l19.2-5.1"/>
<path class="st1" d="M667.6,69.8l5.1,19.2"/>
<path class="st1" d="M648.5,74.9l19.2-5.1"/>
<path class="st1" d="M639.6,118.4l-5.1-19.2"/>
<path class="st1" d="M535.5,146.3l-5.1-19.2"/>
<path class="st1" d="M530.4,127.1l-5.1-19.2"/>
<path class="st1" d="M639.6,118.4L639.6,118.4"/>
<path class="st1" d="M587.6,132.3l-5.1-19.2"/>
<path class="st1" d="M658.7,113.3l-19.2,5.1"/>
<path class="st1" d="M672.8,89l5.1,19.2"/>
<path class="st1" d="M573.9,136l-19.2,5.1"/>
<path class="st1" d="M568.7,116.8l5.1,19.2"/>
<path class="st1" d="M544.4,102.8l19.2-5.1"/>
<path class="st1" d="M707.6,114.9l5.1,19.2"/>
<path class="st1" d="M717.9,153.2L717.9,153.2"/>
<path class="st1" d="M525.3,107.9l19.2-5.1"/>
<path class="st1" d="M535.5,146.3L535.5,146.3"/>
<path class="st1" d="M712.7,134l5.1,19.2"/>
<path class="st1" d="M554.7,141.1l-19.2,5.1"/>
<path class="st1" d="M677.9,108.1l-19.2,5.1"/>
<path class="st1" d="M629.3,80.1l19.2-5.1"/>
<path class="st1" d="M634.4,99.2L629.3,80"/>
<path class="st1" d="M563.6,97.7l5.1,19.2"/>
<path class="st1" d="M640.8,229.6l-19.2,5.1"/>
<path class="st1" d="M696.2,173.7l19.2-5.1"/>
<path class="st1" d="M744.8,201.7l-19.2,5.1"/>
<path class="st1" d="M701.3,192.8l-5.1-19.2"/>
<path class="st1" d="M706.5,212l-5.1-19.2"/>
<path class="st1" d="M602.4,239.9L602.4,239.9"/>
<path class="st1" d="M725.6,206.9l-19.2,5.1"/>
<path class="st1" d="M621.6,234.7l-19.2,5.1"/>
<path class="st1" d="M739.7,182.6l5.1,19.2"/>
<path class="st1" d="M734.5,163.4l5.1,19.2"/>
<path class="st1" d="M715.4,168.5l19.2-5.1"/>
<path class="st1" d="M800.3,184.9v19.8"/>
<path class="st1" d="M788.2,258.6L788.2,258.6"/>
<path class="st1" d="M788.2,219v19.8"/>
<path class="st1" d="M842,258.6L842,258.6"/>
<path class="st1" d="M842,258.6h-19.8"/>
<path class="st1" d="M760.6,165.1h19.8"/>
<path class="st1" d="M802.4,258.6v-19.8"/>
<path class="st1" d="M760.6,204.8V185"/>
<path class="st1" d="M800.3,204.8h-19.8"/>
<path class="st1" d="M822.2,258.6h-19.8"/>
<path class="st1" d="M800.3,165.1v19.8"/>
<path class="st1" d="M834.3,204.8h-19.8"/>
<path class="st1" d="M854.1,204.8h-19.8"/>
<path class="st1" d="M822.2,219H842"/>
<path class="st1" d="M780.4,165.1h19.8"/>
<path class="st1" d="M760.6,184.9v-19.8"/>
<path class="st1" d="M802.4,238.8V219"/>
<path class="st1" d="M780.4,204.8h-19.8"/>
<path class="st1" d="M842,219v19.8"/>
<path class="st1" d="M788.2,238.8v19.8"/>
<path class="st1" d="M802.4,219h19.8"/>
<path class="st1" d="M800.3,204.8L800.3,204.8"/>
<path class="st1" d="M842,238.8v19.8"/>
<path class="st2" d="M0.2,45.5h997"/>
<path class="st2" d="M0.2,313.9V45.5"/>
<path class="st2" d="M476.4,380.6L0.2,313.9"/>
<path class="st2" d="M521.3,380.5L997.4,314"/>
<path class="st2" d="M997.4,314l-0.3-268.5"/>
<path class="st2" d="M476.4,380.6l45-0.1"/>
</svg>
