0
SECTION
2
HEADER
9
$INSUNITS
70
4
9
$ACADVER
1
AC1014
9
$HANDSEED
5
FFFF
0
ENDSEC
0
SECTION
2
TABLES
0
TABLE
2
VPORT
5
8
100
AcDbSymbolTable
0
ENDTAB
0
TABLE
2
LTYPE
5
5
100
AcDbSymbolTable
0
LTYPE
5
14
100
AcDbSymbolTableRecord
100
AcDbLinetypeTableRecord
2
BYBLOCK
70
0
0
LTYPE
5
15
100
AcDbSymbolTableRecord
100
AcDbLinetypeTableRecord
2
BYLAYER
70
0
0
ENDTAB
0
TABLE
2
LAYER
5
2
100
AcDbSymbolTable
70
2
0
LAYER
5
50
100
AcDbSymbolTableRecord
100
AcDbLayerTableRecord
2
0
70
0
6
CONTINUOUS
0
ENDTAB
0
TABLE
2
STYLE
5
3
100
AcDbSymbolTable
70
1
0
STYLE
5
11
100
AcDbSymbolTableRecord
100
AcDbTextStyleTableRecord
2
STANDARD
70
0
0
ENDTAB
0
TABLE
2
VIEW
5
6
100
AcDbSymbolTable
70
0
0
ENDTAB
0
TABLE
2
UCS
5
7
100
AcDbSymbolTable
70
0
0
ENDTAB
0
TABLE
2
APPID
5
9
100
AcDbSymbolTable
70
2
0
APPID
5
12
100
AcDbSymbolTableRecord
100
AcDbRegAppTableRecord
2
ACAD
70
0
0
ENDTAB
0
TABLE
2
DIMSTYLE
5
A
100
AcDbSymbolTable
70
1
0
ENDTAB
0
TABLE
2
BLOCK_RECORD
5
1
100
AcDbSymbolTable
70
1
0
BLOCK_RECORD
5
1F
100
AcDbSymbolTableRecord
100
AcDbBlockTableRecord
2
*MODEL_SPACE
0
BLOCK_RECORD
5
1B
100
AcDbSymbolTableRecord
100
AcDbBlockTableRecord
2
*PAPER_SPACE
0
ENDTAB
0
ENDSEC
0
SECTION
2
BLOCKS
0
BLOCK
5
20
100
AcDbEntity
100
AcDbBlockBegin
2
*MODEL_SPACE
0
ENDBLK
5
21
100
AcDbEntity
100
AcDbBlockEnd
0
BLOCK
5
1C
100
AcDbEntity
100
AcDbBlockBegin
2
*PAPER_SPACE
0
ENDBLK
5
1D
100
AcDbEntity
100
AcDbBlockEnd
0
ENDSEC
0
SECTION
2
ENTITIES
0
LWPOLYLINE
5
100
100
AcDbEntity
8
0
100
AcDbPolyline
90
6
70
1
43
0.0
10
0.07055555658926238
20
23.565563535086103
10
0.070555556589297908
20
118.25111691378559
10
351.79000421842193
20
118.25111691378559
10
351.8605640803292
20
23.530283604132478
10
183.90307273505721
20
0.070561387775183171
10
168.06333113813281
20
0.035281456821554258
0
LINE
5
101
100
AcDbEntity
8
0
100
AcDbLine
10
9.1512379254565275
20
126.6511169137837
30
0
11
9.1512379254566802
21
118.25111691378559
31
0
0
LINE
5
102
100
AcDbEntity
8
0
100
AcDbLine
10
9.1512379254566802
20
118.25111691378559
30
0
11
0.070555556589280144
21
118.25111691378559
31
0
0
LINE
5
103
100
AcDbEntity
8
0
100
AcDbLine
10
0.070555556589280144
20
118.25111691378559
30
0
11
0.070555556589118884
21
126.65111691378357
31
0
0
LINE
5
104
100
AcDbEntity
8
0
100
AcDbLine
10
0.070555556589118884
20
126.65111691378357
30
0
11
9.1512379254565275
21
126.6511169137837
31
0
0
LINE
5
105
100
AcDbEntity
8
0
100
AcDbLine
10
5.8810673332397432
20
120.25111691378518
30
0
11
7.1512379254565985
21
122.4511169137846
31
0
0
LINE
5
106
100
AcDbEntity
8
0
100
AcDbLine
10
7.1512379254565985
20
122.4511169137846
30
0
11
5.8810673332397734
21
124.65111691378402
31
0
0
LINE
5
107
100
AcDbEntity
8
0
100
AcDbLine
10
5.8810673332397734
20
124.65111691378402
30
0
11
3.3407261488060973
21
124.65111691378404
31
0
0
LINE
5
108
100
AcDbEntity
8
0
100
AcDbLine
10
3.3407261488060973
20
124.65111691378404
30
0
11
2.0705555565892428
21
122.45111691378463
31
0
0
LINE
5
109
100
AcDbEntity
8
0
100
AcDbLine
10
2.0705555565892428
20
122.45111691378463
30
0
11
3.3407261488060644
21
120.2511169137852
31
0
0
LINE
5
110
100
AcDbEntity
8
0
100
AcDbLine
10
3.3407261488060644
20
120.2511169137852
30
0
11
5.8810673332397432
21
120.25111691378518
31
0
0
LINE
5
111
100
AcDbEntity
8
0
100
AcDbLine
10
3.3407261488060973
20
124.65111691378404
30
0
11
0.070555556589118884
21
126.65111691378357
31
0
0
LINE
5
112
100
AcDbEntity
8
0
100
AcDbLine
10
5.8810673332397432
20
120.25111691378518
30
0
11
9.1512379254566802
21
118.25111691378559
31
0
0
LINE
5
113
100
AcDbEntity
8
0
100
AcDbLine
10
5.8810673332397734
20
124.65111691378402
30
0
11
9.1512379254565275
21
126.6511169137837
31
0
0
LINE
5
114
100
AcDbEntity
8
0
100
AcDbLine
10
3.3407261488060644
20
120.2511169137852
30
0
11
0.070555556589280144
21
118.25111691378559
31
0
0
LINE
5
115
100
AcDbEntity
8
0
100
AcDbLine
10
91.540758906481614
20
120.25111691378493
30
0
11
94.810929498699252
21
118.25111691378559
31
0
0
LINE
5
116
100
AcDbEntity
8
0
100
AcDbLine
10
89.000417722047871
20
124.65111691378431
30
0
11
87.730247129830801
21
122.45111691378472
31
0
0
LINE
5
117
100
AcDbEntity
8
0
100
AcDbLine
10
89.000417722047871
20
124.65111691378431
30
0
11
85.730247129830389
21
126.65111691378384
31
0
0
LINE
5
118
100
AcDbEntity
8
0
100
AcDbLine
10
89.000417722047715
20
120.25111691378504
30
0
11
85.730247129830218
21
118.25111691378559
31
0
0
LINE
5
119
100
AcDbEntity
8
0
100
AcDbLine
10
91.540758906481614
20
120.25111691378493
30
0
11
92.810929498698655
21
122.45111691378452
31
0
0
LINE
5
120
100
AcDbEntity
8
0
100
AcDbLine
10
91.540758906481784
20
124.65111691378419
30
0
11
94.810929498699295
21
126.6511169137836
31
0
0
LINE
5
121
100
AcDbEntity
8
0
100
AcDbLine
10
85.730247129830389
20
126.65111691378384
30
0
11
94.810929498699295
21
126.6511169137836
31
0
0
LINE
5
122
100
AcDbEntity
8
0
100
AcDbLine
10
85.730247129830218
20
118.25111691378559
30
0
11
85.730247129830389
21
126.65111691378384
31
0
0
LINE
5
123
100
AcDbEntity
8
0
100
AcDbLine
10
94.810929498699252
20
118.25111691378559
30
0
11
85.730247129830218
21
118.25111691378559
31
0
0
LINE
5
124
100
AcDbEntity
8
0
100
AcDbLine
10
87.730247129830801
20
122.45111691378472
30
0
11
89.000417722047715
21
120.25111691378504
31
0
0
LINE
5
125
100
AcDbEntity
8
0
100
AcDbLine
10
94.810929498699295
20
126.6511169137836
30
0
11
94.810929498699252
21
118.25111691378559
31
0
0
LINE
5
126
100
AcDbEntity
8
0
100
AcDbLine
10
89.000417722047715
20
120.25111691378504
30
0
11
91.540758906481614
21
120.25111691378493
31
0
0
LINE
5
127
100
AcDbEntity
8
0
100
AcDbLine
10
91.540758906481784
20
124.65111691378419
30
0
11
89.000417722047871
21
124.65111691378431
31
0
0
LINE
5
128
100
AcDbEntity
8
0
100
AcDbLine
10
92.810929498698655
20
122.45111691378452
30
0
11
91.540758906481784
21
124.65111691378419
31
0
0
LINE
5
129
100
AcDbEntity
8
0
100
AcDbLine
10
177.20045047972303
20
120.25111691378538
30
0
11
180.47062107194023
21
118.25111691378559
31
0
0
LINE
5
130
100
AcDbEntity
8
0
100
AcDbLine
10
174.66010929528863
20
124.65111691378553
30
0
11
173.38993870307144
21
122.45111691378548
31
0
0
LINE
5
131
100
AcDbEntity
8
0
100
AcDbLine
10
174.66010929528863
20
124.65111691378553
30
0
11
171.38993870307144
21
126.65111691378539
31
0
0
LINE
5
132
100
AcDbEntity
8
0
100
AcDbLine
10
174.66010929528858
20
120.25111691378541
30
0
11
171.38993870307144
21
118.25111691378559
31
0
0
LINE
5
133
100
AcDbEntity
8
0
100
AcDbLine
10
177.20045047972303
20
120.25111691378538
30
0
11
178.47062107194023
21
122.45111691378543
31
0
0
LINE
5
134
100
AcDbEntity
8
0
100
AcDbLine
10
177.20045047972306
20
124.65111691378551
30
0
11
180.47062107194017
21
126.65111691378542
31
0
0
LINE
5
135
100
AcDbEntity
8
0
100
AcDbLine
10
171.38993870307144
20
126.65111691378539
30
0
11
180.47062107194017
21
126.65111691378542
31
0
0
LINE
5
136
100
AcDbEntity
8
0
100
AcDbLine
10
171.38993870307144
20
118.25111691378559
30
0
11
171.38993870307144
21
126.65111691378539
31
0
0
LINE
5
137
100
AcDbEntity
8
0
100
AcDbLine
10
180.47062107194023
20
118.25111691378559
30
0
11
171.38993870307144
21
118.25111691378559
31
0
0
LINE
5
138
100
AcDbEntity
8
0
100
AcDbLine
10
173.38993870307144
20
122.45111691378548
30
0
11
174.66010929528858
21
120.25111691378541
31
0
0
LINE
5
139
100
AcDbEntity
8
0
100
AcDbLine
10
180.47062107194017
20
126.65111691378542
30
0
11
180.47062107194023
21
118.25111691378559
31
0
0
LINE
5
140
100
AcDbEntity
8
0
100
AcDbLine
10
174.66010929528858
20
120.25111691378541
30
0
11
177.20045047972303
21
120.25111691378538
31
0
0
LINE
5
141
100
AcDbEntity
8
0
100
AcDbLine
10
177.20045047972306
20
124.65111691378551
30
0
11
174.66010929528863
21
124.65111691378553
31
0
0
LINE
5
142
100
AcDbEntity
8
0
100
AcDbLine
10
178.47062107194023
20
122.45111691378543
30
0
11
177.20045047972306
21
124.65111691378551
31
0
0
LINE
5
143
100
AcDbEntity
8
0
100
AcDbLine
10
348.51983362620479
20
120.25111691378576
30
0
11
351.79000421842193
21
118.25111691378559
31
0
0
LINE
5
144
100
AcDbEntity
8
0
100
AcDbLine
10
345.97949244177039
20
124.6511169137858
30
0
11
344.70932184955325
21
122.45111691378577
31
0
0
LINE
5
145
100
AcDbEntity
8
0
100
AcDbLine
10
345.97949244177039
20
124.6511169137858
30
0
11
342.70932184955319
21
126.65111691378581
31
0
0
LINE
5
146
100
AcDbEntity
8
0
100
AcDbLine
10
345.97949244177039
20
120.25111691378578
30
0
11
342.70932184955319
21
118.25111691378559
31
0
0
LINE
5
147
100
AcDbEntity
8
0
100
AcDbLine
10
348.51983362620479
20
120.25111691378576
30
0
11
349.79000421842193
21
122.4511169137858
31
0
0
LINE
5
148
100
AcDbEntity
8
0
100
AcDbLine
10
348.51983362620473
20
124.65111691378578
30
0
11
351.79000421842204
21
126.65111691378578
31
0
0
LINE
5
149
100
AcDbEntity
8
0
100
AcDbLine
10
342.70932184955319
20
126.65111691378581
30
0
11
351.79000421842204
21
126.65111691378578
31
0
0
LINE
5
150
100
AcDbEntity
8
0
100
AcDbLine
10
342.70932184955319
20
118.25111691378559
30
0
11
342.70932184955319
21
126.65111691378581
31
0
0
LINE
5
151
100
AcDbEntity
8
0
100
AcDbLine
10
351.79000421842193
20
118.25111691378559
30
0
11
342.70932184955319
21
118.25111691378559
31
0
0
LINE
5
152
100
AcDbEntity
8
0
100
AcDbLine
10
344.70932184955325
20
122.45111691378577
30
0
11
345.97949244177039
21
120.25111691378578
31
0
0
LINE
5
153
100
AcDbEntity
8
0
100
AcDbLine
10
351.79000421842204
20
126.65111691378578
30
0
11
351.79000421842193
21
118.25111691378559
31
0
0
LINE
5
154
100
AcDbEntity
8
0
100
AcDbLine
10
345.97949244177039
20
120.25111691378578
30
0
11
348.51983362620479
21
120.25111691378576
31
0
0
LINE
5
155
100
AcDbEntity
8
0
100
AcDbLine
10
348.51983362620473
20
124.65111691378578
30
0
11
345.97949244177039
21
124.6511169137858
31
0
0
LINE
5
156
100
AcDbEntity
8
0
100
AcDbLine
10
349.79000421842193
20
122.4511169137858
30
0
11
348.51983362620473
21
124.65111691378578
31
0
0
LINE
5
157
100
AcDbEntity
8
0
100
AcDbLine
10
262.86014205296289
20
120.25111691378548
30
0
11
266.13031264518037
21
118.25111691378559
31
0
0
LINE
5
158
100
AcDbEntity
8
0
100
AcDbLine
10
260.31980086852764
20
124.65111691378696
30
0
11
259.04963027631004
21
122.45111691378625
31
0
0
LINE
5
159
100
AcDbEntity
8
0
100
AcDbLine
10
260.31980086852764
20
124.65111691378696
30
0
11
257.04963027631027
21
126.65111691378701
31
0
0
LINE
5
160
100
AcDbEntity
8
0
100
AcDbLine
10
260.31980086852769
20
120.25111691378549
30
0
11
257.04963027631072
21
118.25111691378559
31
0
0
LINE
5
161
100
AcDbEntity
8
0
100
AcDbLine
10
262.86014205296289
20
120.25111691378548
30
0
11
264.13031264518042
21
122.45111691378622
31
0
0
LINE
5
162
100
AcDbEntity
8
0
100
AcDbLine
10
262.86014205296289
20
124.65111691378698
30
0
11
266.13031264517957
21
126.65111691378728
31
0
0
LINE
5
163
100
AcDbEntity
8
0
100
AcDbLine
10
257.04963027631027
20
126.65111691378701
30
0
11
266.13031264517957
21
126.65111691378728
31
0
0
LINE
5
164
100
AcDbEntity
8
0
100
AcDbLine
10
257.04963027631072
20
118.25111691378559
30
0
11
257.04963027631027
21
126.65111691378701
31
0
0
LINE
5
165
100
AcDbEntity
8
0
100
AcDbLine
10
266.13031264518037
20
118.25111691378559
30
0
11
257.04963027631072
21
118.25111691378559
31
0
0
LINE
5
166
100
AcDbEntity
8
0
100
AcDbLine
10
259.04963027631004
20
122.45111691378625
30
0
11
260.31980086852769
21
120.25111691378549
31
0
0
LINE
5
167
100
AcDbEntity
8
0
100
AcDbLine
10
266.13031264517957
20
126.65111691378728
30
0
11
266.13031264518037
21
118.25111691378559
31
0
0
LINE
5
168
100
AcDbEntity
8
0
100
AcDbLine
10
260.31980086852769
20
120.25111691378549
30
0
11
262.86014205296289
21
120.25111691378548
31
0
0
LINE
5
169
100
AcDbEntity
8
0
100
AcDbLine
10
262.86014205296289
20
124.65111691378698
30
0
11
260.31980086852764
21
124.65111691378696
31
0
0
LINE
5
170
100
AcDbEntity
8
0
100
AcDbLine
10
264.13031264518042
20
122.45111691378622
30
0
11
262.86014205296289
21
124.65111691378698
31
0
0
LINE
5
171
100
AcDbEntity
8
0
100
AcDbLine
10
4.9371307093926191
20
16.421440538613894
30
0
11
7.8982609831137198
21
13.987159699381408
31
0
0
LINE
5
172
100
AcDbEntity
8
0
100
AcDbLine
10
3.0316858303103622
20
21.131282695853621
30
0
11
1.4686255720886721
21
19.128740321145589
31
0
0
LINE
5
173
100
AcDbEntity
8
0
100
AcDbLine
10
3.0316858303103622
20
21.131282695853621
30
0
11
0.07055555658926238
21
23.565563535086106
31
0
0
LINE
5
174
100
AcDbEntity
8
0
100
AcDbLine
10
2.4213480116297994
20
16.773819242525722
30
0
11
-1.0946348245281738
21
15.246769669641946
31
0
0
LINE
5
175
100
AcDbEntity
8
0
100
AcDbLine
10
4.9371307093926191
20
16.421440538613894
30
0
11
6.5001909676143104
21
18.423982913321929
31
0
0
LINE
5
176
100
AcDbEntity
8
0
100
AcDbLine
10
5.5474685280731819
20
20.778903991941789
30
0
11
9.0634513642311632
21
22.305953564825547
31
0
0
LINE
5
177
100
AcDbEntity
8
0
100
AcDbLine
10
0.07055555658926238
20
23.565563535086106
30
0
11
9.0634513642311632
21
22.305953564825547
31
0
0
LINE
5
178
100
AcDbEntity
8
0
100
AcDbLine
10
-1.0946348245281738
20
15.246769669641946
30
0
11
0.07055555658926238
21
23.565563535086106
31
0
0
LINE
5
179
100
AcDbEntity
8
0
100
AcDbLine
10
7.8982609831137198
20
13.987159699381408
30
0
11
-1.0946348245281738
21
15.246769669641946
31
0
0
LINE
5
180
100
AcDbEntity
8
0
100
AcDbLine
10
1.4686255720886721
20
19.128740321145589
30
0
11
2.4213480116297994
21
16.773819242525722
31
0
0
LINE
5
181
100
AcDbEntity
8
0
100
AcDbLine
10
9.0634513642311632
20
22.305953564825547
30
0
11
7.8982609831137198
21
13.987159699381408
31
0
0
LINE
5
182
100
AcDbEntity
8
0
100
AcDbLine
10
2.4213480116297994
20
16.773819242525722
30
0
11
4.9371307093926191
21
16.421440538613894
31
0
0
LINE
5
183
100
AcDbEntity
8
0
100
AcDbLine
10
5.5474685280731819
20
20.778903991941789
30
0
11
3.0316858303103622
21
21.131282695853621
31
0
0
LINE
5
184
100
AcDbEntity
8
0
100
AcDbLine
10
6.5001909676143104
20
18.423982913321929
30
0
11
5.5474685280731819
21
20.778903991941789
31
0
0
LINE
5
185
100
AcDbEntity
8
0
100
AcDbLine
10
91.177418862905512
20
4.3420026000579428
30
0
11
94.138549136626594
21
1.907721760825241
31
0
0
LINE
5
186
100
AcDbEntity
8
0
100
AcDbLine
10
89.271973983823344
20
9.0518447572977045
30
0
11
87.708913725601633
21
7.0493023825897083
31
0
0
LINE
5
187
100
AcDbEntity
8
0
100
AcDbLine
10
89.271973983823344
20
9.0518447572977045
30
0
11
86.310843710102233
21
11.486125596530364
31
0
0
LINE
5
188
100
AcDbEntity
8
0
100
AcDbLine
10
88.66163616514271
20
4.694381303969827
30
0
11
85.145653328984778
21
3.1673317310857731
31
0
0
LINE
5
189
100
AcDbEntity
8
0
100
AcDbLine
10
91.177418862905512
20
4.3420026000579428
30
0
11
92.740479121127265
21
6.3445449747659399
31
0
0
LINE
5
190
100
AcDbEntity
8
0
100
AcDbLine
10
91.78775668158616
20
8.6994660533858212
30
0
11
95.303739517744106
21
10.226515626269812
31
0
0
LINE
5
191
100
AcDbEntity
8
0
100
AcDbLine
10
86.310843710102233
20
11.486125596530364
30
0
11
95.303739517744106
21
10.226515626269812
31
0
0
LINE
5
192
100
AcDbEntity
8
0
100
AcDbLine
10
85.145653328984778
20
3.1673317310857731
30
0
11
86.310843710102233
21
11.486125596530364
31
0
0
LINE
5
193
100
AcDbEntity
8
0
100
AcDbLine
10
94.138549136626594
20
1.907721760825241
30
0
11
85.145653328984778
21
3.1673317310857731
31
0
0
LINE
5
194
100
AcDbEntity
8
0
100
AcDbLine
10
87.708913725601633
20
7.0493023825897083
30
0
11
88.66163616514271
21
4.694381303969827
31
0
0
LINE
5
195
100
AcDbEntity
8
0
100
AcDbLine
10
95.303739517744106
20
10.226515626269812
30
0
11
94.138549136626594
21
1.907721760825241
31
0
0
LINE
5
196
100
AcDbEntity
8
0
100
AcDbLine
10
88.66163616514271
20
4.694381303969827
30
0
11
91.177418862905512
21
4.3420026000579428
31
0
0
LINE
5
197
100
AcDbEntity
8
0
100
AcDbLine
10
91.78775668158616
20
8.6994660533858212
30
0
11
89.271973983823344
21
9.0518447572977045
31
0
0
LINE
5
198
100
AcDbEntity
8
0
100
AcDbLine
10
92.740479121127265
20
6.3445449747659399
30
0
11
91.78775668158616
21
8.6994660533858212
31
0
0
LINE
5
199
100
AcDbEntity
8
0
100
AcDbLine
10
177.26768993386611
20
-6.344278982329473
30
0
11
180.54229715236474
21
-8.3370065770491895
31
0
0
LINE
5
200
100
AcDbEntity
8
0
100
AcDbLine
10
174.71757667882554
20
-1.9499353772164585
30
0
11
173.4522983950929
21
-4.1527527091910201
31
0
0
LINE
5
201
100
AcDbEntity
8
0
100
AcDbLine
10
174.71757667882554
20
-1.9499353772164585
30
0
11
171.44296946032699
21
0.042792217503425461
31
0
0
LINE
5
202
100
AcDbEntity
8
0
100
AcDbLine
10
174.72735502261318
20
-6.3499245117475223
30
0
11
171.46163720755771
21
-8.357187039328597
31
0
0
LINE
5
203
100
AcDbEntity
8
0
100
AcDbLine
10
177.26768993386611
20
-6.344278982329473
30
0
11
178.53296821759872
21
-4.1414616503549206
31
0
0
LINE
5
204
100
AcDbEntity
8
0
100
AcDbLine
10
177.25791159007841
20
-1.9442898477984192
30
0
11
180.52362940513362
21
0.062972679783089097
31
0
0
LINE
5
205
100
AcDbEntity
8
0
100
AcDbLine
10
171.44296946032699
20
0.042792217503425461
30
0
11
180.52362940513362
21
0.062972679783089097
31
0
0
LINE
5
206
100
AcDbEntity
8
0
100
AcDbLine
10
171.46163720755771
20
-8.357187039328597
30
0
11
171.44296946032699
21
0.042792217503425461
31
0
0
LINE
5
207
100
AcDbEntity
8
0
100
AcDbLine
10
180.54229715236474
20
-8.3370065770491895
30
0
11
171.46163720755771
21
-8.357187039328597
31
0
0
LINE
5
208
100
AcDbEntity
8
0
100
AcDbLine
10
173.4522983950929
20
-4.1527527091910201
30
0
11
174.72735502261318
21
-6.3499245117475223
31
0
0
LINE
5
209
100
AcDbEntity
8
0
100
AcDbLine
10
180.52362940513362
20
0.062972679783089097
30
0
11
180.54229715236474
21
-8.3370065770491895
31
0
0
LINE
5
210
100
AcDbEntity
8
0
100
AcDbLine
10
174.72735502261318
20
-6.3499245117475223
30
0
11
177.26768993386611
21
-6.344278982329473
31
0
0
LINE
5
211
100
AcDbEntity
8
0
100
AcDbLine
10
177.25791159007841
20
-1.9442898477984192
30
0
11
174.71757667882554
21
-1.9499353772164585
31
0
0
LINE
5
212
100
AcDbEntity
8
0
100
AcDbLine
10
178.53296821759872
20
-4.1414616503549206
30
0
11
177.25791159007841
21
-1.9442898477984192
31
0
0
LINE
5
213
100
AcDbEntity
8
0
100
AcDbLine
10
268.34321252306734
20
5.4027409868573386
30
0
11
271.85860993370852
21
3.874344196953543
31
0
0
LINE
5
214
100
AcDbEntity
8
0
100
AcDbLine
10
265.2186269896373
20
9.4090233755101345
30
0
11
264.26500221134108
21
7.0544675542230637
31
0
0
LINE
5
215
100
AcDbEntity
8
0
100
AcDbLine
10
265.2186269896373
20
9.4090233755101345
30
0
11
261.70322957899225
21
10.93742016541273
31
0
0
LINE
5
216
100
AcDbEntity
8
0
100
AcDbLine
10
265.8272949780561
20
5.0513263598966631
30
0
11
262.86523210219752
21
2.6181804082687106
31
0
0
LINE
5
217
100
AcDbEntity
8
0
100
AcDbLine
10
268.34321252306734
20
5.4027409868573386
30
0
11
269.29683730136361
21
7.757296808144404
31
0
0
LINE
5
218
100
AcDbEntity
8
0
100
AcDbLine
10
267.73454453464859
20
9.7604380024708135
30
0
11
270.69660741050683
21
12.193583954099193
31
0
0
LINE
5
219
100
AcDbEntity
8
0
100
AcDbLine
10
261.70322957899225
20
10.93742016541273
30
0
11
270.69660741050683
21
12.193583954099193
31
0
0
LINE
5
220
100
AcDbEntity
8
0
100
AcDbLine
10
262.86523210219752
20
2.6181804082687106
30
0
11
261.70322957899225
21
10.93742016541273
31
0
0
LINE
5
221
100
AcDbEntity
8
0
100
AcDbLine
10
271.85860993370852
20
3.874344196953543
30
0
11
262.86523210219752
21
2.6181804082687106
31
0
0
LINE
5
222
100
AcDbEntity
8
0
100
AcDbLine
10
264.26500221134108
20
7.0544675542230637
30
0
11
265.8272949780561
21
5.0513263598966631
31
0
0
LINE
5
223
100
AcDbEntity
8
0
100
AcDbLine
10
270.69660741050683
20
12.193583954099193
30
0
11
271.85860993370852
21
3.874344196953543
31
0
0
LINE
5
224
100
AcDbEntity
8
0
100
AcDbLine
10
265.8272949780561
20
5.0513263598966631
30
0
11
268.34321252306734
21
5.4027409868573386
31
0
0
LINE
5
225
100
AcDbEntity
8
0
100
AcDbLine
10
267.73454453464859
20
9.7604380024708135
30
0
11
265.2186269896373
21
9.4090233755101345
31
0
0
LINE
5
226
100
AcDbEntity
8
0
100
AcDbLine
10
269.29683730136361
20
7.757296808144404
30
0
11
267.73454453464859
21
9.7604380024708135
31
0
0
LINE
5
227
100
AcDbEntity
8
0
100
AcDbLine
10
349.50716919285082
20
16.739440636886652
30
0
11
353.02256660352441
21
15.211043847033952
31
0
0
LINE
5
228
100
AcDbEntity
8
0
100
AcDbLine
10
346.38258365949366
20
20.745723025594195
30
0
11
345.42895888115544
21
18.391167204324983
31
0
0
LINE
5
229
100
AcDbEntity
8
0
100
AcDbLine
10
346.38258365949366
20
20.745723025594195
30
0
11
342.86718624882008
21
22.27411981544677
31
0
0
LINE
5
230
100
AcDbEntity
8
0
100
AcDbLine
10
346.99125164783402
20
16.38802600997121
30
0
11
344.02918877201535
21
13.954880058348264
31
0
0
LINE
5
231
100
AcDbEntity
8
0
100
AcDbLine
10
349.50716919285082
20
16.739440636886652
30
0
11
350.46079397118899
21
19.093996458155861
31
0
0
LINE
5
232
100
AcDbEntity
8
0
100
AcDbLine
10
348.89850120451047
20
21.097137652509637
30
0
11
351.8605640803292
21
23.530283604132478
31
0
0
LINE
5
233
100
AcDbEntity
8
0
100
AcDbLine
10
342.86718624882008
20
22.27411981544677
30
0
11
351.8605640803292
21
23.530283604132478
31
0
0
LINE
5
234
100
AcDbEntity
8
0
100
AcDbLine
10
344.02918877201535
20
13.954880058348264
30
0
11
342.86718624882008
21
22.27411981544677
31
0
0
LINE
5
235
100
AcDbEntity
8
0
100
AcDbLine
10
353.02256660352441
20
15.211043847033952
30
0
11
344.02918877201535
21
13.954880058348264
31
0
0
LINE
5
236
100
AcDbEntity
8
0
100
AcDbLine
10
345.42895888115544
20
18.391167204324983
30
0
11
346.99125164783402
21
16.38802600997121
31
0
0
LINE
5
237
100
AcDbEntity
8
0
100
AcDbLine
10
351.8605640803292
20
23.530283604132478
30
0
11
353.02256660352441
21
15.211043847033952
31
0
0
LINE
5
238
100
AcDbEntity
8
0
100
AcDbLine
10
346.99125164783402
20
16.38802600997121
30
0
11
349.50716919285082
21
16.739440636886652
31
0
0
LINE
5
239
100
AcDbEntity
8
0
100
AcDbLine
10
348.89850120451047
20
21.097137652509637
30
0
11
346.38258365949366
21
20.745723025594195
31
0
0
LINE
5
240
100
AcDbEntity
8
0
100
AcDbLine
10
350.46079397118899
20
19.093996458155861
30
0
11
348.89850120451047
21
21.097137652509637
31
0
0
LINE
5
241
100
AcDbEntity
8
0
100
AcDbLine
10
168.06333113813281
20
0.035281456821547701
30
0
11
0.07055555658926238
21
23.565563535086106
31
0
0
LINE
5
242
100
AcDbEntity
8
0
100
AcDbLine
10
183.90305120321048
20
0.070561387775184295
30
0
11
167.9927712762256
21
0.070561387775184295
31
0
0
LINE
5
243
100
AcDbEntity
8
0
100
AcDbLine
10
183.90305120321048
20
0.070561387775184295
30
0
11
351.8605640803292
21
23.530283604132482
31
0
0
LINE
5
244
100
AcDbEntity
8
0
100
AcDbLine
10
0.070555556589276397
20
118.25111691378559
30
0
11
351.79000421842193
21
118.25111691378559
31
0
0
LINE
5
245
100
AcDbEntity
8
0
100
AcDbLine
10
168.06333113813281
20
0.035281456821547701
30
0
11
171.46163720755771
21
-8.357187039328597
31
0
0
LINE
5
246
100
AcDbEntity
8
0
100
AcDbLine
10
168.06333113813281
20
0.035281456821547701
30
0
11
183.93834190008755
21
0.070561387775184295
31
0
0
LINE
5
247
100
AcDbEntity
8
0
100
AcDbLine
10
180.54229715236474
20
-8.3370065770491895
30
0
11
183.90307273505721
21
0.070561387775183171
31
0
0
LINE
5
248
100
AcDbEntity
8
0
100
AcDbLine
10
180.52362940513362
20
0.062972679783089097
30
0
11
262.86523210219752
21
2.6181804082687106
31
0
0
LINE
5
249
100
AcDbEntity
8
0
100
AcDbLine
10
271.85860993370852
20
3.874344196953543
30
0
11
351.8605640803292
21
23.530283604132482
31
0
0
LINE
5
250
100
AcDbEntity
8
0
100
AcDbLine
10
7.8982609831137198
20
13.987159699381408
30
0
11
85.145653328984778
21
3.1673317310857731
31
0
0
LINE
5
251
100
AcDbEntity
8
0
100
AcDbLine
10
94.138549136626594
20
1.907721760825241
30
0
11
171.46163720755771
21
-8.357187039328597
31
0
0
LINE
5
252
100
AcDbEntity
8
0
100
AcDbLine
10
9.1512379254566802
20
118.25111691378559
30
0
11
171.38993870307144
21
126.65111691378539
31
0
0
LINE
5
253
100
AcDbEntity
8
0
100
AcDbLine
10
180.47062107194017
20
126.65111691378542
30
0
11
342.70932184955319
21
118.25111691378559
31
0
0
LINE
5
254
100
AcDbEntity
8
0
100
AcDbLine
10
9.1512379254565275
20
126.6511169137837
30
0
11
85.730247129830389
21
126.65111691378384
31
0
0
LINE
5
255
100
AcDbEntity
8
0
100
AcDbLine
10
94.810929498699295
20
126.6511169137836
30
0
11
171.38993870307144
21
126.65111691378539
31
0
0
LINE
5
256
100
AcDbEntity
8
0
100
AcDbLine
10
180.47062107194017
20
126.65111691378542
30
0
11
257.04963027631027
21
126.65111691378701
31
0
0
LINE
5
257
100
AcDbEntity
8
0
100
AcDbLine
10
266.13031264517957
20
126.65111691378728
30
0
11
342.70932184955319
21
126.65111691378581
31
0
0
LWPOLYLINE
5
258
100
AcDbEntity
8
0
100
AcDbPolyline
90
4
70
1
43
0.0
10
3.4805555545854236
20
49.870840229595245
10
3.4805555545854183
20
97.025838064821784
10
23.295278310350156
20
97.025838064821784
10
23.295278310350124
20
49.870840229595252
0
LINE
5
259
100
AcDbEntity
8
0
100
AcDbLine
10
11.500555014384251
20
50.306114777587183
30
0
11
3.8805555545854165
21
50.306114777587183
31
0
0
LINE
5
260
100
AcDbEntity
8
0
100
AcDbLine
10
3.8805555545854169
20
96.625838064821806
30
0
11
11.500555014384251
21
96.625838064821806
31
0
0
LINE
5
261
100
AcDbEntity
8
0
100
AcDbLine
10
3.8805555545854169
20
50.306114777587183
30
0
11
3.8805555545854169
21
96.625838064821806
31
0
0
LINE
5
262
100
AcDbEntity
8
0
100
AcDbLine
10
22.895278310350129
20
96.590560825349016
30
0
11
22.895278310350129
21
50.270834846633541
31
0
0
LINE
5
263
100
AcDbEntity
8
0
100
AcDbLine
10
22.895278310350129
20
50.270840229595244
30
0
11
15.275277504810871
21
50.270840229595244
31
0
0
LWPOLYLINE
5
264
100
AcDbEntity
8
0
100
AcDbPolyline
90
40
70
1
43
0.0
10
9.5512379254565225
20
127.05111691378366
10
-0.32944444341071755
20
127.05111691378356
10
-0.32944444341073603
20
23.593440914052444
10
-1.546253121983614
20
14.906121884674036
10
8.2389087680816644
20
13.5355414019261
10
9.4040991491991033
20
21.854335267370239
10
85.859225412646936
20
11.14547781156242
10
84.694035031529481
20
2.8266839461179876
10
94.479196921594536
20
1.4561034633699421
10
95.644387302712062
20
9.7748973288146193
10
168.03589610527132
20
-0.36478050137023071
10
171.04385938844118
20
-0.35809573507101122
10
171.06252713567213
20
-8.7580749919030332
10
180.94318510493903
20
-8.7361166489349777
10
180.92450247063209
20
-0.32943861222674536
10
183.93078553339348
20
-0.3294386122246773
10
261.36712028646735
20
10.452200727749773
10
262.52441128153549
20
2.1666926806346742
10
272.31009766134162
20
3.5335233762914875
10
271.15340226148243
20
11.814767319637095
10
342.53601691264794
20
21.753533258956374
10
343.68836795135337
20
13.503392330715185
10
353.47405433115739
20
14.870223026371864
10
352.26054337169552
20
23.55823223298799
10
352.18344899449983
20
127.05111691378583
10
342.30932184955321
20
127.05111691378579
10
342.30932184955321
20
118.6511169137856
10
266.53031264517972
20
118.65111691378557
10
266.53031264517955
20
127.05111691378718
10
256.64963027631052
20
127.05111691378701
10
256.64963027631069
20
118.65111684951651
10
180.87062107194029
20
118.65111691378559
10
180.87062107194015
20
127.05111691378545
10
170.98993870307126
20
127.05111691378534
10
170.9899387030714
20
118.65111691378559
10
95.210929498699443
20
118.65111691378561
10
95.210929498699272
20
127.05111691378394
10
85.33024712983007
20
127.0511169137838
10
85.330247129830227
20
118.65111691378559
10
9.5512379254566593
20
118.65111691378559
0
LINE
5
265
100
AcDbEntity
8
0
100
AcDbLine
10
346.56889741498537
20
22.71889902181579
30
0
11
183.90307273505721
21
0.070561387775183171
31
0
0
LINE
5
266
100
AcDbEntity
8
0
100
AcDbLine
10
0.07055555658926238
20
23.565563535086106
30
0
11
0.070555556589276397
21
118.25111691378559
31
0
0
LWPOLYLINE
5
267
100
AcDbEntity
8
0
100
AcDbPolyline
90
10
70
1
43
0.0
10
-9.7081924294136162
20
15.769207630778599
10
-9.7081924294135487
20
127.05111691378764
42
-0.41421356237309276
10
-7.7081924294135717
20
129.05111691378764
10
359.55484570870027
20
129.05111691378764
42
-0.41399539592873597
10
361.55484515378811
20
127.05260676221624
10
361.63777077915131
20
15.731749197469441
42
-0.37446275945151952
10
359.91357545601932
20
13.749367608861167
10
184.10332563143399
20
-10.729098629433622
10
167.32258525084609
20
-10.766391414355336
10
-7.9856187106320569
20
13.788542424720468
42
-0.37401703348643123
0
LWPOLYLINE
5
268
100
AcDbEntity
8
0
100
AcDbPolyline
90
6
70
1
43
0.0
10
-5.0008926468819137
20
20.520282470758417
10
-2.9983502721738686
20
18.957222212536713
10
-3.3507289760857017
20
16.441439514773872
10
-5.7056500547055773
20
15.488717075232739
10
-7.708192429413625
20
17.051777333454432
10
-7.3558137255017941
20
19.567560031217276
0
LWPOLYLINE
5
269
100
AcDbEntity
8
0
100
AcDbPolyline
90
6
70
1
43
0.0
10
359.28540077714507
20
19.529434599664917
10
359.63681540406048
20
17.013517054648108
10
357.63367420970673
20
15.451224287969495
10
355.27911838843744
20
16.404849066307698
10
354.92770376152203
20
18.920766611324506
10
356.93084495587584
20
20.483059378003119
0
LWPOLYLINE
5
270
100
AcDbEntity
8
0
100
AcDbPolyline
90
6
70
1
43
0.0
10
-3.3081924294135412
20
125.78094632157053
10
-3.308192429413519
20
123.24060513713617
10
-5.5081924294134978
20
121.97043454491897
10
-7.708192429413514
20
123.24060513713611
10
-7.7081924294135451
20
125.78094632157048
10
-5.5081924294135582
20
127.05111691378767
0
LWPOLYLINE
5
271
100
AcDbEntity
8
0
100
AcDbPolyline
90
6
70
1
43
0.0
10
357.35484509829621
20
127.05111691378764
10
359.55579066872315
20
125.78258550725852
10
359.55768303038411
20
123.24224502765732
10
357.35862982161791
20
121.97043595458535
10
355.15768425119091
20
123.23896736111449
10
355.15579188953006
20
125.77930784071563
0
LWPOLYLINE
5
272
100
AcDbEntity
8
0
100
AcDbPolyline
90
6
70
1
43
0.0
10
101.61092949869933
20
125.78094632157048
10
101.61092949869939
20
123.24060513713621
10
99.41092949869946
20
121.97043454491903
10
97.2109294986994
20
123.24060513713634
10
97.210929498699301
20
125.78094632157048
10
99.410929498699275
20
127.05111691378767
0
LWPOLYLINE
5
273
100
AcDbEntity
8
0
100
AcDbPolyline
90
6
70
1
43
0.0
10
252.4496302763103
20
127.05111691378767
10
254.64963027631052
20
125.78094632157054
10
254.64963027631057
20
123.24060513713603
10
252.44963027631061
20
121.97043454491867
10
250.24963027631037
20
123.24060513713577
10
250.24963027631026
20
125.7809463215703
0
LWPOLYLINE
5
274
100
AcDbEntity
8
0
100
AcDbPolyline
90
6
70
1
43
0.0
10
101.34589363684839
20
4.3420134101155847
10
100.99351493293655
20
1.8262307123527599
10
98.638593854316682
20
0.87350827281163501
10
96.636051479608639
20
2.4365685310333349
10
96.988430183520492
20
4.95235122879616
10
99.343351262140359
20
5.9050736683372849
0
LWPOLYLINE
5
275
100
AcDbEntity
8
0
100
AcDbPolyline
90
6
70
1
43
0.0
10
260.01047607733415
20
5.7071580543658236
10
260.36189070424962
20
3.1912405093490399
10
258.3587495098958
20
1.6289477426704713
10
256.00419368862657
20
2.5825725210086543
10
255.65277906171116
20
5.0984900660254375
10
257.65592025606492
20
6.6607828327040224
0
LWPOLYLINE
5
276
100
AcDbEntity
8
0
100
AcDbPolyline
90
6
70
1
43
0.0
10
359.59526685131891
20
72.78904484192006
10
359.59715921297982
20
70.248704362318975
10
357.39810600421384
20
68.976895289246912
10
355.19716043378685
20
70.245426695775961
10
355.19526807212594
20
72.785767175377046
10
357.39432128089192
20
74.057576248449095
0
LINE
5
277
100
AcDbEntity
8
0
100
AcDbLine
10
357.39810600421384
20
68.976895289246912
30
0
11
361.63906853970383
21
13.989611987306251
31
0
0
LINE
5
278
100
AcDbEntity
8
0
100
AcDbLine
10
357.39432128089192
20
74.057576248449095
30
0
11
361.55335641477063
21
129.05111691378764
31
0
0
LINE
5
279
100
AcDbEntity
8
0
100
AcDbLine
10
19.743610567779044
20
118.72167273847161
30
0
11
19.743610567779029
21
98.906951328447292
31
0
0
LINE
5
280
100
AcDbEntity
8
0
100
AcDbLine
10
19.743610567779029
20
98.906951328447292
30
0
11
38.476110024799745
21
98.906951328447235
31
0
0
LINE
5
281
100
AcDbEntity
8
0
100
AcDbLine
10
39.523056084070987
20
98.906951328447278
30
0
11
39.523056084071001
21
118.7216727384716
31
0
0
LINE
5
282
100
AcDbEntity
8
0
100
AcDbLine
10
39.523056084071001
20
118.7216727384716
30
0
11
19.743610567779044
21
118.72167273847161
31
0
0
LINE
5
283
100
AcDbEntity
8
0
100
AcDbLine
10
20.143610567779039
20
118.32167273847161
30
0
11
39.158333323543751
21
118.32167273847161
31
0
0
LINE
5
284
100
AcDbEntity
8
0
100
AcDbLine
10
39.12305608407096
20
99.306951328447312
30
0
11
20.143610567779039
21
99.306951328447312
31
0
0
LINE
5
285
100
AcDbEntity
8
0
100
AcDbLine
10
39.12305608407096
20
118.32167273847161
30
0
11
39.12305608407096
21
99.306951328447312
31
0
0
LINE
5
286
100
AcDbEntity
8
0
100
AcDbLine
10
20.143610567779039
20
99.306951328447312
30
0
11
20.143610567779039
21
118.32167273847161
31
0
0
LINE
5
287
100
AcDbEntity
8
0
100
AcDbLine
10
43.732499450670723
20
116.95778385002373
30
0
11
43.732499450670737
21
98.906951328447207
31
0
0
LINE
5
288
100
AcDbEntity
8
0
100
AcDbLine
10
43.732499450670737
20
98.906951328447207
30
0
11
39.523056084070987
21
98.906951328447278
31
0
0
LINE
5
289
100
AcDbEntity
8
0
100
AcDbLine
10
38.476110024799745
20
98.906951328447235
30
0
11
38.476110024799745
21
78.963616923707477
31
0
0
LINE
5
290
100
AcDbEntity
8
0
100
AcDbLine
10
38.476110024799745
20
78.963616923707477
30
0
11
33.39611217925443
21
78.963616923707477
31
0
0
LINE
5
291
100
AcDbEntity
8
0
100
AcDbLine
10
33.39611217925443
20
78.963616923707477
30
0
11
33.39611217925443
21
59.984171407415545
31
0
0
LINE
5
292
100
AcDbEntity
8
0
100
AcDbLine
10
33.39611217925443
20
59.984171407415545
30
0
11
28.174999992856257
21
59.984171407415545
31
0
0
LINE
5
293
100
AcDbEntity
8
0
100
AcDbLine
10
28.174999992856257
20
59.984171407415545
30
0
11
28.17499999285625
21
40.169445960169995
31
0
0
LINE
5
294
100
AcDbEntity
8
0
100
AcDbLine
10
28.17499999285625
20
40.169445960169995
30
0
11
42.427222749811591
21
40.169445960170016
31
0
0
LINE
5
295
100
AcDbEntity
8
0
100
AcDbLine
10
42.427222749811591
20
40.169445960170016
30
0
11
42.427222749811591
21
21.154725895886134
31
0
0
LINE
5
296
100
AcDbEntity
8
0
100
AcDbLine
10
42.427222749811591
20
21.154725895886134
30
0
11
90.711111088533357
21
21.154725895886131
31
0
0
LINE
5
297
100
AcDbEntity
8
0
100
AcDbLine
10
90.711111088533357
20
21.154725895886131
30
0
11
90.711111088533386
21
40.067339994524751
31
0
0
LINE
5
298
100
AcDbEntity
8
0
100
AcDbLine
10
90.711111088533386
20
40.067339994524751
30
0
11
99.002711149753821
21
37.850932489850663
31
0
0
LINE
5
299
100
AcDbEntity
8
0
100
AcDbLine
10
99.002711149753821
20
37.850932489850663
30
0
11
94.090032910243977
21
19.47255978285818
31
0
0
LINE
5
300
100
AcDbEntity
8
0
100
AcDbLine
10
94.090032910243977
20
19.47255978285818
30
0
11
168.27528518863505
21
-0.38625463026728979
31
0
0
LINE
5
301
100
AcDbEntity
8
0
100
AcDbLine
10
168.27528518863505
20
-0.38625463026728979
30
0
11
173.3860869987671
21
18.733300105226284
31
0
0
LINE
5
302
100
AcDbEntity
8
0
100
AcDbLine
10
173.3860869987671
20
18.733300105226284
30
0
11
164.2102361584102
21
21.189169847967971
31
0
0
LINE
5
303
100
AcDbEntity
8
0
100
AcDbLine
10
164.2102361584102
20
21.189169847967971
30
0
11
169.15333624464097
21
39.681350952379503
31
0
0
LINE
5
304
100
AcDbEntity
8
0
100
AcDbLine
10
169.15333624464097
20
39.681350952379503
30
0
11
160.00964035752548
21
42.12553012588365
31
0
0
LINE
5
305
100
AcDbEntity
8
0
100
AcDbLine
10
160.00964035752548
20
42.12553012588365
30
0
11
164.85092402555526
21
60.236815110060682
31
0
0
LINE
5
306
100
AcDbEntity
8
0
100
AcDbLine
10
164.85092402555526
20
60.236815110060682
30
0
11
160.27127688907137
21
61.460989480160222
31
0
0
LINE
5
307
100
AcDbEntity
8
0
100
AcDbLine
10
160.27127688907137
20
61.460989480160222
30
0
11
164.99087039625809
21
79.150986494671955
31
0
0
LINE
5
308
100
AcDbEntity
8
0
100
AcDbLine
10
164.99087039625809
20
79.150986494671955
30
0
11
174.20022760987209
21
76.6892555512147
31
0
0
LINE
5
309
100
AcDbEntity
8
0
100
AcDbLine
10
174.20022760987209
20
76.6892555512147
30
0
11
179.32803113807006
21
95.872411049700034
31
0
0
LINE
5
310
100
AcDbEntity
8
0
100
AcDbLine
10
179.32803113807006
20
95.872411049700034
30
0
11
105.09393252830006
21
115.7157588179314
31
0
0
LINE
5
311
100
AcDbEntity
8
0
100
AcDbLine
10
105.09393252830006
20
115.7157588179314
30
0
11
101.54139316997302
21
102.42567768489374
31
0
0
LINE
5
312
100
AcDbEntity
8
0
100
AcDbLine
10
101.54139316997302
20
102.42567768489374
30
0
11
101.54139316997305
21
118.7216727384716
31
0
0
LINE
5
313
100
AcDbEntity
8
0
100
AcDbLine
10
101.54139316997305
20
118.7216727384716
30
0
11
81.726667722727356
21
118.7216727384716
31
0
0
LINE
5
314
100
AcDbEntity
8
0
100
AcDbLine
10
81.726667722727356
20
118.7216727384716
30
0
11
81.726667722727356
21
116.9577838500237
31
0
0
LINE
5
315
100
AcDbEntity
8
0
100
AcDbLine
10
81.726667722727356
20
116.9577838500237
30
0
11
43.732499450670723
21
116.95778385002373
31
0
0
LINE
5
316
100
AcDbEntity
8
0
100
AcDbLine
10
82.126667722727348
20
118.32167273847161
30
0
11
101.14139316997293
21
118.32167273847161
31
0
0
LINE
5
317
100
AcDbEntity
8
0
100
AcDbLine
10
82.126667722727348
20
99.306951328447312
30
0
11
82.126667722727348
21
118.32167273847161
31
0
0
LINE
5
318
100
AcDbEntity
8
0
100
AcDbLine
10
63.147222206435423
20
116.55778385002371
30
0
11
82.161942270719294
21
116.55778385002371
31
0
0
LINE
5
319
100
AcDbEntity
8
0
100
AcDbLine
10
44.132499450670714
20
97.578339679472208
30
0
11
44.132499450670714
21
116.55778385002371
31
0
0
LINE
5
320
100
AcDbEntity
8
0
100
AcDbLine
10
38.876110024799743
20
97.578339679472208
30
0
11
67.380555538710425
21
97.578339679472208
31
0
0
LINE
5
321
100
AcDbEntity
8
0
100
AcDbLine
10
38.876110024799743
20
78.563616923707485
30
0
11
38.876110024799743
21
97.578339679472208
31
0
0
LINE
5
322
100
AcDbEntity
8
0
100
AcDbLine
10
33.796112179254422
20
78.563616923707485
30
0
11
67.063057691974478
21
78.563616923707485
31
0
0
LINE
5
323
100
AcDbEntity
8
0
100
AcDbLine
10
33.796112179254422
20
59.584171407415539
30
0
11
33.796112179254422
21
78.563616923707485
31
0
0
LINE
5
324
100
AcDbEntity
8
0
100
AcDbLine
10
28.574999992856252
20
59.584171407415539
30
0
11
71.331665572241434
21
59.584171407415539
31
0
0
LINE
5
325
100
AcDbEntity
8
0
100
AcDbLine
10
28.574999992856252
20
40.56944596017
30
0
11
28.574999992856252
21
59.584166024453857
31
0
0
LINE
5
326
100
AcDbEntity
8
0
100
AcDbLine
10
71.33166557224142
20
40.56944596017
30
0
11
28.574999992856249
21
40.56944596017
31
0
0
LINE
5
327
100
AcDbEntity
8
0
100
AcDbLine
10
42.827222749811597
20
21.554725895886129
30
0
11
42.827222749811597
21
40.56944596017
31
0
0
LINE
5
328
100
AcDbEntity
8
0
100
AcDbLine
10
66.569165573432031
20
21.554725895886129
30
0
11
42.827220058330738
21
21.554725895886129
31
0
0
LINE
5
329
100
AcDbEntity
8
0
100
AcDbLine
10
90.311111088533352
20
40.56944596017
30
0
11
90.311111088533352
21
21.554725895886129
31
0
0
LINE
5
330
100
AcDbEntity
8
0
100
AcDbLine
10
108.7261153902989
20
35.665837003469463
30
0
11
90.381670950440594
21
40.56944596017
31
0
0
LINE
5
331
100
AcDbEntity
8
0
100
AcDbLine
10
94.579724351761953
20
19.755557076484578
30
0
11
99.48333330846252
21
38.100001516342907
31
0
0
LINE
5
332
100
AcDbEntity
8
0
100
AcDbLine
10
117.51027990158491
20
13.617225897870512
30
0
11
94.579724351761953
21
19.755557076484578
31
0
0
LINE
5
333
100
AcDbEntity
8
0
100
AcDbLine
10
172.89639099884948
20
18.45028575858716
30
0
11
167.99278204214892
21
0.10584131872882097
31
0
0
LINE
5
334
100
AcDbEntity
8
0
100
AcDbLine
10
122.41388885828542
20
31.96167033772884
30
0
11
172.89639099884948
21
18.45028575858716
31
0
0
LINE
5
335
100
AcDbEntity
8
0
100
AcDbLine
10
168.62777773562084
20
39.264174642272572
30
0
11
163.72416877892033
21
20.91973020241424
31
0
0
LINE
5
336
100
AcDbEntity
8
0
100
AcDbLine
10
150.2833332957625
20
44.167783598973102
30
0
11
168.62777773562084
21
39.264174642272572
31
0
0
LINE
5
337
100
AcDbEntity
8
0
100
AcDbLine
10
164.3944444033458
20
60.078063525958001
30
0
11
159.49083544664532
21
41.733619086099658
31
0
0
LINE
5
338
100
AcDbEntity
8
0
100
AcDbLine
10
146.01472003253392
20
64.981672482658524
30
0
11
164.35916447239219
21
60.078063525958001
31
0
0
LINE
5
339
100
AcDbEntity
8
0
100
AcDbLine
10
164.71194225008185
20
79.65723018772988
30
0
11
159.80833329338134
21
61.277505816917888
31
0
0
LINE
5
340
100
AcDbEntity
8
0
100
AcDbLine
10
173.88416447001092
20
77.187785743902779
30
0
11
155.53972003015258
21
82.091394700603331
31
0
0
LINE
5
341
100
AcDbEntity
8
0
100
AcDbLine
10
178.82305335766512
20
95.532227492280271
30
0
11
173.91944440096461
21
77.187785743902779
31
0
0
LINE
5
342
100
AcDbEntity
8
0
100
AcDbLine
10
160.44332898685309
20
100.4711163799344
30
0
11
178.78777342671154
21
95.567504731753061
31
0
0
LINE
5
343
100
AcDbEntity
8
0
100
AcDbLine
10
100.47110677962401
20
96.872784124093059
30
0
11
105.37471573632452
21
115.21722856395141
31
0
0
LINE
5
344
100
AcDbEntity
8
0
100
AcDbLine
10
101.14139316997293
20
118.32167273847161
30
0
11
101.14139316997293
21
99.306951328447312
31
0
0
LINE
5
345
100
AcDbEntity
8
0
100
AcDbLine
10
44.132499450670714
20
116.55778385002371
30
0
11
63.147222206435423
21
116.55778385002371
31
0
0
LINE
5
346
100
AcDbEntity
8
0
100
AcDbLine
10
105.4099956672782
20
115.21722856395141
30
0
11
123.7544401071365
21
110.31361691577001
31
0
0
LINE
5
347
100
AcDbEntity
8
0
100
AcDbLine
10
181.74646160138803
20
98.282455223450725
30
0
11
186.65448148865354
21
79.921549764924492
31
0
0
LINE
5
348
100
AcDbEntity
8
0
100
AcDbLine
10
186.65448148865354
20
79.921549764924492
30
0
11
177.47786869580244
21
77.468571653173953
31
0
0
LINE
5
349
100
AcDbEntity
8
0
100
AcDbLine
10
177.47786869580244
20
77.468571653173953
30
0
11
182.59042294255079
21
58.342461036812246
31
0
0
LINE
5
350
100
AcDbEntity
8
0
100
AcDbLine
10
182.59042294255079
20
58.342461036812246
30
0
11
187.21165179785294
21
59.577750515330635
31
0
0
LINE
5
351
100
AcDbEntity
8
0
100
AcDbLine
10
187.21165179785294
20
59.577750515330635
30
0
11
191.91968069013538
21
41.965011493735219
31
0
0
LINE
5
352
100
AcDbEntity
8
0
100
AcDbLine
10
191.91968069013538
20
41.965011493735219
30
0
11
182.7430375236992
21
39.512025262895328
31
0
0
LINE
5
353
100
AcDbEntity
8
0
100
AcDbLine
10
182.7430375236992
20
39.512025262895328
30
0
11
187.65031707700334
21
21.153889394180581
31
0
0
LINE
5
354
100
AcDbEntity
8
0
100
AcDbLine
10
187.65031707700334
20
21.153889394180581
30
0
11
178.50739071413602
21
18.706832242007813
31
0
0
LINE
5
355
100
AcDbEntity
8
0
100
AcDbLine
10
183.60939130215195
20
-0.3797970437781395
30
0
11
257.77054070972423
21
19.472565218498655
31
0
0
LINE
5
356
100
AcDbEntity
8
0
100
AcDbLine
10
257.77054070972423
20
19.472565218498655
30
0
11
252.86255864636857
21
37.83332917775364
31
0
0
LINE
5
357
100
AcDbEntity
8
0
100
AcDbLine
10
252.86255864636857
20
37.83332917775364
30
0
11
261.60199217348571
21
40.169445960170044
31
0
0
LINE
5
358
100
AcDbEntity
8
0
100
AcDbLine
10
261.60199217348571
20
40.169445960170044
30
0
11
280.16416229015636
21
40.16944596016998
31
0
0
LINE
5
359
100
AcDbEntity
8
0
100
AcDbLine
10
280.16416229015636
20
40.16944596016998
30
0
11
280.16416229015636
21
21.154725895886134
31
0
0
LINE
5
360
100
AcDbEntity
8
0
100
AcDbLine
10
280.16416229015636
20
21.154725895886134
30
0
11
337.97306408390102
21
21.154725895886127
31
0
0
LINE
5
361
100
AcDbEntity
8
0
100
AcDbLine
10
337.97306408390102
20
21.154725895886127
30
0
11
337.97306408390102
21
40.169445960169995
31
0
0
LINE
5
362
100
AcDbEntity
8
0
100
AcDbLine
10
337.97306408390102
20
40.169445960169995
30
0
11
352.24197384361264
21
40.169445960169995
31
0
0
LINE
5
363
100
AcDbEntity
8
0
100
AcDbLine
10
352.24197384361264
20
40.169445960169995
30
0
11
352.21987479772253
21
59.948896859423613
31
0
0
LINE
5
364
100
AcDbEntity
8
0
100
AcDbLine
10
352.21987479772253
20
59.948896859423613
30
0
11
346.96889741498535
21
59.948896859423598
31
0
0
LINE
5
365
100
AcDbEntity
8
0
100
AcDbLine
10
346.96889741498535
20
59.948896859423598
30
0
11
346.96889741498535
21
78.963616923707491
31
0
0
LINE
5
366
100
AcDbEntity
8
0
100
AcDbLine
10
346.96889741498535
20
78.963616923707491
30
0
11
344.28777338543648
21
78.963616923707491
31
0
0
LINE
5
367
100
AcDbEntity
8
0
100
AcDbLine
10
344.28777338543648
20
78.963616923707491
30
0
11
344.28777338543676
21
97.943062439999409
31
0
0
LINE
5
368
100
AcDbEntity
8
0
100
AcDbLine
10
344.28777338543676
20
97.943062439999409
30
0
11
336.94999991586252
21
97.943062439999409
31
0
0
LINE
5
369
100
AcDbEntity
8
0
100
AcDbLine
10
336.94999991586252
20
97.943062439999409
30
0
11
336.94999991586246
21
116.9577838500237
31
0
0
LINE
5
370
100
AcDbEntity
8
0
100
AcDbLine
10
336.94999991586246
20
116.9577838500237
30
0
11
279.97638881899485
21
116.9577838500237
31
0
0
LINE
5
371
100
AcDbEntity
8
0
100
AcDbLine
10
279.97638881899485
20
116.9577838500237
30
0
11
279.97638881899485
21
118.12195024725122
31
0
0
LINE
5
372
100
AcDbEntity
8
0
100
AcDbLine
10
279.97638881899485
20
118.12195024725122
30
0
11
260.16165798878762
21
118.12195024725122
31
0
0
LINE
5
373
100
AcDbEntity
8
0
100
AcDbLine
10
260.16165798878762
20
118.12195024725122
30
0
11
260.16165798878774
21
102.35237145521225
31
0
0
LINE
5
374
100
AcDbEntity
8
0
100
AcDbLine
10
260.16165798878774
20
102.35237145521225
30
0
11
255.94764275858961
21
118.11700390243395
31
0
0
LINE
5
375
100
AcDbEntity
8
0
100
AcDbLine
10
255.94764275858961
20
118.11700390243395
30
0
11
181.74646160138803
21
98.282455223450725
31
0
0
LINE
5
376
100
AcDbEntity
8
0
100
AcDbLine
10
218.9338802214167
20
107.80889523247011
30
0
11
237.27832466127498
21
112.7125068806515
31
0
0
LINE
5
377
100
AcDbEntity
8
0
100
AcDbLine
10
255.65805979801041
20
117.65139442256523
30
0
11
260.56167952063441
21
99.306951328447312
31
0
0
LINE
5
378
100
AcDbEntity
8
0
100
AcDbLine
10
260.56165798878749
20
98.70722749148652
30
0
11
260.56165798878749
21
117.72195024725121
31
0
0
LINE
5
379
100
AcDbEntity
8
0
100
AcDbLine
10
260.56165798878749
20
117.72195024725121
30
0
11
279.57638881899481
21
117.72195024725121
31
0
0
LINE
5
380
100
AcDbEntity
8
0
100
AcDbLine
10
279.57638881899481
20
117.72195024725121
30
0
11
279.57638881899481
21
98.70722749148652
31
0
0
LINE
5
381
100
AcDbEntity
8
0
100
AcDbLine
10
279.57638881899481
20
116.55778385002371
30
0
11
298.59111964920214
21
116.55778385002371
31
0
0
LINE
5
382
100
AcDbEntity
8
0
100
AcDbLine
10
336.54999991586249
20
116.55778385002371
30
0
11
336.54999991586249
21
97.543062439999417
31
0
0
LINE
5
383
100
AcDbEntity
8
0
100
AcDbLine
10
315.38333325448747
20
97.543062439999417
30
0
11
343.88777338543656
21
97.543062439999417
31
0
0
LINE
5
384
100
AcDbEntity
8
0
100
AcDbLine
10
343.88777338543656
20
78.563616923707485
30
0
11
343.88777338543656
21
97.578339679472208
31
0
0
LINE
5
385
100
AcDbEntity
8
0
100
AcDbLine
10
303.81222645263853
20
78.563616923707485
30
0
11
346.56889741498537
21
78.563616923707485
31
0
0
LINE
5
386
100
AcDbEntity
8
0
100
AcDbLine
10
346.56889741498537
20
78.563616923707485
30
0
11
346.56889741498537
21
59.548896859423614
31
0
0
LINE
5
387
100
AcDbEntity
8
0
100
AcDbLine
10
346.56889741498537
20
59.548896859423614
30
0
11
303.81222645263853
21
59.548896859423614
31
0
0
LINE
5
388
100
AcDbEntity
8
0
100
AcDbLine
10
342.30027338583335
20
59.548896859423614
30
0
11
342.30027338583335
21
40.534176795139757
31
0
0
LINE
5
389
100
AcDbEntity
8
0
100
AcDbLine
10
342.30027338583335
20
40.56944596017
30
0
11
318.55833325369383
21
40.56944596017
31
0
0
LINE
5
390
100
AcDbEntity
8
0
100
AcDbLine
10
337.57306408390099
20
40.56944596017
30
0
11
337.57306408390099
21
21.554725895886129
31
0
0
LINE
5
391
100
AcDbEntity
8
0
100
AcDbLine
10
318.55833325369383
20
21.554725895886129
30
0
11
299.5436024234865
21
21.554725895886129
31
0
0
LINE
5
392
100
AcDbEntity
8
0
100
AcDbLine
10
280.56416229015633
20
21.554725895886129
30
0
11
280.56416229015633
21
40.56944596017
31
0
0
LINE
5
393
100
AcDbEntity
8
0
100
AcDbLine
10
280.56416229015633
20
40.56944596017
30
0
11
261.54943145994901
21
40.56944596017
31
0
0
LINE
5
394
100
AcDbEntity
8
0
100
AcDbLine
10
261.54945299179582
20
40.56944596017
30
0
11
243.20500855193751
21
35.665837003469463
31
0
0
LINE
5
395
100
AcDbEntity
8
0
100
AcDbLine
10
252.37723077186661
20
38.100001516342907
30
0
11
257.28085049449066
21
19.755557076484578
31
0
0
LINE
5
396
100
AcDbEntity
8
0
100
AcDbLine
10
257.2808289626438
20
19.755557076484578
30
0
11
234.35027341282091
21
13.617225897870512
31
0
0
LINE
5
397
100
AcDbEntity
8
0
100
AcDbLine
10
183.90305120321048
20
0.070561387775184295
30
0
11
178.99944224650991
21
18.415005827633518
31
0
0
LINE
5
398
100
AcDbEntity
8
0
100
AcDbLine
10
178.96416231555631
20
18.415005827633518
30
0
11
229.44667522204369
21
31.926390406775216
31
0
0
LINE
5
399
100
AcDbEntity
8
0
100
AcDbLine
10
188.13638453548546
20
20.884450271460601
30
0
11
183.23276481286155
21
39.228894711318944
31
0
0
LINE
5
400
100
AcDbEntity
8
0
100
AcDbLine
10
183.23278634470836
20
39.228894711318944
30
0
11
201.57723078456661
21
44.132503668019467
31
0
0
LINE
5
401
100
AcDbEntity
8
0
100
AcDbLine
10
192.40500856463751
20
41.698339155146023
30
0
11
187.50138884201351
21
60.042783595004359
31
0
0
LINE
5
402
100
AcDbEntity
8
0
100
AcDbLine
10
201.25972217190733
20
63.746950260744981
30
0
11
182.91527773204902
21
58.843341304044465
31
0
0
LINE
5
403
100
AcDbEntity
8
0
100
AcDbLine
10
182.88000856701871
20
58.80806137309083
30
0
11
177.9763996103182
21
77.152505812949144
31
0
0
LINE
5
404
100
AcDbEntity
8
0
100
AcDbLine
10
177.97638884439479
20
77.187785743902779
30
0
11
196.3208332842531
21
82.091394700603331
31
0
0
LINE
5
405
100
AcDbEntity
8
0
100
AcDbLine
10
187.14861106432403
20
79.621950256776231
30
0
11
182.24499134170009
21
97.96639469663458
31
0
0
LINE
5
406
100
AcDbEntity
8
0
100
AcDbLine
10
178.50739071413602
20
18.706832242007813
30
0
11
183.60939130215195
21
-0.3797970437781395
31
0
0
LINE
5
407
100
AcDbEntity
8
0
100
AcDbLine
10
17.921110837482722
20
129.05111691378764
30
0
11
10.900833196033981
21
129.05111691378764
31
0
0
LINE
5
408
100
AcDbEntity
8
0
100
AcDbLine
10
10.900833196033981
20
129.05111691378764
30
0
11
10.900833196034084
21
111.90111691537311
31
0
0
LINE
5
409
100
AcDbEntity
8
0
100
AcDbLine
10
10.900833196034084
20
111.90111691537311
30
0
11
17.92111083748275
21
111.90111691537311
31
0
0
LINE
5
410
100
AcDbEntity
8
0
100
AcDbLine
10
17.92111083748275
20
111.90111691537311
30
0
11
17.921110837482722
21
129.05111691378764
31
0
0
LWPOLYLINE
5
411
100
AcDbEntity
8
0
100
AcDbPolyline
90
6
70
1
43
0.0
10
-3.897680652761947
20
86.371116913785812
10
-2.6275100605447532
20
84.171116913785795
10
-3.8976806527619514
20
81.971116913785735
10
-6.4380218371963496
20
81.971116913785735
10
-7.7081924294135504
20
84.171116913785795
10
-6.4380218371963487
20
86.371116913785812
0
LWPOLYLINE
5
412
100
AcDbEntity
8
0
100
AcDbPolyline
90
6
70
1
43
0.0
10
-6.4380218371963851
20
55.771116913785775
10
-7.7081924294135549
20
57.971116913785757
10
-6.4380218371963824
20
60.171116913785738
10
-3.8976806527620562
20
60.171116913785738
10
-2.6275100605448927
20
57.971116913785757
10
-3.8976806527620584
20
55.771116913785775
0
LWPOLYLINE
5
413
100
AcDbEntity
8
0
100
AcDbPolyline
90
4
70
1
43
0.0
10
-0.32944444341072576
20
79.971116913785764
10
-9.7081924294135753
20
79.97111691378575
10
-9.708192429413586
20
62.171116913785738
10
-0.32944444341072909
20
62.171116913785738
0
LINE
5
414
100
AcDbEntity
8
0
100
AcDbLine
10
351.8605640803292
20
23.530283604132482
30
0
11
351.75473505339164
21
118.25111691378559
31
0
0
LWPOLYLINE
5
415
100
AcDbEntity
8
0
100
AcDbPolyline
90
4
70
1
43
0.0
10
47.695554467039329
20
24.059450270666854
10
47.665588637703408
20
38.070069233191177
10
61.665556616731507
20
38.10001228226632
10
61.695522446067415
20
24.089393319741941
0
LWPOLYLINE
5
416
100
AcDbEntity
8
0
100
AcDbPolyline
90
4
70
1
43
0.0
10
85.44277667982476
20
38.064732351312671
10
85.47274771868473
20
24.089474301539504
10
71.472779913094257
20
24.059450270666854
10
71.442808874234274
20
38.034708320440018
0
LWPOLYLINE
5
417
100
AcDbEntity
8
0
100
AcDbPolyline
90
4
70
1
43
0.0
10
117.05166233103441
20
30.797507977722567
10
113.43088504403005
20
17.265701608603777
10
99.906660182135951
20
20.884450271460601
10
103.52743746914038
20
34.416256640579391
0
LWPOLYLINE
5
418
100
AcDbEntity
8
0
100
AcDbPolyline
90
4
70
1
43
0.0
10
125.24659073406518
20
33.802166429500708
10
111.72472650066041
20
37.429725891917393
10
115.34785365023066
20
50.93506851260409
10
128.86971788363542
20
47.307509050187392
0
LWPOLYLINE
5
419
100
AcDbEntity
8
0
100
AcDbPolyline
90
4
70
1
43
0.0
10
87.801051190615226
20
43.033585741423465
10
73.801110016068492
20
43.074170334950715
10
73.841725470159531
20
57.084757078170114
10
87.841666644706251
20
57.044172484642885
0
LWPOLYLINE
5
420
100
AcDbEntity
8
0
100
AcDbPolyline
90
4
70
1
43
0.0
10
143.59339848913189
20
28.872098382404282
10
130.06917094051872
20
32.490837004263213
10
133.68993477488067
20
46.022633332384125
10
147.21416232349381
20
42.403894710525194
0
LWPOLYLINE
5
421
100
AcDbEntity
8
0
100
AcDbPolyline
90
4
70
1
43
0.0
10
107.4208333064781
20
58.278894706556443
10
111.08811772323264
20
71.817122475666096
10
124.60111538633022
20
68.156672481864788
10
120.93383096957572
20
54.618444712755107
0
LWPOLYLINE
5
422
100
AcDbEntity
8
0
100
AcDbPolyline
90
4
70
1
43
0.0
10
93.450831156785966
20
42.333334848617923
10
97.071608443790439
20
55.865141217736749
10
110.59583330568442
20
52.24639255487989
10
106.97505601867994
20
38.71458618576105
0
LWPOLYLINE
5
423
100
AcDbEntity
8
0
100
AcDbPolyline
90
4
70
1
43
0.0
10
148.41361538037711
20
27.622507978516321
10
152.08088705392808
20
41.160717682323764
10
165.59388669430581
20
37.500274987901257
10
161.92661502075481
20
23.962065284093804
0
LWPOLYLINE
5
424
100
AcDbEntity
8
0
100
AcDbPolyline
90
4
70
1
43
0.0
10
125.76527774633649
20
53.304725887948635
10
129.43254831798382
20
66.842947672818738
10
142.94554906026514
20
63.182509046218662
10
139.27827848861773
20
49.644287261348566
0
LWPOLYLINE
5
425
100
AcDbEntity
8
0
100
AcDbPolyline
90
4
70
1
43
0.0
10
263.06639312949159
20
101.28250365373199
10
263.07167620545312
20
115.29306213710933
10
277.07167521013747
20
115.2877830428969
10
277.06639213417594
20
101.27722455951957
0
LWPOLYLINE
5
426
100
AcDbEntity
8
0
100
AcDbPolyline
90
4
70
1
43
0.0
10
144.14500211714841
20
48.401116931248112
10
147.81227305609661
20
61.939334689096512
10
161.32527343107711
20
58.278894706556429
10
157.6580024921289
20
44.740676948708007
0
LWPOLYLINE
5
427
100
AcDbEntity
8
0
100
AcDbPolyline
90
4
70
1
43
0.0
10
89.182223276519025
20
63.147229115265034
10
92.802994196651056
20
76.679026424284757
10
106.32722004245572
20
73.060281438565298
10
102.70644912232368
20
59.528484129545561
0
LWPOLYLINE
5
428
100
AcDbEntity
8
0
100
AcDbPolyline
90
4
70
1
43
0.0
10
162.23201851383905
20
97.36062217557587
10
175.75388238539642
20
93.733061364359571
10
172.13075487397873
20
80.227722777834956
10
158.60889100242139
20
83.855283589051254
0
LWPOLYLINE
5
429
100
AcDbEntity
8
0
100
AcDbPolyline
90
4
70
1
43
0.0
10
103.54027775189272
20
98.601395773068177
10
107.2051497209473
20
112.16602043559115
10
120.7205490658214
20
108.51444809636843
10
117.05567709676686
20
94.949823433845424
0
LWPOLYLINE
5
430
100
AcDbEntity
8
0
100
AcDbPolyline
90
4
70
1
43
0.0
10
153.74216700658988
20
85.133732494165315
10
140.22916663160939
20
88.794172476705398
10
143.89643757055762
20
102.3323902345538
10
157.40943794553809
20
98.671950252013715
0
LWPOLYLINE
5
431
100
AcDbEntity
8
0
100
AcDbPolyline
90
4
70
1
43
0.0
10
135.40011920049798
20
90.046200447592298
10
121.88472219175111
20
93.697781433405908
10
125.54960726285621
20
107.26242012548155
10
139.0650042716031
20
103.61083913966793
0
LWPOLYLINE
5
432
100
AcDbEntity
8
0
100
AcDbPolyline
90
4
70
1
43
0.0
10
84.636669790507781
20
115.82222880364367
10
98.636668795192179
20
115.8169497094313
10
98.631385719230821
20
101.80639122605398
10
84.63138671454638
20
101.8116703202663
0
LWPOLYLINE
5
433
100
AcDbEntity
8
0
100
AcDbPolyline
90
4
70
1
43
0.0
10
22.683612182032551
20
101.7763957722744
10
22.653643667005078
20
115.78700395367554
10
36.653611640243881
20
115.8169497094313
10
36.683580155271386
20
101.80634152803023
0
LWPOLYLINE
5
434
100
AcDbEntity
8
0
100
AcDbPolyline
90
4
70
1
43
0.0
10
79.651914386781883
20
100.07780816573656
10
65.651946581216151
20
100.04778412329929
10
65.621975542380952
20
114.02303677854617
10
79.621943347946626
20
114.05306082098342
0
LWPOLYLINE
5
435
100
AcDbEntity
8
0
100
AcDbPolyline
90
4
70
1
43
0.0
10
60.672500071635483
20
100.04251040697879
10
46.672501064924219
20
100.04778412329929
10
46.67777875589708
20
114.05833453730394
10
60.677777762608343
20
114.05306082098342
0
LWPOLYLINE
5
436
100
AcDbEntity
8
0
100
AcDbPolyline
90
4
70
1
43
0.0
10
57.426942895962945
20
62.083606056388348
10
43.426943895291537
20
62.088895782196275
10
43.432224283785104
20
76.064182274734705
10
57.432223284456512
20
76.058892548926778
0
LWPOLYLINE
5
437
100
AcDbEntity
8
0
100
AcDbPolyline
90
4
70
1
43
0.0
10
83.885278920202381
20
81.027787651214027
10
69.885279913491146
20
81.033061367534572
10
69.890557604464036
20
95.043611781539269
10
83.890556611175271
20
95.038338065218682
0
LWPOLYLINE
5
438
100
AcDbEntity
8
0
100
AcDbPolyline
90
4
70
1
43
0.0
10
69.567776683793497
20
62.053615851242647
10
69.573054369782795
20
76.099432949820724
10
83.573053381477621
20
76.094172479880413
10
83.567775695488322
20
62.048355381302322
0
LWPOLYLINE
5
439
100
AcDbEntity
8
0
100
AcDbPolyline
90
4
70
1
43
0.0
10
60.148611096073964
20
95.038338065218696
10
60.143333405101117
20
81.027787651214069
10
46.143334398389854
20
81.033061367534572
10
46.1486120893627
20
95.043611781539212
0
LWPOLYLINE
5
440
100
AcDbEntity
8
0
100
AcDbPolyline
90
4
70
1
43
0.0
10
102.95102378410449
20
79.098829938121497
10
89.429161261347701
20
82.726395777036913
10
93.052295504527649
20
96.231739391260646
10
106.57415802728443
20
92.60417355234523
0
LWPOLYLINE
5
441
100
AcDbEntity
8
0
100
AcDbPolyline
90
4
70
1
43
0.0
10
139.71518791623018
20
69.238654624820498
10
126.1886153859333
20
72.848618001728568
10
129.80704500453476
20
86.406913632890522
10
143.33361753483169
20
82.796950255982509
0
LWPOLYLINE
5
442
100
AcDbEntity
8
0
100
AcDbPolyline
90
4
70
1
43
0.0
10
144.497779894838
20
67.980283593019976
10
148.11855754129274
20
81.512085922538176
10
161.64278204373642
20
77.893335916320254
10
158.02200439728168
20
64.361533586802096
0
LWPOLYLINE
5
443
100
AcDbEntity
8
0
100
AcDbPolyline
90
4
70
1
43
0.0
10
125.02444226000371
20
87.700564595644721
10
121.40366497299921
20
74.168758226525838
10
107.8794401111052
20
77.78750688938274
10
111.5002173981097
20
91.319313258501609
0
LWPOLYLINE
5
444
100
AcDbEntity
8
0
100
AcDbPolyline
90
4
70
1
43
0.0
10
253.85890174453235
20
114.61750607273102
10
257.49612368171631
20
101.16075400702699
10
243.9811024373771
20
97.507782509045768
10
240.34388050019328
20
110.96453457474981
0
LWPOLYLINE
5
445
100
AcDbEntity
8
0
100
AcDbPolyline
90
4
70
1
43
0.0
10
185.30167009231067
20
96.216146534541863
10
198.82556842495731
20
99.836115303500861
10
202.43639828541853
20
86.346359163034208
10
188.91249995277192
20
82.72639039407521
0
LWPOLYLINE
5
446
100
AcDbEntity
8
0
100
AcDbPolyline
90
4
70
1
43
0.0
10
207.25694439263023
20
87.630004733737437
10
203.64140669623893
20
101.20786858155336
10
217.16999133296883
20
104.81028412210873
10
220.78552902936008
20
91.232420274292735
0
LWPOLYLINE
5
447
100
AcDbEntity
8
0
100
AcDbPolyline
90
4
70
1
43
0.0
10
239.16291147258426
20
96.180052289780477
10
225.6366579975188
20
92.568893621391609
10
222.02347299463878
20
106.10273710190117
10
235.54972646970418
20
109.71389577029001
0
LWPOLYLINE
5
448
100
AcDbEntity
8
0
100
AcDbPolyline
90
4
70
1
43
0.0
10
259.15056840987597
20
76.658619077368414
10
262.76375341275605
20
63.124775596858896
10
249.23749993769061
20
59.513616928469979
10
245.62431493481057
20
73.047460408979475
0
LWPOLYLINE
5
449
100
AcDbEntity
8
0
100
AcDbPolyline
90
4
70
1
43
0.0
10
190.55569628134913
20
58.3013281369631
10
204.08194439342401
20
61.912506893351477
10
207.6951455651602
20
48.378683500841433
10
194.16889745308541
20
44.767504744453063
0
LWPOLYLINE
5
450
100
AcDbEntity
8
0
100
AcDbPolyline
90
4
70
1
43
0.0
10
212.54861105797403
20
49.671119084115283
10
208.90897035046731
20
63.172030460187173
10
222.42638883328232
20
66.816121233013718
10
226.06602954081876
20
53.31520985693998
0
LWPOLYLINE
5
451
100
AcDbEntity
8
0
100
AcDbPolyline
90
4
70
1
43
0.0
10
244.41047361548777
20
58.254100099100832
10
230.89305549783234
20
54.610007971769463
10
227.25341515548513
20
68.110912610374797
10
240.7708332731406
20
71.755004737706201
0
LWPOLYLINE
5
452
100
AcDbEntity
8
0
100
AcDbPolyline
90
4
70
1
43
0.0
10
254.88194438072398
20
55.844730193682999
10
258.4951455524602
20
42.310906801172912
10
244.9688974403854
20
38.699728044784564
10
241.35569626864907
20
52.233551437294651
0
LWPOLYLINE
5
453
100
AcDbEntity
8
0
100
AcDbPolyline
90
4
70
1
43
0.0
10
186.29181865600037
20
37.399222475717686
10
199.81334189611871
20
41.028052764797103
10
203.42179666405175
20
27.582451532808761
10
189.90027342393344
20
23.953621243729334
0
LWPOLYLINE
5
454
100
AcDbEntity
8
0
100
AcDbPolyline
90
4
70
1
43
0.0
10
208.24471786379172
20
28.892499365460115
10
204.66037055834846
20
42.415245192962203
10
218.19305550100734
20
46.002226966366621
10
221.77740280645048
20
32.4794811388645
0
LWPOLYLINE
5
455
100
AcDbEntity
8
0
100
AcDbPolyline
90
4
70
1
43
0.0
10
240.14834576100228
20
37.416108674142087
10
226.6244530005271
20
33.796119088084033
10
223.01360718039049
20
47.285851719970807
10
236.53749994086559
20
50.905841306028833
0
LWPOLYLINE
5
456
100
AcDbEntity
8
0
100
AcDbPolyline
90
4
70
1
43
0.0
10
248.28499563155944
20
34.395834850602292
10
251.92223356146184
20
20.939104623876013
10
238.40721785625109
20
17.286112632657499
10
234.76997992634867
20
30.74284285938376
0
LWPOLYLINE
5
457
100
AcDbEntity
8
0
100
AcDbPolyline
90
4
70
1
43
0.0
10
283.07415896687803
20
38.105269859836426
10
297.07415797965939
20
38.10001228226632
10
297.06889644364179
20
24.089472624050401
10
283.06889743086037
20
24.094730201620493
0
LWPOLYLINE
5
458
100
AcDbEntity
8
0
100
AcDbPolyline
90
4
70
1
43
0.0
10
301.97777770228333
20
24.059450270666854
10
301.98306077824446
20
38.070011444511003
10
315.98305978292922
20
38.064732351312678
10
315.97777670696809
20
24.054171177468525
0
LWPOLYLINE
5
459
100
AcDbEntity
8
0
100
AcDbPolyline
90
4
70
1
43
0.0
10
335.06301470282608
20
24.089458124185242
10
321.06304686255112
20
24.059450270666854
10
321.03309193789192
20
38.034724497794265
10
335.03305977816672
20
38.064732351312678
0
LWPOLYLINE
5
460
100
AcDbEntity
8
0
100
AcDbPolyline
90
4
70
1
43
0.0
10
249.62556841225734
20
93.768341295313206
10
253.23639845312096
20
80.278581789396966
10
239.71249994007192
20
76.658613694406696
10
236.10166989920825
20
90.148373200322936
0
LWPOLYLINE
5
461
100
AcDbEntity
8
0
100
AcDbPolyline
90
4
70
1
43
0.0
10
181.05954481352893
20
75.435267471062261
10
194.59223509268219
20
79.022229111296298
10
198.17656620277316
20
65.499463150623797
10
184.64387592361985
20
61.912501510389788
0
LWPOLYLINE
5
462
100
AcDbEntity
8
0
100
AcDbPolyline
90
4
70
1
43
0.0
10
203.02361106035519
20
66.816115850052
10
199.38397035285527
20
80.317027226119038
10
212.90138883566351
20
83.961117998950442
10
216.54102954316332
20
70.460206622883376
0
LWPOLYLINE
5
463
100
AcDbEntity
8
0
100
AcDbPolyline
90
4
70
1
43
0.0
10
234.89430933322251
20
75.330882134398635
10
221.36805550021361
20
71.719724806752552
10
217.75487013938999
20
85.253575010966586
10
231.28112397239892
20
88.864732338612669
0
LWPOLYLINE
5
464
100
AcDbEntity
8
0
100
AcDbPolyline
90
4
70
1
43
0.0
10
328.26500521611831
20
57.049451577840983
10
342.26500422080312
20
57.044172484642885
10
342.25972114484205
20
43.033611310798968
10
328.25972214015729
20
43.038890403997087
0
LWPOLYLINE
5
465
100
AcDbEntity
8
0
100
AcDbPolyline
90
4
70
1
43
0.0
10
302.08360672922089
20
43.038890403997087
10
301.98340885662833
20
57.227532535810177
10
315.98305978292922
20
57.326395783386914
10
316.08325765552189
20
43.137753651573796
0
LWPOLYLINE
5
466
100
AcDbEntity
8
0
100
AcDbPolyline
90
4
70
1
43
0.0
10
278.024157984422
20
57.044172484642885
10
278.05413423145518
20
43.104275757995623
10
264.05416660065322
20
43.074170334950715
10
264.02419035361999
20
57.01406706159797
0
LWPOLYLINE
5
467
100
AcDbEntity
8
0
100
AcDbPolyline
90
4
70
1
43
0.0
10
283.06889743086037
20
43.074170334950715
10
283.07415896192572
20
57.119971337315093
10
297.07415797965939
20
57.114726963588467
10
297.06889644859399
20
43.068925961224089
0
LWPOLYLINE
5
468
100
AcDbEntity
8
0
100
AcDbPolyline
90
4
70
1
43
0.0
10
268.32805217392018
20
76.099451575106826
10
282.32805117860426
20
76.094172479880413
10
282.3227681026425
20
62.08361668696984
10
268.32276909795843
20
62.088895782196275
0
LWPOLYLINE
5
469
100
AcDbEntity
8
0
100
AcDbPolyline
90
4
70
1
43
0.0
10
287.30223076313536
20
62.053615851242647
10
287.37825420521483
20
76.169570339434173
10
301.3780511738417
20
76.094172479880413
10
301.30202773176234
20
61.978217991688858
0
LWPOLYLINE
5
470
100
AcDbEntity
8
0
100
AcDbPolyline
90
4
70
1
43
0.0
10
293.8991579804532
20
95.108892544164263
10
293.89389644443463
20
81.098358266889846
10
279.89389743165407
20
81.103615846480153
10
279.89915896767263
20
95.114150123754541
0
LWPOLYLINE
5
471
100
AcDbEntity
8
0
100
AcDbPolyline
90
4
70
1
43
0.0
10
318.31138450294168
20
62.053615851242647
10
318.17621177378999
20
75.922447870146243
10
332.17554685977296
20
76.058892548926764
10
332.3107195889246
20
62.190060530023118
0
LWPOLYLINE
5
472
100
AcDbEntity
8
0
100
AcDbPolyline
90
4
70
1
43
0.0
10
282.05111633878329
20
114.05833991519583
10
296.0511153434677
20
114.05306082098343
10
296.04583226750628
20
100.04250233760602
10
282.04583326282193
20
100.04778143181841
0
LWPOLYLINE
5
473
100
AcDbEntity
8
0
100
AcDbPolyline
90
4
70
1
43
0.0
10
260.87916660144691
20
82.232503658494466
10
260.88444967740867
20
96.243059451405003
10
274.88444868209274
20
96.23778035617859
10
274.87916560613104
20
82.227224563268081
0
LWPOLYLINE
5
474
100
AcDbEntity
8
0
100
AcDbPolyline
90
4
70
1
43
0.0
10
312.87861964563024
20
95.073617996172302
10
312.87333657466212
20
81.027795532193807
10
298.87333756498435
20
81.033061367534572
10
298.87862063595236
20
95.078883831513082
0
LWPOLYLINE
5
475
100
AcDbEntity
8
0
100
AcDbPolyline
90
4
70
1
43
0.0
10
322.65054686215421
20
81.033061367534572
10
322.65582993312222
20
95.07888383151294
10
336.65582894279999
20
95.073617996172345
10
336.65054587183192
20
81.02779553219392
0
LWPOLYLINE
5
476
100
AcDbEntity
8
0
100
AcDbPolyline
90
12
70
1
43
0.0
10
33.830966789750903
20
40.246957871202902
10
33.80398075974675
20
59.446938906458797
10
42.934971740627681
20
59.459772731456923
10
42.938344994407146
20
57.059775102026919
10
56.938331165914072
20
57.079452415596535
10
56.934957912169175
20
59.479450045003546
10
66.065948893050106
20
59.492283870003149
10
66.092934923054585
20
40.292302834746835
10
56.961943942173896
20
40.279469009748567
10
56.958008479463743
20
43.079466244055197
10
42.958022307923869
20
43.059788930510763
10
42.96195777063226
20
40.259791696201063
0
LWPOLYLINE
5
477
100
AcDbEntity
8
0
100
AcDbPolyline
90
12
70
1
43
0.0
10
149.48292535561356
20
4.8095599002443361
10
150.1774935029016
20
7.4436255542261884
10
136.64021354982975
20
11.013226578449391
10
135.94564540254171
20
8.3791609244675502
10
127.1164380274336
20
10.707305706766546
10
132.01189086065423
20
29.272718213837649
10
140.84109823576196
20
26.944573431538753
10
140.22916663160939
20
24.623896868154862
10
153.76644658468206
20
21.054295843931435
10
154.37837818883469
20
23.374972407315315
10
163.20758556394239
20
21.046827625016412
10
158.31213273072166
20
2.4814151179453381
0
LWPOLYLINE
5
478
100
AcDbEntity
8
0
100
AcDbPolyline
90
12
70
1
43
0.0
10
215.2445824515992
20
11.054773456691034
10
201.71832897653445
20
7.4436147883027992
10
202.43853437572085
20
4.7459540987342521
10
193.61651862709007
20
2.3907048272301878
10
188.66407245330026
20
20.940995307320101
10
197.48608820193061
20
23.296244578824066
10
198.10514397365432
20
20.977458268812811
10
211.63139744871984
20
24.58861693720123
10
211.01234167699616
20
26.907403247212478
10
219.83435742562654
20
29.262652518716404
10
224.78680359941646
20
10.712362038626511
10
215.96478785078568
20
8.3571127671224588
0
LWPOLYLINE
5
479
100
AcDbEntity
8
0
100
AcDbPolyline
90
12
70
1
43
0.0
10
324.57523278796646
20
100.05307464944208
10
310.57524661642651
20
100.03339733589766
10
310.57918207913491
20
97.233400101587947
10
301.44819109825352
20
97.220566276589793
10
301.42120506824938
20
116.4205473118457
10
310.55219604913032
20
116.43338113684381
10
310.55556930290982
20
114.0333835074138
10
324.55555547441668
20
114.05306082098342
10
324.5521822206718
20
116.45305845039044
10
333.68317320155268
20
116.46589227539003
10
333.71015923155721
20
97.265911240133732
10
324.57916825067656
20
97.253077415135451
0
LWPOLYLINE
5
480
100
AcDbEntity
8
0
100
AcDbPolyline
90
12
70
1
43
0.0
10
332.19522417332263
20
62.058906377385426
10
318.19523800178274
20
62.039229063841006
10
318.19917346449114
20
59.239231829531306
10
309.0681824836098
20
59.226398004533145
10
309.04119645360561
20
78.426379039789026
10
318.17218743448655
20
78.439212864787152
10
318.17556068826605
20
76.039215235357148
10
332.17554685977296
20
76.058892548926764
10
332.17217360602803
20
78.458890178333775
10
341.30316458690902
20
78.471724003333378
10
341.33015061691344
20
59.271742968077078
10
332.19915963603279
20
59.258909143078796
0
CIRCLE
5
481
100
AcDbEntity
8
0
100
AcDbCircle
10
-5.508192429413528
20
124.51077572935331
30
0
40
1.1000000000000019
210
0
220
0
230
1
0
CIRCLE
5
482
100
AcDbEntity
8
0
100
AcDbCircle
10
4.6108967410229198
20
122.45111691378462
30
0
40
1.0999999999999996
210
0
220
0
230
1
0
CIRCLE
5
483
100
AcDbEntity
8
0
100
AcDbCircle
10
90.270588314264728
20
122.45111691378462
30
0
40
1.0999999999999974
210
0
220
0
230
1
0
CIRCLE
5
484
100
AcDbEntity
8
0
100
AcDbCircle
10
99.410929498699431
20
124.51077572935341
30
0
40
1.0999999999999983
210
0
220
0
230
1
0
CIRCLE
5
485
100
AcDbEntity
8
0
100
AcDbCircle
10
175.9302798875058
20
122.45111691378547
30
0
40
1.1000000000000039
210
0
220
0
230
1
0
CIRCLE
5
486
100
AcDbEntity
8
0
100
AcDbCircle
10
252.44963027631044
20
124.51077572935316
30
0
40
1.0999999999999952
210
0
220
0
230
1
0
CIRCLE
5
487
100
AcDbEntity
8
0
100
AcDbCircle
10
261.58997146074523
20
122.45111691378622
30
0
40
1.099999999999989
210
0
220
0
230
1
0
CIRCLE
5
488
100
AcDbEntity
8
0
100
AcDbCircle
10
347.24966303398759
20
122.45111691378577
30
0
40
1.0999999999999814
210
0
220
0
230
1
0
CIRCLE
5
489
100
AcDbEntity
8
0
100
AcDbCircle
10
357.35673745995706
20
124.5107764341865
30
0
40
1.099999999999981
210
0
220
0
230
1
0
CIRCLE
5
490
100
AcDbEntity
8
0
100
AcDbCircle
10
357.39621364255288
20
71.517235768848025
30
0
40
1.1000000000000141
210
0
220
0
230
1
0
CIRCLE
5
491
100
AcDbEntity
8
0
100
AcDbCircle
10
357.28225958279126
20
17.967141832986307
30
0
40
1.1000000000000085
210
0
220
0
230
1
0
CIRCLE
5
492
100
AcDbEntity
8
0
100
AcDbCircle
10
347.9448764261723
20
18.742581831240418
30
0
40
1.1000000000000125
210
0
220
0
230
1
0
CIRCLE
5
493
100
AcDbEntity
8
0
100
AcDbCircle
10
266.78091975635238
20
7.4058821811837365
30
0
40
1.0999999999999983
210
0
220
0
230
1
0
CIRCLE
5
494
100
AcDbEntity
8
0
100
AcDbCircle
10
258.00733488298033
20
4.1448652876872361
30
0
40
1.1000000000000112
210
0
220
0
230
1
0
CIRCLE
5
495
100
AcDbEntity
8
0
100
AcDbCircle
10
175.99263330634585
20
-4.1471071797729975
30
0
40
1.0999999999999859
210
0
220
0
230
1
0
CIRCLE
5
496
100
AcDbEntity
8
0
100
AcDbCircle
10
98.99097255822852
20
3.3892909705744589
30
0
40
1.0999999999999963
210
0
220
0
230
1
0
CIRCLE
5
497
100
AcDbEntity
8
0
100
AcDbCircle
10
3.9844082698514907
20
18.776361617233754
30
0
40
1.1000000000000014
210
0
220
0
230
1
0
CIRCLE
5
498
100
AcDbEntity
8
0
100
AcDbCircle
10
-5.3532713507937357
20
18.004499772995576
30
0
40
1.0999999999999996
210
0
220
0
230
1
0
CIRCLE
5
499
100
AcDbEntity
8
0
100
AcDbCircle
10
-5.1678512449791514
20
84.171116913785795
30
0
40
1.099999999999997
210
0
220
0
230
1
0
CIRCLE
5
500
100
AcDbEntity
8
0
100
AcDbCircle
10
-5.167851244979218
20
57.971116913785757
30
0
40
1.0999999999999952
210
0
220
0
230
1
0
CIRCLE
5
501
100
AcDbEntity
8
0
100
AcDbCircle
10
90.224696423364435
20
6.6969236786778241
30
0
40
1.1000000000000001
210
0
220
0
230
1
0
ENDSEC
0
SECTION
2
OBJECTS
0
DICTIONARY
5
C
100
AcDbDictionary
3
ACAD_GROUP
350
D
3
ACAD_MLINESTYLE
350
17
0
DICTIONARY
5
D
100
AcDbDictionary
0
DICTIONARY
5
1A
330
C
100
AcDbDictionary
0
DICTIONARY
5
17
100
AcDbDictionary
0
ENDSEC
0
EOF
