G04 #@! TF.GenerationSoftware,KiCad,Pcbnew,(5.0.0-3-g5ebb6b6)*
G04 #@! TF.CreationDate,2019-09-26T15:54:15+09:00*
G04 #@! TF.ProjectId,dboard_alice15_ver.1,64626F6172645F616C69636531355F76,rev?*
G04 #@! TF.SameCoordinates,Original*
G04 #@! TF.FileFunction,Legend,Bot*
G04 #@! TF.FilePolarity,Positive*
%FSLAX46Y46*%
G04 Gerber Fmt 4.6, Leading zero omitted, Abs format (unit mm)*
G04 Created by KiCad (PCBNEW (5.0.0-3-g5ebb6b6)) date 2019 September 26, Thursday 15:54:15*
%MOMM*%
%LPD*%
G01*
G04 APERTURE LIST*
%ADD10C,0.150000*%
%ADD11C,0.120000*%
%ADD12C,0.125000*%
G04 APERTURE END LIST*
D10*
G04 #@! TO.C,U1*
X-2102000Y92978600D02*
X-2102000Y91968600D01*
X-2102000Y75178600D02*
X-2102000Y76178600D01*
X-3102000Y92978600D02*
X-2102000Y92978600D01*
X-3152000Y75178600D02*
X-2102000Y75178600D01*
X-35152000Y92978600D02*
X-35152000Y92028600D01*
X-35152000Y75178600D02*
X-35152000Y76178600D01*
X-35152000Y92978600D02*
X-34152000Y92978600D01*
X-35152000Y75178600D02*
X-34152000Y75178600D01*
D11*
G04 #@! TO.C,SW68*
X-33300000Y121700000D02*
X-33300000Y125700000D01*
X-33300000Y125700000D02*
X-30300000Y125700000D01*
X-30300000Y125700000D02*
X-30300000Y121700000D01*
X-30300000Y121700000D02*
X-33300000Y121700000D01*
G04 #@! TO.C,D1*
X136481986Y90970767D02*
X137532792Y94892426D01*
X138674638Y90383248D02*
X136481986Y90970767D01*
X139725443Y94304907D02*
X138674638Y90383248D01*
G04 #@! TO.C,D2*
X122341986Y74470767D02*
X123392792Y78392426D01*
X124534638Y73883248D02*
X122341986Y74470767D01*
X125585443Y77804907D02*
X124534638Y73883248D01*
G04 #@! TO.C,D3*
X121921986Y55180767D02*
X122972792Y59102426D01*
X124114638Y54593248D02*
X121921986Y55180767D01*
X125165443Y58514907D02*
X124114638Y54593248D01*
G04 #@! TO.C,D4*
X126341986Y34430767D02*
X127392792Y38352426D01*
X128534638Y33843248D02*
X126341986Y34430767D01*
X129585443Y37764907D02*
X128534638Y33843248D01*
G04 #@! TO.C,D5*
X115741986Y21610767D02*
X116792792Y25532426D01*
X117934638Y21023248D02*
X115741986Y21610767D01*
X118985443Y24944907D02*
X117934638Y21023248D01*
G04 #@! TO.C,D6*
X180935362Y27903248D02*
X179884557Y31824907D01*
X183128014Y28490767D02*
X180935362Y27903248D01*
X182077208Y32412426D02*
X183128014Y28490767D01*
G04 #@! TO.C,D7*
X168845362Y39453248D02*
X167794557Y43374907D01*
X171038014Y40040767D02*
X168845362Y39453248D01*
X169987208Y43962426D02*
X171038014Y40040767D01*
G04 #@! TO.C,D8*
X172885362Y60403248D02*
X171834557Y64324907D01*
X175078014Y60990767D02*
X172885362Y60403248D01*
X174027208Y64912426D02*
X175078014Y60990767D01*
G04 #@! TO.C,D9*
X163425362Y77463248D02*
X162374557Y81384907D01*
X165618014Y78050767D02*
X163425362Y77463248D01*
X164567208Y81972426D02*
X165618014Y78050767D01*
G04 #@! TO.C,D10*
X167830369Y97770063D02*
X166779564Y101691722D01*
X170023021Y98357582D02*
X167830369Y97770063D01*
X168972215Y102279241D02*
X170023021Y98357582D01*
G04 #@! TO.C,D11*
X118011986Y95220767D02*
X119062792Y99142426D01*
X120204638Y94633248D02*
X118011986Y95220767D01*
X121255443Y98554907D02*
X120204638Y94633248D01*
G04 #@! TO.C,D12*
X103661986Y79510767D02*
X104712792Y83432426D01*
X105854638Y78923248D02*
X103661986Y79510767D01*
X106905443Y82844907D02*
X105854638Y78923248D01*
G04 #@! TO.C,D13*
X103371986Y60210767D02*
X104422792Y64132426D01*
X105564638Y59623248D02*
X103371986Y60210767D01*
X106615443Y63544907D02*
X105564638Y59623248D01*
G04 #@! TO.C,D14*
X107701986Y39510767D02*
X108752792Y43432426D01*
X109894638Y38923248D02*
X107701986Y39510767D01*
X110945443Y42844907D02*
X109894638Y38923248D01*
G04 #@! TO.C,D15*
X186945362Y44853248D02*
X185894557Y48774907D01*
X189138014Y45440767D02*
X186945362Y44853248D01*
X188087208Y49362426D02*
X189138014Y45440767D01*
G04 #@! TO.C,D16*
X191185362Y65443248D02*
X190134557Y69364907D01*
X193378014Y66030767D02*
X191185362Y65443248D01*
X192327208Y69952426D02*
X193378014Y66030767D01*
G04 #@! TO.C,D17*
X181745362Y82503248D02*
X180694557Y86424907D01*
X183938014Y83090767D02*
X181745362Y82503248D01*
X182887208Y87012426D02*
X183938014Y83090767D01*
G04 #@! TO.C,D18*
X186130369Y102860063D02*
X185079564Y106781722D01*
X188323021Y103447582D02*
X186130369Y102860063D01*
X187272215Y107369241D02*
X188323021Y103447582D01*
G04 #@! TO.C,D19*
X99491986Y100580767D02*
X100542792Y104502426D01*
X101684638Y99993248D02*
X99491986Y100580767D01*
X102735443Y103914907D02*
X101684638Y99993248D01*
G04 #@! TO.C,D20*
X85391986Y84210767D02*
X86442792Y88132426D01*
X87584638Y83623248D02*
X85391986Y84210767D01*
X88635443Y87544907D02*
X87584638Y83623248D01*
G04 #@! TO.C,D21*
X85061986Y65160767D02*
X86112792Y69082426D01*
X87254638Y64573248D02*
X85061986Y65160767D01*
X88305443Y68494907D02*
X87254638Y64573248D01*
G04 #@! TO.C,D22*
X89351986Y44210767D02*
X90402792Y48132426D01*
X91544638Y43623248D02*
X89351986Y44210767D01*
X92595443Y47544907D02*
X91544638Y43623248D01*
G04 #@! TO.C,D23*
X77551986Y27050767D02*
X78602792Y30972426D01*
X79744638Y26463248D02*
X77551986Y27050767D01*
X80795443Y30384907D02*
X79744638Y26463248D01*
G04 #@! TO.C,D24*
X216775362Y34103248D02*
X215724557Y38024907D01*
X218968014Y34690767D02*
X216775362Y34103248D01*
X217917208Y38612426D02*
X218968014Y34690767D01*
G04 #@! TO.C,D25*
X205235362Y49413248D02*
X204184557Y53334907D01*
X207428014Y50000767D02*
X205235362Y49413248D01*
X206377208Y53922426D02*
X207428014Y50000767D01*
G04 #@! TO.C,D26*
X209495362Y70563248D02*
X208444557Y74484907D01*
X211688014Y71150767D02*
X209495362Y70563248D01*
X210637208Y75072426D02*
X211688014Y71150767D01*
G04 #@! TO.C,D27*
X200115362Y86993248D02*
X199064557Y90914907D01*
X202308014Y87580767D02*
X200115362Y86993248D01*
X201257208Y91502426D02*
X202308014Y87580767D01*
G04 #@! TO.C,D28*
X204435362Y107833248D02*
X203384557Y111754907D01*
X206628014Y108420767D02*
X204435362Y107833248D01*
X205577208Y112342426D02*
X206628014Y108420767D01*
G04 #@! TO.C,D29*
X81311986Y105440767D02*
X82362792Y109362426D01*
X83504638Y104853248D02*
X81311986Y105440767D01*
X84555443Y108774907D02*
X83504638Y104853248D01*
G04 #@! TO.C,D30*
X67001986Y89030767D02*
X68052792Y92952426D01*
X69194638Y88443248D02*
X67001986Y89030767D01*
X70245443Y92364907D02*
X69194638Y88443248D01*
G04 #@! TO.C,D31*
X66791986Y69730767D02*
X67842792Y73652426D01*
X68984638Y69143248D02*
X66791986Y69730767D01*
X70035443Y73064907D02*
X68984638Y69143248D01*
G04 #@! TO.C,D32*
X70871986Y48830767D02*
X71922792Y52752426D01*
X73064638Y48243248D02*
X70871986Y48830767D01*
X74115443Y52164907D02*
X73064638Y48243248D01*
G04 #@! TO.C,D33*
X223945362Y54273248D02*
X222894557Y58194907D01*
X226138014Y54860767D02*
X223945362Y54273248D01*
X225087208Y58782426D02*
X226138014Y54860767D01*
G04 #@! TO.C,D34*
X228145362Y75473248D02*
X227094557Y79394907D01*
X230338014Y76060767D02*
X228145362Y75473248D01*
X229287208Y79982426D02*
X230338014Y76060767D01*
G04 #@! TO.C,D35*
X218855362Y92213248D02*
X217804557Y96134907D01*
X221048014Y92800767D02*
X218855362Y92213248D01*
X219997208Y96722426D02*
X221048014Y92800767D01*
G04 #@! TO.C,D36*
X223165362Y112113248D02*
X222114557Y116034907D01*
X225358014Y112700767D02*
X223165362Y112113248D01*
X224307208Y116622426D02*
X225358014Y112700767D01*
G04 #@! TO.C,D37*
X63445000Y111890000D02*
X63445000Y115950000D01*
X65715000Y111890000D02*
X63445000Y111890000D01*
X65715000Y115950000D02*
X65715000Y111890000D01*
G04 #@! TO.C,D38*
X242885000Y53890000D02*
X242885000Y57950000D01*
X245155000Y53890000D02*
X242885000Y53890000D01*
X245155000Y57950000D02*
X245155000Y53890000D01*
G04 #@! TO.C,D39*
X247215000Y73000000D02*
X247215000Y77060000D01*
X249485000Y73000000D02*
X247215000Y73000000D01*
X249485000Y77060000D02*
X249485000Y73000000D01*
G04 #@! TO.C,D40*
X239625000Y92402500D02*
X239625000Y96462500D01*
X241895000Y92402500D02*
X239625000Y92402500D01*
X241895000Y96462500D02*
X241895000Y92402500D01*
G04 #@! TO.C,D41*
X241855000Y114200000D02*
X241855000Y118260000D01*
X244125000Y114200000D02*
X241855000Y114200000D01*
X244125000Y118260000D02*
X244125000Y114200000D01*
G04 #@! TO.C,D42*
X44635000Y111460000D02*
X44635000Y115520000D01*
X46905000Y111460000D02*
X44635000Y111460000D01*
X46905000Y115520000D02*
X46905000Y111460000D01*
G04 #@! TO.C,D43*
X49035000Y92790000D02*
X49035000Y96850000D01*
X51305000Y92790000D02*
X49035000Y92790000D01*
X51305000Y96850000D02*
X51305000Y92790000D01*
G04 #@! TO.C,D44*
X48815000Y73840000D02*
X48815000Y77900000D01*
X51085000Y73840000D02*
X48815000Y73840000D01*
X51085000Y77900000D02*
X51085000Y73840000D01*
G04 #@! TO.C,D45*
X52855000Y54230000D02*
X52855000Y58290000D01*
X55125000Y54230000D02*
X52855000Y54230000D01*
X55125000Y58290000D02*
X55125000Y54230000D01*
G04 #@! TO.C,D46*
X51775000Y35200000D02*
X51775000Y39260000D01*
X54045000Y35200000D02*
X51775000Y35200000D01*
X54045000Y39260000D02*
X54045000Y35200000D01*
G04 #@! TO.C,D47*
X261825000Y33780000D02*
X261825000Y37840000D01*
X264095000Y33780000D02*
X261825000Y33780000D01*
X264095000Y37840000D02*
X264095000Y33780000D01*
G04 #@! TO.C,D48*
X261995000Y53710000D02*
X261995000Y57770000D01*
X264265000Y53710000D02*
X261995000Y53710000D01*
X264265000Y57770000D02*
X264265000Y53710000D01*
G04 #@! TO.C,D49*
X266595000Y72740000D02*
X266595000Y76800000D01*
X268865000Y72740000D02*
X266595000Y72740000D01*
X268865000Y76800000D02*
X268865000Y72740000D01*
G04 #@! TO.C,D50*
X258555000Y91902500D02*
X258555000Y95962500D01*
X260825000Y91902500D02*
X258555000Y91902500D01*
X260825000Y95962500D02*
X260825000Y91902500D01*
G04 #@! TO.C,D51*
X261595000Y112060000D02*
X261595000Y116120000D01*
X263865000Y112060000D02*
X261595000Y112060000D01*
X263865000Y116120000D02*
X263865000Y112060000D01*
G04 #@! TO.C,D52*
X25605000Y111530000D02*
X25605000Y115590000D01*
X27875000Y111530000D02*
X25605000Y111530000D01*
X27875000Y115590000D02*
X27875000Y111530000D01*
G04 #@! TO.C,D53*
X25535000Y92210000D02*
X25535000Y96270000D01*
X27805000Y92210000D02*
X25535000Y92210000D01*
X27805000Y96270000D02*
X27805000Y92210000D01*
G04 #@! TO.C,D54*
X22435000Y73910000D02*
X22435000Y77970000D01*
X24705000Y73910000D02*
X22435000Y73910000D01*
X24705000Y77970000D02*
X24705000Y73910000D01*
G04 #@! TO.C,D55*
X22145000Y57760000D02*
X22145000Y61820000D01*
X24415000Y57760000D02*
X22145000Y57760000D01*
X24415000Y61820000D02*
X24415000Y57760000D01*
G04 #@! TO.C,D56*
X28055000Y35200000D02*
X28055000Y39260000D01*
X30325000Y35200000D02*
X28055000Y35200000D01*
X30325000Y39260000D02*
X30325000Y35200000D01*
G04 #@! TO.C,D57*
X280875000Y33362500D02*
X280875000Y37422500D01*
X283145000Y33362500D02*
X280875000Y33362500D01*
X283145000Y37422500D02*
X283145000Y33362500D01*
G04 #@! TO.C,D58*
X281285000Y53270000D02*
X281285000Y57330000D01*
X283555000Y53270000D02*
X281285000Y53270000D01*
X283555000Y57330000D02*
X283555000Y53270000D01*
G04 #@! TO.C,D59*
X278295000Y92070000D02*
X278295000Y96130000D01*
X280565000Y92070000D02*
X278295000Y92070000D01*
X280565000Y96130000D02*
X280565000Y92070000D01*
G04 #@! TO.C,D60*
X1895000Y112250000D02*
X1895000Y116310000D01*
X4165000Y112250000D02*
X1895000Y112250000D01*
X4165000Y116310000D02*
X4165000Y112250000D01*
G04 #@! TO.C,D63*
X300555000Y37560000D02*
X300555000Y41620000D01*
X302825000Y37560000D02*
X300555000Y37560000D01*
X302825000Y41620000D02*
X302825000Y37560000D01*
G04 #@! TO.C,D64*
X307845000Y56540000D02*
X307845000Y60600000D01*
X310115000Y56540000D02*
X307845000Y56540000D01*
X310115000Y60600000D02*
X310115000Y56540000D01*
G04 #@! TO.C,D65*
X297225000Y77040000D02*
X297225000Y81100000D01*
X299495000Y77040000D02*
X297225000Y77040000D01*
X299495000Y81100000D02*
X299495000Y77040000D01*
G04 #@! TO.C,D66*
X302255000Y92010000D02*
X302255000Y96070000D01*
X304525000Y92010000D02*
X302255000Y92010000D01*
X304525000Y96070000D02*
X304525000Y92010000D01*
G04 #@! TO.C,D67*
X290055000Y115780000D02*
X290055000Y119840000D01*
X292325000Y115780000D02*
X290055000Y115780000D01*
X292325000Y119840000D02*
X292325000Y115780000D01*
G04 #@! TO.C,R1*
X-13590000Y51670436D02*
X-13590000Y52874564D01*
X-11770000Y51670436D02*
X-11770000Y52874564D01*
G04 #@! TO.C,SW44*
D10*
X48959523Y73495238D02*
X48816666Y73447619D01*
X48578571Y73447619D01*
X48483333Y73495238D01*
X48435714Y73542857D01*
X48388095Y73638095D01*
X48388095Y73733333D01*
X48435714Y73828571D01*
X48483333Y73876190D01*
X48578571Y73923809D01*
X48769047Y73971428D01*
X48864285Y74019047D01*
X48911904Y74066666D01*
X48959523Y74161904D01*
X48959523Y74257142D01*
X48911904Y74352380D01*
X48864285Y74400000D01*
X48769047Y74447619D01*
X48530952Y74447619D01*
X48388095Y74400000D01*
X48054761Y74447619D02*
X47816666Y73447619D01*
X47626190Y74161904D01*
X47435714Y73447619D01*
X47197619Y74447619D01*
X46388095Y74114285D02*
X46388095Y73447619D01*
X46626190Y74495238D02*
X46864285Y73780952D01*
X46245238Y73780952D01*
X45435714Y74114285D02*
X45435714Y73447619D01*
X45673809Y74495238D02*
X45911904Y73780952D01*
X45292857Y73780952D01*
G04 #@! TO.C,SW65*
X297699523Y73485238D02*
X297556666Y73437619D01*
X297318571Y73437619D01*
X297223333Y73485238D01*
X297175714Y73532857D01*
X297128095Y73628095D01*
X297128095Y73723333D01*
X297175714Y73818571D01*
X297223333Y73866190D01*
X297318571Y73913809D01*
X297509047Y73961428D01*
X297604285Y74009047D01*
X297651904Y74056666D01*
X297699523Y74151904D01*
X297699523Y74247142D01*
X297651904Y74342380D01*
X297604285Y74390000D01*
X297509047Y74437619D01*
X297270952Y74437619D01*
X297128095Y74390000D01*
X296794761Y74437619D02*
X296556666Y73437619D01*
X296366190Y74151904D01*
X296175714Y73437619D01*
X295937619Y74437619D01*
X295128095Y74437619D02*
X295318571Y74437619D01*
X295413809Y74390000D01*
X295461428Y74342380D01*
X295556666Y74199523D01*
X295604285Y74009047D01*
X295604285Y73628095D01*
X295556666Y73532857D01*
X295509047Y73485238D01*
X295413809Y73437619D01*
X295223333Y73437619D01*
X295128095Y73485238D01*
X295080476Y73532857D01*
X295032857Y73628095D01*
X295032857Y73866190D01*
X295080476Y73961428D01*
X295128095Y74009047D01*
X295223333Y74056666D01*
X295413809Y74056666D01*
X295509047Y74009047D01*
X295556666Y73961428D01*
X295604285Y73866190D01*
X294128095Y74437619D02*
X294604285Y74437619D01*
X294651904Y73961428D01*
X294604285Y74009047D01*
X294509047Y74056666D01*
X294270952Y74056666D01*
X294175714Y74009047D01*
X294128095Y73961428D01*
X294080476Y73866190D01*
X294080476Y73628095D01*
X294128095Y73532857D01*
X294175714Y73485238D01*
X294270952Y73437619D01*
X294509047Y73437619D01*
X294604285Y73485238D01*
X294651904Y73532857D01*
G04 #@! TO.C,SW63*
X300459523Y35475238D02*
X300316666Y35427619D01*
X300078571Y35427619D01*
X299983333Y35475238D01*
X299935714Y35522857D01*
X299888095Y35618095D01*
X299888095Y35713333D01*
X299935714Y35808571D01*
X299983333Y35856190D01*
X300078571Y35903809D01*
X300269047Y35951428D01*
X300364285Y35999047D01*
X300411904Y36046666D01*
X300459523Y36141904D01*
X300459523Y36237142D01*
X300411904Y36332380D01*
X300364285Y36380000D01*
X300269047Y36427619D01*
X300030952Y36427619D01*
X299888095Y36380000D01*
X299554761Y36427619D02*
X299316666Y35427619D01*
X299126190Y36141904D01*
X298935714Y35427619D01*
X298697619Y36427619D01*
X297888095Y36427619D02*
X298078571Y36427619D01*
X298173809Y36380000D01*
X298221428Y36332380D01*
X298316666Y36189523D01*
X298364285Y35999047D01*
X298364285Y35618095D01*
X298316666Y35522857D01*
X298269047Y35475238D01*
X298173809Y35427619D01*
X297983333Y35427619D01*
X297888095Y35475238D01*
X297840476Y35522857D01*
X297792857Y35618095D01*
X297792857Y35856190D01*
X297840476Y35951428D01*
X297888095Y35999047D01*
X297983333Y36046666D01*
X298173809Y36046666D01*
X298269047Y35999047D01*
X298316666Y35951428D01*
X298364285Y35856190D01*
X297459523Y36427619D02*
X296840476Y36427619D01*
X297173809Y36046666D01*
X297030952Y36046666D01*
X296935714Y35999047D01*
X296888095Y35951428D01*
X296840476Y35856190D01*
X296840476Y35618095D01*
X296888095Y35522857D01*
X296935714Y35475238D01*
X297030952Y35427619D01*
X297316666Y35427619D01*
X297411904Y35475238D01*
X297459523Y35522857D01*
G04 #@! TO.C,U1*
D12*
X-23887000Y79929076D02*
X-23922714Y79992885D01*
X-23922714Y80088600D01*
X-23887000Y80184314D01*
X-23815571Y80248123D01*
X-23744142Y80280028D01*
X-23601285Y80311933D01*
X-23494142Y80311933D01*
X-23351285Y80280028D01*
X-23279857Y80248123D01*
X-23208428Y80184314D01*
X-23172714Y80088600D01*
X-23172714Y80024790D01*
X-23208428Y79929076D01*
X-23244142Y79897171D01*
X-23494142Y79897171D01*
X-23494142Y80024790D01*
X-23172714Y79610028D02*
X-23922714Y79610028D01*
X-23172714Y79227171D01*
X-23922714Y79227171D01*
X-23172714Y78908123D02*
X-23922714Y78908123D01*
X-23922714Y78748600D01*
X-23887000Y78652885D01*
X-23815571Y78589076D01*
X-23744142Y78557171D01*
X-23601285Y78525266D01*
X-23494142Y78525266D01*
X-23351285Y78557171D01*
X-23279857Y78589076D01*
X-23208428Y78652885D01*
X-23172714Y78748600D01*
X-23172714Y78908123D01*
X-33955571Y89653123D02*
X-33919857Y89557409D01*
X-33884142Y89525504D01*
X-33812714Y89493600D01*
X-33705571Y89493600D01*
X-33634142Y89525504D01*
X-33598428Y89557409D01*
X-33562714Y89621219D01*
X-33562714Y89876457D01*
X-34312714Y89876457D01*
X-34312714Y89653123D01*
X-34277000Y89589314D01*
X-34241285Y89557409D01*
X-34169857Y89525504D01*
X-34098428Y89525504D01*
X-34027000Y89557409D01*
X-33991285Y89589314D01*
X-33955571Y89653123D01*
X-33955571Y89876457D01*
X-33777000Y89238361D02*
X-33777000Y88919314D01*
X-33562714Y89302171D02*
X-34312714Y89078838D01*
X-33562714Y88855504D01*
X-34312714Y88727885D02*
X-34312714Y88345028D01*
X-33562714Y88536457D02*
X-34312714Y88536457D01*
X-30902714Y89661219D02*
X-31259857Y89884552D01*
X-30902714Y90044076D02*
X-31652714Y90044076D01*
X-31652714Y89788838D01*
X-31617000Y89725028D01*
X-31581285Y89693123D01*
X-31509857Y89661219D01*
X-31402714Y89661219D01*
X-31331285Y89693123D01*
X-31295571Y89725028D01*
X-31259857Y89788838D01*
X-31259857Y90044076D01*
X-31117000Y89405980D02*
X-31117000Y89086933D01*
X-30902714Y89469790D02*
X-31652714Y89246457D01*
X-30902714Y89023123D01*
X-31652714Y88863600D02*
X-30902714Y88704076D01*
X-31438428Y88576457D01*
X-30902714Y88448838D01*
X-31652714Y88289314D01*
X-29197000Y89529076D02*
X-29232714Y89592885D01*
X-29232714Y89688600D01*
X-29197000Y89784314D01*
X-29125571Y89848123D01*
X-29054142Y89880028D01*
X-28911285Y89911933D01*
X-28804142Y89911933D01*
X-28661285Y89880028D01*
X-28589857Y89848123D01*
X-28518428Y89784314D01*
X-28482714Y89688600D01*
X-28482714Y89624790D01*
X-28518428Y89529076D01*
X-28554142Y89497171D01*
X-28804142Y89497171D01*
X-28804142Y89624790D01*
X-28482714Y89210028D02*
X-29232714Y89210028D01*
X-28482714Y88827171D01*
X-29232714Y88827171D01*
X-28482714Y88508123D02*
X-29232714Y88508123D01*
X-29232714Y88348600D01*
X-29197000Y88252885D01*
X-29125571Y88189076D01*
X-29054142Y88157171D01*
X-28911285Y88125266D01*
X-28804142Y88125266D01*
X-28661285Y88157171D01*
X-28589857Y88189076D01*
X-28518428Y88252885D01*
X-28482714Y88348600D01*
X-28482714Y88508123D01*
X-25822714Y89330504D02*
X-26179857Y89553838D01*
X-25822714Y89713361D02*
X-26572714Y89713361D01*
X-26572714Y89458123D01*
X-26537000Y89394314D01*
X-26501285Y89362409D01*
X-26429857Y89330504D01*
X-26322714Y89330504D01*
X-26251285Y89362409D01*
X-26215571Y89394314D01*
X-26179857Y89458123D01*
X-26179857Y89713361D01*
X-25858428Y89075266D02*
X-25822714Y88979552D01*
X-25822714Y88820028D01*
X-25858428Y88756219D01*
X-25894142Y88724314D01*
X-25965571Y88692409D01*
X-26037000Y88692409D01*
X-26108428Y88724314D01*
X-26144142Y88756219D01*
X-26179857Y88820028D01*
X-26215571Y88947647D01*
X-26251285Y89011457D01*
X-26287000Y89043361D01*
X-26358428Y89075266D01*
X-26429857Y89075266D01*
X-26501285Y89043361D01*
X-26537000Y89011457D01*
X-26572714Y88947647D01*
X-26572714Y88788123D01*
X-26537000Y88692409D01*
X-26572714Y88500980D02*
X-26572714Y88118123D01*
X-25822714Y88309552D02*
X-26572714Y88309552D01*
X-24122714Y89856933D02*
X-23372714Y89633600D01*
X-24122714Y89410266D01*
X-23444142Y88804076D02*
X-23408428Y88835980D01*
X-23372714Y88931695D01*
X-23372714Y88995504D01*
X-23408428Y89091219D01*
X-23479857Y89155028D01*
X-23551285Y89186933D01*
X-23694142Y89218838D01*
X-23801285Y89218838D01*
X-23944142Y89186933D01*
X-24015571Y89155028D01*
X-24087000Y89091219D01*
X-24122714Y88995504D01*
X-24122714Y88931695D01*
X-24087000Y88835980D01*
X-24051285Y88804076D01*
X-23444142Y88134076D02*
X-23408428Y88165980D01*
X-23372714Y88261695D01*
X-23372714Y88325504D01*
X-23408428Y88421219D01*
X-23479857Y88485028D01*
X-23551285Y88516933D01*
X-23694142Y88548838D01*
X-23801285Y88548838D01*
X-23944142Y88516933D01*
X-24015571Y88485028D01*
X-24087000Y88421219D01*
X-24122714Y88325504D01*
X-24122714Y88261695D01*
X-24087000Y88165980D01*
X-24051285Y88134076D01*
X-20927000Y90299314D02*
X-20927000Y89980266D01*
X-20712714Y90363123D02*
X-21462714Y90139790D01*
X-20712714Y89916457D01*
X-21462714Y89756933D02*
X-21462714Y89342171D01*
X-21177000Y89565504D01*
X-21177000Y89469790D01*
X-21141285Y89405980D01*
X-21105571Y89374076D01*
X-21034142Y89342171D01*
X-20855571Y89342171D01*
X-20784142Y89374076D01*
X-20748428Y89405980D01*
X-20712714Y89469790D01*
X-20712714Y89661219D01*
X-20748428Y89725028D01*
X-20784142Y89756933D01*
X-21498428Y88576457D02*
X-20534142Y89150742D01*
X-21105571Y88129790D02*
X-21105571Y88353123D01*
X-20712714Y88353123D02*
X-21462714Y88353123D01*
X-21462714Y88034076D01*
X-21212714Y87491695D02*
X-20712714Y87491695D01*
X-21498428Y87651219D02*
X-20962714Y87810742D01*
X-20962714Y87395980D01*
X-18427000Y90299314D02*
X-18427000Y89980266D01*
X-18212714Y90363123D02*
X-18962714Y90139790D01*
X-18212714Y89916457D01*
X-18891285Y89725028D02*
X-18927000Y89693123D01*
X-18962714Y89629314D01*
X-18962714Y89469790D01*
X-18927000Y89405980D01*
X-18891285Y89374076D01*
X-18819857Y89342171D01*
X-18748428Y89342171D01*
X-18641285Y89374076D01*
X-18212714Y89756933D01*
X-18212714Y89342171D01*
X-18998428Y88576457D02*
X-18034142Y89150742D01*
X-18605571Y88129790D02*
X-18605571Y88353123D01*
X-18212714Y88353123D02*
X-18962714Y88353123D01*
X-18962714Y88034076D01*
X-18962714Y87459790D02*
X-18962714Y87778838D01*
X-18605571Y87810742D01*
X-18641285Y87778838D01*
X-18677000Y87715028D01*
X-18677000Y87555504D01*
X-18641285Y87491695D01*
X-18605571Y87459790D01*
X-18534142Y87427885D01*
X-18355571Y87427885D01*
X-18284142Y87459790D01*
X-18248428Y87491695D01*
X-18212714Y87555504D01*
X-18212714Y87715028D01*
X-18248428Y87778838D01*
X-18284142Y87810742D01*
X-15927000Y90299314D02*
X-15927000Y89980266D01*
X-15712714Y90363123D02*
X-16462714Y90139790D01*
X-15712714Y89916457D01*
X-15712714Y89342171D02*
X-15712714Y89725028D01*
X-15712714Y89533600D02*
X-16462714Y89533600D01*
X-16355571Y89597409D01*
X-16284142Y89661219D01*
X-16248428Y89725028D01*
X-16498428Y88576457D02*
X-15534142Y89150742D01*
X-16105571Y88129790D02*
X-16105571Y88353123D01*
X-15712714Y88353123D02*
X-16462714Y88353123D01*
X-16462714Y88034076D01*
X-16462714Y87491695D02*
X-16462714Y87619314D01*
X-16427000Y87683123D01*
X-16391285Y87715028D01*
X-16284142Y87778838D01*
X-16141285Y87810742D01*
X-15855571Y87810742D01*
X-15784142Y87778838D01*
X-15748428Y87746933D01*
X-15712714Y87683123D01*
X-15712714Y87555504D01*
X-15748428Y87491695D01*
X-15784142Y87459790D01*
X-15855571Y87427885D01*
X-16034142Y87427885D01*
X-16105571Y87459790D01*
X-16141285Y87491695D01*
X-16177000Y87555504D01*
X-16177000Y87683123D01*
X-16141285Y87746933D01*
X-16105571Y87778838D01*
X-16034142Y87810742D01*
X-13377000Y90299314D02*
X-13377000Y89980266D01*
X-13162714Y90363123D02*
X-13912714Y90139790D01*
X-13162714Y89916457D01*
X-13912714Y89565504D02*
X-13912714Y89501695D01*
X-13877000Y89437885D01*
X-13841285Y89405980D01*
X-13769857Y89374076D01*
X-13627000Y89342171D01*
X-13448428Y89342171D01*
X-13305571Y89374076D01*
X-13234142Y89405980D01*
X-13198428Y89437885D01*
X-13162714Y89501695D01*
X-13162714Y89565504D01*
X-13198428Y89629314D01*
X-13234142Y89661219D01*
X-13305571Y89693123D01*
X-13448428Y89725028D01*
X-13627000Y89725028D01*
X-13769857Y89693123D01*
X-13841285Y89661219D01*
X-13877000Y89629314D01*
X-13912714Y89565504D01*
X-13948428Y88576457D02*
X-12984142Y89150742D01*
X-13555571Y88129790D02*
X-13555571Y88353123D01*
X-13162714Y88353123D02*
X-13912714Y88353123D01*
X-13912714Y88034076D01*
X-13912714Y87842647D02*
X-13912714Y87395980D01*
X-13162714Y87683123D01*
X-10612714Y89996219D02*
X-10612714Y90379076D01*
X-10612714Y90187647D02*
X-11362714Y90187647D01*
X-11255571Y90251457D01*
X-11184142Y90315266D01*
X-11148428Y90379076D01*
X-11362714Y89390028D02*
X-11362714Y89709076D01*
X-11005571Y89740980D01*
X-11041285Y89709076D01*
X-11077000Y89645266D01*
X-11077000Y89485742D01*
X-11041285Y89421933D01*
X-11005571Y89390028D01*
X-10934142Y89358123D01*
X-10755571Y89358123D01*
X-10684142Y89390028D01*
X-10648428Y89421933D01*
X-10612714Y89485742D01*
X-10612714Y89645266D01*
X-10648428Y89709076D01*
X-10684142Y89740980D01*
X-11398428Y88592409D02*
X-10434142Y89166695D01*
X-11005571Y88145742D02*
X-10969857Y88050028D01*
X-10934142Y88018123D01*
X-10862714Y87986219D01*
X-10755571Y87986219D01*
X-10684142Y88018123D01*
X-10648428Y88050028D01*
X-10612714Y88113838D01*
X-10612714Y88369076D01*
X-11362714Y88369076D01*
X-11362714Y88145742D01*
X-11327000Y88081933D01*
X-11291285Y88050028D01*
X-11219857Y88018123D01*
X-11148428Y88018123D01*
X-11077000Y88050028D01*
X-11041285Y88081933D01*
X-11005571Y88145742D01*
X-11005571Y88369076D01*
X-10612714Y87348123D02*
X-10612714Y87730980D01*
X-10612714Y87539552D02*
X-11362714Y87539552D01*
X-11255571Y87603361D01*
X-11184142Y87667171D01*
X-11148428Y87730980D01*
X-8062714Y89996219D02*
X-8062714Y90379076D01*
X-8062714Y90187647D02*
X-8812714Y90187647D01*
X-8705571Y90251457D01*
X-8634142Y90315266D01*
X-8598428Y90379076D01*
X-8562714Y89421933D02*
X-8062714Y89421933D01*
X-8848428Y89581457D02*
X-8312714Y89740980D01*
X-8312714Y89326219D01*
X-8848428Y88592409D02*
X-7884142Y89166695D01*
X-8455571Y88145742D02*
X-8419857Y88050028D01*
X-8384142Y88018123D01*
X-8312714Y87986219D01*
X-8205571Y87986219D01*
X-8134142Y88018123D01*
X-8098428Y88050028D01*
X-8062714Y88113838D01*
X-8062714Y88369076D01*
X-8812714Y88369076D01*
X-8812714Y88145742D01*
X-8777000Y88081933D01*
X-8741285Y88050028D01*
X-8669857Y88018123D01*
X-8598428Y88018123D01*
X-8527000Y88050028D01*
X-8491285Y88081933D01*
X-8455571Y88145742D01*
X-8455571Y88369076D01*
X-8812714Y87762885D02*
X-8812714Y87348123D01*
X-8527000Y87571457D01*
X-8527000Y87475742D01*
X-8491285Y87411933D01*
X-8455571Y87380028D01*
X-8384142Y87348123D01*
X-8205571Y87348123D01*
X-8134142Y87380028D01*
X-8098428Y87411933D01*
X-8062714Y87475742D01*
X-8062714Y87667171D01*
X-8098428Y87730980D01*
X-8134142Y87762885D01*
X-3012714Y89996219D02*
X-3012714Y90379076D01*
X-3012714Y90187647D02*
X-3762714Y90187647D01*
X-3655571Y90251457D01*
X-3584142Y90315266D01*
X-3548428Y90379076D01*
X-3762714Y89581457D02*
X-3762714Y89517647D01*
X-3727000Y89453838D01*
X-3691285Y89421933D01*
X-3619857Y89390028D01*
X-3477000Y89358123D01*
X-3298428Y89358123D01*
X-3155571Y89390028D01*
X-3084142Y89421933D01*
X-3048428Y89453838D01*
X-3012714Y89517647D01*
X-3012714Y89581457D01*
X-3048428Y89645266D01*
X-3084142Y89677171D01*
X-3155571Y89709076D01*
X-3298428Y89740980D01*
X-3477000Y89740980D01*
X-3619857Y89709076D01*
X-3691285Y89677171D01*
X-3727000Y89645266D01*
X-3762714Y89581457D01*
X-3798428Y88592409D02*
X-2834142Y89166695D01*
X-3405571Y88145742D02*
X-3369857Y88050028D01*
X-3334142Y88018123D01*
X-3262714Y87986219D01*
X-3155571Y87986219D01*
X-3084142Y88018123D01*
X-3048428Y88050028D01*
X-3012714Y88113838D01*
X-3012714Y88369076D01*
X-3762714Y88369076D01*
X-3762714Y88145742D01*
X-3727000Y88081933D01*
X-3691285Y88050028D01*
X-3619857Y88018123D01*
X-3548428Y88018123D01*
X-3477000Y88050028D01*
X-3441285Y88081933D01*
X-3405571Y88145742D01*
X-3405571Y88369076D01*
X-3762714Y87411933D02*
X-3762714Y87539552D01*
X-3727000Y87603361D01*
X-3691285Y87635266D01*
X-3584142Y87699076D01*
X-3441285Y87730980D01*
X-3155571Y87730980D01*
X-3084142Y87699076D01*
X-3048428Y87667171D01*
X-3012714Y87603361D01*
X-3012714Y87475742D01*
X-3048428Y87411933D01*
X-3084142Y87380028D01*
X-3155571Y87348123D01*
X-3334142Y87348123D01*
X-3405571Y87380028D01*
X-3441285Y87411933D01*
X-3477000Y87475742D01*
X-3477000Y87603361D01*
X-3441285Y87667171D01*
X-3405571Y87699076D01*
X-3334142Y87730980D01*
X-5512714Y89996219D02*
X-5512714Y90379076D01*
X-5512714Y90187647D02*
X-6262714Y90187647D01*
X-6155571Y90251457D01*
X-6084142Y90315266D01*
X-6048428Y90379076D01*
X-6262714Y89421933D02*
X-6262714Y89549552D01*
X-6227000Y89613361D01*
X-6191285Y89645266D01*
X-6084142Y89709076D01*
X-5941285Y89740980D01*
X-5655571Y89740980D01*
X-5584142Y89709076D01*
X-5548428Y89677171D01*
X-5512714Y89613361D01*
X-5512714Y89485742D01*
X-5548428Y89421933D01*
X-5584142Y89390028D01*
X-5655571Y89358123D01*
X-5834142Y89358123D01*
X-5905571Y89390028D01*
X-5941285Y89421933D01*
X-5977000Y89485742D01*
X-5977000Y89613361D01*
X-5941285Y89677171D01*
X-5905571Y89709076D01*
X-5834142Y89740980D01*
X-6298428Y88592409D02*
X-5334142Y89166695D01*
X-5905571Y88145742D02*
X-5869857Y88050028D01*
X-5834142Y88018123D01*
X-5762714Y87986219D01*
X-5655571Y87986219D01*
X-5584142Y88018123D01*
X-5548428Y88050028D01*
X-5512714Y88113838D01*
X-5512714Y88369076D01*
X-6262714Y88369076D01*
X-6262714Y88145742D01*
X-6227000Y88081933D01*
X-6191285Y88050028D01*
X-6119857Y88018123D01*
X-6048428Y88018123D01*
X-5977000Y88050028D01*
X-5941285Y88081933D01*
X-5905571Y88145742D01*
X-5905571Y88369076D01*
X-6191285Y87730980D02*
X-6227000Y87699076D01*
X-6262714Y87635266D01*
X-6262714Y87475742D01*
X-6227000Y87411933D01*
X-6191285Y87380028D01*
X-6119857Y87348123D01*
X-6048428Y87348123D01*
X-5941285Y87380028D01*
X-5512714Y87762885D01*
X-5512714Y87348123D01*
X-8615571Y80706219D02*
X-8615571Y80482885D01*
X-8222714Y80387171D02*
X-8222714Y80706219D01*
X-8972714Y80706219D01*
X-8972714Y80387171D01*
X-8972714Y79812885D02*
X-8972714Y79940504D01*
X-8937000Y80004314D01*
X-8901285Y80036219D01*
X-8794142Y80100028D01*
X-8651285Y80131933D01*
X-8365571Y80131933D01*
X-8294142Y80100028D01*
X-8258428Y80068123D01*
X-8222714Y80004314D01*
X-8222714Y79876695D01*
X-8258428Y79812885D01*
X-8294142Y79780980D01*
X-8365571Y79749076D01*
X-8544142Y79749076D01*
X-8615571Y79780980D01*
X-8651285Y79812885D01*
X-8687000Y79876695D01*
X-8687000Y80004314D01*
X-8651285Y80068123D01*
X-8615571Y80100028D01*
X-8544142Y80131933D01*
X-9008428Y78983361D02*
X-8044142Y79557647D01*
X-8972714Y78823838D02*
X-8972714Y78377171D01*
X-8222714Y78664314D01*
X-10772714Y80738123D02*
X-11522714Y80738123D01*
X-11522714Y80578600D01*
X-11487000Y80482885D01*
X-11415571Y80419076D01*
X-11344142Y80387171D01*
X-11201285Y80355266D01*
X-11094142Y80355266D01*
X-10951285Y80387171D01*
X-10879857Y80419076D01*
X-10808428Y80482885D01*
X-10772714Y80578600D01*
X-10772714Y80738123D01*
X-11522714Y80131933D02*
X-11522714Y79685266D01*
X-10772714Y79972409D01*
X-11558428Y78951457D02*
X-10594142Y79525742D01*
X-11522714Y78440980D02*
X-11522714Y78568600D01*
X-11487000Y78632409D01*
X-11451285Y78664314D01*
X-11344142Y78728123D01*
X-11201285Y78760028D01*
X-10915571Y78760028D01*
X-10844142Y78728123D01*
X-10808428Y78696219D01*
X-10772714Y78632409D01*
X-10772714Y78504790D01*
X-10808428Y78440980D01*
X-10844142Y78409076D01*
X-10915571Y78377171D01*
X-11094142Y78377171D01*
X-11165571Y78409076D01*
X-11201285Y78440980D01*
X-11237000Y78504790D01*
X-11237000Y78632409D01*
X-11201285Y78696219D01*
X-11165571Y78728123D01*
X-11094142Y78760028D01*
X-26497000Y79789076D02*
X-26532714Y79852885D01*
X-26532714Y79948600D01*
X-26497000Y80044314D01*
X-26425571Y80108123D01*
X-26354142Y80140028D01*
X-26211285Y80171933D01*
X-26104142Y80171933D01*
X-25961285Y80140028D01*
X-25889857Y80108123D01*
X-25818428Y80044314D01*
X-25782714Y79948600D01*
X-25782714Y79884790D01*
X-25818428Y79789076D01*
X-25854142Y79757171D01*
X-26104142Y79757171D01*
X-26104142Y79884790D01*
X-25782714Y79470028D02*
X-26532714Y79470028D01*
X-25782714Y79087171D01*
X-26532714Y79087171D01*
X-25782714Y78768123D02*
X-26532714Y78768123D01*
X-26532714Y78608600D01*
X-26497000Y78512885D01*
X-26425571Y78449076D01*
X-26354142Y78417171D01*
X-26211285Y78385266D01*
X-26104142Y78385266D01*
X-25961285Y78417171D01*
X-25889857Y78449076D01*
X-25818428Y78512885D01*
X-25782714Y78608600D01*
X-25782714Y78768123D01*
X-23887000Y79929076D02*
X-23922714Y79992885D01*
X-23922714Y80088600D01*
X-23887000Y80184314D01*
X-23815571Y80248123D01*
X-23744142Y80280028D01*
X-23601285Y80311933D01*
X-23494142Y80311933D01*
X-23351285Y80280028D01*
X-23279857Y80248123D01*
X-23208428Y80184314D01*
X-23172714Y80088600D01*
X-23172714Y80024790D01*
X-23208428Y79929076D01*
X-23244142Y79897171D01*
X-23494142Y79897171D01*
X-23494142Y80024790D01*
X-23172714Y79610028D02*
X-23922714Y79610028D01*
X-23172714Y79227171D01*
X-23922714Y79227171D01*
X-23172714Y78908123D02*
X-23922714Y78908123D01*
X-23922714Y78748600D01*
X-23887000Y78652885D01*
X-23815571Y78589076D01*
X-23744142Y78557171D01*
X-23601285Y78525266D01*
X-23494142Y78525266D01*
X-23351285Y78557171D01*
X-23279857Y78589076D01*
X-23208428Y78652885D01*
X-23172714Y78748600D01*
X-23172714Y78908123D01*
X-31042714Y81347409D02*
X-31792714Y81347409D01*
X-31792714Y81187885D01*
X-31757000Y81092171D01*
X-31685571Y81028361D01*
X-31614142Y80996457D01*
X-31471285Y80964552D01*
X-31364142Y80964552D01*
X-31221285Y80996457D01*
X-31149857Y81028361D01*
X-31078428Y81092171D01*
X-31042714Y81187885D01*
X-31042714Y81347409D01*
X-31792714Y80741219D02*
X-31792714Y80326457D01*
X-31507000Y80549790D01*
X-31507000Y80454076D01*
X-31471285Y80390266D01*
X-31435571Y80358361D01*
X-31364142Y80326457D01*
X-31185571Y80326457D01*
X-31114142Y80358361D01*
X-31078428Y80390266D01*
X-31042714Y80454076D01*
X-31042714Y80645504D01*
X-31078428Y80709314D01*
X-31114142Y80741219D01*
X-31828428Y79560742D02*
X-30864142Y80135028D01*
X-31792714Y79433123D02*
X-31792714Y79050266D01*
X-31042714Y79241695D02*
X-31792714Y79241695D01*
X-31792714Y78890742D02*
X-31042714Y78444076D01*
X-31792714Y78444076D02*
X-31042714Y78890742D01*
X-31792714Y78061219D02*
X-31792714Y77997409D01*
X-31757000Y77933600D01*
X-31721285Y77901695D01*
X-31649857Y77869790D01*
X-31507000Y77837885D01*
X-31328428Y77837885D01*
X-31185571Y77869790D01*
X-31114142Y77901695D01*
X-31078428Y77933600D01*
X-31042714Y77997409D01*
X-31042714Y78061219D01*
X-31078428Y78125028D01*
X-31114142Y78156933D01*
X-31185571Y78188838D01*
X-31328428Y78220742D01*
X-31507000Y78220742D01*
X-31649857Y78188838D01*
X-31721285Y78156933D01*
X-31757000Y78125028D01*
X-31792714Y78061219D01*
X-15872714Y80738123D02*
X-16622714Y80738123D01*
X-16622714Y80578600D01*
X-16587000Y80482885D01*
X-16515571Y80419076D01*
X-16444142Y80387171D01*
X-16301285Y80355266D01*
X-16194142Y80355266D01*
X-16051285Y80387171D01*
X-15979857Y80419076D01*
X-15908428Y80482885D01*
X-15872714Y80578600D01*
X-15872714Y80738123D01*
X-16372714Y79780980D02*
X-15872714Y79780980D01*
X-16658428Y79940504D02*
X-16122714Y80100028D01*
X-16122714Y79685266D01*
X-16658428Y78951457D02*
X-15694142Y79525742D01*
X-16372714Y78440980D02*
X-15872714Y78440980D01*
X-16658428Y78600504D02*
X-16122714Y78760028D01*
X-16122714Y78345266D01*
X-20768428Y83042171D02*
X-20732714Y82946457D01*
X-20732714Y82786933D01*
X-20768428Y82723123D01*
X-20804142Y82691219D01*
X-20875571Y82659314D01*
X-20947000Y82659314D01*
X-21018428Y82691219D01*
X-21054142Y82723123D01*
X-21089857Y82786933D01*
X-21125571Y82914552D01*
X-21161285Y82978361D01*
X-21197000Y83010266D01*
X-21268428Y83042171D01*
X-21339857Y83042171D01*
X-21411285Y83010266D01*
X-21447000Y82978361D01*
X-21482714Y82914552D01*
X-21482714Y82755028D01*
X-21447000Y82659314D01*
X-20732714Y82372171D02*
X-21482714Y82372171D01*
X-21482714Y82212647D01*
X-21447000Y82116933D01*
X-21375571Y82053123D01*
X-21304142Y82021219D01*
X-21161285Y81989314D01*
X-21054142Y81989314D01*
X-20911285Y82021219D01*
X-20839857Y82053123D01*
X-20768428Y82116933D01*
X-20732714Y82212647D01*
X-20732714Y82372171D01*
X-20947000Y81734076D02*
X-20947000Y81415028D01*
X-20732714Y81797885D02*
X-21482714Y81574552D01*
X-20732714Y81351219D01*
X-21518428Y80649314D02*
X-20554142Y81223600D01*
X-20732714Y80425980D02*
X-21482714Y80425980D01*
X-21482714Y80266457D01*
X-21447000Y80170742D01*
X-21375571Y80106933D01*
X-21304142Y80075028D01*
X-21161285Y80043123D01*
X-21054142Y80043123D01*
X-20911285Y80075028D01*
X-20839857Y80106933D01*
X-20768428Y80170742D01*
X-20732714Y80266457D01*
X-20732714Y80425980D01*
X-20732714Y79405028D02*
X-20732714Y79787885D01*
X-20732714Y79596457D02*
X-21482714Y79596457D01*
X-21375571Y79660266D01*
X-21304142Y79724076D01*
X-21268428Y79787885D01*
X-21518428Y78639314D02*
X-20554142Y79213600D01*
X-21411285Y78447885D02*
X-21447000Y78415980D01*
X-21482714Y78352171D01*
X-21482714Y78192647D01*
X-21447000Y78128838D01*
X-21411285Y78096933D01*
X-21339857Y78065028D01*
X-21268428Y78065028D01*
X-21161285Y78096933D01*
X-20732714Y78479790D01*
X-20732714Y78065028D01*
X-18268428Y83026219D02*
X-18232714Y82930504D01*
X-18232714Y82770980D01*
X-18268428Y82707171D01*
X-18304142Y82675266D01*
X-18375571Y82643361D01*
X-18447000Y82643361D01*
X-18518428Y82675266D01*
X-18554142Y82707171D01*
X-18589857Y82770980D01*
X-18625571Y82898600D01*
X-18661285Y82962409D01*
X-18697000Y82994314D01*
X-18768428Y83026219D01*
X-18839857Y83026219D01*
X-18911285Y82994314D01*
X-18947000Y82962409D01*
X-18982714Y82898600D01*
X-18982714Y82739076D01*
X-18947000Y82643361D01*
X-18304142Y81973361D02*
X-18268428Y82005266D01*
X-18232714Y82100980D01*
X-18232714Y82164790D01*
X-18268428Y82260504D01*
X-18339857Y82324314D01*
X-18411285Y82356219D01*
X-18554142Y82388123D01*
X-18661285Y82388123D01*
X-18804142Y82356219D01*
X-18875571Y82324314D01*
X-18947000Y82260504D01*
X-18982714Y82164790D01*
X-18982714Y82100980D01*
X-18947000Y82005266D01*
X-18911285Y81973361D01*
X-18232714Y81367171D02*
X-18232714Y81686219D01*
X-18982714Y81686219D01*
X-19018428Y80665266D02*
X-18054142Y81239552D01*
X-18232714Y80441933D02*
X-18982714Y80441933D01*
X-18982714Y80282409D01*
X-18947000Y80186695D01*
X-18875571Y80122885D01*
X-18804142Y80090980D01*
X-18661285Y80059076D01*
X-18554142Y80059076D01*
X-18411285Y80090980D01*
X-18339857Y80122885D01*
X-18268428Y80186695D01*
X-18232714Y80282409D01*
X-18232714Y80441933D01*
X-18982714Y79644314D02*
X-18982714Y79580504D01*
X-18947000Y79516695D01*
X-18911285Y79484790D01*
X-18839857Y79452885D01*
X-18697000Y79420980D01*
X-18518428Y79420980D01*
X-18375571Y79452885D01*
X-18304142Y79484790D01*
X-18268428Y79516695D01*
X-18232714Y79580504D01*
X-18232714Y79644314D01*
X-18268428Y79708123D01*
X-18304142Y79740028D01*
X-18375571Y79771933D01*
X-18518428Y79803838D01*
X-18697000Y79803838D01*
X-18839857Y79771933D01*
X-18911285Y79740028D01*
X-18947000Y79708123D01*
X-18982714Y79644314D01*
X-19018428Y78655266D02*
X-18054142Y79229552D01*
X-18982714Y78495742D02*
X-18982714Y78080980D01*
X-18697000Y78304314D01*
X-18697000Y78208600D01*
X-18661285Y78144790D01*
X-18625571Y78112885D01*
X-18554142Y78080980D01*
X-18375571Y78080980D01*
X-18304142Y78112885D01*
X-18268428Y78144790D01*
X-18232714Y78208600D01*
X-18232714Y78400028D01*
X-18268428Y78463838D01*
X-18304142Y78495742D01*
X-13394142Y80355266D02*
X-13358428Y80387171D01*
X-13322714Y80482885D01*
X-13322714Y80546695D01*
X-13358428Y80642409D01*
X-13429857Y80706219D01*
X-13501285Y80738123D01*
X-13644142Y80770028D01*
X-13751285Y80770028D01*
X-13894142Y80738123D01*
X-13965571Y80706219D01*
X-14037000Y80642409D01*
X-14072714Y80546695D01*
X-14072714Y80482885D01*
X-14037000Y80387171D01*
X-14001285Y80355266D01*
X-14072714Y79780980D02*
X-14072714Y79908600D01*
X-14037000Y79972409D01*
X-14001285Y80004314D01*
X-13894142Y80068123D01*
X-13751285Y80100028D01*
X-13465571Y80100028D01*
X-13394142Y80068123D01*
X-13358428Y80036219D01*
X-13322714Y79972409D01*
X-13322714Y79844790D01*
X-13358428Y79780980D01*
X-13394142Y79749076D01*
X-13465571Y79717171D01*
X-13644142Y79717171D01*
X-13715571Y79749076D01*
X-13751285Y79780980D01*
X-13787000Y79844790D01*
X-13787000Y79972409D01*
X-13751285Y80036219D01*
X-13715571Y80068123D01*
X-13644142Y80100028D01*
X-14108428Y78951457D02*
X-13144142Y79525742D01*
X-14072714Y78409076D02*
X-14072714Y78728123D01*
X-13715571Y78760028D01*
X-13751285Y78728123D01*
X-13787000Y78664314D01*
X-13787000Y78504790D01*
X-13751285Y78440980D01*
X-13715571Y78409076D01*
X-13644142Y78377171D01*
X-13465571Y78377171D01*
X-13394142Y78409076D01*
X-13358428Y78440980D01*
X-13322714Y78504790D01*
X-13322714Y78664314D01*
X-13358428Y78728123D01*
X-13394142Y78760028D01*
X-3565571Y80514790D02*
X-3529857Y80419076D01*
X-3494142Y80387171D01*
X-3422714Y80355266D01*
X-3315571Y80355266D01*
X-3244142Y80387171D01*
X-3208428Y80419076D01*
X-3172714Y80482885D01*
X-3172714Y80738123D01*
X-3922714Y80738123D01*
X-3922714Y80514790D01*
X-3887000Y80450980D01*
X-3851285Y80419076D01*
X-3779857Y80387171D01*
X-3708428Y80387171D01*
X-3637000Y80419076D01*
X-3601285Y80450980D01*
X-3565571Y80514790D01*
X-3565571Y80738123D01*
X-3922714Y79749076D02*
X-3922714Y80068123D01*
X-3565571Y80100028D01*
X-3601285Y80068123D01*
X-3637000Y80004314D01*
X-3637000Y79844790D01*
X-3601285Y79780980D01*
X-3565571Y79749076D01*
X-3494142Y79717171D01*
X-3315571Y79717171D01*
X-3244142Y79749076D01*
X-3208428Y79780980D01*
X-3172714Y79844790D01*
X-3172714Y80004314D01*
X-3208428Y80068123D01*
X-3244142Y80100028D01*
X-3958428Y78951457D02*
X-2994142Y79525742D01*
X-3172714Y78696219D02*
X-3172714Y78568600D01*
X-3208428Y78504790D01*
X-3244142Y78472885D01*
X-3351285Y78409076D01*
X-3494142Y78377171D01*
X-3779857Y78377171D01*
X-3851285Y78409076D01*
X-3887000Y78440980D01*
X-3922714Y78504790D01*
X-3922714Y78632409D01*
X-3887000Y78696219D01*
X-3851285Y78728123D01*
X-3779857Y78760028D01*
X-3601285Y78760028D01*
X-3529857Y78728123D01*
X-3494142Y78696219D01*
X-3458428Y78632409D01*
X-3458428Y78504790D01*
X-3494142Y78440980D01*
X-3529857Y78409076D01*
X-3601285Y78377171D01*
X-28622714Y81707171D02*
X-29372714Y81707171D01*
X-29372714Y81547647D01*
X-29337000Y81451933D01*
X-29265571Y81388123D01*
X-29194142Y81356219D01*
X-29051285Y81324314D01*
X-28944142Y81324314D01*
X-28801285Y81356219D01*
X-28729857Y81388123D01*
X-28658428Y81451933D01*
X-28622714Y81547647D01*
X-28622714Y81707171D01*
X-29301285Y81069076D02*
X-29337000Y81037171D01*
X-29372714Y80973361D01*
X-29372714Y80813838D01*
X-29337000Y80750028D01*
X-29301285Y80718123D01*
X-29229857Y80686219D01*
X-29158428Y80686219D01*
X-29051285Y80718123D01*
X-28622714Y81100980D01*
X-28622714Y80686219D01*
X-29408428Y79920504D02*
X-28444142Y80494790D01*
X-28622714Y79314314D02*
X-28979857Y79537647D01*
X-28622714Y79697171D02*
X-29372714Y79697171D01*
X-29372714Y79441933D01*
X-29337000Y79378123D01*
X-29301285Y79346219D01*
X-29229857Y79314314D01*
X-29122714Y79314314D01*
X-29051285Y79346219D01*
X-29015571Y79378123D01*
X-28979857Y79441933D01*
X-28979857Y79697171D01*
X-29372714Y79090980D02*
X-28622714Y78644314D01*
X-29372714Y78644314D02*
X-28622714Y79090980D01*
X-28622714Y78038123D02*
X-28622714Y78420980D01*
X-28622714Y78229552D02*
X-29372714Y78229552D01*
X-29265571Y78293361D01*
X-29194142Y78357171D01*
X-29158428Y78420980D01*
X-6065571Y80514790D02*
X-6029857Y80419076D01*
X-5994142Y80387171D01*
X-5922714Y80355266D01*
X-5815571Y80355266D01*
X-5744142Y80387171D01*
X-5708428Y80419076D01*
X-5672714Y80482885D01*
X-5672714Y80738123D01*
X-6422714Y80738123D01*
X-6422714Y80514790D01*
X-6387000Y80450980D01*
X-6351285Y80419076D01*
X-6279857Y80387171D01*
X-6208428Y80387171D01*
X-6137000Y80419076D01*
X-6101285Y80450980D01*
X-6065571Y80514790D01*
X-6065571Y80738123D01*
X-6172714Y79780980D02*
X-5672714Y79780980D01*
X-6458428Y79940504D02*
X-5922714Y80100028D01*
X-5922714Y79685266D01*
X-6458428Y78951457D02*
X-5494142Y79525742D01*
X-6101285Y78632409D02*
X-6137000Y78696219D01*
X-6172714Y78728123D01*
X-6244142Y78760028D01*
X-6279857Y78760028D01*
X-6351285Y78728123D01*
X-6387000Y78696219D01*
X-6422714Y78632409D01*
X-6422714Y78504790D01*
X-6387000Y78440980D01*
X-6351285Y78409076D01*
X-6279857Y78377171D01*
X-6244142Y78377171D01*
X-6172714Y78409076D01*
X-6137000Y78440980D01*
X-6101285Y78504790D01*
X-6101285Y78632409D01*
X-6065571Y78696219D01*
X-6029857Y78728123D01*
X-5958428Y78760028D01*
X-5815571Y78760028D01*
X-5744142Y78728123D01*
X-5708428Y78696219D01*
X-5672714Y78632409D01*
X-5672714Y78504790D01*
X-5708428Y78440980D01*
X-5744142Y78409076D01*
X-5815571Y78377171D01*
X-5958428Y78377171D01*
X-6029857Y78409076D01*
X-6065571Y78440980D01*
X-6101285Y78504790D01*
G04 #@! TO.C,SW68*
D10*
X-28095238Y125459523D02*
X-28047619Y125316666D01*
X-28047619Y125078571D01*
X-28095238Y124983333D01*
X-28142857Y124935714D01*
X-28238095Y124888095D01*
X-28333333Y124888095D01*
X-28428571Y124935714D01*
X-28476190Y124983333D01*
X-28523809Y125078571D01*
X-28571428Y125269047D01*
X-28619047Y125364285D01*
X-28666666Y125411904D01*
X-28761904Y125459523D01*
X-28857142Y125459523D01*
X-28952380Y125411904D01*
X-29000000Y125364285D01*
X-29047619Y125269047D01*
X-29047619Y125030952D01*
X-29000000Y124888095D01*
X-29047619Y124554761D02*
X-28047619Y124316666D01*
X-28761904Y124126190D01*
X-28047619Y123935714D01*
X-29047619Y123697619D01*
X-29047619Y122888095D02*
X-29047619Y123078571D01*
X-29000000Y123173809D01*
X-28952380Y123221428D01*
X-28809523Y123316666D01*
X-28619047Y123364285D01*
X-28238095Y123364285D01*
X-28142857Y123316666D01*
X-28095238Y123269047D01*
X-28047619Y123173809D01*
X-28047619Y122983333D01*
X-28095238Y122888095D01*
X-28142857Y122840476D01*
X-28238095Y122792857D01*
X-28476190Y122792857D01*
X-28571428Y122840476D01*
X-28619047Y122888095D01*
X-28666666Y122983333D01*
X-28666666Y123173809D01*
X-28619047Y123269047D01*
X-28571428Y123316666D01*
X-28476190Y123364285D01*
X-28619047Y122221428D02*
X-28666666Y122316666D01*
X-28714285Y122364285D01*
X-28809523Y122411904D01*
X-28857142Y122411904D01*
X-28952380Y122364285D01*
X-29000000Y122316666D01*
X-29047619Y122221428D01*
X-29047619Y122030952D01*
X-29000000Y121935714D01*
X-28952380Y121888095D01*
X-28857142Y121840476D01*
X-28809523Y121840476D01*
X-28714285Y121888095D01*
X-28666666Y121935714D01*
X-28619047Y122030952D01*
X-28619047Y122221428D01*
X-28571428Y122316666D01*
X-28523809Y122364285D01*
X-28428571Y122411904D01*
X-28238095Y122411904D01*
X-28142857Y122364285D01*
X-28095238Y122316666D01*
X-28047619Y122221428D01*
X-28047619Y122030952D01*
X-28095238Y121935714D01*
X-28142857Y121888095D01*
X-28238095Y121840476D01*
X-28428571Y121840476D01*
X-28523809Y121888095D01*
X-28571428Y121935714D01*
X-28619047Y122030952D01*
G04 #@! TO.C,D1*
X140600991Y93177994D02*
X139635065Y93436813D01*
X139573442Y93206831D01*
X139582464Y93056517D01*
X139649807Y92939874D01*
X139729476Y92869228D01*
X139901137Y92773933D01*
X140039126Y92736959D01*
X140235437Y92733656D01*
X140339754Y92755003D01*
X140456397Y92822347D01*
X140539367Y92948012D01*
X140600991Y93177994D01*
X140206600Y91706107D02*
X140354497Y92258065D01*
X140280548Y91982086D02*
X139314623Y92240905D01*
X139477261Y92295924D01*
X139593904Y92363267D01*
X139664550Y92442935D01*
G04 #@! TO.C,D2*
X126460991Y76677994D02*
X125495065Y76936813D01*
X125433442Y76706831D01*
X125442464Y76556517D01*
X125509807Y76439874D01*
X125589476Y76369228D01*
X125761137Y76273933D01*
X125899126Y76236959D01*
X126095437Y76233656D01*
X126199754Y76255003D01*
X126316397Y76322347D01*
X126399367Y76448012D01*
X126460991Y76677994D01*
X125340564Y75992234D02*
X125282243Y75958562D01*
X125211597Y75878894D01*
X125149973Y75648912D01*
X125171320Y75544594D01*
X125204992Y75486273D01*
X125284660Y75415627D01*
X125376653Y75390978D01*
X125526967Y75400000D01*
X126226821Y75804061D01*
X126066600Y75206107D01*
G04 #@! TO.C,D3*
X126040991Y57387994D02*
X125075065Y57646813D01*
X125013442Y57416831D01*
X125022464Y57266517D01*
X125089807Y57149874D01*
X125169476Y57079228D01*
X125341137Y56983933D01*
X125479126Y56946959D01*
X125675437Y56943656D01*
X125779754Y56965003D01*
X125896397Y57032347D01*
X125979367Y57158012D01*
X126040991Y57387994D01*
X124840896Y56772880D02*
X124680674Y56174926D01*
X125134919Y56398304D01*
X125097945Y56260314D01*
X125119292Y56155997D01*
X125152964Y56097675D01*
X125232632Y56027029D01*
X125462614Y55965406D01*
X125566932Y55986753D01*
X125625253Y56020425D01*
X125695899Y56100093D01*
X125769847Y56376072D01*
X125748500Y56480389D01*
X125714829Y56538710D01*
G04 #@! TO.C,D4*
X130460991Y36637994D02*
X129495065Y36896813D01*
X129433442Y36666831D01*
X129442464Y36516517D01*
X129509807Y36399874D01*
X129589476Y36329228D01*
X129761137Y36233933D01*
X129899126Y36196959D01*
X130095437Y36193656D01*
X130199754Y36215003D01*
X130316397Y36282347D01*
X130399367Y36408012D01*
X130460991Y36637994D01*
X129447299Y35430646D02*
X130091250Y35258100D01*
X129140951Y35759226D02*
X129892521Y35804338D01*
X129732300Y35206384D01*
G04 #@! TO.C,D5*
X119860991Y23817994D02*
X118895065Y24076813D01*
X118833442Y23846831D01*
X118842464Y23696517D01*
X118909807Y23579874D01*
X118989476Y23509228D01*
X119161137Y23413933D01*
X119299126Y23376959D01*
X119495437Y23373656D01*
X119599754Y23395003D01*
X119716397Y23462347D01*
X119799367Y23588012D01*
X119860991Y23817994D01*
X118512999Y22650922D02*
X118636246Y23110887D01*
X119108536Y23033636D01*
X119050214Y22999965D01*
X118979568Y22920296D01*
X118917945Y22690314D01*
X118939292Y22585997D01*
X118972964Y22527675D01*
X119052632Y22457029D01*
X119282614Y22395406D01*
X119386932Y22416753D01*
X119445253Y22450425D01*
X119515899Y22530093D01*
X119577523Y22760075D01*
X119556176Y22864393D01*
X119522504Y22922714D01*
G04 #@! TO.C,D6*
X182907044Y30214205D02*
X183872970Y30473024D01*
X183811346Y30703007D01*
X183728376Y30828672D01*
X183611733Y30896015D01*
X183507416Y30917362D01*
X183311105Y30914060D01*
X183173116Y30877086D01*
X183001455Y30781790D01*
X182921786Y30711144D01*
X182854443Y30594502D01*
X182845421Y30444188D01*
X182907044Y30214205D01*
X183503228Y31852919D02*
X183552527Y31668933D01*
X183531180Y31564615D01*
X183497509Y31506294D01*
X183384169Y31377327D01*
X183212507Y31282031D01*
X182844536Y31183434D01*
X182740218Y31204781D01*
X182681897Y31238452D01*
X182611251Y31318121D01*
X182561952Y31502107D01*
X182583299Y31606424D01*
X182616971Y31664745D01*
X182696639Y31735391D01*
X182926621Y31797015D01*
X183030939Y31775668D01*
X183089260Y31741996D01*
X183159906Y31662328D01*
X183209205Y31478342D01*
X183187858Y31374024D01*
X183154186Y31315703D01*
X183074518Y31245057D01*
G04 #@! TO.C,D7*
X170817044Y41764205D02*
X171782970Y42023024D01*
X171721346Y42253007D01*
X171638376Y42378672D01*
X171521733Y42446015D01*
X171417416Y42467362D01*
X171221105Y42464060D01*
X171083116Y42427086D01*
X170911455Y42331790D01*
X170831786Y42261144D01*
X170764443Y42144502D01*
X170755421Y41994188D01*
X170817044Y41764205D01*
X171548800Y42896957D02*
X171376254Y43540908D01*
X170521251Y42868121D01*
G04 #@! TO.C,D8*
X174857044Y62714205D02*
X175822970Y62973024D01*
X175761346Y63203007D01*
X175678376Y63328672D01*
X175561733Y63396015D01*
X175457416Y63417362D01*
X175261105Y63414060D01*
X175123116Y63377086D01*
X174951455Y63281790D01*
X174871786Y63211144D01*
X174804443Y63094502D01*
X174795421Y62944188D01*
X174857044Y62714205D01*
X175113209Y63966017D02*
X175183854Y63886349D01*
X175242176Y63852677D01*
X175346493Y63831330D01*
X175392490Y63843655D01*
X175472158Y63914301D01*
X175505830Y63972622D01*
X175527177Y64076940D01*
X175477878Y64260926D01*
X175407232Y64340594D01*
X175348911Y64374266D01*
X175244593Y64395613D01*
X175198597Y64383288D01*
X175118929Y64312642D01*
X175085257Y64254321D01*
X175063910Y64150003D01*
X175113209Y63966017D01*
X175091862Y63861700D01*
X175058190Y63803378D01*
X174978522Y63732733D01*
X174794536Y63683434D01*
X174690218Y63704781D01*
X174631897Y63738452D01*
X174561251Y63818121D01*
X174511952Y64002107D01*
X174533299Y64106424D01*
X174566971Y64164745D01*
X174646639Y64235391D01*
X174830625Y64284690D01*
X174934943Y64263343D01*
X174993264Y64229671D01*
X175063910Y64150003D01*
G04 #@! TO.C,D9*
X165397044Y79774205D02*
X166362970Y80033024D01*
X166301346Y80263007D01*
X166218376Y80388672D01*
X166101733Y80456015D01*
X165997416Y80477362D01*
X165801105Y80474060D01*
X165663116Y80437086D01*
X165491455Y80341790D01*
X165411786Y80271144D01*
X165344443Y80154502D01*
X165335421Y80004188D01*
X165397044Y79774205D01*
X165125900Y80786128D02*
X165076602Y80970114D01*
X165097949Y81074431D01*
X165131620Y81132752D01*
X165244960Y81261720D01*
X165416621Y81357015D01*
X165784593Y81455613D01*
X165888911Y81434266D01*
X165947232Y81400594D01*
X166017878Y81320926D01*
X166067177Y81136940D01*
X166045830Y81032622D01*
X166012158Y80974301D01*
X165932490Y80903655D01*
X165702507Y80842031D01*
X165598190Y80863378D01*
X165539869Y80897050D01*
X165469223Y80976718D01*
X165419924Y81160704D01*
X165441271Y81265022D01*
X165474943Y81323343D01*
X165554611Y81393989D01*
G04 #@! TO.C,D10*
X169925298Y99621056D02*
X170891224Y99879875D01*
X170829601Y100109857D01*
X170746630Y100235522D01*
X170629988Y100302865D01*
X170525670Y100324212D01*
X170329359Y100320910D01*
X170191370Y100283936D01*
X170019709Y100188640D01*
X169940041Y100117995D01*
X169872697Y100001352D01*
X169863675Y99851038D01*
X169925298Y99621056D01*
X169530907Y101092943D02*
X169678804Y100540985D01*
X169604856Y100816964D02*
X170570782Y101075783D01*
X170457442Y100946816D01*
X170390098Y100830174D01*
X170368751Y100725856D01*
X170336612Y101949716D02*
X170311962Y102041709D01*
X170241317Y102121377D01*
X170182995Y102155049D01*
X170078678Y102176396D01*
X169882367Y102173093D01*
X169652385Y102111470D01*
X169480724Y102016174D01*
X169401055Y101945529D01*
X169367384Y101887207D01*
X169346037Y101782890D01*
X169370686Y101690897D01*
X169441332Y101611229D01*
X169499653Y101577557D01*
X169603971Y101556210D01*
X169800281Y101559512D01*
X170030264Y101621136D01*
X170201925Y101716431D01*
X170281593Y101787077D01*
X170315265Y101845398D01*
X170336612Y101949716D01*
G04 #@! TO.C,D11*
X122254238Y97887959D02*
X121288312Y98146778D01*
X121226689Y97916795D01*
X121235711Y97766481D01*
X121303055Y97649839D01*
X121382723Y97579193D01*
X121554384Y97483898D01*
X121692373Y97446923D01*
X121888684Y97443621D01*
X121993002Y97464968D01*
X122109644Y97532312D01*
X122192615Y97657976D01*
X122254238Y97887959D01*
X121859847Y96416072D02*
X122007744Y96968029D01*
X121933796Y96692050D02*
X120967870Y96950870D01*
X121130509Y97005888D01*
X121247151Y97073232D01*
X121317797Y97152900D01*
X121613353Y95496142D02*
X121761250Y96048100D01*
X121687301Y95772121D02*
X120721375Y96030940D01*
X120884014Y96085959D01*
X121000657Y96153302D01*
X121071303Y96232971D01*
G04 #@! TO.C,D12*
X107904238Y82177959D02*
X106938312Y82436778D01*
X106876689Y82206795D01*
X106885711Y82056481D01*
X106953055Y81939839D01*
X107032723Y81869193D01*
X107204384Y81773898D01*
X107342373Y81736923D01*
X107538684Y81733621D01*
X107643002Y81754968D01*
X107759644Y81822312D01*
X107842615Y81947976D01*
X107904238Y82177959D01*
X107509847Y80706072D02*
X107657744Y81258029D01*
X107583796Y80982050D02*
X106617870Y81240870D01*
X106780509Y81295888D01*
X106897151Y81363232D01*
X106967797Y81442900D01*
X106537317Y80572270D02*
X106478995Y80538598D01*
X106408350Y80458930D01*
X106346726Y80228947D01*
X106368073Y80124630D01*
X106401745Y80066308D01*
X106481413Y79995662D01*
X106573406Y79971013D01*
X106723720Y79980035D01*
X107423574Y80384096D01*
X107263353Y79786142D01*
G04 #@! TO.C,D13*
X107614238Y62877959D02*
X106648312Y63136778D01*
X106586689Y62906795D01*
X106595711Y62756481D01*
X106663055Y62639839D01*
X106742723Y62569193D01*
X106914384Y62473898D01*
X107052373Y62436923D01*
X107248684Y62433621D01*
X107353002Y62454968D01*
X107469644Y62522312D01*
X107552615Y62647976D01*
X107614238Y62877959D01*
X107219847Y61406072D02*
X107367744Y61958029D01*
X107293796Y61682050D02*
X106327870Y61940870D01*
X106490509Y61995888D01*
X106607151Y62063232D01*
X106677797Y62142900D01*
X106167648Y61342915D02*
X106007427Y60744961D01*
X106461672Y60968339D01*
X106424698Y60830349D01*
X106446045Y60726032D01*
X106479717Y60667711D01*
X106559385Y60597065D01*
X106789367Y60535441D01*
X106893685Y60556788D01*
X106952006Y60590460D01*
X107022652Y60670128D01*
X107096600Y60946107D01*
X107075253Y61050425D01*
X107041581Y61108746D01*
G04 #@! TO.C,D14*
X111944238Y42177959D02*
X110978312Y42436778D01*
X110916689Y42206795D01*
X110925711Y42056481D01*
X110993055Y41939839D01*
X111072723Y41869193D01*
X111244384Y41773898D01*
X111382373Y41736923D01*
X111578684Y41733621D01*
X111683002Y41754968D01*
X111799644Y41822312D01*
X111882615Y41947976D01*
X111944238Y42177959D01*
X111549847Y40706072D02*
X111697744Y41258029D01*
X111623796Y40982050D02*
X110657870Y41240870D01*
X110820509Y41295888D01*
X110937151Y41363232D01*
X111007797Y41442900D01*
X110684052Y40050681D02*
X111328002Y39878135D01*
X110377704Y40379261D02*
X111129274Y40424373D01*
X110969053Y39826419D01*
G04 #@! TO.C,D15*
X189040291Y46704241D02*
X190006217Y46963060D01*
X189944594Y47193042D01*
X189861623Y47318707D01*
X189744981Y47386050D01*
X189640663Y47407397D01*
X189444352Y47404095D01*
X189306363Y47367121D01*
X189134702Y47271825D01*
X189055034Y47201180D01*
X188987690Y47084537D01*
X188978668Y46934223D01*
X189040291Y46704241D01*
X188645900Y48176128D02*
X188793797Y47624170D01*
X188719849Y47900149D02*
X189685775Y48158968D01*
X189572435Y48030001D01*
X189505091Y47913359D01*
X189483744Y47809041D01*
X189377657Y49308880D02*
X189500904Y48848915D01*
X189053264Y48679671D01*
X189086936Y48737993D01*
X189108283Y48842310D01*
X189046659Y49072293D01*
X188976013Y49151961D01*
X188917692Y49185633D01*
X188813374Y49206980D01*
X188583392Y49145356D01*
X188503724Y49074710D01*
X188470052Y49016389D01*
X188448705Y48912071D01*
X188510329Y48682089D01*
X188580974Y48602421D01*
X188639296Y48568749D01*
G04 #@! TO.C,D16*
X193280291Y67294241D02*
X194246217Y67553060D01*
X194184594Y67783042D01*
X194101623Y67908707D01*
X193984981Y67976050D01*
X193880663Y67997397D01*
X193684352Y67994095D01*
X193546363Y67957121D01*
X193374702Y67861825D01*
X193295034Y67791180D01*
X193227690Y67674537D01*
X193218668Y67524223D01*
X193280291Y67294241D01*
X192885900Y68766128D02*
X193033797Y68214170D01*
X192959849Y68490149D02*
X193925775Y68748968D01*
X193812435Y68620001D01*
X193745091Y68503359D01*
X193723744Y68399041D01*
X193629981Y69852883D02*
X193679280Y69668897D01*
X193657933Y69564580D01*
X193624261Y69506258D01*
X193510921Y69377291D01*
X193339260Y69281996D01*
X192971289Y69183398D01*
X192866971Y69204745D01*
X192808650Y69238417D01*
X192738004Y69318085D01*
X192688705Y69502071D01*
X192710052Y69606389D01*
X192743724Y69664710D01*
X192823392Y69735356D01*
X193053374Y69796980D01*
X193157692Y69775633D01*
X193216013Y69741961D01*
X193286659Y69662293D01*
X193335958Y69478307D01*
X193314611Y69373989D01*
X193280939Y69315668D01*
X193201271Y69245022D01*
G04 #@! TO.C,D17*
X183840291Y84354241D02*
X184806217Y84613060D01*
X184744594Y84843042D01*
X184661623Y84968707D01*
X184544981Y85036050D01*
X184440663Y85057397D01*
X184244352Y85054095D01*
X184106363Y85017121D01*
X183934702Y84921825D01*
X183855034Y84851180D01*
X183787690Y84734537D01*
X183778668Y84584223D01*
X183840291Y84354241D01*
X183445900Y85826128D02*
X183593797Y85274170D01*
X183519849Y85550149D02*
X184485775Y85808968D01*
X184372435Y85680001D01*
X184305091Y85563359D01*
X184283744Y85459041D01*
X184325553Y86406922D02*
X184153007Y87050873D01*
X183298004Y86378085D01*
G04 #@! TO.C,D18*
X188225298Y104711056D02*
X189191224Y104969875D01*
X189129601Y105199857D01*
X189046630Y105325522D01*
X188929988Y105392865D01*
X188825670Y105414212D01*
X188629359Y105410910D01*
X188491370Y105373936D01*
X188319709Y105278640D01*
X188240041Y105207995D01*
X188172697Y105091352D01*
X188163675Y104941038D01*
X188225298Y104711056D01*
X187830907Y106182943D02*
X187978804Y105630985D01*
X187904856Y105906964D02*
X188870782Y106165783D01*
X188757442Y106036816D01*
X188690098Y105920174D01*
X188668751Y105815856D01*
X188234968Y106882797D02*
X188305614Y106803129D01*
X188363936Y106769457D01*
X188468253Y106748110D01*
X188514250Y106760435D01*
X188593918Y106831081D01*
X188627590Y106889402D01*
X188648937Y106993719D01*
X188599638Y107177705D01*
X188528992Y107257373D01*
X188470671Y107291045D01*
X188366353Y107312392D01*
X188320357Y107300068D01*
X188240688Y107229422D01*
X188207017Y107171100D01*
X188185670Y107066783D01*
X188234968Y106882797D01*
X188213621Y106778479D01*
X188179950Y106720158D01*
X188100281Y106649512D01*
X187916296Y106600213D01*
X187811978Y106621560D01*
X187753657Y106655232D01*
X187683011Y106734900D01*
X187633712Y106918886D01*
X187655059Y107023204D01*
X187688731Y107081525D01*
X187768399Y107152171D01*
X187952385Y107201470D01*
X188056702Y107180123D01*
X188115024Y107146451D01*
X188185670Y107066783D01*
G04 #@! TO.C,D19*
X103734238Y103247959D02*
X102768312Y103506778D01*
X102706689Y103276795D01*
X102715711Y103126481D01*
X102783055Y103009839D01*
X102862723Y102939193D01*
X103034384Y102843898D01*
X103172373Y102806923D01*
X103368684Y102803621D01*
X103473002Y102824968D01*
X103589644Y102892312D01*
X103672615Y103017976D01*
X103734238Y103247959D01*
X103339847Y101776072D02*
X103487744Y102328029D01*
X103413796Y102052050D02*
X102447870Y102310870D01*
X102610509Y102365888D01*
X102727151Y102433232D01*
X102797797Y102512900D01*
X103216600Y101316107D02*
X103167301Y101132121D01*
X103096655Y101052453D01*
X103038334Y101018781D01*
X102875695Y100963762D01*
X102679385Y100967065D01*
X102311413Y101065662D01*
X102231745Y101136308D01*
X102198073Y101194630D01*
X102176726Y101298947D01*
X102226025Y101482933D01*
X102296671Y101562601D01*
X102354992Y101596273D01*
X102459310Y101617620D01*
X102689292Y101555997D01*
X102768960Y101485351D01*
X102802632Y101427029D01*
X102823979Y101322712D01*
X102774680Y101138726D01*
X102704034Y101059058D01*
X102645713Y101025386D01*
X102541395Y101004039D01*
G04 #@! TO.C,D20*
X89634238Y86877959D02*
X88668312Y87136778D01*
X88606689Y86906795D01*
X88615711Y86756481D01*
X88683055Y86639839D01*
X88762723Y86569193D01*
X88934384Y86473898D01*
X89072373Y86436923D01*
X89268684Y86433621D01*
X89373002Y86454968D01*
X89489644Y86522312D01*
X89572615Y86647976D01*
X89634238Y86877959D01*
X88513811Y86192199D02*
X88455490Y86158527D01*
X88384844Y86078859D01*
X88323220Y85848877D01*
X88344567Y85744559D01*
X88378239Y85686238D01*
X88457907Y85615592D01*
X88549900Y85590942D01*
X88700214Y85599965D01*
X89400069Y86004026D01*
X89239847Y85406072D01*
X88113700Y85066937D02*
X88089051Y84974944D01*
X88110398Y84870626D01*
X88144070Y84812305D01*
X88223738Y84741659D01*
X88395399Y84646364D01*
X88625381Y84584740D01*
X88821692Y84581438D01*
X88926009Y84602785D01*
X88984331Y84636456D01*
X89054977Y84716125D01*
X89079626Y84808118D01*
X89058279Y84912435D01*
X89024607Y84970756D01*
X88944939Y85041402D01*
X88773278Y85136698D01*
X88543295Y85198321D01*
X88346985Y85201624D01*
X88242667Y85180277D01*
X88184346Y85146605D01*
X88113700Y85066937D01*
G04 #@! TO.C,D21*
X89304238Y67827959D02*
X88338312Y68086778D01*
X88276689Y67856795D01*
X88285711Y67706481D01*
X88353055Y67589839D01*
X88432723Y67519193D01*
X88604384Y67423898D01*
X88742373Y67386923D01*
X88938684Y67383621D01*
X89043002Y67404968D01*
X89159644Y67472312D01*
X89242615Y67597976D01*
X89304238Y67827959D01*
X88183811Y67142199D02*
X88125490Y67108527D01*
X88054844Y67028859D01*
X87993220Y66798877D01*
X88014567Y66694559D01*
X88048239Y66636238D01*
X88127907Y66565592D01*
X88219900Y66540942D01*
X88370214Y66549965D01*
X89070069Y66954026D01*
X88909847Y66356072D01*
X88663353Y65436142D02*
X88811250Y65988100D01*
X88737301Y65712121D02*
X87771375Y65970940D01*
X87934014Y66025959D01*
X88050657Y66093302D01*
X88121303Y66172971D01*
G04 #@! TO.C,D22*
X93594238Y46877959D02*
X92628312Y47136778D01*
X92566689Y46906795D01*
X92575711Y46756481D01*
X92643055Y46639839D01*
X92722723Y46569193D01*
X92894384Y46473898D01*
X93032373Y46436923D01*
X93228684Y46433621D01*
X93333002Y46454968D01*
X93449644Y46522312D01*
X93532615Y46647976D01*
X93594238Y46877959D01*
X92473811Y46192199D02*
X92415490Y46158527D01*
X92344844Y46078859D01*
X92283220Y45848877D01*
X92304567Y45744559D01*
X92338239Y45686238D01*
X92417907Y45615592D01*
X92509900Y45590942D01*
X92660214Y45599965D01*
X93360069Y46004026D01*
X93199847Y45406072D01*
X92227317Y45272270D02*
X92168995Y45238598D01*
X92098350Y45158930D01*
X92036726Y44928947D01*
X92058073Y44824630D01*
X92091745Y44766308D01*
X92171413Y44695662D01*
X92263406Y44671013D01*
X92413720Y44680035D01*
X93113574Y45084096D01*
X92953353Y44486142D01*
G04 #@! TO.C,D23*
X81794238Y29717959D02*
X80828312Y29976778D01*
X80766689Y29746795D01*
X80775711Y29596481D01*
X80843055Y29479839D01*
X80922723Y29409193D01*
X81094384Y29313898D01*
X81232373Y29276923D01*
X81428684Y29273621D01*
X81533002Y29294968D01*
X81649644Y29362312D01*
X81732615Y29487976D01*
X81794238Y29717959D01*
X80673811Y29032199D02*
X80615490Y28998527D01*
X80544844Y28918859D01*
X80483220Y28688877D01*
X80504567Y28584559D01*
X80538239Y28526238D01*
X80617907Y28455592D01*
X80709900Y28430942D01*
X80860214Y28439965D01*
X81560069Y28844026D01*
X81399847Y28246072D01*
X80347648Y28182915D02*
X80187427Y27584961D01*
X80641672Y27808339D01*
X80604698Y27670349D01*
X80626045Y27566032D01*
X80659717Y27507711D01*
X80739385Y27437065D01*
X80969367Y27375441D01*
X81073685Y27396788D01*
X81132006Y27430460D01*
X81202652Y27510128D01*
X81276600Y27786107D01*
X81255253Y27890425D01*
X81221581Y27948746D01*
G04 #@! TO.C,D24*
X218870291Y35954241D02*
X219836217Y36213060D01*
X219774594Y36443042D01*
X219691623Y36568707D01*
X219574981Y36636050D01*
X219470663Y36657397D01*
X219274352Y36654095D01*
X219136363Y36617121D01*
X218964702Y36521825D01*
X218885034Y36451180D01*
X218817690Y36334537D01*
X218808668Y36184223D01*
X218870291Y35954241D01*
X219497730Y37108340D02*
X219531402Y37166661D01*
X219552749Y37270979D01*
X219491125Y37500961D01*
X219420479Y37580629D01*
X219362158Y37614301D01*
X219257840Y37635648D01*
X219165847Y37610998D01*
X219040183Y37528028D01*
X218636122Y36828174D01*
X218475900Y37426128D01*
X218898006Y38426610D02*
X218254056Y38254064D01*
X219327601Y38295226D02*
X218699278Y37880372D01*
X218539057Y38478327D01*
G04 #@! TO.C,D25*
X207330291Y51264241D02*
X208296217Y51523060D01*
X208234594Y51753042D01*
X208151623Y51878707D01*
X208034981Y51946050D01*
X207930663Y51967397D01*
X207734352Y51964095D01*
X207596363Y51927121D01*
X207424702Y51831825D01*
X207345034Y51761180D01*
X207277690Y51644537D01*
X207268668Y51494223D01*
X207330291Y51264241D01*
X207957730Y52418340D02*
X207991402Y52476661D01*
X208012749Y52580979D01*
X207951125Y52810961D01*
X207880479Y52890629D01*
X207822158Y52924301D01*
X207717840Y52945648D01*
X207625847Y52920998D01*
X207500183Y52838028D01*
X207096122Y52138174D01*
X206935900Y52736128D01*
X207667657Y53868880D02*
X207790904Y53408915D01*
X207343264Y53239671D01*
X207376936Y53297993D01*
X207398283Y53402310D01*
X207336659Y53632293D01*
X207266013Y53711961D01*
X207207692Y53745633D01*
X207103374Y53766980D01*
X206873392Y53705356D01*
X206793724Y53634710D01*
X206760052Y53576389D01*
X206738705Y53472071D01*
X206800329Y53242089D01*
X206870974Y53162421D01*
X206929296Y53128749D01*
G04 #@! TO.C,D26*
X211590291Y72414241D02*
X212556217Y72673060D01*
X212494594Y72903042D01*
X212411623Y73028707D01*
X212294981Y73096050D01*
X212190663Y73117397D01*
X211994352Y73114095D01*
X211856363Y73077121D01*
X211684702Y72981825D01*
X211605034Y72911180D01*
X211537690Y72794537D01*
X211528668Y72644223D01*
X211590291Y72414241D01*
X212217730Y73568340D02*
X212251402Y73626661D01*
X212272749Y73730979D01*
X212211125Y73960961D01*
X212140479Y74040629D01*
X212082158Y74074301D01*
X211977840Y74095648D01*
X211885847Y74070998D01*
X211760183Y73988028D01*
X211356122Y73288174D01*
X211195900Y73886128D01*
X211939981Y74972883D02*
X211989280Y74788897D01*
X211967933Y74684580D01*
X211934261Y74626258D01*
X211820921Y74497291D01*
X211649260Y74401996D01*
X211281289Y74303398D01*
X211176971Y74324745D01*
X211118650Y74358417D01*
X211048004Y74438085D01*
X210998705Y74622071D01*
X211020052Y74726389D01*
X211053724Y74784710D01*
X211133392Y74855356D01*
X211363374Y74916980D01*
X211467692Y74895633D01*
X211526013Y74861961D01*
X211596659Y74782293D01*
X211645958Y74598307D01*
X211624611Y74493989D01*
X211590939Y74435668D01*
X211511271Y74365022D01*
G04 #@! TO.C,D27*
X202210291Y88844241D02*
X203176217Y89103060D01*
X203114594Y89333042D01*
X203031623Y89458707D01*
X202914981Y89526050D01*
X202810663Y89547397D01*
X202614352Y89544095D01*
X202476363Y89507121D01*
X202304702Y89411825D01*
X202225034Y89341180D01*
X202157690Y89224537D01*
X202148668Y89074223D01*
X202210291Y88844241D01*
X202837730Y89998340D02*
X202871402Y90056661D01*
X202892749Y90160979D01*
X202831125Y90390961D01*
X202760479Y90470629D01*
X202702158Y90504301D01*
X202597840Y90525648D01*
X202505847Y90500998D01*
X202380183Y90418028D01*
X201976122Y89718174D01*
X201815900Y90316128D01*
X202695553Y90896922D02*
X202523007Y91540873D01*
X201668004Y90868085D01*
G04 #@! TO.C,D28*
X206530291Y109684241D02*
X207496217Y109943060D01*
X207434594Y110173042D01*
X207351623Y110298707D01*
X207234981Y110366050D01*
X207130663Y110387397D01*
X206934352Y110384095D01*
X206796363Y110347121D01*
X206624702Y110251825D01*
X206545034Y110181180D01*
X206477690Y110064537D01*
X206468668Y109914223D01*
X206530291Y109684241D01*
X207157730Y110838340D02*
X207191402Y110896661D01*
X207212749Y111000979D01*
X207151125Y111230961D01*
X207080479Y111310629D01*
X207022158Y111344301D01*
X206917840Y111365648D01*
X206825847Y111340998D01*
X206700183Y111258028D01*
X206296122Y110558174D01*
X206135900Y111156128D01*
X206539961Y111855982D02*
X206610607Y111776314D01*
X206668929Y111742642D01*
X206773246Y111721295D01*
X206819243Y111733620D01*
X206898911Y111804266D01*
X206932583Y111862587D01*
X206953930Y111966904D01*
X206904631Y112150890D01*
X206833985Y112230558D01*
X206775664Y112264230D01*
X206671346Y112285577D01*
X206625350Y112273253D01*
X206545681Y112202607D01*
X206512010Y112144285D01*
X206490663Y112039968D01*
X206539961Y111855982D01*
X206518614Y111751664D01*
X206484943Y111693343D01*
X206405274Y111622697D01*
X206221289Y111573398D01*
X206116971Y111594745D01*
X206058650Y111628417D01*
X205988004Y111708085D01*
X205938705Y111892071D01*
X205960052Y111996389D01*
X205993724Y112054710D01*
X206073392Y112125356D01*
X206257378Y112174655D01*
X206361695Y112153308D01*
X206420017Y112119636D01*
X206490663Y112039968D01*
G04 #@! TO.C,D29*
X85554238Y108107959D02*
X84588312Y108366778D01*
X84526689Y108136795D01*
X84535711Y107986481D01*
X84603055Y107869839D01*
X84682723Y107799193D01*
X84854384Y107703898D01*
X84992373Y107666923D01*
X85188684Y107663621D01*
X85293002Y107684968D01*
X85409644Y107752312D01*
X85492615Y107877976D01*
X85554238Y108107959D01*
X84433811Y107422199D02*
X84375490Y107388527D01*
X84304844Y107308859D01*
X84243220Y107078877D01*
X84264567Y106974559D01*
X84298239Y106916238D01*
X84377907Y106845592D01*
X84469900Y106820942D01*
X84620214Y106829965D01*
X85320069Y107234026D01*
X85159847Y106636072D01*
X85036600Y106176107D02*
X84987301Y105992121D01*
X84916655Y105912453D01*
X84858334Y105878781D01*
X84695695Y105823762D01*
X84499385Y105827065D01*
X84131413Y105925662D01*
X84051745Y105996308D01*
X84018073Y106054630D01*
X83996726Y106158947D01*
X84046025Y106342933D01*
X84116671Y106422601D01*
X84174992Y106456273D01*
X84279310Y106477620D01*
X84509292Y106415997D01*
X84588960Y106345351D01*
X84622632Y106287029D01*
X84643979Y106182712D01*
X84594680Y105998726D01*
X84524034Y105919058D01*
X84465713Y105885386D01*
X84361395Y105864039D01*
G04 #@! TO.C,D30*
X71244238Y91697959D02*
X70278312Y91956778D01*
X70216689Y91726795D01*
X70225711Y91576481D01*
X70293055Y91459839D01*
X70372723Y91389193D01*
X70544384Y91293898D01*
X70682373Y91256923D01*
X70878684Y91253621D01*
X70983002Y91274968D01*
X71099644Y91342312D01*
X71182615Y91467976D01*
X71244238Y91697959D01*
X70044143Y91082845D02*
X69883921Y90484891D01*
X70338166Y90708268D01*
X70301192Y90570279D01*
X70322539Y90465961D01*
X70356211Y90407640D01*
X70435879Y90336994D01*
X70665861Y90275371D01*
X70770179Y90296718D01*
X70828500Y90330389D01*
X70899146Y90410058D01*
X70973094Y90686036D01*
X70951747Y90790354D01*
X70918076Y90848675D01*
X69723700Y89886937D02*
X69699051Y89794944D01*
X69720398Y89690626D01*
X69754070Y89632305D01*
X69833738Y89561659D01*
X70005399Y89466364D01*
X70235381Y89404740D01*
X70431692Y89401438D01*
X70536009Y89422785D01*
X70594331Y89456456D01*
X70664977Y89536125D01*
X70689626Y89628118D01*
X70668279Y89732435D01*
X70634607Y89790756D01*
X70554939Y89861402D01*
X70383278Y89956698D01*
X70153295Y90018321D01*
X69956985Y90021624D01*
X69852667Y90000277D01*
X69794346Y89966605D01*
X69723700Y89886937D01*
G04 #@! TO.C,D31*
X71034238Y72397959D02*
X70068312Y72656778D01*
X70006689Y72426795D01*
X70015711Y72276481D01*
X70083055Y72159839D01*
X70162723Y72089193D01*
X70334384Y71993898D01*
X70472373Y71956923D01*
X70668684Y71953621D01*
X70773002Y71974968D01*
X70889644Y72042312D01*
X70972615Y72167976D01*
X71034238Y72397959D01*
X69834143Y71782845D02*
X69673921Y71184891D01*
X70128166Y71408268D01*
X70091192Y71270279D01*
X70112539Y71165961D01*
X70146211Y71107640D01*
X70225879Y71036994D01*
X70455861Y70975371D01*
X70560179Y70996718D01*
X70618500Y71030389D01*
X70689146Y71110058D01*
X70763094Y71386036D01*
X70741747Y71490354D01*
X70708076Y71548675D01*
X70393353Y70006142D02*
X70541250Y70558100D01*
X70467301Y70282121D02*
X69501375Y70540940D01*
X69664014Y70595959D01*
X69780657Y70663302D01*
X69851303Y70742971D01*
G04 #@! TO.C,D32*
X75114238Y51497959D02*
X74148312Y51756778D01*
X74086689Y51526795D01*
X74095711Y51376481D01*
X74163055Y51259839D01*
X74242723Y51189193D01*
X74414384Y51093898D01*
X74552373Y51056923D01*
X74748684Y51053621D01*
X74853002Y51074968D01*
X74969644Y51142312D01*
X75052615Y51267976D01*
X75114238Y51497959D01*
X73914143Y50882845D02*
X73753921Y50284891D01*
X74208166Y50508268D01*
X74171192Y50370279D01*
X74192539Y50265961D01*
X74226211Y50207640D01*
X74305879Y50136994D01*
X74535861Y50075371D01*
X74640179Y50096718D01*
X74698500Y50130389D01*
X74769146Y50210058D01*
X74843094Y50486036D01*
X74821747Y50590354D01*
X74788076Y50648675D01*
X73747317Y49892270D02*
X73688995Y49858598D01*
X73618350Y49778930D01*
X73556726Y49548947D01*
X73578073Y49444630D01*
X73611745Y49386308D01*
X73691413Y49315662D01*
X73783406Y49291013D01*
X73933720Y49300035D01*
X74633574Y49704096D01*
X74473353Y49106142D01*
G04 #@! TO.C,D33*
X226040291Y56124241D02*
X227006217Y56383060D01*
X226944594Y56613042D01*
X226861623Y56738707D01*
X226744981Y56806050D01*
X226640663Y56827397D01*
X226444352Y56824095D01*
X226306363Y56787121D01*
X226134702Y56691825D01*
X226055034Y56621180D01*
X225987690Y56504537D01*
X225978668Y56354223D01*
X226040291Y56124241D01*
X226772048Y57256993D02*
X226611826Y57854947D01*
X226330127Y57434374D01*
X226293153Y57572363D01*
X226222507Y57652031D01*
X226164186Y57685703D01*
X226059869Y57707050D01*
X225829886Y57645427D01*
X225750218Y57574781D01*
X225716546Y57516460D01*
X225695199Y57412142D01*
X225769148Y57136163D01*
X225839793Y57056495D01*
X225898115Y57022823D01*
X226525553Y58176922D02*
X226365332Y58774876D01*
X226083633Y58354303D01*
X226046659Y58492293D01*
X225976013Y58571961D01*
X225917692Y58605633D01*
X225813374Y58626980D01*
X225583392Y58565356D01*
X225503724Y58494710D01*
X225470052Y58436389D01*
X225448705Y58332071D01*
X225522653Y58056092D01*
X225593299Y57976424D01*
X225651620Y57942752D01*
G04 #@! TO.C,D34*
X230240291Y77324241D02*
X231206217Y77583060D01*
X231144594Y77813042D01*
X231061623Y77938707D01*
X230944981Y78006050D01*
X230840663Y78027397D01*
X230644352Y78024095D01*
X230506363Y77987121D01*
X230334702Y77891825D01*
X230255034Y77821180D01*
X230187690Y77704537D01*
X230178668Y77554223D01*
X230240291Y77324241D01*
X230972048Y78456993D02*
X230811826Y79054947D01*
X230530127Y78634374D01*
X230493153Y78772363D01*
X230422507Y78852031D01*
X230364186Y78885703D01*
X230259869Y78907050D01*
X230029886Y78845427D01*
X229950218Y78774781D01*
X229916546Y78716460D01*
X229895199Y78612142D01*
X229969148Y78336163D01*
X230039793Y78256495D01*
X230098115Y78222823D01*
X230268006Y79796610D02*
X229624056Y79624064D01*
X230697601Y79665226D02*
X230069278Y79250372D01*
X229909057Y79848327D01*
G04 #@! TO.C,D35*
X220950291Y94064241D02*
X221916217Y94323060D01*
X221854594Y94553042D01*
X221771623Y94678707D01*
X221654981Y94746050D01*
X221550663Y94767397D01*
X221354352Y94764095D01*
X221216363Y94727121D01*
X221044702Y94631825D01*
X220965034Y94561180D01*
X220897690Y94444537D01*
X220888668Y94294223D01*
X220950291Y94064241D01*
X221682048Y95196993D02*
X221521826Y95794947D01*
X221240127Y95374374D01*
X221203153Y95512363D01*
X221132507Y95592031D01*
X221074186Y95625703D01*
X220969869Y95647050D01*
X220739886Y95585427D01*
X220660218Y95514781D01*
X220626546Y95456460D01*
X220605199Y95352142D01*
X220679148Y95076163D01*
X220749793Y94996495D01*
X220808115Y94962823D01*
X221287657Y96668880D02*
X221410904Y96208915D01*
X220963264Y96039671D01*
X220996936Y96097993D01*
X221018283Y96202310D01*
X220956659Y96432293D01*
X220886013Y96511961D01*
X220827692Y96545633D01*
X220723374Y96566980D01*
X220493392Y96505356D01*
X220413724Y96434710D01*
X220380052Y96376389D01*
X220358705Y96272071D01*
X220420329Y96042089D01*
X220490974Y95962421D01*
X220549296Y95928749D01*
G04 #@! TO.C,D36*
X225260291Y113964241D02*
X226226217Y114223060D01*
X226164594Y114453042D01*
X226081623Y114578707D01*
X225964981Y114646050D01*
X225860663Y114667397D01*
X225664352Y114664095D01*
X225526363Y114627121D01*
X225354702Y114531825D01*
X225275034Y114461180D01*
X225207690Y114344537D01*
X225198668Y114194223D01*
X225260291Y113964241D01*
X225992048Y115096993D02*
X225831826Y115694947D01*
X225550127Y115274374D01*
X225513153Y115412363D01*
X225442507Y115492031D01*
X225384186Y115525703D01*
X225279869Y115547050D01*
X225049886Y115485427D01*
X224970218Y115414781D01*
X224936546Y115356460D01*
X224915199Y115252142D01*
X224989148Y114976163D01*
X225059793Y114896495D01*
X225118115Y114862823D01*
X225609981Y116522883D02*
X225659280Y116338897D01*
X225637933Y116234580D01*
X225604261Y116176258D01*
X225490921Y116047291D01*
X225319260Y115951996D01*
X224951289Y115853398D01*
X224846971Y115874745D01*
X224788650Y115908417D01*
X224718004Y115988085D01*
X224668705Y116172071D01*
X224690052Y116276389D01*
X224723724Y116334710D01*
X224803392Y116405356D01*
X225033374Y116466980D01*
X225137692Y116445633D01*
X225196013Y116411961D01*
X225266659Y116332293D01*
X225315958Y116148307D01*
X225294611Y116043989D01*
X225260939Y115985668D01*
X225181271Y115915022D01*
G04 #@! TO.C,D37*
X66852380Y115564285D02*
X65852380Y115564285D01*
X65852380Y115326190D01*
X65900000Y115183333D01*
X65995238Y115088095D01*
X66090476Y115040476D01*
X66280952Y114992857D01*
X66423809Y114992857D01*
X66614285Y115040476D01*
X66709523Y115088095D01*
X66804761Y115183333D01*
X66852380Y115326190D01*
X66852380Y115564285D01*
X65852380Y114659523D02*
X65852380Y114040476D01*
X66233333Y114373809D01*
X66233333Y114230952D01*
X66280952Y114135714D01*
X66328571Y114088095D01*
X66423809Y114040476D01*
X66661904Y114040476D01*
X66757142Y114088095D01*
X66804761Y114135714D01*
X66852380Y114230952D01*
X66852380Y114516666D01*
X66804761Y114611904D01*
X66757142Y114659523D01*
X65852380Y113707142D02*
X65852380Y113040476D01*
X66852380Y113469047D01*
G04 #@! TO.C,D38*
X246292380Y57564285D02*
X245292380Y57564285D01*
X245292380Y57326190D01*
X245340000Y57183333D01*
X245435238Y57088095D01*
X245530476Y57040476D01*
X245720952Y56992857D01*
X245863809Y56992857D01*
X246054285Y57040476D01*
X246149523Y57088095D01*
X246244761Y57183333D01*
X246292380Y57326190D01*
X246292380Y57564285D01*
X245292380Y56659523D02*
X245292380Y56040476D01*
X245673333Y56373809D01*
X245673333Y56230952D01*
X245720952Y56135714D01*
X245768571Y56088095D01*
X245863809Y56040476D01*
X246101904Y56040476D01*
X246197142Y56088095D01*
X246244761Y56135714D01*
X246292380Y56230952D01*
X246292380Y56516666D01*
X246244761Y56611904D01*
X246197142Y56659523D01*
X245720952Y55469047D02*
X245673333Y55564285D01*
X245625714Y55611904D01*
X245530476Y55659523D01*
X245482857Y55659523D01*
X245387619Y55611904D01*
X245340000Y55564285D01*
X245292380Y55469047D01*
X245292380Y55278571D01*
X245340000Y55183333D01*
X245387619Y55135714D01*
X245482857Y55088095D01*
X245530476Y55088095D01*
X245625714Y55135714D01*
X245673333Y55183333D01*
X245720952Y55278571D01*
X245720952Y55469047D01*
X245768571Y55564285D01*
X245816190Y55611904D01*
X245911428Y55659523D01*
X246101904Y55659523D01*
X246197142Y55611904D01*
X246244761Y55564285D01*
X246292380Y55469047D01*
X246292380Y55278571D01*
X246244761Y55183333D01*
X246197142Y55135714D01*
X246101904Y55088095D01*
X245911428Y55088095D01*
X245816190Y55135714D01*
X245768571Y55183333D01*
X245720952Y55278571D01*
G04 #@! TO.C,D39*
X250622380Y76674285D02*
X249622380Y76674285D01*
X249622380Y76436190D01*
X249670000Y76293333D01*
X249765238Y76198095D01*
X249860476Y76150476D01*
X250050952Y76102857D01*
X250193809Y76102857D01*
X250384285Y76150476D01*
X250479523Y76198095D01*
X250574761Y76293333D01*
X250622380Y76436190D01*
X250622380Y76674285D01*
X249622380Y75769523D02*
X249622380Y75150476D01*
X250003333Y75483809D01*
X250003333Y75340952D01*
X250050952Y75245714D01*
X250098571Y75198095D01*
X250193809Y75150476D01*
X250431904Y75150476D01*
X250527142Y75198095D01*
X250574761Y75245714D01*
X250622380Y75340952D01*
X250622380Y75626666D01*
X250574761Y75721904D01*
X250527142Y75769523D01*
X250622380Y74674285D02*
X250622380Y74483809D01*
X250574761Y74388571D01*
X250527142Y74340952D01*
X250384285Y74245714D01*
X250193809Y74198095D01*
X249812857Y74198095D01*
X249717619Y74245714D01*
X249670000Y74293333D01*
X249622380Y74388571D01*
X249622380Y74579047D01*
X249670000Y74674285D01*
X249717619Y74721904D01*
X249812857Y74769523D01*
X250050952Y74769523D01*
X250146190Y74721904D01*
X250193809Y74674285D01*
X250241428Y74579047D01*
X250241428Y74388571D01*
X250193809Y74293333D01*
X250146190Y74245714D01*
X250050952Y74198095D01*
G04 #@! TO.C,D40*
X243032380Y96076785D02*
X242032380Y96076785D01*
X242032380Y95838690D01*
X242080000Y95695833D01*
X242175238Y95600595D01*
X242270476Y95552976D01*
X242460952Y95505357D01*
X242603809Y95505357D01*
X242794285Y95552976D01*
X242889523Y95600595D01*
X242984761Y95695833D01*
X243032380Y95838690D01*
X243032380Y96076785D01*
X242365714Y94648214D02*
X243032380Y94648214D01*
X241984761Y94886309D02*
X242699047Y95124404D01*
X242699047Y94505357D01*
X242032380Y93933928D02*
X242032380Y93838690D01*
X242080000Y93743452D01*
X242127619Y93695833D01*
X242222857Y93648214D01*
X242413333Y93600595D01*
X242651428Y93600595D01*
X242841904Y93648214D01*
X242937142Y93695833D01*
X242984761Y93743452D01*
X243032380Y93838690D01*
X243032380Y93933928D01*
X242984761Y94029166D01*
X242937142Y94076785D01*
X242841904Y94124404D01*
X242651428Y94172023D01*
X242413333Y94172023D01*
X242222857Y94124404D01*
X242127619Y94076785D01*
X242080000Y94029166D01*
X242032380Y93933928D01*
G04 #@! TO.C,D41*
X245262380Y117874285D02*
X244262380Y117874285D01*
X244262380Y117636190D01*
X244310000Y117493333D01*
X244405238Y117398095D01*
X244500476Y117350476D01*
X244690952Y117302857D01*
X244833809Y117302857D01*
X245024285Y117350476D01*
X245119523Y117398095D01*
X245214761Y117493333D01*
X245262380Y117636190D01*
X245262380Y117874285D01*
X244595714Y116445714D02*
X245262380Y116445714D01*
X244214761Y116683809D02*
X244929047Y116921904D01*
X244929047Y116302857D01*
X245262380Y115398095D02*
X245262380Y115969523D01*
X245262380Y115683809D02*
X244262380Y115683809D01*
X244405238Y115779047D01*
X244500476Y115874285D01*
X244548095Y115969523D01*
G04 #@! TO.C,D42*
X48042380Y115134285D02*
X47042380Y115134285D01*
X47042380Y114896190D01*
X47090000Y114753333D01*
X47185238Y114658095D01*
X47280476Y114610476D01*
X47470952Y114562857D01*
X47613809Y114562857D01*
X47804285Y114610476D01*
X47899523Y114658095D01*
X47994761Y114753333D01*
X48042380Y114896190D01*
X48042380Y115134285D01*
X47375714Y113705714D02*
X48042380Y113705714D01*
X46994761Y113943809D02*
X47709047Y114181904D01*
X47709047Y113562857D01*
X47137619Y113229523D02*
X47090000Y113181904D01*
X47042380Y113086666D01*
X47042380Y112848571D01*
X47090000Y112753333D01*
X47137619Y112705714D01*
X47232857Y112658095D01*
X47328095Y112658095D01*
X47470952Y112705714D01*
X48042380Y113277142D01*
X48042380Y112658095D01*
G04 #@! TO.C,D43*
X52442380Y96464285D02*
X51442380Y96464285D01*
X51442380Y96226190D01*
X51490000Y96083333D01*
X51585238Y95988095D01*
X51680476Y95940476D01*
X51870952Y95892857D01*
X52013809Y95892857D01*
X52204285Y95940476D01*
X52299523Y95988095D01*
X52394761Y96083333D01*
X52442380Y96226190D01*
X52442380Y96464285D01*
X51775714Y95035714D02*
X52442380Y95035714D01*
X51394761Y95273809D02*
X52109047Y95511904D01*
X52109047Y94892857D01*
X51442380Y94607142D02*
X51442380Y93988095D01*
X51823333Y94321428D01*
X51823333Y94178571D01*
X51870952Y94083333D01*
X51918571Y94035714D01*
X52013809Y93988095D01*
X52251904Y93988095D01*
X52347142Y94035714D01*
X52394761Y94083333D01*
X52442380Y94178571D01*
X52442380Y94464285D01*
X52394761Y94559523D01*
X52347142Y94607142D01*
G04 #@! TO.C,D44*
X52222380Y77514285D02*
X51222380Y77514285D01*
X51222380Y77276190D01*
X51270000Y77133333D01*
X51365238Y77038095D01*
X51460476Y76990476D01*
X51650952Y76942857D01*
X51793809Y76942857D01*
X51984285Y76990476D01*
X52079523Y77038095D01*
X52174761Y77133333D01*
X52222380Y77276190D01*
X52222380Y77514285D01*
X51555714Y76085714D02*
X52222380Y76085714D01*
X51174761Y76323809D02*
X51889047Y76561904D01*
X51889047Y75942857D01*
X51555714Y75133333D02*
X52222380Y75133333D01*
X51174761Y75371428D02*
X51889047Y75609523D01*
X51889047Y74990476D01*
G04 #@! TO.C,D45*
X56262380Y57904285D02*
X55262380Y57904285D01*
X55262380Y57666190D01*
X55310000Y57523333D01*
X55405238Y57428095D01*
X55500476Y57380476D01*
X55690952Y57332857D01*
X55833809Y57332857D01*
X56024285Y57380476D01*
X56119523Y57428095D01*
X56214761Y57523333D01*
X56262380Y57666190D01*
X56262380Y57904285D01*
X55595714Y56475714D02*
X56262380Y56475714D01*
X55214761Y56713809D02*
X55929047Y56951904D01*
X55929047Y56332857D01*
X55262380Y55475714D02*
X55262380Y55951904D01*
X55738571Y55999523D01*
X55690952Y55951904D01*
X55643333Y55856666D01*
X55643333Y55618571D01*
X55690952Y55523333D01*
X55738571Y55475714D01*
X55833809Y55428095D01*
X56071904Y55428095D01*
X56167142Y55475714D01*
X56214761Y55523333D01*
X56262380Y55618571D01*
X56262380Y55856666D01*
X56214761Y55951904D01*
X56167142Y55999523D01*
G04 #@! TO.C,D46*
X55182380Y38874285D02*
X54182380Y38874285D01*
X54182380Y38636190D01*
X54230000Y38493333D01*
X54325238Y38398095D01*
X54420476Y38350476D01*
X54610952Y38302857D01*
X54753809Y38302857D01*
X54944285Y38350476D01*
X55039523Y38398095D01*
X55134761Y38493333D01*
X55182380Y38636190D01*
X55182380Y38874285D01*
X54515714Y37445714D02*
X55182380Y37445714D01*
X54134761Y37683809D02*
X54849047Y37921904D01*
X54849047Y37302857D01*
X54182380Y36493333D02*
X54182380Y36683809D01*
X54230000Y36779047D01*
X54277619Y36826666D01*
X54420476Y36921904D01*
X54610952Y36969523D01*
X54991904Y36969523D01*
X55087142Y36921904D01*
X55134761Y36874285D01*
X55182380Y36779047D01*
X55182380Y36588571D01*
X55134761Y36493333D01*
X55087142Y36445714D01*
X54991904Y36398095D01*
X54753809Y36398095D01*
X54658571Y36445714D01*
X54610952Y36493333D01*
X54563333Y36588571D01*
X54563333Y36779047D01*
X54610952Y36874285D01*
X54658571Y36921904D01*
X54753809Y36969523D01*
G04 #@! TO.C,D47*
X265232380Y37454285D02*
X264232380Y37454285D01*
X264232380Y37216190D01*
X264280000Y37073333D01*
X264375238Y36978095D01*
X264470476Y36930476D01*
X264660952Y36882857D01*
X264803809Y36882857D01*
X264994285Y36930476D01*
X265089523Y36978095D01*
X265184761Y37073333D01*
X265232380Y37216190D01*
X265232380Y37454285D01*
X264565714Y36025714D02*
X265232380Y36025714D01*
X264184761Y36263809D02*
X264899047Y36501904D01*
X264899047Y35882857D01*
X264232380Y35597142D02*
X264232380Y34930476D01*
X265232380Y35359047D01*
G04 #@! TO.C,D48*
X265402380Y57384285D02*
X264402380Y57384285D01*
X264402380Y57146190D01*
X264450000Y57003333D01*
X264545238Y56908095D01*
X264640476Y56860476D01*
X264830952Y56812857D01*
X264973809Y56812857D01*
X265164285Y56860476D01*
X265259523Y56908095D01*
X265354761Y57003333D01*
X265402380Y57146190D01*
X265402380Y57384285D01*
X264735714Y55955714D02*
X265402380Y55955714D01*
X264354761Y56193809D02*
X265069047Y56431904D01*
X265069047Y55812857D01*
X264830952Y55289047D02*
X264783333Y55384285D01*
X264735714Y55431904D01*
X264640476Y55479523D01*
X264592857Y55479523D01*
X264497619Y55431904D01*
X264450000Y55384285D01*
X264402380Y55289047D01*
X264402380Y55098571D01*
X264450000Y55003333D01*
X264497619Y54955714D01*
X264592857Y54908095D01*
X264640476Y54908095D01*
X264735714Y54955714D01*
X264783333Y55003333D01*
X264830952Y55098571D01*
X264830952Y55289047D01*
X264878571Y55384285D01*
X264926190Y55431904D01*
X265021428Y55479523D01*
X265211904Y55479523D01*
X265307142Y55431904D01*
X265354761Y55384285D01*
X265402380Y55289047D01*
X265402380Y55098571D01*
X265354761Y55003333D01*
X265307142Y54955714D01*
X265211904Y54908095D01*
X265021428Y54908095D01*
X264926190Y54955714D01*
X264878571Y55003333D01*
X264830952Y55098571D01*
G04 #@! TO.C,D49*
X270002380Y76414285D02*
X269002380Y76414285D01*
X269002380Y76176190D01*
X269050000Y76033333D01*
X269145238Y75938095D01*
X269240476Y75890476D01*
X269430952Y75842857D01*
X269573809Y75842857D01*
X269764285Y75890476D01*
X269859523Y75938095D01*
X269954761Y76033333D01*
X270002380Y76176190D01*
X270002380Y76414285D01*
X269335714Y74985714D02*
X270002380Y74985714D01*
X268954761Y75223809D02*
X269669047Y75461904D01*
X269669047Y74842857D01*
X270002380Y74414285D02*
X270002380Y74223809D01*
X269954761Y74128571D01*
X269907142Y74080952D01*
X269764285Y73985714D01*
X269573809Y73938095D01*
X269192857Y73938095D01*
X269097619Y73985714D01*
X269050000Y74033333D01*
X269002380Y74128571D01*
X269002380Y74319047D01*
X269050000Y74414285D01*
X269097619Y74461904D01*
X269192857Y74509523D01*
X269430952Y74509523D01*
X269526190Y74461904D01*
X269573809Y74414285D01*
X269621428Y74319047D01*
X269621428Y74128571D01*
X269573809Y74033333D01*
X269526190Y73985714D01*
X269430952Y73938095D01*
G04 #@! TO.C,D50*
X261962380Y95576785D02*
X260962380Y95576785D01*
X260962380Y95338690D01*
X261010000Y95195833D01*
X261105238Y95100595D01*
X261200476Y95052976D01*
X261390952Y95005357D01*
X261533809Y95005357D01*
X261724285Y95052976D01*
X261819523Y95100595D01*
X261914761Y95195833D01*
X261962380Y95338690D01*
X261962380Y95576785D01*
X260962380Y94100595D02*
X260962380Y94576785D01*
X261438571Y94624404D01*
X261390952Y94576785D01*
X261343333Y94481547D01*
X261343333Y94243452D01*
X261390952Y94148214D01*
X261438571Y94100595D01*
X261533809Y94052976D01*
X261771904Y94052976D01*
X261867142Y94100595D01*
X261914761Y94148214D01*
X261962380Y94243452D01*
X261962380Y94481547D01*
X261914761Y94576785D01*
X261867142Y94624404D01*
X260962380Y93433928D02*
X260962380Y93338690D01*
X261010000Y93243452D01*
X261057619Y93195833D01*
X261152857Y93148214D01*
X261343333Y93100595D01*
X261581428Y93100595D01*
X261771904Y93148214D01*
X261867142Y93195833D01*
X261914761Y93243452D01*
X261962380Y93338690D01*
X261962380Y93433928D01*
X261914761Y93529166D01*
X261867142Y93576785D01*
X261771904Y93624404D01*
X261581428Y93672023D01*
X261343333Y93672023D01*
X261152857Y93624404D01*
X261057619Y93576785D01*
X261010000Y93529166D01*
X260962380Y93433928D01*
G04 #@! TO.C,D51*
X265002380Y115734285D02*
X264002380Y115734285D01*
X264002380Y115496190D01*
X264050000Y115353333D01*
X264145238Y115258095D01*
X264240476Y115210476D01*
X264430952Y115162857D01*
X264573809Y115162857D01*
X264764285Y115210476D01*
X264859523Y115258095D01*
X264954761Y115353333D01*
X265002380Y115496190D01*
X265002380Y115734285D01*
X264002380Y114258095D02*
X264002380Y114734285D01*
X264478571Y114781904D01*
X264430952Y114734285D01*
X264383333Y114639047D01*
X264383333Y114400952D01*
X264430952Y114305714D01*
X264478571Y114258095D01*
X264573809Y114210476D01*
X264811904Y114210476D01*
X264907142Y114258095D01*
X264954761Y114305714D01*
X265002380Y114400952D01*
X265002380Y114639047D01*
X264954761Y114734285D01*
X264907142Y114781904D01*
X265002380Y113258095D02*
X265002380Y113829523D01*
X265002380Y113543809D02*
X264002380Y113543809D01*
X264145238Y113639047D01*
X264240476Y113734285D01*
X264288095Y113829523D01*
G04 #@! TO.C,D52*
X29012380Y115204285D02*
X28012380Y115204285D01*
X28012380Y114966190D01*
X28060000Y114823333D01*
X28155238Y114728095D01*
X28250476Y114680476D01*
X28440952Y114632857D01*
X28583809Y114632857D01*
X28774285Y114680476D01*
X28869523Y114728095D01*
X28964761Y114823333D01*
X29012380Y114966190D01*
X29012380Y115204285D01*
X28012380Y113728095D02*
X28012380Y114204285D01*
X28488571Y114251904D01*
X28440952Y114204285D01*
X28393333Y114109047D01*
X28393333Y113870952D01*
X28440952Y113775714D01*
X28488571Y113728095D01*
X28583809Y113680476D01*
X28821904Y113680476D01*
X28917142Y113728095D01*
X28964761Y113775714D01*
X29012380Y113870952D01*
X29012380Y114109047D01*
X28964761Y114204285D01*
X28917142Y114251904D01*
X28107619Y113299523D02*
X28060000Y113251904D01*
X28012380Y113156666D01*
X28012380Y112918571D01*
X28060000Y112823333D01*
X28107619Y112775714D01*
X28202857Y112728095D01*
X28298095Y112728095D01*
X28440952Y112775714D01*
X29012380Y113347142D01*
X29012380Y112728095D01*
G04 #@! TO.C,D53*
X28942380Y95884285D02*
X27942380Y95884285D01*
X27942380Y95646190D01*
X27990000Y95503333D01*
X28085238Y95408095D01*
X28180476Y95360476D01*
X28370952Y95312857D01*
X28513809Y95312857D01*
X28704285Y95360476D01*
X28799523Y95408095D01*
X28894761Y95503333D01*
X28942380Y95646190D01*
X28942380Y95884285D01*
X27942380Y94408095D02*
X27942380Y94884285D01*
X28418571Y94931904D01*
X28370952Y94884285D01*
X28323333Y94789047D01*
X28323333Y94550952D01*
X28370952Y94455714D01*
X28418571Y94408095D01*
X28513809Y94360476D01*
X28751904Y94360476D01*
X28847142Y94408095D01*
X28894761Y94455714D01*
X28942380Y94550952D01*
X28942380Y94789047D01*
X28894761Y94884285D01*
X28847142Y94931904D01*
X27942380Y94027142D02*
X27942380Y93408095D01*
X28323333Y93741428D01*
X28323333Y93598571D01*
X28370952Y93503333D01*
X28418571Y93455714D01*
X28513809Y93408095D01*
X28751904Y93408095D01*
X28847142Y93455714D01*
X28894761Y93503333D01*
X28942380Y93598571D01*
X28942380Y93884285D01*
X28894761Y93979523D01*
X28847142Y94027142D01*
G04 #@! TO.C,D54*
X25842380Y77584285D02*
X24842380Y77584285D01*
X24842380Y77346190D01*
X24890000Y77203333D01*
X24985238Y77108095D01*
X25080476Y77060476D01*
X25270952Y77012857D01*
X25413809Y77012857D01*
X25604285Y77060476D01*
X25699523Y77108095D01*
X25794761Y77203333D01*
X25842380Y77346190D01*
X25842380Y77584285D01*
X24842380Y76108095D02*
X24842380Y76584285D01*
X25318571Y76631904D01*
X25270952Y76584285D01*
X25223333Y76489047D01*
X25223333Y76250952D01*
X25270952Y76155714D01*
X25318571Y76108095D01*
X25413809Y76060476D01*
X25651904Y76060476D01*
X25747142Y76108095D01*
X25794761Y76155714D01*
X25842380Y76250952D01*
X25842380Y76489047D01*
X25794761Y76584285D01*
X25747142Y76631904D01*
X25175714Y75203333D02*
X25842380Y75203333D01*
X24794761Y75441428D02*
X25509047Y75679523D01*
X25509047Y75060476D01*
G04 #@! TO.C,D55*
X25552380Y61434285D02*
X24552380Y61434285D01*
X24552380Y61196190D01*
X24600000Y61053333D01*
X24695238Y60958095D01*
X24790476Y60910476D01*
X24980952Y60862857D01*
X25123809Y60862857D01*
X25314285Y60910476D01*
X25409523Y60958095D01*
X25504761Y61053333D01*
X25552380Y61196190D01*
X25552380Y61434285D01*
X24552380Y59958095D02*
X24552380Y60434285D01*
X25028571Y60481904D01*
X24980952Y60434285D01*
X24933333Y60339047D01*
X24933333Y60100952D01*
X24980952Y60005714D01*
X25028571Y59958095D01*
X25123809Y59910476D01*
X25361904Y59910476D01*
X25457142Y59958095D01*
X25504761Y60005714D01*
X25552380Y60100952D01*
X25552380Y60339047D01*
X25504761Y60434285D01*
X25457142Y60481904D01*
X24552380Y59005714D02*
X24552380Y59481904D01*
X25028571Y59529523D01*
X24980952Y59481904D01*
X24933333Y59386666D01*
X24933333Y59148571D01*
X24980952Y59053333D01*
X25028571Y59005714D01*
X25123809Y58958095D01*
X25361904Y58958095D01*
X25457142Y59005714D01*
X25504761Y59053333D01*
X25552380Y59148571D01*
X25552380Y59386666D01*
X25504761Y59481904D01*
X25457142Y59529523D01*
G04 #@! TO.C,D56*
X31462380Y38874285D02*
X30462380Y38874285D01*
X30462380Y38636190D01*
X30510000Y38493333D01*
X30605238Y38398095D01*
X30700476Y38350476D01*
X30890952Y38302857D01*
X31033809Y38302857D01*
X31224285Y38350476D01*
X31319523Y38398095D01*
X31414761Y38493333D01*
X31462380Y38636190D01*
X31462380Y38874285D01*
X30462380Y37398095D02*
X30462380Y37874285D01*
X30938571Y37921904D01*
X30890952Y37874285D01*
X30843333Y37779047D01*
X30843333Y37540952D01*
X30890952Y37445714D01*
X30938571Y37398095D01*
X31033809Y37350476D01*
X31271904Y37350476D01*
X31367142Y37398095D01*
X31414761Y37445714D01*
X31462380Y37540952D01*
X31462380Y37779047D01*
X31414761Y37874285D01*
X31367142Y37921904D01*
X30462380Y36493333D02*
X30462380Y36683809D01*
X30510000Y36779047D01*
X30557619Y36826666D01*
X30700476Y36921904D01*
X30890952Y36969523D01*
X31271904Y36969523D01*
X31367142Y36921904D01*
X31414761Y36874285D01*
X31462380Y36779047D01*
X31462380Y36588571D01*
X31414761Y36493333D01*
X31367142Y36445714D01*
X31271904Y36398095D01*
X31033809Y36398095D01*
X30938571Y36445714D01*
X30890952Y36493333D01*
X30843333Y36588571D01*
X30843333Y36779047D01*
X30890952Y36874285D01*
X30938571Y36921904D01*
X31033809Y36969523D01*
G04 #@! TO.C,D57*
X284282380Y37036785D02*
X283282380Y37036785D01*
X283282380Y36798690D01*
X283330000Y36655833D01*
X283425238Y36560595D01*
X283520476Y36512976D01*
X283710952Y36465357D01*
X283853809Y36465357D01*
X284044285Y36512976D01*
X284139523Y36560595D01*
X284234761Y36655833D01*
X284282380Y36798690D01*
X284282380Y37036785D01*
X283282380Y35560595D02*
X283282380Y36036785D01*
X283758571Y36084404D01*
X283710952Y36036785D01*
X283663333Y35941547D01*
X283663333Y35703452D01*
X283710952Y35608214D01*
X283758571Y35560595D01*
X283853809Y35512976D01*
X284091904Y35512976D01*
X284187142Y35560595D01*
X284234761Y35608214D01*
X284282380Y35703452D01*
X284282380Y35941547D01*
X284234761Y36036785D01*
X284187142Y36084404D01*
X283282380Y35179642D02*
X283282380Y34512976D01*
X284282380Y34941547D01*
G04 #@! TO.C,D58*
X284692380Y56944285D02*
X283692380Y56944285D01*
X283692380Y56706190D01*
X283740000Y56563333D01*
X283835238Y56468095D01*
X283930476Y56420476D01*
X284120952Y56372857D01*
X284263809Y56372857D01*
X284454285Y56420476D01*
X284549523Y56468095D01*
X284644761Y56563333D01*
X284692380Y56706190D01*
X284692380Y56944285D01*
X283692380Y55468095D02*
X283692380Y55944285D01*
X284168571Y55991904D01*
X284120952Y55944285D01*
X284073333Y55849047D01*
X284073333Y55610952D01*
X284120952Y55515714D01*
X284168571Y55468095D01*
X284263809Y55420476D01*
X284501904Y55420476D01*
X284597142Y55468095D01*
X284644761Y55515714D01*
X284692380Y55610952D01*
X284692380Y55849047D01*
X284644761Y55944285D01*
X284597142Y55991904D01*
X284120952Y54849047D02*
X284073333Y54944285D01*
X284025714Y54991904D01*
X283930476Y55039523D01*
X283882857Y55039523D01*
X283787619Y54991904D01*
X283740000Y54944285D01*
X283692380Y54849047D01*
X283692380Y54658571D01*
X283740000Y54563333D01*
X283787619Y54515714D01*
X283882857Y54468095D01*
X283930476Y54468095D01*
X284025714Y54515714D01*
X284073333Y54563333D01*
X284120952Y54658571D01*
X284120952Y54849047D01*
X284168571Y54944285D01*
X284216190Y54991904D01*
X284311428Y55039523D01*
X284501904Y55039523D01*
X284597142Y54991904D01*
X284644761Y54944285D01*
X284692380Y54849047D01*
X284692380Y54658571D01*
X284644761Y54563333D01*
X284597142Y54515714D01*
X284501904Y54468095D01*
X284311428Y54468095D01*
X284216190Y54515714D01*
X284168571Y54563333D01*
X284120952Y54658571D01*
G04 #@! TO.C,D59*
X281702380Y95744285D02*
X280702380Y95744285D01*
X280702380Y95506190D01*
X280750000Y95363333D01*
X280845238Y95268095D01*
X280940476Y95220476D01*
X281130952Y95172857D01*
X281273809Y95172857D01*
X281464285Y95220476D01*
X281559523Y95268095D01*
X281654761Y95363333D01*
X281702380Y95506190D01*
X281702380Y95744285D01*
X280702380Y94268095D02*
X280702380Y94744285D01*
X281178571Y94791904D01*
X281130952Y94744285D01*
X281083333Y94649047D01*
X281083333Y94410952D01*
X281130952Y94315714D01*
X281178571Y94268095D01*
X281273809Y94220476D01*
X281511904Y94220476D01*
X281607142Y94268095D01*
X281654761Y94315714D01*
X281702380Y94410952D01*
X281702380Y94649047D01*
X281654761Y94744285D01*
X281607142Y94791904D01*
X281702380Y93744285D02*
X281702380Y93553809D01*
X281654761Y93458571D01*
X281607142Y93410952D01*
X281464285Y93315714D01*
X281273809Y93268095D01*
X280892857Y93268095D01*
X280797619Y93315714D01*
X280750000Y93363333D01*
X280702380Y93458571D01*
X280702380Y93649047D01*
X280750000Y93744285D01*
X280797619Y93791904D01*
X280892857Y93839523D01*
X281130952Y93839523D01*
X281226190Y93791904D01*
X281273809Y93744285D01*
X281321428Y93649047D01*
X281321428Y93458571D01*
X281273809Y93363333D01*
X281226190Y93315714D01*
X281130952Y93268095D01*
G04 #@! TO.C,D60*
X5302380Y115924285D02*
X4302380Y115924285D01*
X4302380Y115686190D01*
X4350000Y115543333D01*
X4445238Y115448095D01*
X4540476Y115400476D01*
X4730952Y115352857D01*
X4873809Y115352857D01*
X5064285Y115400476D01*
X5159523Y115448095D01*
X5254761Y115543333D01*
X5302380Y115686190D01*
X5302380Y115924285D01*
X4302380Y114495714D02*
X4302380Y114686190D01*
X4350000Y114781428D01*
X4397619Y114829047D01*
X4540476Y114924285D01*
X4730952Y114971904D01*
X5111904Y114971904D01*
X5207142Y114924285D01*
X5254761Y114876666D01*
X5302380Y114781428D01*
X5302380Y114590952D01*
X5254761Y114495714D01*
X5207142Y114448095D01*
X5111904Y114400476D01*
X4873809Y114400476D01*
X4778571Y114448095D01*
X4730952Y114495714D01*
X4683333Y114590952D01*
X4683333Y114781428D01*
X4730952Y114876666D01*
X4778571Y114924285D01*
X4873809Y114971904D01*
X4302380Y113781428D02*
X4302380Y113686190D01*
X4350000Y113590952D01*
X4397619Y113543333D01*
X4492857Y113495714D01*
X4683333Y113448095D01*
X4921428Y113448095D01*
X5111904Y113495714D01*
X5207142Y113543333D01*
X5254761Y113590952D01*
X5302380Y113686190D01*
X5302380Y113781428D01*
X5254761Y113876666D01*
X5207142Y113924285D01*
X5111904Y113971904D01*
X4921428Y114019523D01*
X4683333Y114019523D01*
X4492857Y113971904D01*
X4397619Y113924285D01*
X4350000Y113876666D01*
X4302380Y113781428D01*
G04 #@! TO.C,D63*
X303962380Y41234285D02*
X302962380Y41234285D01*
X302962380Y40996190D01*
X303010000Y40853333D01*
X303105238Y40758095D01*
X303200476Y40710476D01*
X303390952Y40662857D01*
X303533809Y40662857D01*
X303724285Y40710476D01*
X303819523Y40758095D01*
X303914761Y40853333D01*
X303962380Y40996190D01*
X303962380Y41234285D01*
X302962380Y39805714D02*
X302962380Y39996190D01*
X303010000Y40091428D01*
X303057619Y40139047D01*
X303200476Y40234285D01*
X303390952Y40281904D01*
X303771904Y40281904D01*
X303867142Y40234285D01*
X303914761Y40186666D01*
X303962380Y40091428D01*
X303962380Y39900952D01*
X303914761Y39805714D01*
X303867142Y39758095D01*
X303771904Y39710476D01*
X303533809Y39710476D01*
X303438571Y39758095D01*
X303390952Y39805714D01*
X303343333Y39900952D01*
X303343333Y40091428D01*
X303390952Y40186666D01*
X303438571Y40234285D01*
X303533809Y40281904D01*
X302962380Y39377142D02*
X302962380Y38758095D01*
X303343333Y39091428D01*
X303343333Y38948571D01*
X303390952Y38853333D01*
X303438571Y38805714D01*
X303533809Y38758095D01*
X303771904Y38758095D01*
X303867142Y38805714D01*
X303914761Y38853333D01*
X303962380Y38948571D01*
X303962380Y39234285D01*
X303914761Y39329523D01*
X303867142Y39377142D01*
G04 #@! TO.C,D64*
X311252380Y60214285D02*
X310252380Y60214285D01*
X310252380Y59976190D01*
X310300000Y59833333D01*
X310395238Y59738095D01*
X310490476Y59690476D01*
X310680952Y59642857D01*
X310823809Y59642857D01*
X311014285Y59690476D01*
X311109523Y59738095D01*
X311204761Y59833333D01*
X311252380Y59976190D01*
X311252380Y60214285D01*
X310252380Y58785714D02*
X310252380Y58976190D01*
X310300000Y59071428D01*
X310347619Y59119047D01*
X310490476Y59214285D01*
X310680952Y59261904D01*
X311061904Y59261904D01*
X311157142Y59214285D01*
X311204761Y59166666D01*
X311252380Y59071428D01*
X311252380Y58880952D01*
X311204761Y58785714D01*
X311157142Y58738095D01*
X311061904Y58690476D01*
X310823809Y58690476D01*
X310728571Y58738095D01*
X310680952Y58785714D01*
X310633333Y58880952D01*
X310633333Y59071428D01*
X310680952Y59166666D01*
X310728571Y59214285D01*
X310823809Y59261904D01*
X310585714Y57833333D02*
X311252380Y57833333D01*
X310204761Y58071428D02*
X310919047Y58309523D01*
X310919047Y57690476D01*
G04 #@! TO.C,D65*
X300632380Y80714285D02*
X299632380Y80714285D01*
X299632380Y80476190D01*
X299680000Y80333333D01*
X299775238Y80238095D01*
X299870476Y80190476D01*
X300060952Y80142857D01*
X300203809Y80142857D01*
X300394285Y80190476D01*
X300489523Y80238095D01*
X300584761Y80333333D01*
X300632380Y80476190D01*
X300632380Y80714285D01*
X299632380Y79285714D02*
X299632380Y79476190D01*
X299680000Y79571428D01*
X299727619Y79619047D01*
X299870476Y79714285D01*
X300060952Y79761904D01*
X300441904Y79761904D01*
X300537142Y79714285D01*
X300584761Y79666666D01*
X300632380Y79571428D01*
X300632380Y79380952D01*
X300584761Y79285714D01*
X300537142Y79238095D01*
X300441904Y79190476D01*
X300203809Y79190476D01*
X300108571Y79238095D01*
X300060952Y79285714D01*
X300013333Y79380952D01*
X300013333Y79571428D01*
X300060952Y79666666D01*
X300108571Y79714285D01*
X300203809Y79761904D01*
X299632380Y78285714D02*
X299632380Y78761904D01*
X300108571Y78809523D01*
X300060952Y78761904D01*
X300013333Y78666666D01*
X300013333Y78428571D01*
X300060952Y78333333D01*
X300108571Y78285714D01*
X300203809Y78238095D01*
X300441904Y78238095D01*
X300537142Y78285714D01*
X300584761Y78333333D01*
X300632380Y78428571D01*
X300632380Y78666666D01*
X300584761Y78761904D01*
X300537142Y78809523D01*
G04 #@! TO.C,D66*
X305662380Y95684285D02*
X304662380Y95684285D01*
X304662380Y95446190D01*
X304710000Y95303333D01*
X304805238Y95208095D01*
X304900476Y95160476D01*
X305090952Y95112857D01*
X305233809Y95112857D01*
X305424285Y95160476D01*
X305519523Y95208095D01*
X305614761Y95303333D01*
X305662380Y95446190D01*
X305662380Y95684285D01*
X304662380Y94255714D02*
X304662380Y94446190D01*
X304710000Y94541428D01*
X304757619Y94589047D01*
X304900476Y94684285D01*
X305090952Y94731904D01*
X305471904Y94731904D01*
X305567142Y94684285D01*
X305614761Y94636666D01*
X305662380Y94541428D01*
X305662380Y94350952D01*
X305614761Y94255714D01*
X305567142Y94208095D01*
X305471904Y94160476D01*
X305233809Y94160476D01*
X305138571Y94208095D01*
X305090952Y94255714D01*
X305043333Y94350952D01*
X305043333Y94541428D01*
X305090952Y94636666D01*
X305138571Y94684285D01*
X305233809Y94731904D01*
X304662380Y93303333D02*
X304662380Y93493809D01*
X304710000Y93589047D01*
X304757619Y93636666D01*
X304900476Y93731904D01*
X305090952Y93779523D01*
X305471904Y93779523D01*
X305567142Y93731904D01*
X305614761Y93684285D01*
X305662380Y93589047D01*
X305662380Y93398571D01*
X305614761Y93303333D01*
X305567142Y93255714D01*
X305471904Y93208095D01*
X305233809Y93208095D01*
X305138571Y93255714D01*
X305090952Y93303333D01*
X305043333Y93398571D01*
X305043333Y93589047D01*
X305090952Y93684285D01*
X305138571Y93731904D01*
X305233809Y93779523D01*
G04 #@! TO.C,D67*
X293462380Y119454285D02*
X292462380Y119454285D01*
X292462380Y119216190D01*
X292510000Y119073333D01*
X292605238Y118978095D01*
X292700476Y118930476D01*
X292890952Y118882857D01*
X293033809Y118882857D01*
X293224285Y118930476D01*
X293319523Y118978095D01*
X293414761Y119073333D01*
X293462380Y119216190D01*
X293462380Y119454285D01*
X292462380Y118025714D02*
X292462380Y118216190D01*
X292510000Y118311428D01*
X292557619Y118359047D01*
X292700476Y118454285D01*
X292890952Y118501904D01*
X293271904Y118501904D01*
X293367142Y118454285D01*
X293414761Y118406666D01*
X293462380Y118311428D01*
X293462380Y118120952D01*
X293414761Y118025714D01*
X293367142Y117978095D01*
X293271904Y117930476D01*
X293033809Y117930476D01*
X292938571Y117978095D01*
X292890952Y118025714D01*
X292843333Y118120952D01*
X292843333Y118311428D01*
X292890952Y118406666D01*
X292938571Y118454285D01*
X293033809Y118501904D01*
X292462380Y117597142D02*
X292462380Y116930476D01*
X293462380Y117359047D01*
G04 #@! TO.C,R1*
X-10407619Y52439166D02*
X-10883809Y52772500D01*
X-10407619Y53010595D02*
X-11407619Y53010595D01*
X-11407619Y52629642D01*
X-11360000Y52534404D01*
X-11312380Y52486785D01*
X-11217142Y52439166D01*
X-11074285Y52439166D01*
X-10979047Y52486785D01*
X-10931428Y52534404D01*
X-10883809Y52629642D01*
X-10883809Y53010595D01*
X-10407619Y51486785D02*
X-10407619Y52058214D01*
X-10407619Y51772500D02*
X-11407619Y51772500D01*
X-11264761Y51867738D01*
X-11169523Y51962976D01*
X-11121904Y52058214D01*
G04 #@! TO.C,SW1*
X136578898Y91335730D02*
X136428583Y91326708D01*
X136198601Y91388332D01*
X136118933Y91458978D01*
X136085261Y91517299D01*
X136063914Y91621616D01*
X136088563Y91713609D01*
X136159209Y91793278D01*
X136217531Y91826949D01*
X136321848Y91848296D01*
X136518159Y91844994D01*
X136622476Y91866341D01*
X136680798Y91900013D01*
X136751444Y91979681D01*
X136776093Y92071674D01*
X136754746Y92175992D01*
X136721074Y92234313D01*
X136641406Y92304959D01*
X136411424Y92366582D01*
X136261110Y92357560D01*
X135951459Y92489829D02*
X135462658Y91585527D01*
X135463542Y92324773D01*
X135094686Y91684125D01*
X135123523Y92711674D01*
X133990771Y91979918D02*
X134542728Y91832022D01*
X134266749Y91905970D02*
X134525568Y92871896D01*
X134580587Y92709257D01*
X134647931Y92592614D01*
X134727599Y92521969D01*
G04 #@! TO.C,SW2*
X122478898Y75435730D02*
X122328583Y75426708D01*
X122098601Y75488332D01*
X122018933Y75558978D01*
X121985261Y75617299D01*
X121963914Y75721616D01*
X121988563Y75813609D01*
X122059209Y75893278D01*
X122117531Y75926949D01*
X122221848Y75948296D01*
X122418159Y75944994D01*
X122522476Y75966341D01*
X122580798Y76000013D01*
X122651444Y76079681D01*
X122676093Y76171674D01*
X122654746Y76275992D01*
X122621074Y76334313D01*
X122541406Y76404959D01*
X122311424Y76466582D01*
X122161110Y76457560D01*
X121851459Y76589829D02*
X121362658Y75685527D01*
X121363542Y76424773D01*
X120994686Y75784125D01*
X121023523Y76811674D01*
X120676898Y76805954D02*
X120643226Y76864276D01*
X120563558Y76934921D01*
X120333576Y76996545D01*
X120229258Y76975198D01*
X120170937Y76941526D01*
X120100291Y76861858D01*
X120075641Y76769865D01*
X120084664Y76619551D01*
X120488725Y75919697D01*
X119890771Y76079918D01*
G04 #@! TO.C,SW3*
X122118898Y55875730D02*
X121968583Y55866708D01*
X121738601Y55928332D01*
X121658933Y55998978D01*
X121625261Y56057299D01*
X121603914Y56161616D01*
X121628563Y56253609D01*
X121699209Y56333278D01*
X121757531Y56366949D01*
X121861848Y56388296D01*
X122058159Y56384994D01*
X122162476Y56406341D01*
X122220798Y56440013D01*
X122291444Y56519681D01*
X122316093Y56611674D01*
X122294746Y56715992D01*
X122261074Y56774313D01*
X122181406Y56844959D01*
X121951424Y56906582D01*
X121801110Y56897560D01*
X121491459Y57029829D02*
X121002658Y56125527D01*
X121003542Y56864773D01*
X120634686Y56224125D01*
X120663523Y57251674D01*
X120387544Y57325623D02*
X119789590Y57485844D01*
X120012967Y57031599D01*
X119874978Y57068573D01*
X119770660Y57047226D01*
X119712339Y57013555D01*
X119641693Y56933886D01*
X119580069Y56703904D01*
X119601416Y56599586D01*
X119635088Y56541265D01*
X119714756Y56470619D01*
X119990735Y56396671D01*
X120095053Y56418018D01*
X120153374Y56451690D01*
G04 #@! TO.C,SW4*
X126388898Y35095730D02*
X126238583Y35086708D01*
X126008601Y35148332D01*
X125928933Y35218978D01*
X125895261Y35277299D01*
X125873914Y35381616D01*
X125898563Y35473609D01*
X125969209Y35553278D01*
X126027531Y35586949D01*
X126131848Y35608296D01*
X126328159Y35604994D01*
X126432476Y35626341D01*
X126490798Y35660013D01*
X126561444Y35739681D01*
X126586093Y35831674D01*
X126564746Y35935992D01*
X126531074Y35994313D01*
X126451406Y36064959D01*
X126221424Y36126582D01*
X126071110Y36117560D01*
X125761459Y36249829D02*
X125272658Y35345527D01*
X125273542Y36084773D01*
X124904686Y35444125D01*
X124933523Y36471674D01*
X124065310Y36359219D02*
X123892764Y35715269D01*
X124393890Y36665567D02*
X124439001Y35913997D01*
X123841047Y36074218D01*
G04 #@! TO.C,SW5*
X114618898Y18555730D02*
X114468583Y18546708D01*
X114238601Y18608332D01*
X114158933Y18678978D01*
X114125261Y18737299D01*
X114103914Y18841616D01*
X114128563Y18933609D01*
X114199209Y19013278D01*
X114257531Y19046949D01*
X114361848Y19068296D01*
X114558159Y19064994D01*
X114662476Y19086341D01*
X114720798Y19120013D01*
X114791444Y19199681D01*
X114816093Y19291674D01*
X114794746Y19395992D01*
X114761074Y19454313D01*
X114681406Y19524959D01*
X114451424Y19586582D01*
X114301110Y19577560D01*
X113991459Y19709829D02*
X113502658Y18805527D01*
X113503542Y19544773D01*
X113134686Y18904125D01*
X113163523Y19931674D01*
X112335586Y20153519D02*
X112795551Y20030272D01*
X112718300Y19557983D01*
X112684628Y19616304D01*
X112604960Y19686950D01*
X112374978Y19748573D01*
X112270660Y19727226D01*
X112212339Y19693555D01*
X112141693Y19613886D01*
X112080069Y19383904D01*
X112101416Y19279586D01*
X112135088Y19221265D01*
X112214756Y19150619D01*
X112444739Y19088996D01*
X112549056Y19110343D01*
X112607378Y19144014D01*
G04 #@! TO.C,SW6*
X180523051Y22951145D02*
X180397386Y22868174D01*
X180167404Y22806550D01*
X180063086Y22827897D01*
X180004765Y22861569D01*
X179934119Y22941237D01*
X179909469Y23033230D01*
X179930817Y23137548D01*
X179964488Y23195869D01*
X180044157Y23266515D01*
X180215818Y23361810D01*
X180295486Y23432456D01*
X180329158Y23490777D01*
X180350505Y23595095D01*
X180325855Y23687088D01*
X180255209Y23766756D01*
X180196888Y23800428D01*
X180092570Y23821775D01*
X179862588Y23760151D01*
X179736923Y23677181D01*
X179402623Y23636904D02*
X179431460Y22609355D01*
X179062604Y23250003D01*
X179063488Y22510757D01*
X178574687Y23415059D01*
X177792747Y23205539D02*
X177976733Y23254838D01*
X178081051Y23233491D01*
X178139372Y23199819D01*
X178268339Y23086479D01*
X178363634Y22914818D01*
X178462232Y22546846D01*
X178440885Y22442529D01*
X178407213Y22384208D01*
X178327545Y22313562D01*
X178143559Y22264263D01*
X178039241Y22285610D01*
X177980920Y22319282D01*
X177910274Y22398950D01*
X177848651Y22628932D01*
X177869998Y22733250D01*
X177903670Y22791571D01*
X177983338Y22862217D01*
X178167324Y22911516D01*
X178271641Y22890169D01*
X178329962Y22856497D01*
X178400608Y22776829D01*
G04 #@! TO.C,SW7*
X168723051Y39371145D02*
X168597386Y39288174D01*
X168367404Y39226550D01*
X168263086Y39247897D01*
X168204765Y39281569D01*
X168134119Y39361237D01*
X168109469Y39453230D01*
X168130817Y39557548D01*
X168164488Y39615869D01*
X168244157Y39686515D01*
X168415818Y39781810D01*
X168495486Y39852456D01*
X168529158Y39910777D01*
X168550505Y40015095D01*
X168525855Y40107088D01*
X168455209Y40186756D01*
X168396888Y40220428D01*
X168292570Y40241775D01*
X168062588Y40180151D01*
X167936923Y40097181D01*
X167602623Y40056904D02*
X167631460Y39029355D01*
X167262604Y39670003D01*
X167263488Y38930757D01*
X166774687Y39835059D01*
X166498708Y39761111D02*
X165854758Y39588565D01*
X166527545Y38733562D01*
G04 #@! TO.C,SW8*
X172983051Y60201145D02*
X172857386Y60118174D01*
X172627404Y60056550D01*
X172523086Y60077897D01*
X172464765Y60111569D01*
X172394119Y60191237D01*
X172369469Y60283230D01*
X172390817Y60387548D01*
X172424488Y60445869D01*
X172504157Y60516515D01*
X172675818Y60611810D01*
X172755486Y60682456D01*
X172789158Y60740777D01*
X172810505Y60845095D01*
X172785855Y60937088D01*
X172715209Y61016756D01*
X172656888Y61050428D01*
X172552570Y61071775D01*
X172322588Y61010151D01*
X172196923Y60927181D01*
X171862623Y60886904D02*
X171891460Y59859355D01*
X171522604Y60500003D01*
X171523488Y59760757D01*
X171034687Y60665059D01*
X170639648Y60115519D02*
X170719317Y60186165D01*
X170752988Y60244486D01*
X170774335Y60348804D01*
X170762011Y60394801D01*
X170691365Y60474469D01*
X170633044Y60508141D01*
X170528726Y60529488D01*
X170344740Y60480189D01*
X170265072Y60409543D01*
X170231400Y60351222D01*
X170210053Y60246904D01*
X170222378Y60200907D01*
X170293024Y60121239D01*
X170351345Y60087568D01*
X170455662Y60066220D01*
X170639648Y60115519D01*
X170743966Y60094172D01*
X170802287Y60060501D01*
X170872933Y59980832D01*
X170922232Y59796846D01*
X170900885Y59692529D01*
X170867213Y59634208D01*
X170787545Y59563562D01*
X170603559Y59514263D01*
X170499241Y59535610D01*
X170440920Y59569282D01*
X170370274Y59648950D01*
X170320975Y59832936D01*
X170342323Y59937253D01*
X170375994Y59995575D01*
X170455662Y60066220D01*
G04 #@! TO.C,SW9*
X163453051Y77381145D02*
X163327386Y77298174D01*
X163097404Y77236550D01*
X162993086Y77257897D01*
X162934765Y77291569D01*
X162864119Y77371237D01*
X162839469Y77463230D01*
X162860817Y77567548D01*
X162894488Y77625869D01*
X162974157Y77696515D01*
X163145818Y77791810D01*
X163225486Y77862456D01*
X163259158Y77920777D01*
X163280505Y78025095D01*
X163255855Y78117088D01*
X163185209Y78196756D01*
X163126888Y78230428D01*
X163022570Y78251775D01*
X162792588Y78190151D01*
X162666923Y78107181D01*
X162332623Y78066904D02*
X162361460Y77039355D01*
X161992604Y77680003D01*
X161993488Y76940757D01*
X161504687Y77845059D01*
X161349538Y76768211D02*
X161165552Y76718912D01*
X161061234Y76740259D01*
X161002913Y76773931D01*
X160873946Y76887271D01*
X160778651Y77058932D01*
X160680053Y77426904D01*
X160701400Y77531222D01*
X160735072Y77589543D01*
X160814740Y77660189D01*
X160998726Y77709488D01*
X161103044Y77688141D01*
X161161365Y77654469D01*
X161232011Y77574801D01*
X161293634Y77344818D01*
X161272287Y77240501D01*
X161238615Y77182179D01*
X161158947Y77111533D01*
X160974961Y77062235D01*
X160870644Y77083582D01*
X160812323Y77117253D01*
X160741677Y77196922D01*
G04 #@! TO.C,SW10*
X168153015Y98314392D02*
X168027351Y98231421D01*
X167797368Y98169798D01*
X167693051Y98191145D01*
X167634730Y98224816D01*
X167564084Y98304485D01*
X167539434Y98396477D01*
X167560781Y98500795D01*
X167594453Y98559116D01*
X167674121Y98629762D01*
X167845782Y98725058D01*
X167925451Y98795703D01*
X167959122Y98854025D01*
X167980469Y98958342D01*
X167955820Y99050335D01*
X167885174Y99130003D01*
X167826853Y99163675D01*
X167722535Y99185022D01*
X167492553Y99123399D01*
X167366888Y99040428D01*
X167032588Y99000151D02*
X167061425Y97972602D01*
X166692568Y98613250D01*
X166693453Y97874004D01*
X166204652Y98778307D01*
X165589538Y97578211D02*
X166141495Y97726108D01*
X165865517Y97652159D02*
X165606698Y98618085D01*
X165735665Y98504745D01*
X165852307Y98437402D01*
X165956625Y98416055D01*
X164732765Y98383916D02*
X164640772Y98359266D01*
X164561104Y98288620D01*
X164527432Y98230299D01*
X164506085Y98125982D01*
X164509387Y97929671D01*
X164571011Y97699689D01*
X164666306Y97528027D01*
X164736952Y97448359D01*
X164795273Y97414687D01*
X164899591Y97393340D01*
X164991584Y97417990D01*
X165071252Y97488636D01*
X165104924Y97546957D01*
X165126271Y97651275D01*
X165122968Y97847585D01*
X165061345Y98077568D01*
X164966049Y98249229D01*
X164895404Y98328897D01*
X164837082Y98362569D01*
X164732765Y98383916D01*
G04 #@! TO.C,SW11*
X118688862Y96132483D02*
X118538548Y96123461D01*
X118308566Y96185085D01*
X118228898Y96255730D01*
X118195226Y96314052D01*
X118173879Y96418369D01*
X118198528Y96510362D01*
X118269174Y96590030D01*
X118327495Y96623702D01*
X118431813Y96645049D01*
X118628123Y96641747D01*
X118732441Y96663094D01*
X118790762Y96696766D01*
X118861408Y96776434D01*
X118886058Y96868427D01*
X118864711Y96972744D01*
X118831039Y97031066D01*
X118751371Y97101712D01*
X118521388Y97163335D01*
X118371074Y97154313D01*
X118061424Y97286582D02*
X117572622Y96382280D01*
X117573507Y97121526D01*
X117204651Y96480878D01*
X117233487Y97508427D01*
X116100735Y96776671D02*
X116652693Y96628774D01*
X116376714Y96702723D02*
X116635533Y97668648D01*
X116690552Y97506010D01*
X116757895Y97389367D01*
X116837564Y97318721D01*
X115180806Y97023165D02*
X115732764Y96875269D01*
X115456785Y96949217D02*
X115715604Y97915143D01*
X115770623Y97752504D01*
X115837966Y97635862D01*
X115917634Y97565216D01*
G04 #@! TO.C,SW12*
X104608862Y80202483D02*
X104458548Y80193461D01*
X104228566Y80255085D01*
X104148898Y80325730D01*
X104115226Y80384052D01*
X104093879Y80488369D01*
X104118528Y80580362D01*
X104189174Y80660030D01*
X104247495Y80693702D01*
X104351813Y80715049D01*
X104548123Y80711747D01*
X104652441Y80733094D01*
X104710762Y80766766D01*
X104781408Y80846434D01*
X104806058Y80938427D01*
X104784711Y81042744D01*
X104751039Y81101066D01*
X104671371Y81171712D01*
X104441388Y81233335D01*
X104291074Y81224313D01*
X103981424Y81356582D02*
X103492622Y80452280D01*
X103493507Y81191526D01*
X103124651Y80550878D01*
X103153487Y81578427D01*
X102020735Y80846671D02*
X102572693Y80698774D01*
X102296714Y80772723D02*
X102555533Y81738648D01*
X102610552Y81576010D01*
X102677895Y81459367D01*
X102757564Y81388721D01*
X101886933Y81819202D02*
X101853261Y81877523D01*
X101773593Y81948169D01*
X101543611Y82009792D01*
X101439293Y81988445D01*
X101380972Y81954773D01*
X101310326Y81875105D01*
X101285677Y81783112D01*
X101294699Y81632798D01*
X101698760Y80932944D01*
X101100806Y81093165D01*
G04 #@! TO.C,SW13*
X104208862Y60652483D02*
X104058548Y60643461D01*
X103828566Y60705085D01*
X103748898Y60775730D01*
X103715226Y60834052D01*
X103693879Y60938369D01*
X103718528Y61030362D01*
X103789174Y61110030D01*
X103847495Y61143702D01*
X103951813Y61165049D01*
X104148123Y61161747D01*
X104252441Y61183094D01*
X104310762Y61216766D01*
X104381408Y61296434D01*
X104406058Y61388427D01*
X104384711Y61492744D01*
X104351039Y61551066D01*
X104271371Y61621712D01*
X104041388Y61683335D01*
X103891074Y61674313D01*
X103581424Y61806582D02*
X103092622Y60902280D01*
X103093507Y61641526D01*
X102724651Y61000878D01*
X102753487Y62028427D01*
X101620735Y61296671D02*
X102172693Y61148774D01*
X101896714Y61222723D02*
X102155533Y62188648D01*
X102210552Y62026010D01*
X102277895Y61909367D01*
X102357564Y61838721D01*
X101557579Y62348870D02*
X100959625Y62509091D01*
X101183003Y62054846D01*
X101045013Y62091820D01*
X100940695Y62070473D01*
X100882374Y62036802D01*
X100811728Y61957133D01*
X100750105Y61727151D01*
X100771452Y61622833D01*
X100805124Y61564512D01*
X100884792Y61493866D01*
X101160771Y61419918D01*
X101265088Y61441265D01*
X101323409Y61474937D01*
G04 #@! TO.C,SW14*
X108528862Y39852483D02*
X108378548Y39843461D01*
X108148566Y39905085D01*
X108068898Y39975730D01*
X108035226Y40034052D01*
X108013879Y40138369D01*
X108038528Y40230362D01*
X108109174Y40310030D01*
X108167495Y40343702D01*
X108271813Y40365049D01*
X108468123Y40361747D01*
X108572441Y40383094D01*
X108630762Y40416766D01*
X108701408Y40496434D01*
X108726058Y40588427D01*
X108704711Y40692744D01*
X108671039Y40751066D01*
X108591371Y40821712D01*
X108361388Y40883335D01*
X108211074Y40874313D01*
X107901424Y41006582D02*
X107412622Y40102280D01*
X107413507Y40841526D01*
X107044651Y40200878D01*
X107073487Y41228427D01*
X105940735Y40496671D02*
X106492693Y40348774D01*
X106216714Y40422723D02*
X106475533Y41388648D01*
X106530552Y41226010D01*
X106597895Y41109367D01*
X106677564Y41038721D01*
X105285345Y41362466D02*
X105112799Y40718516D01*
X105613925Y41668815D02*
X105659037Y40917244D01*
X105061082Y41077465D01*
G04 #@! TO.C,SW15*
X187563015Y44464392D02*
X187437351Y44381421D01*
X187207368Y44319798D01*
X187103051Y44341145D01*
X187044730Y44374816D01*
X186974084Y44454485D01*
X186949434Y44546477D01*
X186970781Y44650795D01*
X187004453Y44709116D01*
X187084121Y44779762D01*
X187255782Y44875058D01*
X187335451Y44945703D01*
X187369122Y45004025D01*
X187390469Y45108342D01*
X187365820Y45200335D01*
X187295174Y45280003D01*
X187236853Y45313675D01*
X187132535Y45335022D01*
X186902553Y45273399D01*
X186776888Y45190428D01*
X186442588Y45150151D02*
X186471425Y44122602D01*
X186102568Y44763250D01*
X186103453Y44024004D01*
X185614652Y44928307D01*
X184999538Y43728211D02*
X185551495Y43876108D01*
X185275517Y43802159D02*
X185016698Y44768085D01*
X185145665Y44654745D01*
X185262307Y44587402D01*
X185366625Y44566055D01*
X183866786Y44459967D02*
X184326751Y44583215D01*
X184495994Y44135575D01*
X184437673Y44169246D01*
X184333355Y44190593D01*
X184103373Y44128970D01*
X184023705Y44058324D01*
X183990033Y44000003D01*
X183968686Y43895685D01*
X184030310Y43665703D01*
X184100956Y43586034D01*
X184159277Y43552363D01*
X184263594Y43531016D01*
X184493577Y43592639D01*
X184573245Y43663285D01*
X184606917Y43721606D01*
G04 #@! TO.C,SW16*
X191813015Y65264392D02*
X191687351Y65181421D01*
X191457368Y65119798D01*
X191353051Y65141145D01*
X191294730Y65174816D01*
X191224084Y65254485D01*
X191199434Y65346477D01*
X191220781Y65450795D01*
X191254453Y65509116D01*
X191334121Y65579762D01*
X191505782Y65675058D01*
X191585451Y65745703D01*
X191619122Y65804025D01*
X191640469Y65908342D01*
X191615820Y66000335D01*
X191545174Y66080003D01*
X191486853Y66113675D01*
X191382535Y66135022D01*
X191152553Y66073399D01*
X191026888Y65990428D01*
X190692588Y65950151D02*
X190721425Y64922602D01*
X190352568Y65563250D01*
X190353453Y64824004D01*
X189864652Y65728307D01*
X189249538Y64528211D02*
X189801495Y64676108D01*
X189525517Y64602159D02*
X189266698Y65568085D01*
X189395665Y65454745D01*
X189512307Y65387402D01*
X189616625Y65366055D01*
X188162782Y65272292D02*
X188346768Y65321591D01*
X188451086Y65300244D01*
X188509407Y65266572D01*
X188638374Y65153232D01*
X188733670Y64981571D01*
X188832267Y64613599D01*
X188810920Y64509282D01*
X188777248Y64450960D01*
X188697580Y64380315D01*
X188513594Y64331016D01*
X188409277Y64352363D01*
X188350956Y64386034D01*
X188280310Y64465703D01*
X188218686Y64695685D01*
X188240033Y64800003D01*
X188273705Y64858324D01*
X188353373Y64928970D01*
X188537359Y64978269D01*
X188641677Y64956922D01*
X188699998Y64923250D01*
X188770644Y64843582D01*
G04 #@! TO.C,SW17*
X182253015Y82424392D02*
X182127351Y82341421D01*
X181897368Y82279798D01*
X181793051Y82301145D01*
X181734730Y82334816D01*
X181664084Y82414485D01*
X181639434Y82506477D01*
X181660781Y82610795D01*
X181694453Y82669116D01*
X181774121Y82739762D01*
X181945782Y82835058D01*
X182025451Y82905703D01*
X182059122Y82964025D01*
X182080469Y83068342D01*
X182055820Y83160335D01*
X181985174Y83240003D01*
X181926853Y83273675D01*
X181822535Y83295022D01*
X181592553Y83233399D01*
X181466888Y83150428D01*
X181132588Y83110151D02*
X181161425Y82082602D01*
X180792568Y82723250D01*
X180793453Y81984004D01*
X180304652Y82888307D01*
X179689538Y81688211D02*
X180241495Y81836108D01*
X179965517Y81762159D02*
X179706698Y82728085D01*
X179835665Y82614745D01*
X179952307Y82547402D01*
X180056625Y82526055D01*
X179108744Y82567864D02*
X178464793Y82395318D01*
X179137580Y81540315D01*
G04 #@! TO.C,SW18*
X186523015Y103234392D02*
X186397351Y103151421D01*
X186167368Y103089798D01*
X186063051Y103111145D01*
X186004730Y103144816D01*
X185934084Y103224485D01*
X185909434Y103316477D01*
X185930781Y103420795D01*
X185964453Y103479116D01*
X186044121Y103549762D01*
X186215782Y103645058D01*
X186295451Y103715703D01*
X186329122Y103774025D01*
X186350469Y103878342D01*
X186325820Y103970335D01*
X186255174Y104050003D01*
X186196853Y104083675D01*
X186092535Y104105022D01*
X185862553Y104043399D01*
X185736888Y103960428D01*
X185402588Y103920151D02*
X185431425Y102892602D01*
X185062568Y103533250D01*
X185063453Y102794004D01*
X184574652Y103698307D01*
X183959538Y102498211D02*
X184511495Y102646108D01*
X184235517Y102572159D02*
X183976698Y103538085D01*
X184105665Y103424745D01*
X184222307Y103357402D01*
X184326625Y103336055D01*
X183259684Y102902272D02*
X183339352Y102972918D01*
X183373024Y103031239D01*
X183394371Y103135557D01*
X183382046Y103181553D01*
X183311400Y103261222D01*
X183253079Y103294893D01*
X183148761Y103316240D01*
X182964775Y103266942D01*
X182885107Y103196296D01*
X182851435Y103137974D01*
X182830088Y103033657D01*
X182842413Y102987660D01*
X182913059Y102907992D01*
X182971380Y102874320D01*
X183075698Y102852973D01*
X183259684Y102902272D01*
X183364001Y102880925D01*
X183422323Y102847253D01*
X183492968Y102767585D01*
X183542267Y102583599D01*
X183520920Y102479282D01*
X183487248Y102420960D01*
X183407580Y102350315D01*
X183223594Y102301016D01*
X183119277Y102322363D01*
X183060956Y102356034D01*
X182990310Y102435703D01*
X182941011Y102619689D01*
X182962358Y102724006D01*
X182996030Y102782327D01*
X183075698Y102852973D01*
G04 #@! TO.C,SW19*
X100328862Y101052483D02*
X100178548Y101043461D01*
X99948566Y101105085D01*
X99868898Y101175730D01*
X99835226Y101234052D01*
X99813879Y101338369D01*
X99838528Y101430362D01*
X99909174Y101510030D01*
X99967495Y101543702D01*
X100071813Y101565049D01*
X100268123Y101561747D01*
X100372441Y101583094D01*
X100430762Y101616766D01*
X100501408Y101696434D01*
X100526058Y101788427D01*
X100504711Y101892744D01*
X100471039Y101951066D01*
X100391371Y102021712D01*
X100161388Y102083335D01*
X100011074Y102074313D01*
X99701424Y102206582D02*
X99212622Y101302280D01*
X99213507Y102041526D01*
X98844651Y101400878D01*
X98873487Y102428427D01*
X97740735Y101696671D02*
X98292693Y101548774D01*
X98016714Y101622723D02*
X98275533Y102588648D01*
X98330552Y102426010D01*
X98397895Y102309367D01*
X98477564Y102238721D01*
X97280771Y101819918D02*
X97096785Y101869217D01*
X97017117Y101939863D01*
X96983445Y101998184D01*
X96928426Y102160823D01*
X96931728Y102357133D01*
X97030326Y102725105D01*
X97100972Y102804773D01*
X97159293Y102838445D01*
X97263611Y102859792D01*
X97447597Y102810493D01*
X97527265Y102739847D01*
X97560937Y102681526D01*
X97582284Y102577209D01*
X97520660Y102347226D01*
X97450014Y102267558D01*
X97391693Y102233886D01*
X97287375Y102212539D01*
X97103390Y102261838D01*
X97023721Y102332484D01*
X96990050Y102390805D01*
X96968703Y102495123D01*
G04 #@! TO.C,SW20*
X86288862Y85152483D02*
X86138548Y85143461D01*
X85908566Y85205085D01*
X85828898Y85275730D01*
X85795226Y85334052D01*
X85773879Y85438369D01*
X85798528Y85530362D01*
X85869174Y85610030D01*
X85927495Y85643702D01*
X86031813Y85665049D01*
X86228123Y85661747D01*
X86332441Y85683094D01*
X86390762Y85716766D01*
X86461408Y85796434D01*
X86486058Y85888427D01*
X86464711Y85992744D01*
X86431039Y86051066D01*
X86351371Y86121712D01*
X86121388Y86183335D01*
X85971074Y86174313D01*
X85661424Y86306582D02*
X85172622Y85402280D01*
X85173507Y86141526D01*
X84804651Y85500878D01*
X84833487Y86528427D01*
X84486862Y86522707D02*
X84453191Y86581028D01*
X84373523Y86651674D01*
X84143540Y86713298D01*
X84039223Y86691951D01*
X83980901Y86658279D01*
X83910255Y86578611D01*
X83885606Y86486618D01*
X83894628Y86336304D01*
X84298689Y85636450D01*
X83700735Y85796671D01*
X83361600Y86922818D02*
X83269607Y86947468D01*
X83165290Y86926120D01*
X83106968Y86892449D01*
X83036323Y86812781D01*
X82941027Y86641119D01*
X82879404Y86411137D01*
X82876101Y86214826D01*
X82897448Y86110509D01*
X82931120Y86052188D01*
X83010788Y85981542D01*
X83102781Y85956892D01*
X83207099Y85978239D01*
X83265420Y86011911D01*
X83336066Y86091579D01*
X83431361Y86263240D01*
X83492985Y86493223D01*
X83496287Y86689533D01*
X83474940Y86793851D01*
X83441268Y86852172D01*
X83361600Y86922818D01*
G04 #@! TO.C,SW21*
X85868862Y65602483D02*
X85718548Y65593461D01*
X85488566Y65655085D01*
X85408898Y65725730D01*
X85375226Y65784052D01*
X85353879Y65888369D01*
X85378528Y65980362D01*
X85449174Y66060030D01*
X85507495Y66093702D01*
X85611813Y66115049D01*
X85808123Y66111747D01*
X85912441Y66133094D01*
X85970762Y66166766D01*
X86041408Y66246434D01*
X86066058Y66338427D01*
X86044711Y66442744D01*
X86011039Y66501066D01*
X85931371Y66571712D01*
X85701388Y66633335D01*
X85551074Y66624313D01*
X85241424Y66756582D02*
X84752622Y65852280D01*
X84753507Y66591526D01*
X84384651Y65950878D01*
X84413487Y66978427D01*
X84066862Y66972707D02*
X84033191Y67031028D01*
X83953523Y67101674D01*
X83723540Y67163298D01*
X83619223Y67141951D01*
X83560901Y67108279D01*
X83490255Y67028611D01*
X83465606Y66936618D01*
X83474628Y66786304D01*
X83878689Y66086450D01*
X83280735Y66246671D01*
X82360806Y66493165D02*
X82912764Y66345269D01*
X82636785Y66419217D02*
X82895604Y67385143D01*
X82950623Y67222504D01*
X83017966Y67105862D01*
X83097634Y67035216D01*
G04 #@! TO.C,SW22*
X90138862Y44772483D02*
X89988548Y44763461D01*
X89758566Y44825085D01*
X89678898Y44895730D01*
X89645226Y44954052D01*
X89623879Y45058369D01*
X89648528Y45150362D01*
X89719174Y45230030D01*
X89777495Y45263702D01*
X89881813Y45285049D01*
X90078123Y45281747D01*
X90182441Y45303094D01*
X90240762Y45336766D01*
X90311408Y45416434D01*
X90336058Y45508427D01*
X90314711Y45612744D01*
X90281039Y45671066D01*
X90201371Y45741712D01*
X89971388Y45803335D01*
X89821074Y45794313D01*
X89511424Y45926582D02*
X89022622Y45022280D01*
X89023507Y45761526D01*
X88654651Y45120878D01*
X88683487Y46148427D01*
X88336862Y46142707D02*
X88303191Y46201028D01*
X88223523Y46271674D01*
X87993540Y46333298D01*
X87889223Y46311951D01*
X87830901Y46278279D01*
X87760255Y46198611D01*
X87735606Y46106618D01*
X87744628Y45956304D01*
X88148689Y45256450D01*
X87550735Y45416671D01*
X87416933Y46389202D02*
X87383261Y46447523D01*
X87303593Y46518169D01*
X87073611Y46579792D01*
X86969293Y46558445D01*
X86910972Y46524773D01*
X86840326Y46445105D01*
X86815677Y46353112D01*
X86824699Y46202798D01*
X87228760Y45502944D01*
X86630806Y45663165D01*
G04 #@! TO.C,SW23*
X78328862Y28232483D02*
X78178548Y28223461D01*
X77948566Y28285085D01*
X77868898Y28355730D01*
X77835226Y28414052D01*
X77813879Y28518369D01*
X77838528Y28610362D01*
X77909174Y28690030D01*
X77967495Y28723702D01*
X78071813Y28745049D01*
X78268123Y28741747D01*
X78372441Y28763094D01*
X78430762Y28796766D01*
X78501408Y28876434D01*
X78526058Y28968427D01*
X78504711Y29072744D01*
X78471039Y29131066D01*
X78391371Y29201712D01*
X78161388Y29263335D01*
X78011074Y29254313D01*
X77701424Y29386582D02*
X77212622Y28482280D01*
X77213507Y29221526D01*
X76844651Y28580878D01*
X76873487Y29608427D01*
X76526862Y29602707D02*
X76493191Y29661028D01*
X76413523Y29731674D01*
X76183540Y29793298D01*
X76079223Y29771951D01*
X76020901Y29738279D01*
X75950255Y29658611D01*
X75925606Y29566618D01*
X75934628Y29416304D01*
X76338689Y28716450D01*
X75740735Y28876671D01*
X75677579Y29928870D02*
X75079625Y30089091D01*
X75303003Y29634846D01*
X75165013Y29671820D01*
X75060695Y29650473D01*
X75002374Y29616802D01*
X74931728Y29537133D01*
X74870105Y29307151D01*
X74891452Y29202833D01*
X74925124Y29144512D01*
X75004792Y29073866D01*
X75280771Y28999918D01*
X75385088Y29021265D01*
X75443409Y29054937D01*
G04 #@! TO.C,SW24*
X217663015Y32834392D02*
X217537351Y32751421D01*
X217307368Y32689798D01*
X217203051Y32711145D01*
X217144730Y32744816D01*
X217074084Y32824485D01*
X217049434Y32916477D01*
X217070781Y33020795D01*
X217104453Y33079116D01*
X217184121Y33149762D01*
X217355782Y33245058D01*
X217435451Y33315703D01*
X217469122Y33374025D01*
X217490469Y33478342D01*
X217465820Y33570335D01*
X217395174Y33650003D01*
X217336853Y33683675D01*
X217232535Y33705022D01*
X217002553Y33643399D01*
X216876888Y33560428D01*
X216542588Y33520151D02*
X216571425Y32492602D01*
X216202568Y33133250D01*
X216203453Y32394004D01*
X215714652Y33298307D01*
X215417326Y33120041D02*
X215359005Y33153712D01*
X215254687Y33175059D01*
X215024705Y33113436D01*
X214945036Y33042790D01*
X214911365Y32984469D01*
X214890018Y32880151D01*
X214914667Y32788158D01*
X214997638Y32662493D01*
X215697492Y32258432D01*
X215099538Y32098211D01*
X214099055Y32520317D02*
X214271601Y31876366D01*
X214230440Y32949912D02*
X214645293Y32321589D01*
X214047339Y32161367D01*
G04 #@! TO.C,SW25*
X205883015Y49364392D02*
X205757351Y49281421D01*
X205527368Y49219798D01*
X205423051Y49241145D01*
X205364730Y49274816D01*
X205294084Y49354485D01*
X205269434Y49446477D01*
X205290781Y49550795D01*
X205324453Y49609116D01*
X205404121Y49679762D01*
X205575782Y49775058D01*
X205655451Y49845703D01*
X205689122Y49904025D01*
X205710469Y50008342D01*
X205685820Y50100335D01*
X205615174Y50180003D01*
X205556853Y50213675D01*
X205452535Y50235022D01*
X205222553Y50173399D01*
X205096888Y50090428D01*
X204762588Y50050151D02*
X204791425Y49022602D01*
X204422568Y49663250D01*
X204423453Y48924004D01*
X203934652Y49828307D01*
X203637326Y49650041D02*
X203579005Y49683712D01*
X203474687Y49705059D01*
X203244705Y49643436D01*
X203165036Y49572790D01*
X203131365Y49514469D01*
X203110018Y49410151D01*
X203134667Y49318158D01*
X203217638Y49192493D01*
X203917492Y48788432D01*
X203319538Y48628211D01*
X202186786Y49359967D02*
X202646751Y49483215D01*
X202815994Y49035575D01*
X202757673Y49069246D01*
X202653355Y49090593D01*
X202423373Y49028970D01*
X202343705Y48958324D01*
X202310033Y48900003D01*
X202288686Y48795685D01*
X202350310Y48565703D01*
X202420956Y48486034D01*
X202479277Y48452363D01*
X202583594Y48431016D01*
X202813577Y48492639D01*
X202893245Y48563285D01*
X202926917Y48621606D01*
G04 #@! TO.C,SW26*
X210123015Y70174392D02*
X209997351Y70091421D01*
X209767368Y70029798D01*
X209663051Y70051145D01*
X209604730Y70084816D01*
X209534084Y70164485D01*
X209509434Y70256477D01*
X209530781Y70360795D01*
X209564453Y70419116D01*
X209644121Y70489762D01*
X209815782Y70585058D01*
X209895451Y70655703D01*
X209929122Y70714025D01*
X209950469Y70818342D01*
X209925820Y70910335D01*
X209855174Y70990003D01*
X209796853Y71023675D01*
X209692535Y71045022D01*
X209462553Y70983399D01*
X209336888Y70900428D01*
X209002588Y70860151D02*
X209031425Y69832602D01*
X208662568Y70473250D01*
X208663453Y69734004D01*
X208174652Y70638307D01*
X207877326Y70460041D02*
X207819005Y70493712D01*
X207714687Y70515059D01*
X207484705Y70453436D01*
X207405036Y70382790D01*
X207371365Y70324469D01*
X207350018Y70220151D01*
X207374667Y70128158D01*
X207457638Y70002493D01*
X208157492Y69598432D01*
X207559538Y69438211D01*
X206472782Y70182292D02*
X206656768Y70231591D01*
X206761086Y70210244D01*
X206819407Y70176572D01*
X206948374Y70063232D01*
X207043670Y69891571D01*
X207142267Y69523599D01*
X207120920Y69419282D01*
X207087248Y69360960D01*
X207007580Y69290315D01*
X206823594Y69241016D01*
X206719277Y69262363D01*
X206660956Y69296034D01*
X206590310Y69375703D01*
X206528686Y69605685D01*
X206550033Y69710003D01*
X206583705Y69768324D01*
X206663373Y69838970D01*
X206847359Y69888269D01*
X206951677Y69866922D01*
X207009998Y69833250D01*
X207080644Y69753582D01*
G04 #@! TO.C,SW27*
X200653015Y87344392D02*
X200527351Y87261421D01*
X200297368Y87199798D01*
X200193051Y87221145D01*
X200134730Y87254816D01*
X200064084Y87334485D01*
X200039434Y87426477D01*
X200060781Y87530795D01*
X200094453Y87589116D01*
X200174121Y87659762D01*
X200345782Y87755058D01*
X200425451Y87825703D01*
X200459122Y87884025D01*
X200480469Y87988342D01*
X200455820Y88080335D01*
X200385174Y88160003D01*
X200326853Y88193675D01*
X200222535Y88215022D01*
X199992553Y88153399D01*
X199866888Y88070428D01*
X199532588Y88030151D02*
X199561425Y87002602D01*
X199192568Y87643250D01*
X199193453Y86904004D01*
X198704652Y87808307D01*
X198407326Y87630041D02*
X198349005Y87663712D01*
X198244687Y87685059D01*
X198014705Y87623436D01*
X197935036Y87552790D01*
X197901365Y87494469D01*
X197880018Y87390151D01*
X197904667Y87298158D01*
X197987638Y87172493D01*
X198687492Y86768432D01*
X198089538Y86608211D01*
X197508744Y87487864D02*
X196864793Y87315318D01*
X197537580Y86460315D01*
G04 #@! TO.C,SW28*
X204893015Y108154392D02*
X204767351Y108071421D01*
X204537368Y108009798D01*
X204433051Y108031145D01*
X204374730Y108064816D01*
X204304084Y108144485D01*
X204279434Y108236477D01*
X204300781Y108340795D01*
X204334453Y108399116D01*
X204414121Y108469762D01*
X204585782Y108565058D01*
X204665451Y108635703D01*
X204699122Y108694025D01*
X204720469Y108798342D01*
X204695820Y108890335D01*
X204625174Y108970003D01*
X204566853Y109003675D01*
X204462535Y109025022D01*
X204232553Y108963399D01*
X204106888Y108880428D01*
X203772588Y108840151D02*
X203801425Y107812602D01*
X203432568Y108453250D01*
X203433453Y107714004D01*
X202944652Y108618307D01*
X202647326Y108440041D02*
X202589005Y108473712D01*
X202484687Y108495059D01*
X202254705Y108433436D01*
X202175036Y108362790D01*
X202141365Y108304469D01*
X202120018Y108200151D01*
X202144667Y108108158D01*
X202227638Y107982493D01*
X202927492Y107578432D01*
X202329538Y107418211D01*
X201629684Y107822272D02*
X201709352Y107892918D01*
X201743024Y107951239D01*
X201764371Y108055557D01*
X201752046Y108101553D01*
X201681400Y108181222D01*
X201623079Y108214893D01*
X201518761Y108236240D01*
X201334775Y108186942D01*
X201255107Y108116296D01*
X201221435Y108057974D01*
X201200088Y107953657D01*
X201212413Y107907660D01*
X201283059Y107827992D01*
X201341380Y107794320D01*
X201445698Y107772973D01*
X201629684Y107822272D01*
X201734001Y107800925D01*
X201792323Y107767253D01*
X201862968Y107687585D01*
X201912267Y107503599D01*
X201890920Y107399282D01*
X201857248Y107340960D01*
X201777580Y107270315D01*
X201593594Y107221016D01*
X201489277Y107242363D01*
X201430956Y107276034D01*
X201360310Y107355703D01*
X201311011Y107539689D01*
X201332358Y107644006D01*
X201366030Y107702327D01*
X201445698Y107772973D01*
G04 #@! TO.C,SW29*
X81978862Y105972483D02*
X81828548Y105963461D01*
X81598566Y106025085D01*
X81518898Y106095730D01*
X81485226Y106154052D01*
X81463879Y106258369D01*
X81488528Y106350362D01*
X81559174Y106430030D01*
X81617495Y106463702D01*
X81721813Y106485049D01*
X81918123Y106481747D01*
X82022441Y106503094D01*
X82080762Y106536766D01*
X82151408Y106616434D01*
X82176058Y106708427D01*
X82154711Y106812744D01*
X82121039Y106871066D01*
X82041371Y106941712D01*
X81811388Y107003335D01*
X81661074Y106994313D01*
X81351424Y107126582D02*
X80862622Y106222280D01*
X80863507Y106961526D01*
X80494651Y106320878D01*
X80523487Y107348427D01*
X80176862Y107342707D02*
X80143191Y107401028D01*
X80063523Y107471674D01*
X79833540Y107533298D01*
X79729223Y107511951D01*
X79670901Y107478279D01*
X79600255Y107398611D01*
X79575606Y107306618D01*
X79584628Y107156304D01*
X79988689Y106456450D01*
X79390735Y106616671D01*
X78930771Y106739918D02*
X78746785Y106789217D01*
X78667117Y106859863D01*
X78633445Y106918184D01*
X78578426Y107080823D01*
X78581728Y107277133D01*
X78680326Y107645105D01*
X78750972Y107724773D01*
X78809293Y107758445D01*
X78913611Y107779792D01*
X79097597Y107730493D01*
X79177265Y107659847D01*
X79210937Y107601526D01*
X79232284Y107497209D01*
X79170660Y107267226D01*
X79100014Y107187558D01*
X79041693Y107153886D01*
X78937375Y107132539D01*
X78753390Y107181838D01*
X78673721Y107252484D01*
X78640050Y107310805D01*
X78618703Y107415123D01*
G04 #@! TO.C,SW30*
X67858862Y90062483D02*
X67708548Y90053461D01*
X67478566Y90115085D01*
X67398898Y90185730D01*
X67365226Y90244052D01*
X67343879Y90348369D01*
X67368528Y90440362D01*
X67439174Y90520030D01*
X67497495Y90553702D01*
X67601813Y90575049D01*
X67798123Y90571747D01*
X67902441Y90593094D01*
X67960762Y90626766D01*
X68031408Y90706434D01*
X68056058Y90798427D01*
X68034711Y90902744D01*
X68001039Y90961066D01*
X67921371Y91031712D01*
X67691388Y91093335D01*
X67541074Y91084313D01*
X67231424Y91216582D02*
X66742622Y90312280D01*
X66743507Y91051526D01*
X66374651Y90410878D01*
X66403487Y91438427D01*
X66127508Y91512375D02*
X65529554Y91672597D01*
X65752932Y91218352D01*
X65614942Y91255326D01*
X65510625Y91233979D01*
X65452304Y91200307D01*
X65381658Y91120639D01*
X65320034Y90890657D01*
X65341381Y90786339D01*
X65375053Y90728018D01*
X65454721Y90657372D01*
X65730700Y90583424D01*
X65835018Y90604771D01*
X65893339Y90638443D01*
X64931600Y91832818D02*
X64839607Y91857468D01*
X64735290Y91836120D01*
X64676968Y91802449D01*
X64606323Y91722781D01*
X64511027Y91551119D01*
X64449404Y91321137D01*
X64446101Y91124826D01*
X64467448Y91020509D01*
X64501120Y90962188D01*
X64580788Y90891542D01*
X64672781Y90866892D01*
X64777099Y90888239D01*
X64835420Y90921911D01*
X64906066Y91001579D01*
X65001361Y91173240D01*
X65062985Y91403223D01*
X65066287Y91599533D01*
X65044940Y91703851D01*
X65011268Y91762172D01*
X64931600Y91832818D01*
G04 #@! TO.C,SW31*
X67608862Y70562483D02*
X67458548Y70553461D01*
X67228566Y70615085D01*
X67148898Y70685730D01*
X67115226Y70744052D01*
X67093879Y70848369D01*
X67118528Y70940362D01*
X67189174Y71020030D01*
X67247495Y71053702D01*
X67351813Y71075049D01*
X67548123Y71071747D01*
X67652441Y71093094D01*
X67710762Y71126766D01*
X67781408Y71206434D01*
X67806058Y71298427D01*
X67784711Y71402744D01*
X67751039Y71461066D01*
X67671371Y71531712D01*
X67441388Y71593335D01*
X67291074Y71584313D01*
X66981424Y71716582D02*
X66492622Y70812280D01*
X66493507Y71551526D01*
X66124651Y70910878D01*
X66153487Y71938427D01*
X65877508Y72012375D02*
X65279554Y72172597D01*
X65502932Y71718352D01*
X65364942Y71755326D01*
X65260625Y71733979D01*
X65202304Y71700307D01*
X65131658Y71620639D01*
X65070034Y71390657D01*
X65091381Y71286339D01*
X65125053Y71228018D01*
X65204721Y71157372D01*
X65480700Y71083424D01*
X65585018Y71104771D01*
X65643339Y71138443D01*
X64100806Y71453165D02*
X64652764Y71305269D01*
X64376785Y71379217D02*
X64635604Y72345143D01*
X64690623Y72182504D01*
X64757966Y72065862D01*
X64837634Y71995216D01*
G04 #@! TO.C,SW32*
X71918862Y49692483D02*
X71768548Y49683461D01*
X71538566Y49745085D01*
X71458898Y49815730D01*
X71425226Y49874052D01*
X71403879Y49978369D01*
X71428528Y50070362D01*
X71499174Y50150030D01*
X71557495Y50183702D01*
X71661813Y50205049D01*
X71858123Y50201747D01*
X71962441Y50223094D01*
X72020762Y50256766D01*
X72091408Y50336434D01*
X72116058Y50428427D01*
X72094711Y50532744D01*
X72061039Y50591066D01*
X71981371Y50661712D01*
X71751388Y50723335D01*
X71601074Y50714313D01*
X71291424Y50846582D02*
X70802622Y49942280D01*
X70803507Y50681526D01*
X70434651Y50040878D01*
X70463487Y51068427D01*
X70187508Y51142375D02*
X69589554Y51302597D01*
X69812932Y50848352D01*
X69674942Y50885326D01*
X69570625Y50863979D01*
X69512304Y50830307D01*
X69441658Y50750639D01*
X69380034Y50520657D01*
X69401381Y50416339D01*
X69435053Y50358018D01*
X69514721Y50287372D01*
X69790700Y50213424D01*
X69895018Y50234771D01*
X69953339Y50268443D01*
X69196933Y51309202D02*
X69163261Y51367523D01*
X69083593Y51438169D01*
X68853611Y51499792D01*
X68749293Y51478445D01*
X68690972Y51444773D01*
X68620326Y51365105D01*
X68595677Y51273112D01*
X68604699Y51122798D01*
X69008760Y50422944D01*
X68410806Y50583165D01*
G04 #@! TO.C,SW33*
X224263015Y54314392D02*
X224137351Y54231421D01*
X223907368Y54169798D01*
X223803051Y54191145D01*
X223744730Y54224816D01*
X223674084Y54304485D01*
X223649434Y54396477D01*
X223670781Y54500795D01*
X223704453Y54559116D01*
X223784121Y54629762D01*
X223955782Y54725058D01*
X224035451Y54795703D01*
X224069122Y54854025D01*
X224090469Y54958342D01*
X224065820Y55050335D01*
X223995174Y55130003D01*
X223936853Y55163675D01*
X223832535Y55185022D01*
X223602553Y55123399D01*
X223476888Y55040428D01*
X223142588Y55000151D02*
X223171425Y53972602D01*
X222802568Y54613250D01*
X222803453Y53874004D01*
X222314652Y54778307D01*
X222038673Y54704358D02*
X221440719Y54544137D01*
X221861292Y54262438D01*
X221723302Y54225464D01*
X221643634Y54154818D01*
X221609962Y54096497D01*
X221588615Y53992179D01*
X221650239Y53762197D01*
X221720885Y53682529D01*
X221779206Y53648857D01*
X221883524Y53627510D01*
X222159503Y53701458D01*
X222239171Y53772104D01*
X222272843Y53830425D01*
X221118744Y54457864D02*
X220520789Y54297643D01*
X220941362Y54015944D01*
X220803373Y53978970D01*
X220723705Y53908324D01*
X220690033Y53850003D01*
X220668686Y53745685D01*
X220730310Y53515703D01*
X220800956Y53436034D01*
X220859277Y53402363D01*
X220963594Y53381016D01*
X221239573Y53454964D01*
X221319241Y53525610D01*
X221352913Y53583931D01*
G04 #@! TO.C,SW34*
X228503015Y75084392D02*
X228377351Y75001421D01*
X228147368Y74939798D01*
X228043051Y74961145D01*
X227984730Y74994816D01*
X227914084Y75074485D01*
X227889434Y75166477D01*
X227910781Y75270795D01*
X227944453Y75329116D01*
X228024121Y75399762D01*
X228195782Y75495058D01*
X228275451Y75565703D01*
X228309122Y75624025D01*
X228330469Y75728342D01*
X228305820Y75820335D01*
X228235174Y75900003D01*
X228176853Y75933675D01*
X228072535Y75955022D01*
X227842553Y75893399D01*
X227716888Y75810428D01*
X227382588Y75770151D02*
X227411425Y74742602D01*
X227042568Y75383250D01*
X227043453Y74644004D01*
X226554652Y75548307D01*
X226278673Y75474358D02*
X225680719Y75314137D01*
X226101292Y75032438D01*
X225963302Y74995464D01*
X225883634Y74924818D01*
X225849962Y74866497D01*
X225828615Y74762179D01*
X225890239Y74532197D01*
X225960885Y74452529D01*
X226019206Y74418857D01*
X226123524Y74397510D01*
X226399503Y74471458D01*
X226479171Y74542104D01*
X226512843Y74600425D01*
X224939055Y74770317D02*
X225111601Y74126366D01*
X225070440Y75199912D02*
X225485293Y74571589D01*
X224887339Y74411367D01*
G04 #@! TO.C,SW35*
X218983015Y92214392D02*
X218857351Y92131421D01*
X218627368Y92069798D01*
X218523051Y92091145D01*
X218464730Y92124816D01*
X218394084Y92204485D01*
X218369434Y92296477D01*
X218390781Y92400795D01*
X218424453Y92459116D01*
X218504121Y92529762D01*
X218675782Y92625058D01*
X218755451Y92695703D01*
X218789122Y92754025D01*
X218810469Y92858342D01*
X218785820Y92950335D01*
X218715174Y93030003D01*
X218656853Y93063675D01*
X218552535Y93085022D01*
X218322553Y93023399D01*
X218196888Y92940428D01*
X217862588Y92900151D02*
X217891425Y91872602D01*
X217522568Y92513250D01*
X217523453Y91774004D01*
X217034652Y92678307D01*
X216758673Y92604358D02*
X216160719Y92444137D01*
X216581292Y92162438D01*
X216443302Y92125464D01*
X216363634Y92054818D01*
X216329962Y91996497D01*
X216308615Y91892179D01*
X216370239Y91662197D01*
X216440885Y91582529D01*
X216499206Y91548857D01*
X216603524Y91527510D01*
X216879503Y91601458D01*
X216959171Y91672104D01*
X216992843Y91730425D01*
X215286786Y92209967D02*
X215746751Y92333215D01*
X215915994Y91885575D01*
X215857673Y91919246D01*
X215753355Y91940593D01*
X215523373Y91878970D01*
X215443705Y91808324D01*
X215410033Y91750003D01*
X215388686Y91645685D01*
X215450310Y91415703D01*
X215520956Y91336034D01*
X215579277Y91302363D01*
X215683594Y91281016D01*
X215913577Y91342639D01*
X215993245Y91413285D01*
X216026917Y91471606D01*
G04 #@! TO.C,SW36*
X223243015Y113074392D02*
X223117351Y112991421D01*
X222887368Y112929798D01*
X222783051Y112951145D01*
X222724730Y112984816D01*
X222654084Y113064485D01*
X222629434Y113156477D01*
X222650781Y113260795D01*
X222684453Y113319116D01*
X222764121Y113389762D01*
X222935782Y113485058D01*
X223015451Y113555703D01*
X223049122Y113614025D01*
X223070469Y113718342D01*
X223045820Y113810335D01*
X222975174Y113890003D01*
X222916853Y113923675D01*
X222812535Y113945022D01*
X222582553Y113883399D01*
X222456888Y113800428D01*
X222122588Y113760151D02*
X222151425Y112732602D01*
X221782568Y113373250D01*
X221783453Y112634004D01*
X221294652Y113538307D01*
X221018673Y113464358D02*
X220420719Y113304137D01*
X220841292Y113022438D01*
X220703302Y112985464D01*
X220623634Y112914818D01*
X220589962Y112856497D01*
X220568615Y112752179D01*
X220630239Y112522197D01*
X220700885Y112442529D01*
X220759206Y112408857D01*
X220863524Y112387510D01*
X221139503Y112461458D01*
X221219171Y112532104D01*
X221252843Y112590425D01*
X219592782Y113082292D02*
X219776768Y113131591D01*
X219881086Y113110244D01*
X219939407Y113076572D01*
X220068374Y112963232D01*
X220163670Y112791571D01*
X220262267Y112423599D01*
X220240920Y112319282D01*
X220207248Y112260960D01*
X220127580Y112190315D01*
X219943594Y112141016D01*
X219839277Y112162363D01*
X219780956Y112196034D01*
X219710310Y112275703D01*
X219648686Y112505685D01*
X219670033Y112610003D01*
X219703705Y112668324D01*
X219783373Y112738970D01*
X219967359Y112788269D01*
X220071677Y112766922D01*
X220129998Y112733250D01*
X220200644Y112653582D01*
G04 #@! TO.C,SW37*
X63999523Y113245238D02*
X63856666Y113197619D01*
X63618571Y113197619D01*
X63523333Y113245238D01*
X63475714Y113292857D01*
X63428095Y113388095D01*
X63428095Y113483333D01*
X63475714Y113578571D01*
X63523333Y113626190D01*
X63618571Y113673809D01*
X63809047Y113721428D01*
X63904285Y113769047D01*
X63951904Y113816666D01*
X63999523Y113911904D01*
X63999523Y114007142D01*
X63951904Y114102380D01*
X63904285Y114150000D01*
X63809047Y114197619D01*
X63570952Y114197619D01*
X63428095Y114150000D01*
X63094761Y114197619D02*
X62856666Y113197619D01*
X62666190Y113911904D01*
X62475714Y113197619D01*
X62237619Y114197619D01*
X61951904Y114197619D02*
X61332857Y114197619D01*
X61666190Y113816666D01*
X61523333Y113816666D01*
X61428095Y113769047D01*
X61380476Y113721428D01*
X61332857Y113626190D01*
X61332857Y113388095D01*
X61380476Y113292857D01*
X61428095Y113245238D01*
X61523333Y113197619D01*
X61809047Y113197619D01*
X61904285Y113245238D01*
X61951904Y113292857D01*
X60999523Y114197619D02*
X60332857Y114197619D01*
X60761428Y113197619D01*
G04 #@! TO.C,SW38*
X243489523Y54485238D02*
X243346666Y54437619D01*
X243108571Y54437619D01*
X243013333Y54485238D01*
X242965714Y54532857D01*
X242918095Y54628095D01*
X242918095Y54723333D01*
X242965714Y54818571D01*
X243013333Y54866190D01*
X243108571Y54913809D01*
X243299047Y54961428D01*
X243394285Y55009047D01*
X243441904Y55056666D01*
X243489523Y55151904D01*
X243489523Y55247142D01*
X243441904Y55342380D01*
X243394285Y55390000D01*
X243299047Y55437619D01*
X243060952Y55437619D01*
X242918095Y55390000D01*
X242584761Y55437619D02*
X242346666Y54437619D01*
X242156190Y55151904D01*
X241965714Y54437619D01*
X241727619Y55437619D01*
X241441904Y55437619D02*
X240822857Y55437619D01*
X241156190Y55056666D01*
X241013333Y55056666D01*
X240918095Y55009047D01*
X240870476Y54961428D01*
X240822857Y54866190D01*
X240822857Y54628095D01*
X240870476Y54532857D01*
X240918095Y54485238D01*
X241013333Y54437619D01*
X241299047Y54437619D01*
X241394285Y54485238D01*
X241441904Y54532857D01*
X240251428Y55009047D02*
X240346666Y55056666D01*
X240394285Y55104285D01*
X240441904Y55199523D01*
X240441904Y55247142D01*
X240394285Y55342380D01*
X240346666Y55390000D01*
X240251428Y55437619D01*
X240060952Y55437619D01*
X239965714Y55390000D01*
X239918095Y55342380D01*
X239870476Y55247142D01*
X239870476Y55199523D01*
X239918095Y55104285D01*
X239965714Y55056666D01*
X240060952Y55009047D01*
X240251428Y55009047D01*
X240346666Y54961428D01*
X240394285Y54913809D01*
X240441904Y54818571D01*
X240441904Y54628095D01*
X240394285Y54532857D01*
X240346666Y54485238D01*
X240251428Y54437619D01*
X240060952Y54437619D01*
X239965714Y54485238D01*
X239918095Y54532857D01*
X239870476Y54628095D01*
X239870476Y54818571D01*
X239918095Y54913809D01*
X239965714Y54961428D01*
X240060952Y55009047D01*
G04 #@! TO.C,SW39*
X247719523Y73505238D02*
X247576666Y73457619D01*
X247338571Y73457619D01*
X247243333Y73505238D01*
X247195714Y73552857D01*
X247148095Y73648095D01*
X247148095Y73743333D01*
X247195714Y73838571D01*
X247243333Y73886190D01*
X247338571Y73933809D01*
X247529047Y73981428D01*
X247624285Y74029047D01*
X247671904Y74076666D01*
X247719523Y74171904D01*
X247719523Y74267142D01*
X247671904Y74362380D01*
X247624285Y74410000D01*
X247529047Y74457619D01*
X247290952Y74457619D01*
X247148095Y74410000D01*
X246814761Y74457619D02*
X246576666Y73457619D01*
X246386190Y74171904D01*
X246195714Y73457619D01*
X245957619Y74457619D01*
X245671904Y74457619D02*
X245052857Y74457619D01*
X245386190Y74076666D01*
X245243333Y74076666D01*
X245148095Y74029047D01*
X245100476Y73981428D01*
X245052857Y73886190D01*
X245052857Y73648095D01*
X245100476Y73552857D01*
X245148095Y73505238D01*
X245243333Y73457619D01*
X245529047Y73457619D01*
X245624285Y73505238D01*
X245671904Y73552857D01*
X244576666Y73457619D02*
X244386190Y73457619D01*
X244290952Y73505238D01*
X244243333Y73552857D01*
X244148095Y73695714D01*
X244100476Y73886190D01*
X244100476Y74267142D01*
X244148095Y74362380D01*
X244195714Y74410000D01*
X244290952Y74457619D01*
X244481428Y74457619D01*
X244576666Y74410000D01*
X244624285Y74362380D01*
X244671904Y74267142D01*
X244671904Y74029047D01*
X244624285Y73933809D01*
X244576666Y73886190D01*
X244481428Y73838571D01*
X244290952Y73838571D01*
X244195714Y73886190D01*
X244148095Y73933809D01*
X244100476Y74029047D01*
G04 #@! TO.C,SW40*
X240269523Y93635238D02*
X240126666Y93587619D01*
X239888571Y93587619D01*
X239793333Y93635238D01*
X239745714Y93682857D01*
X239698095Y93778095D01*
X239698095Y93873333D01*
X239745714Y93968571D01*
X239793333Y94016190D01*
X239888571Y94063809D01*
X240079047Y94111428D01*
X240174285Y94159047D01*
X240221904Y94206666D01*
X240269523Y94301904D01*
X240269523Y94397142D01*
X240221904Y94492380D01*
X240174285Y94540000D01*
X240079047Y94587619D01*
X239840952Y94587619D01*
X239698095Y94540000D01*
X239364761Y94587619D02*
X239126666Y93587619D01*
X238936190Y94301904D01*
X238745714Y93587619D01*
X238507619Y94587619D01*
X237698095Y94254285D02*
X237698095Y93587619D01*
X237936190Y94635238D02*
X238174285Y93920952D01*
X237555238Y93920952D01*
X236983809Y94587619D02*
X236888571Y94587619D01*
X236793333Y94540000D01*
X236745714Y94492380D01*
X236698095Y94397142D01*
X236650476Y94206666D01*
X236650476Y93968571D01*
X236698095Y93778095D01*
X236745714Y93682857D01*
X236793333Y93635238D01*
X236888571Y93587619D01*
X236983809Y93587619D01*
X237079047Y93635238D01*
X237126666Y93682857D01*
X237174285Y93778095D01*
X237221904Y93968571D01*
X237221904Y94206666D01*
X237174285Y94397142D01*
X237126666Y94492380D01*
X237079047Y94540000D01*
X236983809Y94587619D01*
G04 #@! TO.C,SW41*
X242449523Y112685238D02*
X242306666Y112637619D01*
X242068571Y112637619D01*
X241973333Y112685238D01*
X241925714Y112732857D01*
X241878095Y112828095D01*
X241878095Y112923333D01*
X241925714Y113018571D01*
X241973333Y113066190D01*
X242068571Y113113809D01*
X242259047Y113161428D01*
X242354285Y113209047D01*
X242401904Y113256666D01*
X242449523Y113351904D01*
X242449523Y113447142D01*
X242401904Y113542380D01*
X242354285Y113590000D01*
X242259047Y113637619D01*
X242020952Y113637619D01*
X241878095Y113590000D01*
X241544761Y113637619D02*
X241306666Y112637619D01*
X241116190Y113351904D01*
X240925714Y112637619D01*
X240687619Y113637619D01*
X239878095Y113304285D02*
X239878095Y112637619D01*
X240116190Y113685238D02*
X240354285Y112970952D01*
X239735238Y112970952D01*
X238830476Y112637619D02*
X239401904Y112637619D01*
X239116190Y112637619D02*
X239116190Y113637619D01*
X239211428Y113494761D01*
X239306666Y113399523D01*
X239401904Y113351904D01*
G04 #@! TO.C,SW42*
X45049523Y111475238D02*
X44906666Y111427619D01*
X44668571Y111427619D01*
X44573333Y111475238D01*
X44525714Y111522857D01*
X44478095Y111618095D01*
X44478095Y111713333D01*
X44525714Y111808571D01*
X44573333Y111856190D01*
X44668571Y111903809D01*
X44859047Y111951428D01*
X44954285Y111999047D01*
X45001904Y112046666D01*
X45049523Y112141904D01*
X45049523Y112237142D01*
X45001904Y112332380D01*
X44954285Y112380000D01*
X44859047Y112427619D01*
X44620952Y112427619D01*
X44478095Y112380000D01*
X44144761Y112427619D02*
X43906666Y111427619D01*
X43716190Y112141904D01*
X43525714Y111427619D01*
X43287619Y112427619D01*
X42478095Y112094285D02*
X42478095Y111427619D01*
X42716190Y112475238D02*
X42954285Y111760952D01*
X42335238Y111760952D01*
X42001904Y112332380D02*
X41954285Y112380000D01*
X41859047Y112427619D01*
X41620952Y112427619D01*
X41525714Y112380000D01*
X41478095Y112332380D01*
X41430476Y112237142D01*
X41430476Y112141904D01*
X41478095Y111999047D01*
X42049523Y111427619D01*
X41430476Y111427619D01*
G04 #@! TO.C,SW43*
X49269523Y92455238D02*
X49126666Y92407619D01*
X48888571Y92407619D01*
X48793333Y92455238D01*
X48745714Y92502857D01*
X48698095Y92598095D01*
X48698095Y92693333D01*
X48745714Y92788571D01*
X48793333Y92836190D01*
X48888571Y92883809D01*
X49079047Y92931428D01*
X49174285Y92979047D01*
X49221904Y93026666D01*
X49269523Y93121904D01*
X49269523Y93217142D01*
X49221904Y93312380D01*
X49174285Y93360000D01*
X49079047Y93407619D01*
X48840952Y93407619D01*
X48698095Y93360000D01*
X48364761Y93407619D02*
X48126666Y92407619D01*
X47936190Y93121904D01*
X47745714Y92407619D01*
X47507619Y93407619D01*
X46698095Y93074285D02*
X46698095Y92407619D01*
X46936190Y93455238D02*
X47174285Y92740952D01*
X46555238Y92740952D01*
X46269523Y93407619D02*
X45650476Y93407619D01*
X45983809Y93026666D01*
X45840952Y93026666D01*
X45745714Y92979047D01*
X45698095Y92931428D01*
X45650476Y92836190D01*
X45650476Y92598095D01*
X45698095Y92502857D01*
X45745714Y92455238D01*
X45840952Y92407619D01*
X46126666Y92407619D01*
X46221904Y92455238D01*
X46269523Y92502857D01*
G04 #@! TO.C,SW45*
X53219523Y54465238D02*
X53076666Y54417619D01*
X52838571Y54417619D01*
X52743333Y54465238D01*
X52695714Y54512857D01*
X52648095Y54608095D01*
X52648095Y54703333D01*
X52695714Y54798571D01*
X52743333Y54846190D01*
X52838571Y54893809D01*
X53029047Y54941428D01*
X53124285Y54989047D01*
X53171904Y55036666D01*
X53219523Y55131904D01*
X53219523Y55227142D01*
X53171904Y55322380D01*
X53124285Y55370000D01*
X53029047Y55417619D01*
X52790952Y55417619D01*
X52648095Y55370000D01*
X52314761Y55417619D02*
X52076666Y54417619D01*
X51886190Y55131904D01*
X51695714Y54417619D01*
X51457619Y55417619D01*
X50648095Y55084285D02*
X50648095Y54417619D01*
X50886190Y55465238D02*
X51124285Y54750952D01*
X50505238Y54750952D01*
X49648095Y55417619D02*
X50124285Y55417619D01*
X50171904Y54941428D01*
X50124285Y54989047D01*
X50029047Y55036666D01*
X49790952Y55036666D01*
X49695714Y54989047D01*
X49648095Y54941428D01*
X49600476Y54846190D01*
X49600476Y54608095D01*
X49648095Y54512857D01*
X49695714Y54465238D01*
X49790952Y54417619D01*
X50029047Y54417619D01*
X50124285Y54465238D01*
X50171904Y54512857D01*
G04 #@! TO.C,SW46*
X50839523Y35485238D02*
X50696666Y35437619D01*
X50458571Y35437619D01*
X50363333Y35485238D01*
X50315714Y35532857D01*
X50268095Y35628095D01*
X50268095Y35723333D01*
X50315714Y35818571D01*
X50363333Y35866190D01*
X50458571Y35913809D01*
X50649047Y35961428D01*
X50744285Y36009047D01*
X50791904Y36056666D01*
X50839523Y36151904D01*
X50839523Y36247142D01*
X50791904Y36342380D01*
X50744285Y36390000D01*
X50649047Y36437619D01*
X50410952Y36437619D01*
X50268095Y36390000D01*
X49934761Y36437619D02*
X49696666Y35437619D01*
X49506190Y36151904D01*
X49315714Y35437619D01*
X49077619Y36437619D01*
X48268095Y36104285D02*
X48268095Y35437619D01*
X48506190Y36485238D02*
X48744285Y35770952D01*
X48125238Y35770952D01*
X47315714Y36437619D02*
X47506190Y36437619D01*
X47601428Y36390000D01*
X47649047Y36342380D01*
X47744285Y36199523D01*
X47791904Y36009047D01*
X47791904Y35628095D01*
X47744285Y35532857D01*
X47696666Y35485238D01*
X47601428Y35437619D01*
X47410952Y35437619D01*
X47315714Y35485238D01*
X47268095Y35532857D01*
X47220476Y35628095D01*
X47220476Y35866190D01*
X47268095Y35961428D01*
X47315714Y36009047D01*
X47410952Y36056666D01*
X47601428Y36056666D01*
X47696666Y36009047D01*
X47744285Y35961428D01*
X47791904Y35866190D01*
G04 #@! TO.C,SW47*
X262449523Y35495238D02*
X262306666Y35447619D01*
X262068571Y35447619D01*
X261973333Y35495238D01*
X261925714Y35542857D01*
X261878095Y35638095D01*
X261878095Y35733333D01*
X261925714Y35828571D01*
X261973333Y35876190D01*
X262068571Y35923809D01*
X262259047Y35971428D01*
X262354285Y36019047D01*
X262401904Y36066666D01*
X262449523Y36161904D01*
X262449523Y36257142D01*
X262401904Y36352380D01*
X262354285Y36400000D01*
X262259047Y36447619D01*
X262020952Y36447619D01*
X261878095Y36400000D01*
X261544761Y36447619D02*
X261306666Y35447619D01*
X261116190Y36161904D01*
X260925714Y35447619D01*
X260687619Y36447619D01*
X259878095Y36114285D02*
X259878095Y35447619D01*
X260116190Y36495238D02*
X260354285Y35780952D01*
X259735238Y35780952D01*
X259449523Y36447619D02*
X258782857Y36447619D01*
X259211428Y35447619D01*
G04 #@! TO.C,SW48*
X262449523Y54515238D02*
X262306666Y54467619D01*
X262068571Y54467619D01*
X261973333Y54515238D01*
X261925714Y54562857D01*
X261878095Y54658095D01*
X261878095Y54753333D01*
X261925714Y54848571D01*
X261973333Y54896190D01*
X262068571Y54943809D01*
X262259047Y54991428D01*
X262354285Y55039047D01*
X262401904Y55086666D01*
X262449523Y55181904D01*
X262449523Y55277142D01*
X262401904Y55372380D01*
X262354285Y55420000D01*
X262259047Y55467619D01*
X262020952Y55467619D01*
X261878095Y55420000D01*
X261544761Y55467619D02*
X261306666Y54467619D01*
X261116190Y55181904D01*
X260925714Y54467619D01*
X260687619Y55467619D01*
X259878095Y55134285D02*
X259878095Y54467619D01*
X260116190Y55515238D02*
X260354285Y54800952D01*
X259735238Y54800952D01*
X259211428Y55039047D02*
X259306666Y55086666D01*
X259354285Y55134285D01*
X259401904Y55229523D01*
X259401904Y55277142D01*
X259354285Y55372380D01*
X259306666Y55420000D01*
X259211428Y55467619D01*
X259020952Y55467619D01*
X258925714Y55420000D01*
X258878095Y55372380D01*
X258830476Y55277142D01*
X258830476Y55229523D01*
X258878095Y55134285D01*
X258925714Y55086666D01*
X259020952Y55039047D01*
X259211428Y55039047D01*
X259306666Y54991428D01*
X259354285Y54943809D01*
X259401904Y54848571D01*
X259401904Y54658095D01*
X259354285Y54562857D01*
X259306666Y54515238D01*
X259211428Y54467619D01*
X259020952Y54467619D01*
X258925714Y54515238D01*
X258878095Y54562857D01*
X258830476Y54658095D01*
X258830476Y54848571D01*
X258878095Y54943809D01*
X258925714Y54991428D01*
X259020952Y55039047D01*
G04 #@! TO.C,SW49*
X266749523Y73525238D02*
X266606666Y73477619D01*
X266368571Y73477619D01*
X266273333Y73525238D01*
X266225714Y73572857D01*
X266178095Y73668095D01*
X266178095Y73763333D01*
X266225714Y73858571D01*
X266273333Y73906190D01*
X266368571Y73953809D01*
X266559047Y74001428D01*
X266654285Y74049047D01*
X266701904Y74096666D01*
X266749523Y74191904D01*
X266749523Y74287142D01*
X266701904Y74382380D01*
X266654285Y74430000D01*
X266559047Y74477619D01*
X266320952Y74477619D01*
X266178095Y74430000D01*
X265844761Y74477619D02*
X265606666Y73477619D01*
X265416190Y74191904D01*
X265225714Y73477619D01*
X264987619Y74477619D01*
X264178095Y74144285D02*
X264178095Y73477619D01*
X264416190Y74525238D02*
X264654285Y73810952D01*
X264035238Y73810952D01*
X263606666Y73477619D02*
X263416190Y73477619D01*
X263320952Y73525238D01*
X263273333Y73572857D01*
X263178095Y73715714D01*
X263130476Y73906190D01*
X263130476Y74287142D01*
X263178095Y74382380D01*
X263225714Y74430000D01*
X263320952Y74477619D01*
X263511428Y74477619D01*
X263606666Y74430000D01*
X263654285Y74382380D01*
X263701904Y74287142D01*
X263701904Y74049047D01*
X263654285Y73953809D01*
X263606666Y73906190D01*
X263511428Y73858571D01*
X263320952Y73858571D01*
X263225714Y73906190D01*
X263178095Y73953809D01*
X263130476Y74049047D01*
G04 #@! TO.C,SW50*
X259279523Y92515238D02*
X259136666Y92467619D01*
X258898571Y92467619D01*
X258803333Y92515238D01*
X258755714Y92562857D01*
X258708095Y92658095D01*
X258708095Y92753333D01*
X258755714Y92848571D01*
X258803333Y92896190D01*
X258898571Y92943809D01*
X259089047Y92991428D01*
X259184285Y93039047D01*
X259231904Y93086666D01*
X259279523Y93181904D01*
X259279523Y93277142D01*
X259231904Y93372380D01*
X259184285Y93420000D01*
X259089047Y93467619D01*
X258850952Y93467619D01*
X258708095Y93420000D01*
X258374761Y93467619D02*
X258136666Y92467619D01*
X257946190Y93181904D01*
X257755714Y92467619D01*
X257517619Y93467619D01*
X256660476Y93467619D02*
X257136666Y93467619D01*
X257184285Y92991428D01*
X257136666Y93039047D01*
X257041428Y93086666D01*
X256803333Y93086666D01*
X256708095Y93039047D01*
X256660476Y92991428D01*
X256612857Y92896190D01*
X256612857Y92658095D01*
X256660476Y92562857D01*
X256708095Y92515238D01*
X256803333Y92467619D01*
X257041428Y92467619D01*
X257136666Y92515238D01*
X257184285Y92562857D01*
X255993809Y93467619D02*
X255898571Y93467619D01*
X255803333Y93420000D01*
X255755714Y93372380D01*
X255708095Y93277142D01*
X255660476Y93086666D01*
X255660476Y92848571D01*
X255708095Y92658095D01*
X255755714Y92562857D01*
X255803333Y92515238D01*
X255898571Y92467619D01*
X255993809Y92467619D01*
X256089047Y92515238D01*
X256136666Y92562857D01*
X256184285Y92658095D01*
X256231904Y92848571D01*
X256231904Y93086666D01*
X256184285Y93277142D01*
X256136666Y93372380D01*
X256089047Y93420000D01*
X255993809Y93467619D01*
G04 #@! TO.C,SW51*
X261429523Y111475238D02*
X261286666Y111427619D01*
X261048571Y111427619D01*
X260953333Y111475238D01*
X260905714Y111522857D01*
X260858095Y111618095D01*
X260858095Y111713333D01*
X260905714Y111808571D01*
X260953333Y111856190D01*
X261048571Y111903809D01*
X261239047Y111951428D01*
X261334285Y111999047D01*
X261381904Y112046666D01*
X261429523Y112141904D01*
X261429523Y112237142D01*
X261381904Y112332380D01*
X261334285Y112380000D01*
X261239047Y112427619D01*
X261000952Y112427619D01*
X260858095Y112380000D01*
X260524761Y112427619D02*
X260286666Y111427619D01*
X260096190Y112141904D01*
X259905714Y111427619D01*
X259667619Y112427619D01*
X258810476Y112427619D02*
X259286666Y112427619D01*
X259334285Y111951428D01*
X259286666Y111999047D01*
X259191428Y112046666D01*
X258953333Y112046666D01*
X258858095Y111999047D01*
X258810476Y111951428D01*
X258762857Y111856190D01*
X258762857Y111618095D01*
X258810476Y111522857D01*
X258858095Y111475238D01*
X258953333Y111427619D01*
X259191428Y111427619D01*
X259286666Y111475238D01*
X259334285Y111522857D01*
X257810476Y111427619D02*
X258381904Y111427619D01*
X258096190Y111427619D02*
X258096190Y112427619D01*
X258191428Y112284761D01*
X258286666Y112189523D01*
X258381904Y112141904D01*
G04 #@! TO.C,SW52*
X26049523Y111475238D02*
X25906666Y111427619D01*
X25668571Y111427619D01*
X25573333Y111475238D01*
X25525714Y111522857D01*
X25478095Y111618095D01*
X25478095Y111713333D01*
X25525714Y111808571D01*
X25573333Y111856190D01*
X25668571Y111903809D01*
X25859047Y111951428D01*
X25954285Y111999047D01*
X26001904Y112046666D01*
X26049523Y112141904D01*
X26049523Y112237142D01*
X26001904Y112332380D01*
X25954285Y112380000D01*
X25859047Y112427619D01*
X25620952Y112427619D01*
X25478095Y112380000D01*
X25144761Y112427619D02*
X24906666Y111427619D01*
X24716190Y112141904D01*
X24525714Y111427619D01*
X24287619Y112427619D01*
X23430476Y112427619D02*
X23906666Y112427619D01*
X23954285Y111951428D01*
X23906666Y111999047D01*
X23811428Y112046666D01*
X23573333Y112046666D01*
X23478095Y111999047D01*
X23430476Y111951428D01*
X23382857Y111856190D01*
X23382857Y111618095D01*
X23430476Y111522857D01*
X23478095Y111475238D01*
X23573333Y111427619D01*
X23811428Y111427619D01*
X23906666Y111475238D01*
X23954285Y111522857D01*
X23001904Y112332380D02*
X22954285Y112380000D01*
X22859047Y112427619D01*
X22620952Y112427619D01*
X22525714Y112380000D01*
X22478095Y112332380D01*
X22430476Y112237142D01*
X22430476Y112141904D01*
X22478095Y111999047D01*
X23049523Y111427619D01*
X22430476Y111427619D01*
G04 #@! TO.C,SW53*
X25529523Y92455238D02*
X25386666Y92407619D01*
X25148571Y92407619D01*
X25053333Y92455238D01*
X25005714Y92502857D01*
X24958095Y92598095D01*
X24958095Y92693333D01*
X25005714Y92788571D01*
X25053333Y92836190D01*
X25148571Y92883809D01*
X25339047Y92931428D01*
X25434285Y92979047D01*
X25481904Y93026666D01*
X25529523Y93121904D01*
X25529523Y93217142D01*
X25481904Y93312380D01*
X25434285Y93360000D01*
X25339047Y93407619D01*
X25100952Y93407619D01*
X24958095Y93360000D01*
X24624761Y93407619D02*
X24386666Y92407619D01*
X24196190Y93121904D01*
X24005714Y92407619D01*
X23767619Y93407619D01*
X22910476Y93407619D02*
X23386666Y93407619D01*
X23434285Y92931428D01*
X23386666Y92979047D01*
X23291428Y93026666D01*
X23053333Y93026666D01*
X22958095Y92979047D01*
X22910476Y92931428D01*
X22862857Y92836190D01*
X22862857Y92598095D01*
X22910476Y92502857D01*
X22958095Y92455238D01*
X23053333Y92407619D01*
X23291428Y92407619D01*
X23386666Y92455238D01*
X23434285Y92502857D01*
X22529523Y93407619D02*
X21910476Y93407619D01*
X22243809Y93026666D01*
X22100952Y93026666D01*
X22005714Y92979047D01*
X21958095Y92931428D01*
X21910476Y92836190D01*
X21910476Y92598095D01*
X21958095Y92502857D01*
X22005714Y92455238D01*
X22100952Y92407619D01*
X22386666Y92407619D01*
X22481904Y92455238D01*
X22529523Y92502857D01*
G04 #@! TO.C,SW54*
X22819523Y73455238D02*
X22676666Y73407619D01*
X22438571Y73407619D01*
X22343333Y73455238D01*
X22295714Y73502857D01*
X22248095Y73598095D01*
X22248095Y73693333D01*
X22295714Y73788571D01*
X22343333Y73836190D01*
X22438571Y73883809D01*
X22629047Y73931428D01*
X22724285Y73979047D01*
X22771904Y74026666D01*
X22819523Y74121904D01*
X22819523Y74217142D01*
X22771904Y74312380D01*
X22724285Y74360000D01*
X22629047Y74407619D01*
X22390952Y74407619D01*
X22248095Y74360000D01*
X21914761Y74407619D02*
X21676666Y73407619D01*
X21486190Y74121904D01*
X21295714Y73407619D01*
X21057619Y74407619D01*
X20200476Y74407619D02*
X20676666Y74407619D01*
X20724285Y73931428D01*
X20676666Y73979047D01*
X20581428Y74026666D01*
X20343333Y74026666D01*
X20248095Y73979047D01*
X20200476Y73931428D01*
X20152857Y73836190D01*
X20152857Y73598095D01*
X20200476Y73502857D01*
X20248095Y73455238D01*
X20343333Y73407619D01*
X20581428Y73407619D01*
X20676666Y73455238D01*
X20724285Y73502857D01*
X19295714Y74074285D02*
X19295714Y73407619D01*
X19533809Y74455238D02*
X19771904Y73740952D01*
X19152857Y73740952D01*
G04 #@! TO.C,SW55*
X22319523Y54485238D02*
X22176666Y54437619D01*
X21938571Y54437619D01*
X21843333Y54485238D01*
X21795714Y54532857D01*
X21748095Y54628095D01*
X21748095Y54723333D01*
X21795714Y54818571D01*
X21843333Y54866190D01*
X21938571Y54913809D01*
X22129047Y54961428D01*
X22224285Y55009047D01*
X22271904Y55056666D01*
X22319523Y55151904D01*
X22319523Y55247142D01*
X22271904Y55342380D01*
X22224285Y55390000D01*
X22129047Y55437619D01*
X21890952Y55437619D01*
X21748095Y55390000D01*
X21414761Y55437619D02*
X21176666Y54437619D01*
X20986190Y55151904D01*
X20795714Y54437619D01*
X20557619Y55437619D01*
X19700476Y55437619D02*
X20176666Y55437619D01*
X20224285Y54961428D01*
X20176666Y55009047D01*
X20081428Y55056666D01*
X19843333Y55056666D01*
X19748095Y55009047D01*
X19700476Y54961428D01*
X19652857Y54866190D01*
X19652857Y54628095D01*
X19700476Y54532857D01*
X19748095Y54485238D01*
X19843333Y54437619D01*
X20081428Y54437619D01*
X20176666Y54485238D01*
X20224285Y54532857D01*
X18748095Y55437619D02*
X19224285Y55437619D01*
X19271904Y54961428D01*
X19224285Y55009047D01*
X19129047Y55056666D01*
X18890952Y55056666D01*
X18795714Y55009047D01*
X18748095Y54961428D01*
X18700476Y54866190D01*
X18700476Y54628095D01*
X18748095Y54532857D01*
X18795714Y54485238D01*
X18890952Y54437619D01*
X19129047Y54437619D01*
X19224285Y54485238D01*
X19271904Y54532857D01*
G04 #@! TO.C,SW56*
X27049523Y35505238D02*
X26906666Y35457619D01*
X26668571Y35457619D01*
X26573333Y35505238D01*
X26525714Y35552857D01*
X26478095Y35648095D01*
X26478095Y35743333D01*
X26525714Y35838571D01*
X26573333Y35886190D01*
X26668571Y35933809D01*
X26859047Y35981428D01*
X26954285Y36029047D01*
X27001904Y36076666D01*
X27049523Y36171904D01*
X27049523Y36267142D01*
X27001904Y36362380D01*
X26954285Y36410000D01*
X26859047Y36457619D01*
X26620952Y36457619D01*
X26478095Y36410000D01*
X26144761Y36457619D02*
X25906666Y35457619D01*
X25716190Y36171904D01*
X25525714Y35457619D01*
X25287619Y36457619D01*
X24430476Y36457619D02*
X24906666Y36457619D01*
X24954285Y35981428D01*
X24906666Y36029047D01*
X24811428Y36076666D01*
X24573333Y36076666D01*
X24478095Y36029047D01*
X24430476Y35981428D01*
X24382857Y35886190D01*
X24382857Y35648095D01*
X24430476Y35552857D01*
X24478095Y35505238D01*
X24573333Y35457619D01*
X24811428Y35457619D01*
X24906666Y35505238D01*
X24954285Y35552857D01*
X23525714Y36457619D02*
X23716190Y36457619D01*
X23811428Y36410000D01*
X23859047Y36362380D01*
X23954285Y36219523D01*
X24001904Y36029047D01*
X24001904Y35648095D01*
X23954285Y35552857D01*
X23906666Y35505238D01*
X23811428Y35457619D01*
X23620952Y35457619D01*
X23525714Y35505238D01*
X23478095Y35552857D01*
X23430476Y35648095D01*
X23430476Y35886190D01*
X23478095Y35981428D01*
X23525714Y36029047D01*
X23620952Y36076666D01*
X23811428Y36076666D01*
X23906666Y36029047D01*
X23954285Y35981428D01*
X24001904Y35886190D01*
G04 #@! TO.C,SW57*
X281389523Y35465238D02*
X281246666Y35417619D01*
X281008571Y35417619D01*
X280913333Y35465238D01*
X280865714Y35512857D01*
X280818095Y35608095D01*
X280818095Y35703333D01*
X280865714Y35798571D01*
X280913333Y35846190D01*
X281008571Y35893809D01*
X281199047Y35941428D01*
X281294285Y35989047D01*
X281341904Y36036666D01*
X281389523Y36131904D01*
X281389523Y36227142D01*
X281341904Y36322380D01*
X281294285Y36370000D01*
X281199047Y36417619D01*
X280960952Y36417619D01*
X280818095Y36370000D01*
X280484761Y36417619D02*
X280246666Y35417619D01*
X280056190Y36131904D01*
X279865714Y35417619D01*
X279627619Y36417619D01*
X278770476Y36417619D02*
X279246666Y36417619D01*
X279294285Y35941428D01*
X279246666Y35989047D01*
X279151428Y36036666D01*
X278913333Y36036666D01*
X278818095Y35989047D01*
X278770476Y35941428D01*
X278722857Y35846190D01*
X278722857Y35608095D01*
X278770476Y35512857D01*
X278818095Y35465238D01*
X278913333Y35417619D01*
X279151428Y35417619D01*
X279246666Y35465238D01*
X279294285Y35512857D01*
X278389523Y36417619D02*
X277722857Y36417619D01*
X278151428Y35417619D01*
G04 #@! TO.C,SW58*
X281479523Y54465238D02*
X281336666Y54417619D01*
X281098571Y54417619D01*
X281003333Y54465238D01*
X280955714Y54512857D01*
X280908095Y54608095D01*
X280908095Y54703333D01*
X280955714Y54798571D01*
X281003333Y54846190D01*
X281098571Y54893809D01*
X281289047Y54941428D01*
X281384285Y54989047D01*
X281431904Y55036666D01*
X281479523Y55131904D01*
X281479523Y55227142D01*
X281431904Y55322380D01*
X281384285Y55370000D01*
X281289047Y55417619D01*
X281050952Y55417619D01*
X280908095Y55370000D01*
X280574761Y55417619D02*
X280336666Y54417619D01*
X280146190Y55131904D01*
X279955714Y54417619D01*
X279717619Y55417619D01*
X278860476Y55417619D02*
X279336666Y55417619D01*
X279384285Y54941428D01*
X279336666Y54989047D01*
X279241428Y55036666D01*
X279003333Y55036666D01*
X278908095Y54989047D01*
X278860476Y54941428D01*
X278812857Y54846190D01*
X278812857Y54608095D01*
X278860476Y54512857D01*
X278908095Y54465238D01*
X279003333Y54417619D01*
X279241428Y54417619D01*
X279336666Y54465238D01*
X279384285Y54512857D01*
X278241428Y54989047D02*
X278336666Y55036666D01*
X278384285Y55084285D01*
X278431904Y55179523D01*
X278431904Y55227142D01*
X278384285Y55322380D01*
X278336666Y55370000D01*
X278241428Y55417619D01*
X278050952Y55417619D01*
X277955714Y55370000D01*
X277908095Y55322380D01*
X277860476Y55227142D01*
X277860476Y55179523D01*
X277908095Y55084285D01*
X277955714Y55036666D01*
X278050952Y54989047D01*
X278241428Y54989047D01*
X278336666Y54941428D01*
X278384285Y54893809D01*
X278431904Y54798571D01*
X278431904Y54608095D01*
X278384285Y54512857D01*
X278336666Y54465238D01*
X278241428Y54417619D01*
X278050952Y54417619D01*
X277955714Y54465238D01*
X277908095Y54512857D01*
X277860476Y54608095D01*
X277860476Y54798571D01*
X277908095Y54893809D01*
X277955714Y54941428D01*
X278050952Y54989047D01*
G04 #@! TO.C,SW59*
X278259523Y92455238D02*
X278116666Y92407619D01*
X277878571Y92407619D01*
X277783333Y92455238D01*
X277735714Y92502857D01*
X277688095Y92598095D01*
X277688095Y92693333D01*
X277735714Y92788571D01*
X277783333Y92836190D01*
X277878571Y92883809D01*
X278069047Y92931428D01*
X278164285Y92979047D01*
X278211904Y93026666D01*
X278259523Y93121904D01*
X278259523Y93217142D01*
X278211904Y93312380D01*
X278164285Y93360000D01*
X278069047Y93407619D01*
X277830952Y93407619D01*
X277688095Y93360000D01*
X277354761Y93407619D02*
X277116666Y92407619D01*
X276926190Y93121904D01*
X276735714Y92407619D01*
X276497619Y93407619D01*
X275640476Y93407619D02*
X276116666Y93407619D01*
X276164285Y92931428D01*
X276116666Y92979047D01*
X276021428Y93026666D01*
X275783333Y93026666D01*
X275688095Y92979047D01*
X275640476Y92931428D01*
X275592857Y92836190D01*
X275592857Y92598095D01*
X275640476Y92502857D01*
X275688095Y92455238D01*
X275783333Y92407619D01*
X276021428Y92407619D01*
X276116666Y92455238D01*
X276164285Y92502857D01*
X275116666Y92407619D02*
X274926190Y92407619D01*
X274830952Y92455238D01*
X274783333Y92502857D01*
X274688095Y92645714D01*
X274640476Y92836190D01*
X274640476Y93217142D01*
X274688095Y93312380D01*
X274735714Y93360000D01*
X274830952Y93407619D01*
X275021428Y93407619D01*
X275116666Y93360000D01*
X275164285Y93312380D01*
X275211904Y93217142D01*
X275211904Y92979047D01*
X275164285Y92883809D01*
X275116666Y92836190D01*
X275021428Y92788571D01*
X274830952Y92788571D01*
X274735714Y92836190D01*
X274688095Y92883809D01*
X274640476Y92979047D01*
G04 #@! TO.C,SW60*
X2069523Y113205238D02*
X1926666Y113157619D01*
X1688571Y113157619D01*
X1593333Y113205238D01*
X1545714Y113252857D01*
X1498095Y113348095D01*
X1498095Y113443333D01*
X1545714Y113538571D01*
X1593333Y113586190D01*
X1688571Y113633809D01*
X1879047Y113681428D01*
X1974285Y113729047D01*
X2021904Y113776666D01*
X2069523Y113871904D01*
X2069523Y113967142D01*
X2021904Y114062380D01*
X1974285Y114110000D01*
X1879047Y114157619D01*
X1640952Y114157619D01*
X1498095Y114110000D01*
X1164761Y114157619D02*
X926666Y113157619D01*
X736190Y113871904D01*
X545714Y113157619D01*
X307619Y114157619D01*
X-501904Y114157619D02*
X-311428Y114157619D01*
X-216190Y114110000D01*
X-168571Y114062380D01*
X-73333Y113919523D01*
X-25714Y113729047D01*
X-25714Y113348095D01*
X-73333Y113252857D01*
X-120952Y113205238D01*
X-216190Y113157619D01*
X-406666Y113157619D01*
X-501904Y113205238D01*
X-549523Y113252857D01*
X-597142Y113348095D01*
X-597142Y113586190D01*
X-549523Y113681428D01*
X-501904Y113729047D01*
X-406666Y113776666D01*
X-216190Y113776666D01*
X-120952Y113729047D01*
X-73333Y113681428D01*
X-25714Y113586190D01*
X-1216190Y114157619D02*
X-1311428Y114157619D01*
X-1406666Y114110000D01*
X-1454285Y114062380D01*
X-1501904Y113967142D01*
X-1549523Y113776666D01*
X-1549523Y113538571D01*
X-1501904Y113348095D01*
X-1454285Y113252857D01*
X-1406666Y113205238D01*
X-1311428Y113157619D01*
X-1216190Y113157619D01*
X-1120952Y113205238D01*
X-1073333Y113252857D01*
X-1025714Y113348095D01*
X-978095Y113538571D01*
X-978095Y113776666D01*
X-1025714Y113967142D01*
X-1073333Y114062380D01*
X-1120952Y114110000D01*
X-1216190Y114157619D01*
G04 #@! TO.C,SW64*
X307639523Y54455238D02*
X307496666Y54407619D01*
X307258571Y54407619D01*
X307163333Y54455238D01*
X307115714Y54502857D01*
X307068095Y54598095D01*
X307068095Y54693333D01*
X307115714Y54788571D01*
X307163333Y54836190D01*
X307258571Y54883809D01*
X307449047Y54931428D01*
X307544285Y54979047D01*
X307591904Y55026666D01*
X307639523Y55121904D01*
X307639523Y55217142D01*
X307591904Y55312380D01*
X307544285Y55360000D01*
X307449047Y55407619D01*
X307210952Y55407619D01*
X307068095Y55360000D01*
X306734761Y55407619D02*
X306496666Y54407619D01*
X306306190Y55121904D01*
X306115714Y54407619D01*
X305877619Y55407619D01*
X305068095Y55407619D02*
X305258571Y55407619D01*
X305353809Y55360000D01*
X305401428Y55312380D01*
X305496666Y55169523D01*
X305544285Y54979047D01*
X305544285Y54598095D01*
X305496666Y54502857D01*
X305449047Y54455238D01*
X305353809Y54407619D01*
X305163333Y54407619D01*
X305068095Y54455238D01*
X305020476Y54502857D01*
X304972857Y54598095D01*
X304972857Y54836190D01*
X305020476Y54931428D01*
X305068095Y54979047D01*
X305163333Y55026666D01*
X305353809Y55026666D01*
X305449047Y54979047D01*
X305496666Y54931428D01*
X305544285Y54836190D01*
X304115714Y55074285D02*
X304115714Y54407619D01*
X304353809Y55455238D02*
X304591904Y54740952D01*
X303972857Y54740952D01*
G04 #@! TO.C,SW66*
X302049523Y92455238D02*
X301906666Y92407619D01*
X301668571Y92407619D01*
X301573333Y92455238D01*
X301525714Y92502857D01*
X301478095Y92598095D01*
X301478095Y92693333D01*
X301525714Y92788571D01*
X301573333Y92836190D01*
X301668571Y92883809D01*
X301859047Y92931428D01*
X301954285Y92979047D01*
X302001904Y93026666D01*
X302049523Y93121904D01*
X302049523Y93217142D01*
X302001904Y93312380D01*
X301954285Y93360000D01*
X301859047Y93407619D01*
X301620952Y93407619D01*
X301478095Y93360000D01*
X301144761Y93407619D02*
X300906666Y92407619D01*
X300716190Y93121904D01*
X300525714Y92407619D01*
X300287619Y93407619D01*
X299478095Y93407619D02*
X299668571Y93407619D01*
X299763809Y93360000D01*
X299811428Y93312380D01*
X299906666Y93169523D01*
X299954285Y92979047D01*
X299954285Y92598095D01*
X299906666Y92502857D01*
X299859047Y92455238D01*
X299763809Y92407619D01*
X299573333Y92407619D01*
X299478095Y92455238D01*
X299430476Y92502857D01*
X299382857Y92598095D01*
X299382857Y92836190D01*
X299430476Y92931428D01*
X299478095Y92979047D01*
X299573333Y93026666D01*
X299763809Y93026666D01*
X299859047Y92979047D01*
X299906666Y92931428D01*
X299954285Y92836190D01*
X298525714Y93407619D02*
X298716190Y93407619D01*
X298811428Y93360000D01*
X298859047Y93312380D01*
X298954285Y93169523D01*
X299001904Y92979047D01*
X299001904Y92598095D01*
X298954285Y92502857D01*
X298906666Y92455238D01*
X298811428Y92407619D01*
X298620952Y92407619D01*
X298525714Y92455238D01*
X298478095Y92502857D01*
X298430476Y92598095D01*
X298430476Y92836190D01*
X298478095Y92931428D01*
X298525714Y92979047D01*
X298620952Y93026666D01*
X298811428Y93026666D01*
X298906666Y92979047D01*
X298954285Y92931428D01*
X299001904Y92836190D01*
G04 #@! TO.C,SW67*
X289979523Y111475238D02*
X289836666Y111427619D01*
X289598571Y111427619D01*
X289503333Y111475238D01*
X289455714Y111522857D01*
X289408095Y111618095D01*
X289408095Y111713333D01*
X289455714Y111808571D01*
X289503333Y111856190D01*
X289598571Y111903809D01*
X289789047Y111951428D01*
X289884285Y111999047D01*
X289931904Y112046666D01*
X289979523Y112141904D01*
X289979523Y112237142D01*
X289931904Y112332380D01*
X289884285Y112380000D01*
X289789047Y112427619D01*
X289550952Y112427619D01*
X289408095Y112380000D01*
X289074761Y112427619D02*
X288836666Y111427619D01*
X288646190Y112141904D01*
X288455714Y111427619D01*
X288217619Y112427619D01*
X287408095Y112427619D02*
X287598571Y112427619D01*
X287693809Y112380000D01*
X287741428Y112332380D01*
X287836666Y112189523D01*
X287884285Y111999047D01*
X287884285Y111618095D01*
X287836666Y111522857D01*
X287789047Y111475238D01*
X287693809Y111427619D01*
X287503333Y111427619D01*
X287408095Y111475238D01*
X287360476Y111522857D01*
X287312857Y111618095D01*
X287312857Y111856190D01*
X287360476Y111951428D01*
X287408095Y111999047D01*
X287503333Y112046666D01*
X287693809Y112046666D01*
X287789047Y111999047D01*
X287836666Y111951428D01*
X287884285Y111856190D01*
X286979523Y112427619D02*
X286312857Y112427619D01*
X286741428Y111427619D01*
G04 #@! TD*
M02*
