M48
;DRILL file {KiCad (5.0.0-3-g5ebb6b6)} date 2019 September 26, Thursday 15:54:56
;FORMAT={-:-/ absolute / metric / decimal}
FMAT,2
METRIC,TZ
T1C1.900
T2C3.048
T3C4.100
T4C4.445
%
G90
G05
M71
T1
X39.23Y63.07
X49.39Y63.07
X286.47Y44.08
X296.63Y44.08
X248.46Y63.12
X258.62Y63.12
X148.173Y82.195
X157.987Y84.825
X247.44Y120.08
X257.6Y120.08
X93.323Y92.135
X103.137Y89.505
X8.83Y82.06
X18.99Y82.06
X171.823Y49.155
X181.637Y51.785
X111.653Y87.245
X121.467Y84.615
X170.783Y107.925
X180.597Y110.555
X74.583Y77.535
X84.397Y74.905
X103.793Y30.365
X113.607Y27.735
X201.923Y37.525
X211.737Y40.155
X184.913Y92.035
X194.727Y94.665
X267.49Y63.07
X277.65Y63.07
X56.573Y101.995
X66.387Y99.365
X125.753Y103.145
X135.567Y100.515
X293.65Y63.06
X303.81Y63.06
X208.523Y59.005
X218.337Y61.635
X165.243Y27.765
X175.057Y30.395
X207.503Y117.765
X217.317Y120.395
X233.73Y82.11
X243.89Y82.11
X31.06Y120.08
X41.22Y120.08
X36.85Y44.09
X47.01Y44.09
X153.443Y44.185
X163.257Y46.815
X252.76Y82.13
X262.92Y82.13
X152.413Y103.005
X162.227Y105.635
X12.06Y120.08
X22.22Y120.08
X92.923Y72.585
X102.737Y69.955
X8.33Y63.09
X18.49Y63.09
X176.073Y69.955
X185.887Y72.585
X89.043Y112.985
X98.857Y110.355
X111.293Y67.685
X121.107Y65.055
X78.853Y56.705
X88.667Y54.075
X190.143Y54.055
X199.957Y56.685
X13.06Y44.11
X23.22Y44.11
X189.153Y112.845
X198.967Y115.475
X264.27Y101.06
X274.43Y101.06
X56.323Y82.495
X66.137Y79.865
X288.06Y101.06
X298.22Y101.06
X212.763Y79.775
X222.577Y82.405
X50.01Y121.85
X60.17Y121.85
X226.28Y102.24
X236.44Y102.24
X35.28Y101.06
X45.44Y101.06
X248.46Y44.1
X258.62Y44.1
X157.703Y65.015
X167.517Y67.645
X245.29Y101.12
X255.45Y101.12
X107.403Y108.065
X117.217Y105.435
X11.54Y101.06
X21.7Y101.06
X97.243Y51.785
X107.057Y49.155
X166.513Y87.115
X176.327Y89.745
X75.003Y97.085
X84.817Y94.455
X115.563Y46.905
X125.377Y44.275
X283.71Y82.09
X293.87Y82.09
X67.043Y40.165
X76.857Y37.535
X194.383Y74.865
X204.197Y77.495
X267.4Y44.07
X277.56Y44.07
X70.693Y117.905
X80.507Y115.275
X-11.92Y121.81
X-1.76Y121.81
X60.633Y61.625
X70.447Y58.995
X275.99Y120.08
X286.15Y120.08
X203.243Y96.905
X213.057Y99.535
X229.5Y63.09
X239.66Y63.09
X228.46Y121.29
X238.62Y121.29
X34.97Y82.1
X45.13Y82.1
T2
X276.852Y89.075
X300.728Y89.075
X269.132Y127.065
X293.008Y127.065
X98.977Y38.887
X122.039Y32.707
X156.811Y32.737
X179.873Y38.917
X1.472Y70.075
X25.348Y70.075
T3
X83.76Y55.39
X195.05Y55.37
X18.14Y44.11
X194.06Y114.16
X269.35Y101.06
X61.23Y81.18
X293.14Y101.06
X217.67Y81.09
X55.09Y121.85
X231.36Y102.24
X40.36Y101.06
X253.54Y44.1
X162.61Y66.33
X250.37Y101.12
X112.31Y106.75
X16.62Y101.06
X102.15Y50.47
X171.42Y88.43
X79.91Y95.77
X120.47Y45.59
X288.79Y82.09
X71.95Y38.85
X199.29Y76.18
X272.48Y44.07
X75.6Y116.59
X-6.84Y121.81
X65.54Y60.31
X281.07Y120.08
X208.15Y98.22
X234.58Y63.09
X233.54Y121.29
X40.05Y82.1
X44.31Y63.07
X291.55Y44.08
X253.54Y63.12
X153.08Y83.51
X252.52Y120.08
X98.23Y90.82
X13.91Y82.06
X176.73Y50.47
X116.56Y85.93
X175.69Y109.24
X79.49Y76.22
X108.7Y29.05
X206.83Y38.84
X189.82Y93.35
X272.57Y63.07
X61.48Y100.68
X130.66Y101.83
X298.73Y63.06
X213.43Y60.32
X170.15Y29.08
X212.41Y119.08
X238.81Y82.11
X36.14Y120.08
X41.93Y44.09
X158.35Y45.5
X257.84Y82.13
X157.32Y104.32
X17.14Y120.08
X97.83Y71.27
X13.41Y63.09
X180.98Y71.27
X93.95Y111.67
X116.2Y66.37
T4
X95.032Y24.166
X118.095Y17.987
X160.755Y18.017
X183.818Y24.196
X1.472Y54.835
X25.348Y54.835
X276.852Y73.835
X300.728Y73.835
X269.132Y111.825
X293.008Y111.825
T0
M30
