M48
;DRILL file {KiCad (5.0.0-3-g5ebb6b6)} date 2019 September 26, Thursday 15:54:56
;FORMAT={-:-/ absolute / metric / decimal}
FMAT,2
METRIC,TZ
T1C0.400
T2C0.600
T3C0.850
T4C0.890
T5C1.000
T6C1.500
T7C1.780
%
G90
G05
M71
T1
X-32.56Y39.35
X-31.51Y72.4
X-30.98Y104.
X-25.82Y103.19
X-21.28Y115.67
X-21.26Y67.74
X-19.69Y112.15
X-19.3Y67.02
X-16.09Y79.75
X-16.03Y89.29
X-13.54Y93.86
X-11.15Y62.38
X-10.92Y87.36
X-8.47Y72.02
X-8.36Y109.54
X-7.7Y130.02
X-5.69Y108.59
X-4.57Y69.96
X-3.39Y72.02
X0.66Y112.37
X5.39Y112.98
X14.83Y110.34
X21.34Y74.7
X21.46Y57.79
X25.02Y94.13
X25.54Y57.99
X25.72Y73.9
X25.99Y110.69
X27.46Y34.55
X28.73Y92.22
X28.82Y111.07
X31.41Y35.41
X33.Y71.1
X43.85Y113.13
X46.37Y126.93
X47.9Y112.9
X48.19Y75.64
X49.28Y91.96
X50.61Y34.46
X51.05Y105.26
X51.81Y73.775
X52.09Y53.49
X52.1Y92.99
X55.06Y35.41
X55.89Y54.5
X59.01Y67.11
X64.46Y111.22
X66.06Y89.5
X66.2Y70.01
X66.6Y112.52
X69.64Y69.07
X69.65Y49.57
X70.42Y88.66
X70.43Y100.72
X75.32Y102.71
X75.4Y49.74
X76.2Y27.25
X80.87Y105.27
X82.17Y27.47
X84.38Y65.14
X84.6Y84.6
X84.61Y105.95
X87.95Y44.41
X88.13Y64.47
X88.38Y83.62
X89.29Y93.5
X92.49Y43.4
X95.74Y96.71
X99.34Y100.
X102.92Y59.74
X103.23Y101.15
X103.58Y79.02
X106.27Y78.55
X106.36Y59.11
X106.59Y39.32
X112.64Y40.66
X114.39Y20.9
X117.05Y95.57
X121.24Y55.13
X121.55Y96.03
X122.48Y73.84
X125.43Y35.07
X126.58Y68.32
X127.58Y78.13
X131.72Y36.3
X131.86Y39.6
X136.97Y89.85
X159.24Y93.04
X162.04Y79.7
X164.42Y100.04
X166.5Y77.28
X168.63Y37.64
X170.75Y98.3
X171.62Y39.4
X172.89Y58.15
X175.81Y60.96
X179.24Y93.11
X180.43Y27.11
X181.83Y81.38
X184.17Y29.03
X184.68Y82.21
X185.44Y102.1
X187.08Y43.56
X189.25Y44.33
X189.47Y103.67
X191.09Y64.92
X193.98Y66.49
X199.84Y86.13
X202.08Y109.34
X203.37Y87.08
X206.11Y48.6
X206.87Y81.65
X207.52Y108.37
X208.02Y49.41
X210.65Y69.39
X211.21Y73.41
X218.81Y91.47
X218.83Y32.79
X220.36Y34.31
X221.64Y92.27
X221.84Y111.72
X224.18Y53.42
X226.09Y53.57
X226.17Y112.69
X228.57Y74.73
X230.33Y75.17
X239.46Y91.88
X241.01Y115.3
X241.96Y53.5
X242.93Y91.71
X244.15Y113.51
X244.64Y53.35
X247.87Y72.34
X250.32Y74.23
X257.04Y94.51
X258.79Y106.03
X260.48Y113.51
X261.31Y33.3
X261.82Y91.5
X262.27Y53.24
X264.37Y53.09
X264.96Y112.47
X265.16Y34.17
X266.61Y72.09
X268.205Y72.03
X269.06Y122.51
X277.07Y94.09
X280.07Y34.02
X281.3Y52.8
X281.85Y92.12
X284.08Y33.8
X284.36Y53.13
X289.2Y114.86
X297.35Y76.18
X300.64Y93.99
X301.31Y36.97
X308.69Y55.63
T2
X-35.25Y118.42
X-28.61Y97.23
X-25.96Y119.05
X-17.91Y118.5
X-17.36Y97.54
T3
X-33.87Y91.69
X-33.87Y76.47
X-31.33Y91.69
X-31.33Y76.47
X-28.79Y91.69
X-28.79Y76.47
X-26.25Y91.69
X-26.25Y76.47
X-23.71Y91.69
X-23.71Y76.47
X-21.17Y91.69
X-21.17Y76.47
X-18.63Y91.69
X-18.63Y76.47
X-16.09Y91.69
X-16.09Y76.47
X-13.55Y91.69
X-13.55Y76.47
X-11.01Y91.69
X-11.01Y76.47
X-8.47Y91.69
X-8.47Y76.47
X-5.93Y91.69
X-5.93Y76.47
X-3.39Y91.69
X-3.39Y76.47
T4
X-24.65Y129.67
X-24.65Y123.32
X-22.11Y123.32
X-19.57Y129.67
X-19.57Y123.32
T5
X-22.24Y58.94
X-12.78Y48.05
T6
X9.6Y65.63
X10.91Y58.59
X15.91Y59.09
X15.95Y68.17
X176.642Y72.737
X179.73Y66.276
X182.119Y76.834
X184.43Y68.053
X90.37Y107.97
X90.927Y115.11
X95.33Y107.159
X97.718Y115.92
X112.62Y62.67
X113.177Y69.81
X117.58Y61.859
X119.968Y70.62
X80.18Y51.69
X80.737Y58.83
X85.14Y50.879
X87.528Y59.64
X190.712Y56.837
X193.8Y50.376
X196.189Y60.934
X198.5Y52.153
X14.33Y46.65
X15.64Y39.61
X20.64Y40.11
X20.68Y49.19
X189.722Y115.627
X192.81Y109.166
X195.199Y119.724
X197.51Y110.943
X265.54Y103.6
X266.85Y96.56
X271.85Y97.06
X271.89Y106.14
X57.65Y77.48
X58.207Y84.62
X62.61Y76.669
X64.998Y85.43
X289.33Y103.6
X290.64Y96.56
X295.64Y97.06
X295.68Y106.14
X213.332Y82.557
X216.42Y76.096
X218.809Y86.654
X221.12Y77.873
X51.28Y124.39
X52.59Y117.35
X57.59Y117.85
X57.63Y126.93
X227.55Y104.78
X228.86Y97.74
X233.86Y98.24
X233.9Y107.32
X36.55Y103.6
X37.86Y96.56
X42.86Y97.06
X42.9Y106.14
X249.73Y46.64
X251.04Y39.6
X256.04Y40.1
X256.08Y49.18
X158.272Y67.797
X161.36Y61.336
X163.749Y71.894
X166.06Y63.113
X246.56Y103.66
X247.87Y96.62
X252.87Y97.12
X252.91Y106.2
X108.73Y103.05
X109.287Y110.19
X113.69Y102.239
X116.078Y111.
X12.81Y103.6
X14.12Y96.56
X19.12Y97.06
X19.16Y106.14
X98.57Y46.77
X99.127Y53.91
X103.53Y45.959
X105.918Y54.72
X167.082Y89.897
X170.17Y83.436
X172.559Y93.994
X174.87Y85.213
X76.331Y92.07
X76.887Y99.21
X81.29Y91.259
X83.678Y100.02
X116.89Y41.89
X117.447Y49.03
X121.85Y41.079
X124.238Y49.84
X284.98Y84.63
X286.29Y77.59
X291.29Y78.09
X291.33Y87.17
X68.37Y35.15
X68.927Y42.29
X73.33Y34.339
X75.718Y43.1
X194.952Y77.647
X198.04Y71.186
X200.429Y81.744
X202.74Y72.963
X268.67Y46.61
X269.98Y39.57
X274.98Y40.07
X275.02Y49.15
X72.02Y112.89
X72.577Y120.03
X76.98Y112.079
X79.368Y120.84
X-10.65Y124.35
X-9.34Y117.31
X-4.34Y117.81
X-4.3Y126.89
X61.96Y56.61
X62.517Y63.75
X66.92Y55.799
X69.308Y64.56
X277.26Y122.62
X278.57Y115.58
X283.57Y116.08
X283.61Y125.16
X203.812Y99.687
X206.9Y93.226
X209.289Y103.784
X211.6Y95.003
X230.77Y65.63
X232.08Y58.59
X237.08Y59.09
X237.12Y68.17
X229.73Y123.83
X231.04Y116.79
X236.04Y117.29
X236.08Y126.37
X36.24Y84.64
X37.55Y77.6
X42.55Y78.1
X42.59Y87.18
X40.5Y65.61
X41.81Y58.57
X46.81Y59.07
X46.85Y68.15
X287.74Y46.62
X289.05Y39.58
X294.05Y40.08
X294.09Y49.16
X249.73Y65.66
X251.04Y58.62
X256.04Y59.12
X256.08Y68.2
X148.742Y84.977
X151.83Y78.516
X154.219Y89.074
X156.53Y80.293
X248.71Y122.62
X250.02Y115.58
X255.02Y116.08
X255.06Y125.16
X94.65Y87.12
X95.207Y94.26
X99.61Y86.309
X101.998Y95.07
X10.1Y84.6
X11.41Y77.56
X16.41Y78.06
X16.45Y87.14
X172.392Y51.937
X175.48Y45.476
X177.869Y56.034
X180.18Y47.253
X112.98Y82.23
X113.537Y89.37
X117.94Y81.419
X120.328Y90.18
X171.352Y110.707
X174.44Y104.246
X176.829Y114.804
X179.14Y106.023
X75.91Y72.52
X76.467Y79.66
X80.87Y71.709
X83.258Y80.47
X105.12Y25.35
X105.677Y32.49
X110.08Y24.539
X112.468Y33.3
X202.492Y40.307
X205.58Y33.846
X207.969Y44.404
X210.28Y35.623
X185.482Y94.817
X188.57Y88.356
X190.959Y98.914
X193.27Y90.133
X268.76Y65.61
X270.07Y58.57
X275.07Y59.07
X275.11Y68.15
X57.9Y96.98
X58.457Y104.12
X62.86Y96.169
X65.248Y104.93
X127.081Y98.13
X127.637Y105.27
X132.04Y97.319
X134.428Y106.08
X294.92Y65.6
X296.23Y58.56
X301.23Y59.06
X301.27Y68.14
X209.092Y61.787
X212.18Y55.326
X214.569Y65.884
X216.88Y57.103
X165.812Y30.547
X168.9Y24.086
X171.289Y34.644
X173.6Y25.863
X208.072Y120.547
X211.16Y114.086
X213.549Y124.644
X215.86Y115.863
X235.Y84.65
X236.31Y77.61
X241.31Y78.11
X241.35Y87.19
X32.33Y122.62
X33.64Y115.58
X38.64Y116.08
X38.68Y125.16
X38.12Y46.63
X39.43Y39.59
X44.43Y40.09
X44.47Y49.17
X154.012Y46.967
X157.1Y40.506
X159.489Y51.064
X161.8Y42.283
X254.03Y84.67
X255.34Y77.63
X260.34Y78.13
X260.38Y87.21
X152.982Y105.787
X156.07Y99.326
X158.459Y109.884
X160.77Y101.103
X13.33Y122.62
X14.64Y115.58
X19.64Y116.08
X19.68Y125.16
X94.251Y67.57
X94.807Y74.71
X99.21Y66.759
X101.598Y75.52
T7
X-28.82Y107.825
X-28.82Y100.205
X-28.82Y72.775
X-28.67Y65.155
X-17.58Y107.78
X-17.43Y100.16
X-17.43Y72.73
X-17.43Y65.11
T0
M30
