G04 #@! TF.GenerationSoftware,KiCad,Pcbnew,(5.0.0-3-g5ebb6b6)*
G04 #@! TF.CreationDate,2019-09-26T15:54:15+09:00*
G04 #@! TF.ProjectId,dboard_alice15_ver.1,64626F6172645F616C69636531355F76,rev?*
G04 #@! TF.SameCoordinates,Original*
G04 #@! TF.FileFunction,Legend,Top*
G04 #@! TF.FilePolarity,Positive*
%FSLAX46Y46*%
G04 Gerber Fmt 4.6, Leading zero omitted, Abs format (unit mm)*
G04 Created by KiCad (PCBNEW (5.0.0-3-g5ebb6b6)) date 2019 September 26, Thursday 15:54:15*
%MOMM*%
%LPD*%
G01*
G04 APERTURE LIST*
%ADD10C,0.300000*%
%ADD11C,0.120000*%
%ADD12C,0.010000*%
%ADD13C,0.150000*%
G04 APERTURE END LIST*
D10*
X357274257Y78747502D02*
X357272516Y79604643D01*
X357273386Y79176072D02*
X358773383Y79179118D01*
X358558808Y79321540D01*
X358415661Y79464107D01*
X358343943Y79606818D01*
X357277158Y77318933D02*
X357275417Y78176074D01*
X357276287Y77747504D02*
X358776284Y77750550D01*
X358561709Y77892971D01*
X358418562Y78035538D01*
X358346843Y78178250D01*
X358136039Y76463533D02*
X358207178Y76606534D01*
X358278461Y76678108D01*
X358421173Y76749826D01*
X358492601Y76749972D01*
X358635603Y76678833D01*
X358707177Y76607550D01*
X358778895Y76464838D01*
X358779475Y76179124D01*
X358708337Y76036122D01*
X358637053Y75964549D01*
X358494342Y75892830D01*
X358422913Y75892685D01*
X358279911Y75963824D01*
X358208338Y76035107D01*
X358136619Y76177819D01*
X358136039Y76463533D01*
X358064321Y76606244D01*
X357992747Y76677528D01*
X357849745Y76748666D01*
X357564032Y76748086D01*
X357421320Y76676367D01*
X357350036Y76604794D01*
X357278898Y76461792D01*
X357279478Y76176078D01*
X357351197Y76033367D01*
X357422770Y75962083D01*
X357565772Y75890945D01*
X357851486Y75891525D01*
X357994198Y75963244D01*
X358065481Y76034817D01*
X358136619Y76177819D01*
X357424221Y75247799D02*
X357352937Y75176225D01*
X357281364Y75247509D01*
X357352647Y75319082D01*
X357424221Y75247799D01*
X357281364Y75247509D01*
X357284410Y73747512D02*
X357282669Y74604653D01*
X357283540Y74176082D02*
X358783536Y74179128D01*
X358568961Y74321550D01*
X358425814Y74464117D01*
X358354096Y74606829D01*
X357285860Y73033228D02*
X357286440Y72747514D01*
X357358159Y72604802D01*
X357429732Y72533519D01*
X357644308Y72391097D01*
X357930167Y72320249D01*
X358501594Y72321409D01*
X358644306Y72393128D01*
X358715589Y72464701D01*
X358786727Y72607703D01*
X358786147Y72893417D01*
X358714429Y73036129D01*
X358642855Y73107412D01*
X358499853Y73178550D01*
X358142711Y73177825D01*
X357999999Y73106107D01*
X357928716Y73034533D01*
X357857578Y72891531D01*
X357858158Y72605818D01*
X357929876Y72463106D01*
X358001450Y72391822D01*
X358144452Y72320684D01*
X358789193Y71393420D02*
X358789483Y71250563D01*
X358718345Y71107561D01*
X358647062Y71035988D01*
X358504350Y70964269D01*
X358218781Y70892261D01*
X357861639Y70891535D01*
X357575780Y70962384D01*
X357432778Y71033522D01*
X357361205Y71104805D01*
X357289486Y71247517D01*
X357289196Y71390374D01*
X357360335Y71533376D01*
X357431618Y71604949D01*
X357574330Y71676668D01*
X357859898Y71748676D01*
X358217041Y71749402D01*
X358502899Y71678553D01*
X358645901Y71607415D01*
X358717475Y71536132D01*
X358789193Y71393420D01*
X357293838Y69104664D02*
X358293836Y69106695D01*
X358150979Y69106405D02*
X358222552Y69035122D01*
X358294271Y68892410D01*
X358294706Y68678124D01*
X358223568Y68535123D01*
X358080856Y68463404D01*
X357295143Y68461809D01*
X358080856Y68463404D02*
X358223858Y68392266D01*
X358295576Y68249554D01*
X358296011Y68035269D01*
X358224873Y67892267D01*
X358082161Y67820548D01*
X357296449Y67818953D01*
X357297899Y67104668D02*
X358297897Y67106699D01*
X358155040Y67106409D02*
X358226614Y67035126D01*
X358298332Y66892414D01*
X358298767Y66678129D01*
X358227629Y66535127D01*
X358084917Y66463408D01*
X357299204Y66461813D01*
X358084917Y66463408D02*
X358227919Y66392270D01*
X358299637Y66249558D01*
X358300073Y66035273D01*
X358228934Y65892271D01*
X358086222Y65820552D01*
X357300510Y65818957D01*
X355985160Y13578200D02*
X355745160Y131768200D01*
X140190000Y13140000D02*
X356571580Y13579391D01*
X139950000Y131330000D02*
X356331580Y131769391D01*
X355745160Y131768200D02*
X356333867Y130642889D01*
X355745160Y131768200D02*
X355161028Y130640508D01*
X355985160Y13578200D02*
X356569292Y14705892D01*
X355985160Y13578200D02*
X355396453Y14703511D01*
X132396789Y146990946D02*
X133325360Y146990841D01*
X132825295Y146419469D01*
X133039581Y146419444D01*
X133182430Y146348000D01*
X133253851Y146276563D01*
X133325263Y146133698D01*
X133325222Y145776555D01*
X133253777Y145633706D01*
X133182341Y145562285D01*
X133039476Y145490873D01*
X132610904Y145490922D01*
X132468055Y145562367D01*
X132396635Y145633803D01*
X134682503Y146990686D02*
X133968218Y146990767D01*
X133896708Y146276490D01*
X133968144Y146347910D01*
X134111010Y146419323D01*
X134468153Y146419282D01*
X134611002Y146347837D01*
X134682422Y146276400D01*
X134753834Y146133535D01*
X134753794Y145776392D01*
X134682349Y145633543D01*
X134610912Y145562123D01*
X134468047Y145490711D01*
X134110904Y145490751D01*
X133968055Y145562196D01*
X133896635Y145633633D01*
X136182333Y145490516D02*
X135325190Y145490613D01*
X135753761Y145490564D02*
X135753932Y146990564D01*
X135611050Y146776295D01*
X135468177Y146633454D01*
X135325312Y146562042D01*
X136825206Y145633300D02*
X136896626Y145561863D01*
X136825190Y145490443D01*
X136753769Y145561879D01*
X136825206Y145633300D01*
X136825190Y145490443D01*
X137396789Y146990378D02*
X138396789Y146990264D01*
X137753761Y145490337D01*
X138825360Y146990215D02*
X139753932Y146990109D01*
X139253867Y146418738D01*
X139468153Y146418713D01*
X139611002Y146347269D01*
X139682422Y146275832D01*
X139753834Y146132967D01*
X139753794Y145775824D01*
X139682349Y145632975D01*
X139610912Y145561554D01*
X139468047Y145490142D01*
X139039475Y145490191D01*
X138896626Y145561636D01*
X138825206Y145633072D01*
X140682503Y146990004D02*
X140825360Y146989988D01*
X140968209Y146918543D01*
X141039630Y146847106D01*
X141111042Y146704241D01*
X141182438Y146418518D01*
X141182398Y146061376D01*
X141110937Y145775669D01*
X141039492Y145632820D01*
X140968055Y145561400D01*
X140825190Y145489988D01*
X140682333Y145490004D01*
X140539484Y145561449D01*
X140468063Y145632885D01*
X140396651Y145775751D01*
X140325255Y146061473D01*
X140325295Y146418616D01*
X140396756Y146704322D01*
X140468201Y146847171D01*
X140539638Y146918592D01*
X140682503Y146990004D01*
X142968047Y145489744D02*
X142968161Y146489744D01*
X142968144Y146346887D02*
X143039581Y146418307D01*
X143182446Y146489720D01*
X143396732Y146489695D01*
X143539581Y146418250D01*
X143610993Y146275385D01*
X143610904Y145489671D01*
X143610993Y146275385D02*
X143682438Y146418234D01*
X143825303Y146489646D01*
X144039589Y146489622D01*
X144182438Y146418177D01*
X144253851Y146275312D01*
X144253761Y145489598D01*
X144968047Y145489516D02*
X144968161Y146489516D01*
X144968144Y146346659D02*
X145039581Y146418080D01*
X145182446Y146489492D01*
X145396732Y146489468D01*
X145539581Y146418023D01*
X145610993Y146275158D01*
X145610904Y145489443D01*
X145610993Y146275158D02*
X145682438Y146418007D01*
X145825303Y146489419D01*
X146039589Y146489395D01*
X146182438Y146417950D01*
X146253850Y146275085D01*
X146253761Y145489370D01*
X-36468543Y144088722D02*
X315261457Y144048722D01*
X-36470000Y131280000D02*
X-36468477Y144675143D01*
X315260000Y131240000D02*
X315261523Y144635143D01*
X315261457Y144048722D02*
X314134887Y143462429D01*
X315261457Y144048722D02*
X314135020Y144635271D01*
X-36468543Y144088722D02*
X-35342106Y143502173D01*
X-36468543Y144088722D02*
X-35341973Y144675015D01*
D11*
G04 #@! TO.C,SW44*
X47050000Y89100000D02*
X33050000Y89100000D01*
X47050000Y75100000D02*
X47050000Y89100000D01*
X33050000Y75100000D02*
X47050000Y75100000D01*
X33050000Y89100000D02*
X33050000Y75100000D01*
G04 #@! TO.C,SW65*
X281790000Y89090000D02*
X281790000Y75090000D01*
X281790000Y75090000D02*
X295790000Y75090000D01*
X295790000Y75090000D02*
X295790000Y89090000D01*
X295790000Y89090000D02*
X281790000Y89090000D01*
G04 #@! TO.C,SW63*
X284550000Y51080000D02*
X284550000Y37080000D01*
X284550000Y37080000D02*
X298550000Y37080000D01*
X298550000Y37080000D02*
X298550000Y51080000D01*
X298550000Y51080000D02*
X284550000Y51080000D01*
G04 #@! TO.C,K?1*
X-18610000Y124920000D02*
X-18610000Y131270000D01*
X-18610000Y124920000D02*
X-25610000Y124920000D01*
X-25610000Y131270000D02*
X-25610000Y124920000D01*
X-18610000Y131270000D02*
X-25610000Y131270000D01*
G04 #@! TO.C,BC1*
X-13620000Y109610000D02*
X-13620000Y63280000D01*
X-21240000Y109610000D02*
X-13620000Y109610000D01*
X-21240000Y63280000D02*
X-21240000Y109610000D01*
X-13620000Y63280000D02*
X-21240000Y63280000D01*
G04 #@! TO.C,BC2*
X-32630000Y63325000D02*
X-32630000Y109655000D01*
X-25010000Y63325000D02*
X-32630000Y63325000D01*
X-25010000Y109655000D02*
X-25010000Y63325000D01*
X-32630000Y109655000D02*
X-25010000Y109655000D01*
G04 #@! TO.C,SW1*
X139233214Y106779747D02*
X125710253Y110403214D01*
X135609747Y93256786D02*
X139233214Y106779747D01*
X122086786Y96880253D02*
X135609747Y93256786D01*
X125710253Y110403214D02*
X122086786Y96880253D01*
G04 #@! TO.C,SW2*
X111610253Y94503214D02*
X107986786Y80980253D01*
X107986786Y80980253D02*
X121509747Y77356786D01*
X121509747Y77356786D02*
X125133214Y90879747D01*
X125133214Y90879747D02*
X111610253Y94503214D01*
G04 #@! TO.C,SW3*
X111250253Y74943214D02*
X107626786Y61420253D01*
X107626786Y61420253D02*
X121149747Y57796786D01*
X121149747Y57796786D02*
X124773214Y71319747D01*
X124773214Y71319747D02*
X111250253Y74943214D01*
G04 #@! TO.C,SW4*
X129043214Y50539747D02*
X115520253Y54163214D01*
X125419747Y37016786D02*
X129043214Y50539747D01*
X111896786Y40640253D02*
X125419747Y37016786D01*
X115520253Y54163214D02*
X111896786Y40640253D01*
G04 #@! TO.C,SW5*
X117273214Y33999747D02*
X103750253Y37623214D01*
X113649747Y20476786D02*
X117273214Y33999747D01*
X100126786Y24100253D02*
X113649747Y20476786D01*
X103750253Y37623214D02*
X100126786Y24100253D01*
G04 #@! TO.C,SW6*
X161576786Y34029747D02*
X165200253Y20506786D01*
X165200253Y20506786D02*
X178723214Y24130253D01*
X178723214Y24130253D02*
X175099747Y37653214D01*
X175099747Y37653214D02*
X161576786Y34029747D01*
G04 #@! TO.C,SW7*
X163299747Y54073214D02*
X149776786Y50449747D01*
X166923214Y40550253D02*
X163299747Y54073214D01*
X153400253Y36926786D02*
X166923214Y40550253D01*
X149776786Y50449747D02*
X153400253Y36926786D01*
G04 #@! TO.C,SW8*
X167559747Y74903214D02*
X154036786Y71279747D01*
X171183214Y61380253D02*
X167559747Y74903214D01*
X157660253Y57756786D02*
X171183214Y61380253D01*
X154036786Y71279747D02*
X157660253Y57756786D01*
G04 #@! TO.C,SW9*
X144506786Y88459747D02*
X148130253Y74936786D01*
X148130253Y74936786D02*
X161653214Y78560253D01*
X161653214Y78560253D02*
X158029747Y92083214D01*
X158029747Y92083214D02*
X144506786Y88459747D01*
G04 #@! TO.C,SW10*
X162269747Y112893214D02*
X148746786Y109269747D01*
X165893214Y99370253D02*
X162269747Y112893214D01*
X152370253Y95746786D02*
X165893214Y99370253D01*
X148746786Y109269747D02*
X152370253Y95746786D01*
G04 #@! TO.C,SW11*
X120883214Y111699747D02*
X107360253Y115323214D01*
X117259747Y98176786D02*
X120883214Y111699747D01*
X103736786Y101800253D02*
X117259747Y98176786D01*
X107360253Y115323214D02*
X103736786Y101800253D01*
G04 #@! TO.C,SW12*
X106803214Y95769747D02*
X93280253Y99393214D01*
X103179747Y82246786D02*
X106803214Y95769747D01*
X89656786Y85870253D02*
X103179747Y82246786D01*
X93280253Y99393214D02*
X89656786Y85870253D01*
G04 #@! TO.C,SW13*
X92880253Y79843214D02*
X89256786Y66320253D01*
X89256786Y66320253D02*
X102779747Y62696786D01*
X102779747Y62696786D02*
X106403214Y76219747D01*
X106403214Y76219747D02*
X92880253Y79843214D01*
G04 #@! TO.C,SW14*
X110723214Y55419747D02*
X97200253Y59043214D01*
X107099747Y41896786D02*
X110723214Y55419747D01*
X93576786Y45520253D02*
X107099747Y41896786D01*
X97200253Y59043214D02*
X93576786Y45520253D01*
G04 #@! TO.C,SW15*
X168156786Y55419747D02*
X171780253Y41896786D01*
X171780253Y41896786D02*
X185303214Y45520253D01*
X185303214Y45520253D02*
X181679747Y59043214D01*
X181679747Y59043214D02*
X168156786Y55419747D01*
G04 #@! TO.C,SW16*
X172406786Y76219747D02*
X176030253Y62696786D01*
X176030253Y62696786D02*
X189553214Y66320253D01*
X189553214Y66320253D02*
X185929747Y79843214D01*
X185929747Y79843214D02*
X172406786Y76219747D01*
G04 #@! TO.C,SW17*
X162846786Y93379747D02*
X166470253Y79856786D01*
X166470253Y79856786D02*
X179993214Y83480253D01*
X179993214Y83480253D02*
X176369747Y97003214D01*
X176369747Y97003214D02*
X162846786Y93379747D01*
G04 #@! TO.C,SW18*
X180639747Y117813214D02*
X167116786Y114189747D01*
X184263214Y104290253D02*
X180639747Y117813214D01*
X170740253Y100666786D02*
X184263214Y104290253D01*
X167116786Y114189747D02*
X170740253Y100666786D01*
G04 #@! TO.C,SW19*
X102523214Y116619747D02*
X89000253Y120243214D01*
X98899747Y103096786D02*
X102523214Y116619747D01*
X85376786Y106720253D02*
X98899747Y103096786D01*
X89000253Y120243214D02*
X85376786Y106720253D01*
G04 #@! TO.C,SW20*
X74960253Y104343214D02*
X71336786Y90820253D01*
X71336786Y90820253D02*
X84859747Y87196786D01*
X84859747Y87196786D02*
X88483214Y100719747D01*
X88483214Y100719747D02*
X74960253Y104343214D01*
G04 #@! TO.C,SW21*
X74540253Y84793214D02*
X70916786Y71270253D01*
X70916786Y71270253D02*
X84439747Y67646786D01*
X84439747Y67646786D02*
X88063214Y81169747D01*
X88063214Y81169747D02*
X74540253Y84793214D01*
G04 #@! TO.C,SW22*
X92333214Y60339747D02*
X78810253Y63963214D01*
X88709747Y46816786D02*
X92333214Y60339747D01*
X75186786Y50440253D02*
X88709747Y46816786D01*
X78810253Y63963214D02*
X75186786Y50440253D01*
G04 #@! TO.C,SW23*
X80523214Y43799747D02*
X67000253Y47423214D01*
X76899747Y30276786D02*
X80523214Y43799747D01*
X63376786Y33900253D02*
X76899747Y30276786D01*
X67000253Y47423214D02*
X63376786Y33900253D01*
G04 #@! TO.C,SW24*
X198256786Y43789747D02*
X201880253Y30266786D01*
X201880253Y30266786D02*
X215403214Y33890253D01*
X215403214Y33890253D02*
X211779747Y47413214D01*
X211779747Y47413214D02*
X198256786Y43789747D01*
G04 #@! TO.C,SW25*
X186476786Y60319747D02*
X190100253Y46796786D01*
X190100253Y46796786D02*
X203623214Y50420253D01*
X203623214Y50420253D02*
X199999747Y63943214D01*
X199999747Y63943214D02*
X186476786Y60319747D01*
G04 #@! TO.C,SW26*
X190716786Y81129747D02*
X194340253Y67606786D01*
X194340253Y67606786D02*
X207863214Y71230253D01*
X207863214Y71230253D02*
X204239747Y84753214D01*
X204239747Y84753214D02*
X190716786Y81129747D01*
G04 #@! TO.C,SW27*
X194769747Y101923214D02*
X181246786Y98299747D01*
X198393214Y88400253D02*
X194769747Y101923214D01*
X184870253Y84776786D02*
X198393214Y88400253D01*
X181246786Y98299747D02*
X184870253Y84776786D01*
G04 #@! TO.C,SW28*
X185486786Y119109747D02*
X189110253Y105586786D01*
X189110253Y105586786D02*
X202633214Y109210253D01*
X202633214Y109210253D02*
X199009747Y122733214D01*
X199009747Y122733214D02*
X185486786Y119109747D01*
G04 #@! TO.C,SW29*
X70650253Y125163214D02*
X67026786Y111640253D01*
X67026786Y111640253D02*
X80549747Y108016786D01*
X80549747Y108016786D02*
X84173214Y121539747D01*
X84173214Y121539747D02*
X70650253Y125163214D01*
G04 #@! TO.C,SW30*
X70053214Y105629747D02*
X56530253Y109253214D01*
X66429747Y92106786D02*
X70053214Y105629747D01*
X52906786Y95730253D02*
X66429747Y92106786D01*
X56530253Y109253214D02*
X52906786Y95730253D01*
G04 #@! TO.C,SW31*
X56280253Y89753214D02*
X52656786Y76230253D01*
X52656786Y76230253D02*
X66179747Y72606786D01*
X66179747Y72606786D02*
X69803214Y86129747D01*
X69803214Y86129747D02*
X56280253Y89753214D01*
G04 #@! TO.C,SW32*
X60590253Y68883214D02*
X56966786Y55360253D01*
X56966786Y55360253D02*
X70489747Y51736786D01*
X70489747Y51736786D02*
X74113214Y65259747D01*
X74113214Y65259747D02*
X60590253Y68883214D01*
G04 #@! TO.C,SW33*
X218379747Y68893214D02*
X204856786Y65269747D01*
X222003214Y55370253D02*
X218379747Y68893214D01*
X208480253Y51746786D02*
X222003214Y55370253D01*
X204856786Y65269747D02*
X208480253Y51746786D01*
G04 #@! TO.C,SW34*
X222619747Y89663214D02*
X209096786Y86039747D01*
X226243214Y76140253D02*
X222619747Y89663214D01*
X212720253Y72516786D02*
X226243214Y76140253D01*
X209096786Y86039747D02*
X212720253Y72516786D01*
G04 #@! TO.C,SW35*
X199576786Y103169747D02*
X203200253Y89646786D01*
X203200253Y89646786D02*
X216723214Y93270253D01*
X216723214Y93270253D02*
X213099747Y106793214D01*
X213099747Y106793214D02*
X199576786Y103169747D01*
G04 #@! TO.C,SW36*
X217359747Y127653214D02*
X203836786Y124029747D01*
X220983214Y114130253D02*
X217359747Y127653214D01*
X207460253Y110506786D02*
X220983214Y114130253D01*
X203836786Y124029747D02*
X207460253Y110506786D01*
G04 #@! TO.C,SW37*
X48090000Y128850000D02*
X48090000Y114850000D01*
X48090000Y114850000D02*
X62090000Y114850000D01*
X62090000Y114850000D02*
X62090000Y128850000D01*
X62090000Y128850000D02*
X48090000Y128850000D01*
G04 #@! TO.C,SW38*
X241580000Y70090000D02*
X227580000Y70090000D01*
X241580000Y56090000D02*
X241580000Y70090000D01*
X227580000Y56090000D02*
X241580000Y56090000D01*
X227580000Y70090000D02*
X227580000Y56090000D01*
G04 #@! TO.C,SW39*
X231810000Y89110000D02*
X231810000Y75110000D01*
X231810000Y75110000D02*
X245810000Y75110000D01*
X245810000Y75110000D02*
X245810000Y89110000D01*
X245810000Y89110000D02*
X231810000Y89110000D01*
G04 #@! TO.C,SW40*
X224360000Y109240000D02*
X224360000Y95240000D01*
X224360000Y95240000D02*
X238360000Y95240000D01*
X238360000Y95240000D02*
X238360000Y109240000D01*
X238360000Y109240000D02*
X224360000Y109240000D01*
G04 #@! TO.C,SW41*
X226540000Y128290000D02*
X226540000Y114290000D01*
X226540000Y114290000D02*
X240540000Y114290000D01*
X240540000Y114290000D02*
X240540000Y128290000D01*
X240540000Y128290000D02*
X226540000Y128290000D01*
G04 #@! TO.C,SW42*
X29140000Y127080000D02*
X29140000Y113080000D01*
X29140000Y113080000D02*
X43140000Y113080000D01*
X43140000Y113080000D02*
X43140000Y127080000D01*
X43140000Y127080000D02*
X29140000Y127080000D01*
G04 #@! TO.C,SW43*
X47360000Y108060000D02*
X33360000Y108060000D01*
X47360000Y94060000D02*
X47360000Y108060000D01*
X33360000Y94060000D02*
X47360000Y94060000D01*
X33360000Y108060000D02*
X33360000Y94060000D01*
G04 #@! TO.C,SW45*
X37310000Y70070000D02*
X37310000Y56070000D01*
X37310000Y56070000D02*
X51310000Y56070000D01*
X51310000Y56070000D02*
X51310000Y70070000D01*
X51310000Y70070000D02*
X37310000Y70070000D01*
G04 #@! TO.C,SW46*
X48930000Y51090000D02*
X34930000Y51090000D01*
X48930000Y37090000D02*
X48930000Y51090000D01*
X34930000Y37090000D02*
X48930000Y37090000D01*
X34930000Y51090000D02*
X34930000Y37090000D01*
G04 #@! TO.C,SW47*
X260540000Y51100000D02*
X246540000Y51100000D01*
X260540000Y37100000D02*
X260540000Y51100000D01*
X246540000Y37100000D02*
X260540000Y37100000D01*
X246540000Y51100000D02*
X246540000Y37100000D01*
G04 #@! TO.C,SW48*
X260540000Y70120000D02*
X246540000Y70120000D01*
X260540000Y56120000D02*
X260540000Y70120000D01*
X246540000Y56120000D02*
X260540000Y56120000D01*
X246540000Y70120000D02*
X246540000Y56120000D01*
G04 #@! TO.C,SW49*
X264840000Y89130000D02*
X250840000Y89130000D01*
X264840000Y75130000D02*
X264840000Y89130000D01*
X250840000Y75130000D02*
X264840000Y75130000D01*
X250840000Y89130000D02*
X250840000Y75130000D01*
G04 #@! TO.C,SW50*
X243370000Y108120000D02*
X243370000Y94120000D01*
X243370000Y94120000D02*
X257370000Y94120000D01*
X257370000Y94120000D02*
X257370000Y108120000D01*
X257370000Y108120000D02*
X243370000Y108120000D01*
G04 #@! TO.C,SW51*
X245520000Y127080000D02*
X245520000Y113080000D01*
X245520000Y113080000D02*
X259520000Y113080000D01*
X259520000Y113080000D02*
X259520000Y127080000D01*
X259520000Y127080000D02*
X245520000Y127080000D01*
G04 #@! TO.C,SW52*
X24140000Y127080000D02*
X10140000Y127080000D01*
X24140000Y113080000D02*
X24140000Y127080000D01*
X10140000Y113080000D02*
X24140000Y113080000D01*
X10140000Y127080000D02*
X10140000Y113080000D01*
G04 #@! TO.C,SW53*
X23620000Y108060000D02*
X9620000Y108060000D01*
X23620000Y94060000D02*
X23620000Y108060000D01*
X9620000Y94060000D02*
X23620000Y94060000D01*
X9620000Y108060000D02*
X9620000Y94060000D01*
G04 #@! TO.C,SW54*
X6910000Y89060000D02*
X6910000Y75060000D01*
X6910000Y75060000D02*
X20910000Y75060000D01*
X20910000Y75060000D02*
X20910000Y89060000D01*
X20910000Y89060000D02*
X6910000Y89060000D01*
G04 #@! TO.C,SW55*
X20410000Y70090000D02*
X6410000Y70090000D01*
X20410000Y56090000D02*
X20410000Y70090000D01*
X6410000Y56090000D02*
X20410000Y56090000D01*
X6410000Y70090000D02*
X6410000Y56090000D01*
G04 #@! TO.C,SW56*
X11140000Y51110000D02*
X11140000Y37110000D01*
X11140000Y37110000D02*
X25140000Y37110000D01*
X25140000Y37110000D02*
X25140000Y51110000D01*
X25140000Y51110000D02*
X11140000Y51110000D01*
G04 #@! TO.C,SW57*
X279480000Y51070000D02*
X265480000Y51070000D01*
X279480000Y37070000D02*
X279480000Y51070000D01*
X265480000Y37070000D02*
X279480000Y37070000D01*
X265480000Y51070000D02*
X265480000Y37070000D01*
G04 #@! TO.C,SW58*
X279570000Y70070000D02*
X265570000Y70070000D01*
X279570000Y56070000D02*
X279570000Y70070000D01*
X265570000Y56070000D02*
X279570000Y56070000D01*
X265570000Y70070000D02*
X265570000Y56070000D01*
G04 #@! TO.C,SW59*
X262350000Y108060000D02*
X262350000Y94060000D01*
X262350000Y94060000D02*
X276350000Y94060000D01*
X276350000Y94060000D02*
X276350000Y108060000D01*
X276350000Y108060000D02*
X262350000Y108060000D01*
G04 #@! TO.C,SW60*
X160000Y128810000D02*
X-13840000Y128810000D01*
X160000Y114810000D02*
X160000Y128810000D01*
X-13840000Y114810000D02*
X160000Y114810000D01*
X-13840000Y128810000D02*
X-13840000Y114810000D01*
G04 #@! TO.C,SW64*
X305730000Y70060000D02*
X291730000Y70060000D01*
X305730000Y56060000D02*
X305730000Y70060000D01*
X291730000Y56060000D02*
X305730000Y56060000D01*
X291730000Y70060000D02*
X291730000Y56060000D01*
G04 #@! TO.C,SW66*
X286140000Y108060000D02*
X286140000Y94060000D01*
X286140000Y94060000D02*
X300140000Y94060000D01*
X300140000Y94060000D02*
X300140000Y108060000D01*
X300140000Y108060000D02*
X286140000Y108060000D01*
G04 #@! TO.C,SW67*
X274070000Y127080000D02*
X274070000Y113080000D01*
X274070000Y113080000D02*
X288070000Y113080000D01*
X288070000Y113080000D02*
X288070000Y127080000D01*
X288070000Y127080000D02*
X274070000Y127080000D01*
D12*
G04 #@! TO.C,G\002A\002A\002A*
G36*
X164943333Y131627167D02*
X164922166Y131606000D01*
X164901000Y131627167D01*
X164922166Y131648333D01*
X164943333Y131627167D01*
X164943333Y131627167D01*
G37*
X164943333Y131627167D02*
X164922166Y131606000D01*
X164901000Y131627167D01*
X164922166Y131648333D01*
X164943333Y131627167D01*
G36*
X158860547Y119493127D02*
X158916841Y119470124D01*
X158931927Y119420082D01*
X158932000Y119414000D01*
X158919535Y119361090D01*
X158867779Y119336071D01*
X158755185Y119329366D01*
X158741500Y119329333D01*
X158622452Y119334873D01*
X158566158Y119357876D01*
X158551072Y119407918D01*
X158551000Y119414000D01*
X158563464Y119466910D01*
X158615220Y119491930D01*
X158727814Y119498635D01*
X158741500Y119498667D01*
X158860547Y119493127D01*
X158860547Y119493127D01*
G37*
X158860547Y119493127D02*
X158916841Y119470124D01*
X158931927Y119420082D01*
X158932000Y119414000D01*
X158919535Y119361090D01*
X158867779Y119336071D01*
X158755185Y119329366D01*
X158741500Y119329333D01*
X158622452Y119334873D01*
X158566158Y119357876D01*
X158551072Y119407918D01*
X158551000Y119414000D01*
X158563464Y119466910D01*
X158615220Y119491930D01*
X158727814Y119498635D01*
X158741500Y119498667D01*
X158860547Y119493127D01*
G36*
X148573547Y119493127D02*
X148629841Y119470124D01*
X148644927Y119420082D01*
X148645000Y119414000D01*
X148632535Y119361090D01*
X148580779Y119336071D01*
X148468185Y119329366D01*
X148454500Y119329333D01*
X148335452Y119334873D01*
X148279158Y119357876D01*
X148264072Y119407918D01*
X148264000Y119414000D01*
X148276464Y119466910D01*
X148328220Y119491930D01*
X148440814Y119498635D01*
X148454500Y119498667D01*
X148573547Y119493127D01*
X148573547Y119493127D01*
G37*
X148573547Y119493127D02*
X148629841Y119470124D01*
X148644927Y119420082D01*
X148645000Y119414000D01*
X148632535Y119361090D01*
X148580779Y119336071D01*
X148468185Y119329366D01*
X148454500Y119329333D01*
X148335452Y119334873D01*
X148279158Y119357876D01*
X148264072Y119407918D01*
X148264000Y119414000D01*
X148276464Y119466910D01*
X148328220Y119491930D01*
X148440814Y119498635D01*
X148454500Y119498667D01*
X148573547Y119493127D01*
G36*
X134476547Y119493127D02*
X134532841Y119470124D01*
X134547927Y119420082D01*
X134548000Y119414000D01*
X134535535Y119361090D01*
X134483779Y119336071D01*
X134371185Y119329366D01*
X134357500Y119329333D01*
X134238452Y119334873D01*
X134182158Y119357876D01*
X134167072Y119407918D01*
X134167000Y119414000D01*
X134179464Y119466910D01*
X134231220Y119491930D01*
X134343814Y119498635D01*
X134357500Y119498667D01*
X134476547Y119493127D01*
X134476547Y119493127D01*
G37*
X134476547Y119493127D02*
X134532841Y119470124D01*
X134547927Y119420082D01*
X134548000Y119414000D01*
X134535535Y119361090D01*
X134483779Y119336071D01*
X134371185Y119329366D01*
X134357500Y119329333D01*
X134238452Y119334873D01*
X134182158Y119357876D01*
X134167072Y119407918D01*
X134167000Y119414000D01*
X134179464Y119466910D01*
X134231220Y119491930D01*
X134343814Y119498635D01*
X134357500Y119498667D01*
X134476547Y119493127D01*
G36*
X158932000Y117847667D02*
X158551000Y117847667D01*
X158551000Y119117667D01*
X158932000Y119117667D01*
X158932000Y117847667D01*
X158932000Y117847667D01*
G37*
X158932000Y117847667D02*
X158551000Y117847667D01*
X158551000Y119117667D01*
X158932000Y119117667D01*
X158932000Y117847667D01*
G36*
X158170000Y117847667D02*
X158000666Y117847667D01*
X157894634Y117857385D01*
X157835654Y117881663D01*
X157831333Y117891490D01*
X157805419Y117913690D01*
X157749449Y117891490D01*
X157611884Y117853928D01*
X157444722Y117856046D01*
X157292614Y117896836D01*
X157281834Y117902042D01*
X157183642Y117971614D01*
X157119909Y118072018D01*
X157085742Y118218458D01*
X157076253Y118426138D01*
X157078423Y118534454D01*
X157078780Y118539801D01*
X157450194Y118539801D01*
X157451724Y118370013D01*
X157462509Y118217017D01*
X157482549Y118106049D01*
X157501133Y118067800D01*
X157601185Y118020176D01*
X157713095Y118044373D01*
X157764809Y118083524D01*
X157798422Y118139168D01*
X157819157Y118235141D01*
X157829300Y118387451D01*
X157831333Y118549191D01*
X157831333Y118948333D01*
X157691633Y118948333D01*
X157579456Y118933784D01*
X157502302Y118898668D01*
X157501133Y118897533D01*
X157474898Y118828798D01*
X157457919Y118701141D01*
X157450194Y118539801D01*
X157078780Y118539801D01*
X157093590Y118761200D01*
X157129316Y118917632D01*
X157197090Y119017612D01*
X157308399Y119075004D01*
X157474730Y119103672D01*
X157555279Y119109952D01*
X157831333Y119127530D01*
X157831333Y119498667D01*
X158170000Y119498667D01*
X158170000Y117847667D01*
X158170000Y117847667D01*
G37*
X158170000Y117847667D02*
X158000666Y117847667D01*
X157894634Y117857385D01*
X157835654Y117881663D01*
X157831333Y117891490D01*
X157805419Y117913690D01*
X157749449Y117891490D01*
X157611884Y117853928D01*
X157444722Y117856046D01*
X157292614Y117896836D01*
X157281834Y117902042D01*
X157183642Y117971614D01*
X157119909Y118072018D01*
X157085742Y118218458D01*
X157076253Y118426138D01*
X157078423Y118534454D01*
X157078780Y118539801D01*
X157450194Y118539801D01*
X157451724Y118370013D01*
X157462509Y118217017D01*
X157482549Y118106049D01*
X157501133Y118067800D01*
X157601185Y118020176D01*
X157713095Y118044373D01*
X157764809Y118083524D01*
X157798422Y118139168D01*
X157819157Y118235141D01*
X157829300Y118387451D01*
X157831333Y118549191D01*
X157831333Y118948333D01*
X157691633Y118948333D01*
X157579456Y118933784D01*
X157502302Y118898668D01*
X157501133Y118897533D01*
X157474898Y118828798D01*
X157457919Y118701141D01*
X157450194Y118539801D01*
X157078780Y118539801D01*
X157093590Y118761200D01*
X157129316Y118917632D01*
X157197090Y119017612D01*
X157308399Y119075004D01*
X157474730Y119103672D01*
X157555279Y119109952D01*
X157831333Y119127530D01*
X157831333Y119498667D01*
X158170000Y119498667D01*
X158170000Y117847667D01*
G36*
X155249000Y117847667D02*
X155079666Y117847667D01*
X154973634Y117857385D01*
X154914654Y117881663D01*
X154910333Y117891490D01*
X154884419Y117913690D01*
X154828449Y117891490D01*
X154690884Y117853928D01*
X154523722Y117856046D01*
X154371614Y117896836D01*
X154360834Y117902042D01*
X154262642Y117971614D01*
X154198909Y118072018D01*
X154164742Y118218458D01*
X154155253Y118426138D01*
X154157423Y118534454D01*
X154157780Y118539801D01*
X154529194Y118539801D01*
X154530724Y118370013D01*
X154541509Y118217017D01*
X154561549Y118106049D01*
X154580133Y118067800D01*
X154680185Y118020176D01*
X154792095Y118044373D01*
X154843809Y118083524D01*
X154877422Y118139168D01*
X154898157Y118235141D01*
X154908300Y118387451D01*
X154910333Y118549191D01*
X154910333Y118948333D01*
X154770633Y118948333D01*
X154658456Y118933784D01*
X154581302Y118898668D01*
X154580133Y118897533D01*
X154553898Y118828798D01*
X154536919Y118701141D01*
X154529194Y118539801D01*
X154157780Y118539801D01*
X154172590Y118761200D01*
X154208316Y118917632D01*
X154276090Y119017612D01*
X154387399Y119075004D01*
X154553730Y119103672D01*
X154634279Y119109952D01*
X154910333Y119127530D01*
X154910333Y119498667D01*
X155249000Y119498667D01*
X155249000Y117847667D01*
X155249000Y117847667D01*
G37*
X155249000Y117847667D02*
X155079666Y117847667D01*
X154973634Y117857385D01*
X154914654Y117881663D01*
X154910333Y117891490D01*
X154884419Y117913690D01*
X154828449Y117891490D01*
X154690884Y117853928D01*
X154523722Y117856046D01*
X154371614Y117896836D01*
X154360834Y117902042D01*
X154262642Y117971614D01*
X154198909Y118072018D01*
X154164742Y118218458D01*
X154155253Y118426138D01*
X154157423Y118534454D01*
X154157780Y118539801D01*
X154529194Y118539801D01*
X154530724Y118370013D01*
X154541509Y118217017D01*
X154561549Y118106049D01*
X154580133Y118067800D01*
X154680185Y118020176D01*
X154792095Y118044373D01*
X154843809Y118083524D01*
X154877422Y118139168D01*
X154898157Y118235141D01*
X154908300Y118387451D01*
X154910333Y118549191D01*
X154910333Y118948333D01*
X154770633Y118948333D01*
X154658456Y118933784D01*
X154581302Y118898668D01*
X154580133Y118897533D01*
X154553898Y118828798D01*
X154536919Y118701141D01*
X154529194Y118539801D01*
X154157780Y118539801D01*
X154172590Y118761200D01*
X154208316Y118917632D01*
X154276090Y119017612D01*
X154387399Y119075004D01*
X154553730Y119103672D01*
X154634279Y119109952D01*
X154910333Y119127530D01*
X154910333Y119498667D01*
X155249000Y119498667D01*
X155249000Y117847667D01*
G36*
X153431350Y119001250D02*
X153435934Y118906696D01*
X153448232Y118888634D01*
X153470643Y118933221D01*
X153562944Y119057705D01*
X153707735Y119138421D01*
X153840252Y119160000D01*
X153925519Y119155362D01*
X153965897Y119126094D01*
X153978160Y119049170D01*
X153979000Y118969500D01*
X153979000Y118779000D01*
X153754633Y118779000D01*
X153617952Y118769923D01*
X153513453Y118746699D01*
X153479466Y118728200D01*
X153452492Y118655668D01*
X153435318Y118506017D01*
X153428716Y118286311D01*
X153428666Y118262533D01*
X153428666Y117847667D01*
X153047666Y117847667D01*
X153047666Y119160000D01*
X153428666Y119160000D01*
X153431350Y119001250D01*
X153431350Y119001250D01*
G37*
X153431350Y119001250D02*
X153435934Y118906696D01*
X153448232Y118888634D01*
X153470643Y118933221D01*
X153562944Y119057705D01*
X153707735Y119138421D01*
X153840252Y119160000D01*
X153925519Y119155362D01*
X153965897Y119126094D01*
X153978160Y119049170D01*
X153979000Y118969500D01*
X153979000Y118779000D01*
X153754633Y118779000D01*
X153617952Y118769923D01*
X153513453Y118746699D01*
X153479466Y118728200D01*
X153452492Y118655668D01*
X153435318Y118506017D01*
X153428716Y118286311D01*
X153428666Y118262533D01*
X153428666Y117847667D01*
X153047666Y117847667D01*
X153047666Y119160000D01*
X153428666Y119160000D01*
X153431350Y119001250D01*
G36*
X152402531Y119093181D02*
X152517608Y119038521D01*
X152580828Y118982172D01*
X152621747Y118927177D01*
X152647216Y118855877D01*
X152660588Y118748567D01*
X152665212Y118585543D01*
X152665320Y118485268D01*
X152660428Y118268898D01*
X152643494Y118119234D01*
X152608579Y118018533D01*
X152549744Y117949054D01*
X152468366Y117896915D01*
X152355687Y117864892D01*
X152194456Y117850693D01*
X152018838Y117854062D01*
X151862994Y117874747D01*
X151778500Y117902042D01*
X151680309Y117971614D01*
X151616575Y118072018D01*
X151582409Y118218458D01*
X151572920Y118426138D01*
X151574051Y118482667D01*
X151947000Y118482667D01*
X151952947Y118272592D01*
X151973945Y118133939D01*
X152014728Y118054095D01*
X152080030Y118020446D01*
X152121776Y118017000D01*
X152210065Y118045406D01*
X152261476Y118083524D01*
X152298853Y118148818D01*
X152320070Y118262785D01*
X152327825Y118441625D01*
X152328000Y118482667D01*
X152318003Y118698081D01*
X152285074Y118840830D01*
X152224808Y118920861D01*
X152132799Y118948126D01*
X152121776Y118948333D01*
X152042929Y118932488D01*
X151990889Y118876541D01*
X151960922Y118767881D01*
X151948293Y118593893D01*
X151947000Y118482667D01*
X151574051Y118482667D01*
X151575089Y118534454D01*
X151590533Y118761175D01*
X151626724Y118917656D01*
X151694590Y119017754D01*
X151805061Y119075324D01*
X151969068Y119104224D01*
X152028479Y119109240D01*
X152246168Y119115217D01*
X152402531Y119093181D01*
X152402531Y119093181D01*
G37*
X152402531Y119093181D02*
X152517608Y119038521D01*
X152580828Y118982172D01*
X152621747Y118927177D01*
X152647216Y118855877D01*
X152660588Y118748567D01*
X152665212Y118585543D01*
X152665320Y118485268D01*
X152660428Y118268898D01*
X152643494Y118119234D01*
X152608579Y118018533D01*
X152549744Y117949054D01*
X152468366Y117896915D01*
X152355687Y117864892D01*
X152194456Y117850693D01*
X152018838Y117854062D01*
X151862994Y117874747D01*
X151778500Y117902042D01*
X151680309Y117971614D01*
X151616575Y118072018D01*
X151582409Y118218458D01*
X151572920Y118426138D01*
X151574051Y118482667D01*
X151947000Y118482667D01*
X151952947Y118272592D01*
X151973945Y118133939D01*
X152014728Y118054095D01*
X152080030Y118020446D01*
X152121776Y118017000D01*
X152210065Y118045406D01*
X152261476Y118083524D01*
X152298853Y118148818D01*
X152320070Y118262785D01*
X152327825Y118441625D01*
X152328000Y118482667D01*
X152318003Y118698081D01*
X152285074Y118840830D01*
X152224808Y118920861D01*
X152132799Y118948126D01*
X152121776Y118948333D01*
X152042929Y118932488D01*
X151990889Y118876541D01*
X151960922Y118767881D01*
X151948293Y118593893D01*
X151947000Y118482667D01*
X151574051Y118482667D01*
X151575089Y118534454D01*
X151590533Y118761175D01*
X151626724Y118917656D01*
X151694590Y119017754D01*
X151805061Y119075324D01*
X151969068Y119104224D01*
X152028479Y119109240D01*
X152246168Y119115217D01*
X152402531Y119093181D01*
G36*
X151035930Y119069447D02*
X151149135Y118973261D01*
X151163727Y118948537D01*
X151208061Y118850159D01*
X151227308Y118782384D01*
X151227333Y118781102D01*
X151198351Y118740016D01*
X151133882Y118740604D01*
X151067644Y118775763D01*
X151036864Y118821235D01*
X150978267Y118894909D01*
X150900425Y118933311D01*
X150802776Y118936555D01*
X150735822Y118883663D01*
X150695658Y118766760D01*
X150678379Y118577970D01*
X150677000Y118482667D01*
X150686375Y118263557D01*
X150717106Y118119421D01*
X150773096Y118042382D01*
X150858251Y118024566D01*
X150900425Y118032023D01*
X150992829Y118082386D01*
X151036864Y118144099D01*
X151081898Y118200781D01*
X151150787Y118228292D01*
X151209814Y118219526D01*
X151227333Y118184231D01*
X151197975Y118079526D01*
X151127155Y117969345D01*
X151040747Y117889996D01*
X151006778Y117874792D01*
X150830232Y117850353D01*
X150648386Y117860960D01*
X150508500Y117902042D01*
X150410309Y117971614D01*
X150346575Y118072018D01*
X150312409Y118218458D01*
X150302920Y118426138D01*
X150305089Y118534454D01*
X150321369Y118759773D01*
X150358568Y118915576D01*
X150425210Y119016101D01*
X150529816Y119075587D01*
X150645415Y119103010D01*
X150864832Y119113648D01*
X151035930Y119069447D01*
X151035930Y119069447D01*
G37*
X151035930Y119069447D02*
X151149135Y118973261D01*
X151163727Y118948537D01*
X151208061Y118850159D01*
X151227308Y118782384D01*
X151227333Y118781102D01*
X151198351Y118740016D01*
X151133882Y118740604D01*
X151067644Y118775763D01*
X151036864Y118821235D01*
X150978267Y118894909D01*
X150900425Y118933311D01*
X150802776Y118936555D01*
X150735822Y118883663D01*
X150695658Y118766760D01*
X150678379Y118577970D01*
X150677000Y118482667D01*
X150686375Y118263557D01*
X150717106Y118119421D01*
X150773096Y118042382D01*
X150858251Y118024566D01*
X150900425Y118032023D01*
X150992829Y118082386D01*
X151036864Y118144099D01*
X151081898Y118200781D01*
X151150787Y118228292D01*
X151209814Y118219526D01*
X151227333Y118184231D01*
X151197975Y118079526D01*
X151127155Y117969345D01*
X151040747Y117889996D01*
X151006778Y117874792D01*
X150830232Y117850353D01*
X150648386Y117860960D01*
X150508500Y117902042D01*
X150410309Y117971614D01*
X150346575Y118072018D01*
X150312409Y118218458D01*
X150302920Y118426138D01*
X150305089Y118534454D01*
X150321369Y118759773D01*
X150358568Y118915576D01*
X150425210Y119016101D01*
X150529816Y119075587D01*
X150645415Y119103010D01*
X150864832Y119113648D01*
X151035930Y119069447D01*
G36*
X149679695Y119099757D02*
X149810178Y119039141D01*
X149911084Y118928210D01*
X149956777Y118796387D01*
X149957333Y118781102D01*
X149930075Y118737926D01*
X149867203Y118741682D01*
X149797069Y118783837D01*
X149753369Y118842500D01*
X149674972Y118929818D01*
X149554701Y118944900D01*
X149473962Y118922638D01*
X149409370Y118868350D01*
X149420473Y118788936D01*
X149504263Y118690489D01*
X149637140Y118592049D01*
X149825569Y118450475D01*
X149931815Y118316846D01*
X149957396Y118186363D01*
X149903832Y118054228D01*
X149833589Y117971410D01*
X149738075Y117891938D01*
X149637542Y117856673D01*
X149505506Y117850350D01*
X149363478Y117859420D01*
X149244330Y117879148D01*
X149211216Y117889359D01*
X149135451Y117952965D01*
X149075528Y118057052D01*
X149073633Y118062326D01*
X149038056Y118167853D01*
X149034779Y118215561D01*
X149070419Y118228307D01*
X149121794Y118228667D01*
X149218827Y118190364D01*
X149259378Y118133417D01*
X149325083Y118057883D01*
X149428166Y118038167D01*
X149519033Y118049659D01*
X149552232Y118098062D01*
X149555166Y118142314D01*
X149521756Y118241657D01*
X149414789Y118335739D01*
X149407000Y118340757D01*
X149240911Y118450827D01*
X149135691Y118535531D01*
X149078022Y118610302D01*
X149054585Y118690575D01*
X149051400Y118752839D01*
X149087769Y118913012D01*
X149190263Y119030485D01*
X149348961Y119099781D01*
X149553939Y119115421D01*
X149679695Y119099757D01*
X149679695Y119099757D01*
G37*
X149679695Y119099757D02*
X149810178Y119039141D01*
X149911084Y118928210D01*
X149956777Y118796387D01*
X149957333Y118781102D01*
X149930075Y118737926D01*
X149867203Y118741682D01*
X149797069Y118783837D01*
X149753369Y118842500D01*
X149674972Y118929818D01*
X149554701Y118944900D01*
X149473962Y118922638D01*
X149409370Y118868350D01*
X149420473Y118788936D01*
X149504263Y118690489D01*
X149637140Y118592049D01*
X149825569Y118450475D01*
X149931815Y118316846D01*
X149957396Y118186363D01*
X149903832Y118054228D01*
X149833589Y117971410D01*
X149738075Y117891938D01*
X149637542Y117856673D01*
X149505506Y117850350D01*
X149363478Y117859420D01*
X149244330Y117879148D01*
X149211216Y117889359D01*
X149135451Y117952965D01*
X149075528Y118057052D01*
X149073633Y118062326D01*
X149038056Y118167853D01*
X149034779Y118215561D01*
X149070419Y118228307D01*
X149121794Y118228667D01*
X149218827Y118190364D01*
X149259378Y118133417D01*
X149325083Y118057883D01*
X149428166Y118038167D01*
X149519033Y118049659D01*
X149552232Y118098062D01*
X149555166Y118142314D01*
X149521756Y118241657D01*
X149414789Y118335739D01*
X149407000Y118340757D01*
X149240911Y118450827D01*
X149135691Y118535531D01*
X149078022Y118610302D01*
X149054585Y118690575D01*
X149051400Y118752839D01*
X149087769Y118913012D01*
X149190263Y119030485D01*
X149348961Y119099781D01*
X149553939Y119115421D01*
X149679695Y119099757D01*
G36*
X148645000Y117847667D02*
X148264000Y117847667D01*
X148264000Y119117667D01*
X148645000Y119117667D01*
X148645000Y117847667D01*
X148645000Y117847667D01*
G37*
X148645000Y117847667D02*
X148264000Y117847667D01*
X148264000Y119117667D01*
X148645000Y119117667D01*
X148645000Y117847667D01*
G36*
X147925333Y117847667D02*
X147756000Y117847667D01*
X147649967Y117857385D01*
X147590987Y117881663D01*
X147586666Y117891490D01*
X147560752Y117913690D01*
X147504783Y117891490D01*
X147367218Y117853928D01*
X147200055Y117856046D01*
X147047947Y117896836D01*
X147037167Y117902042D01*
X146938976Y117971614D01*
X146875242Y118072018D01*
X146841076Y118218458D01*
X146831586Y118426138D01*
X146832718Y118482667D01*
X147205666Y118482667D01*
X147211614Y118272592D01*
X147232612Y118133939D01*
X147273395Y118054095D01*
X147338697Y118020446D01*
X147380442Y118017000D01*
X147468731Y118045406D01*
X147520142Y118083524D01*
X147553756Y118139168D01*
X147574490Y118235141D01*
X147584634Y118387451D01*
X147586666Y118549191D01*
X147586666Y118948333D01*
X147446966Y118948333D01*
X147340515Y118938940D01*
X147270466Y118901358D01*
X147229513Y118821488D01*
X147210349Y118685228D01*
X147205666Y118482667D01*
X146832718Y118482667D01*
X146833756Y118534454D01*
X146848923Y118761200D01*
X146884650Y118917632D01*
X146952423Y119017612D01*
X147063732Y119075004D01*
X147230063Y119103672D01*
X147310613Y119109952D01*
X147586666Y119127530D01*
X147586666Y119498667D01*
X147925333Y119498667D01*
X147925333Y117847667D01*
X147925333Y117847667D01*
G37*
X147925333Y117847667D02*
X147756000Y117847667D01*
X147649967Y117857385D01*
X147590987Y117881663D01*
X147586666Y117891490D01*
X147560752Y117913690D01*
X147504783Y117891490D01*
X147367218Y117853928D01*
X147200055Y117856046D01*
X147047947Y117896836D01*
X147037167Y117902042D01*
X146938976Y117971614D01*
X146875242Y118072018D01*
X146841076Y118218458D01*
X146831586Y118426138D01*
X146832718Y118482667D01*
X147205666Y118482667D01*
X147211614Y118272592D01*
X147232612Y118133939D01*
X147273395Y118054095D01*
X147338697Y118020446D01*
X147380442Y118017000D01*
X147468731Y118045406D01*
X147520142Y118083524D01*
X147553756Y118139168D01*
X147574490Y118235141D01*
X147584634Y118387451D01*
X147586666Y118549191D01*
X147586666Y118948333D01*
X147446966Y118948333D01*
X147340515Y118938940D01*
X147270466Y118901358D01*
X147229513Y118821488D01*
X147210349Y118685228D01*
X147205666Y118482667D01*
X146832718Y118482667D01*
X146833756Y118534454D01*
X146848923Y118761200D01*
X146884650Y118917632D01*
X146952423Y119017612D01*
X147063732Y119075004D01*
X147230063Y119103672D01*
X147310613Y119109952D01*
X147586666Y119127530D01*
X147586666Y119498667D01*
X147925333Y119498667D01*
X147925333Y117847667D01*
G36*
X145829685Y119475171D02*
X145964791Y119465543D01*
X146059321Y119444654D01*
X146135288Y119408541D01*
X146179722Y119378913D01*
X146288667Y119281302D01*
X146373408Y119172131D01*
X146380805Y119158765D01*
X146412286Y119055740D01*
X146433354Y118904351D01*
X146443675Y118728937D01*
X146442916Y118553838D01*
X146430743Y118403393D01*
X146406821Y118301940D01*
X146392866Y118279467D01*
X146324154Y118251773D01*
X146197998Y118233530D01*
X146077470Y118228667D01*
X145918520Y118234544D01*
X145824400Y118255170D01*
X145775895Y118295034D01*
X145773058Y118299812D01*
X145737306Y118347682D01*
X145696402Y118332447D01*
X145662097Y118299812D01*
X145550711Y118235660D01*
X145427666Y118254915D01*
X145297410Y118352410D01*
X145215163Y118453365D01*
X145179626Y118562598D01*
X145173666Y118673167D01*
X145343000Y118673167D01*
X145370358Y118537131D01*
X145440250Y118441050D01*
X145534400Y118397340D01*
X145634532Y118418420D01*
X145673200Y118448800D01*
X145702091Y118517781D01*
X145720493Y118638755D01*
X145724000Y118723967D01*
X145721556Y118854006D01*
X145706409Y118920601D01*
X145666835Y118944969D01*
X145600023Y118948333D01*
X145458493Y118914618D01*
X145371001Y118817442D01*
X145343000Y118673167D01*
X145173666Y118673167D01*
X145185417Y118815863D01*
X145231705Y118918730D01*
X145297410Y118993923D01*
X145384125Y119068138D01*
X145473953Y119105180D01*
X145601924Y119117153D01*
X145655531Y119117667D01*
X145889909Y119117667D01*
X145902204Y118768417D01*
X145914500Y118419167D01*
X146253166Y118419167D01*
X146265651Y118728415D01*
X146270216Y118889734D01*
X146262568Y118993449D01*
X146234810Y119066515D01*
X146179043Y119135885D01*
X146132301Y119183498D01*
X146056469Y119255424D01*
X145989934Y119298695D01*
X145908107Y119320587D01*
X145786401Y119328373D01*
X145639333Y119329333D01*
X145466372Y119327661D01*
X145353546Y119317853D01*
X145276328Y119292718D01*
X145210190Y119245069D01*
X145148266Y119185400D01*
X145079023Y119112664D01*
X145036545Y119048558D01*
X145014295Y118969817D01*
X145005737Y118853177D01*
X145004333Y118675374D01*
X145004333Y118673167D01*
X145005698Y118494620D01*
X145014150Y118377474D01*
X145036227Y118298464D01*
X145078466Y118234327D01*
X145147404Y118161796D01*
X145148266Y118160933D01*
X145217382Y118094519D01*
X145278017Y118052515D01*
X145351552Y118029329D01*
X145459371Y118019371D01*
X145622857Y118017045D01*
X145698600Y118017000D01*
X145886680Y118015746D01*
X146005734Y118009815D01*
X146071386Y117995949D01*
X146099265Y117970895D01*
X146105000Y117932333D01*
X146098865Y117892586D01*
X146069853Y117867796D01*
X146002052Y117854592D01*
X145879551Y117849600D01*
X145713416Y117849324D01*
X145504131Y117856715D01*
X145326708Y117875245D01*
X145205487Y117902210D01*
X145192734Y117907213D01*
X145007418Y118031493D01*
X144879390Y118216791D01*
X144809508Y118461009D01*
X144798627Y118762047D01*
X144806142Y118855001D01*
X144854013Y119077737D01*
X144954761Y119251586D01*
X145105439Y119390218D01*
X145174164Y119432160D01*
X145257509Y119458338D01*
X145376295Y119472202D01*
X145551341Y119477204D01*
X145631990Y119477500D01*
X145829685Y119475171D01*
X145829685Y119475171D01*
G37*
X145829685Y119475171D02*
X145964791Y119465543D01*
X146059321Y119444654D01*
X146135288Y119408541D01*
X146179722Y119378913D01*
X146288667Y119281302D01*
X146373408Y119172131D01*
X146380805Y119158765D01*
X146412286Y119055740D01*
X146433354Y118904351D01*
X146443675Y118728937D01*
X146442916Y118553838D01*
X146430743Y118403393D01*
X146406821Y118301940D01*
X146392866Y118279467D01*
X146324154Y118251773D01*
X146197998Y118233530D01*
X146077470Y118228667D01*
X145918520Y118234544D01*
X145824400Y118255170D01*
X145775895Y118295034D01*
X145773058Y118299812D01*
X145737306Y118347682D01*
X145696402Y118332447D01*
X145662097Y118299812D01*
X145550711Y118235660D01*
X145427666Y118254915D01*
X145297410Y118352410D01*
X145215163Y118453365D01*
X145179626Y118562598D01*
X145173666Y118673167D01*
X145343000Y118673167D01*
X145370358Y118537131D01*
X145440250Y118441050D01*
X145534400Y118397340D01*
X145634532Y118418420D01*
X145673200Y118448800D01*
X145702091Y118517781D01*
X145720493Y118638755D01*
X145724000Y118723967D01*
X145721556Y118854006D01*
X145706409Y118920601D01*
X145666835Y118944969D01*
X145600023Y118948333D01*
X145458493Y118914618D01*
X145371001Y118817442D01*
X145343000Y118673167D01*
X145173666Y118673167D01*
X145185417Y118815863D01*
X145231705Y118918730D01*
X145297410Y118993923D01*
X145384125Y119068138D01*
X145473953Y119105180D01*
X145601924Y119117153D01*
X145655531Y119117667D01*
X145889909Y119117667D01*
X145902204Y118768417D01*
X145914500Y118419167D01*
X146253166Y118419167D01*
X146265651Y118728415D01*
X146270216Y118889734D01*
X146262568Y118993449D01*
X146234810Y119066515D01*
X146179043Y119135885D01*
X146132301Y119183498D01*
X146056469Y119255424D01*
X145989934Y119298695D01*
X145908107Y119320587D01*
X145786401Y119328373D01*
X145639333Y119329333D01*
X145466372Y119327661D01*
X145353546Y119317853D01*
X145276328Y119292718D01*
X145210190Y119245069D01*
X145148266Y119185400D01*
X145079023Y119112664D01*
X145036545Y119048558D01*
X145014295Y118969817D01*
X145005737Y118853177D01*
X145004333Y118675374D01*
X145004333Y118673167D01*
X145005698Y118494620D01*
X145014150Y118377474D01*
X145036227Y118298464D01*
X145078466Y118234327D01*
X145147404Y118161796D01*
X145148266Y118160933D01*
X145217382Y118094519D01*
X145278017Y118052515D01*
X145351552Y118029329D01*
X145459371Y118019371D01*
X145622857Y118017045D01*
X145698600Y118017000D01*
X145886680Y118015746D01*
X146005734Y118009815D01*
X146071386Y117995949D01*
X146099265Y117970895D01*
X146105000Y117932333D01*
X146098865Y117892586D01*
X146069853Y117867796D01*
X146002052Y117854592D01*
X145879551Y117849600D01*
X145713416Y117849324D01*
X145504131Y117856715D01*
X145326708Y117875245D01*
X145205487Y117902210D01*
X145192734Y117907213D01*
X145007418Y118031493D01*
X144879390Y118216791D01*
X144809508Y118461009D01*
X144798627Y118762047D01*
X144806142Y118855001D01*
X144854013Y119077737D01*
X144954761Y119251586D01*
X145105439Y119390218D01*
X145174164Y119432160D01*
X145257509Y119458338D01*
X145376295Y119472202D01*
X145551341Y119477204D01*
X145631990Y119477500D01*
X145829685Y119475171D01*
G36*
X141703620Y119234083D02*
X141707525Y119093207D01*
X141718808Y119028239D01*
X141739472Y119030593D01*
X141748057Y119043583D01*
X141820170Y119093947D01*
X141941897Y119117110D01*
X142082144Y119111451D01*
X142209812Y119075346D01*
X142223699Y119068419D01*
X142310381Y119011905D01*
X142367331Y118940769D01*
X142400499Y118837195D01*
X142415834Y118683367D01*
X142419307Y118482667D01*
X142412469Y118246898D01*
X142384120Y118077503D01*
X142322502Y117963709D01*
X142215862Y117894746D01*
X142052442Y117859842D01*
X141820489Y117848226D01*
X141726283Y117847667D01*
X141321333Y117847667D01*
X141321333Y118431867D01*
X141702333Y118431867D01*
X141702333Y118017000D01*
X141826309Y118017000D01*
X141940286Y118039023D01*
X142016809Y118083524D01*
X142054187Y118148818D01*
X142075403Y118262785D01*
X142083158Y118441625D01*
X142083333Y118482667D01*
X142073336Y118698081D01*
X142040408Y118840830D01*
X141980142Y118920861D01*
X141888132Y118948126D01*
X141877109Y118948333D01*
X141802145Y118934823D01*
X141751452Y118885896D01*
X141720768Y118788960D01*
X141705833Y118631422D01*
X141702333Y118431867D01*
X141321333Y118431867D01*
X141321333Y119498667D01*
X141702333Y119498667D01*
X141703620Y119234083D01*
X141703620Y119234083D01*
G37*
X141703620Y119234083D02*
X141707525Y119093207D01*
X141718808Y119028239D01*
X141739472Y119030593D01*
X141748057Y119043583D01*
X141820170Y119093947D01*
X141941897Y119117110D01*
X142082144Y119111451D01*
X142209812Y119075346D01*
X142223699Y119068419D01*
X142310381Y119011905D01*
X142367331Y118940769D01*
X142400499Y118837195D01*
X142415834Y118683367D01*
X142419307Y118482667D01*
X142412469Y118246898D01*
X142384120Y118077503D01*
X142322502Y117963709D01*
X142215862Y117894746D01*
X142052442Y117859842D01*
X141820489Y117848226D01*
X141726283Y117847667D01*
X141321333Y117847667D01*
X141321333Y118431867D01*
X141702333Y118431867D01*
X141702333Y118017000D01*
X141826309Y118017000D01*
X141940286Y118039023D01*
X142016809Y118083524D01*
X142054187Y118148818D01*
X142075403Y118262785D01*
X142083158Y118441625D01*
X142083333Y118482667D01*
X142073336Y118698081D01*
X142040408Y118840830D01*
X141980142Y118920861D01*
X141888132Y118948126D01*
X141877109Y118948333D01*
X141802145Y118934823D01*
X141751452Y118885896D01*
X141720768Y118788960D01*
X141705833Y118631422D01*
X141702333Y118431867D01*
X141321333Y118431867D01*
X141321333Y119498667D01*
X141702333Y119498667D01*
X141703620Y119234083D01*
G36*
X140390000Y117847667D02*
X140220666Y117847667D01*
X140114634Y117857385D01*
X140055654Y117881663D01*
X140051333Y117891490D01*
X140025419Y117913690D01*
X139969449Y117891490D01*
X139831884Y117853928D01*
X139664722Y117856046D01*
X139512614Y117896836D01*
X139501834Y117902042D01*
X139403642Y117971614D01*
X139339909Y118072018D01*
X139305742Y118218458D01*
X139296253Y118426138D01*
X139297385Y118482667D01*
X139670333Y118482667D01*
X139676280Y118272592D01*
X139697278Y118133939D01*
X139738061Y118054095D01*
X139803363Y118020446D01*
X139845109Y118017000D01*
X139933398Y118045406D01*
X139984809Y118083524D01*
X140018422Y118139168D01*
X140039157Y118235141D01*
X140049300Y118387451D01*
X140051333Y118549191D01*
X140051333Y118948333D01*
X139911633Y118948333D01*
X139805182Y118938940D01*
X139735133Y118901358D01*
X139694180Y118821488D01*
X139675016Y118685228D01*
X139670333Y118482667D01*
X139297385Y118482667D01*
X139298423Y118534454D01*
X139313590Y118761200D01*
X139349316Y118917632D01*
X139417090Y119017612D01*
X139528399Y119075004D01*
X139694730Y119103672D01*
X139775279Y119109952D01*
X140051333Y119127530D01*
X140051333Y119498667D01*
X140390000Y119498667D01*
X140390000Y117847667D01*
X140390000Y117847667D01*
G37*
X140390000Y117847667D02*
X140220666Y117847667D01*
X140114634Y117857385D01*
X140055654Y117881663D01*
X140051333Y117891490D01*
X140025419Y117913690D01*
X139969449Y117891490D01*
X139831884Y117853928D01*
X139664722Y117856046D01*
X139512614Y117896836D01*
X139501834Y117902042D01*
X139403642Y117971614D01*
X139339909Y118072018D01*
X139305742Y118218458D01*
X139296253Y118426138D01*
X139297385Y118482667D01*
X139670333Y118482667D01*
X139676280Y118272592D01*
X139697278Y118133939D01*
X139738061Y118054095D01*
X139803363Y118020446D01*
X139845109Y118017000D01*
X139933398Y118045406D01*
X139984809Y118083524D01*
X140018422Y118139168D01*
X140039157Y118235141D01*
X140049300Y118387451D01*
X140051333Y118549191D01*
X140051333Y118948333D01*
X139911633Y118948333D01*
X139805182Y118938940D01*
X139735133Y118901358D01*
X139694180Y118821488D01*
X139675016Y118685228D01*
X139670333Y118482667D01*
X139297385Y118482667D01*
X139298423Y118534454D01*
X139313590Y118761200D01*
X139349316Y118917632D01*
X139417090Y119017612D01*
X139528399Y119075004D01*
X139694730Y119103672D01*
X139775279Y119109952D01*
X140051333Y119127530D01*
X140051333Y119498667D01*
X140390000Y119498667D01*
X140390000Y117847667D01*
G36*
X138698670Y119079478D02*
X138817294Y119001546D01*
X138884062Y118873051D01*
X138907905Y118687596D01*
X138908333Y118652000D01*
X138908333Y118398000D01*
X138188666Y118398000D01*
X138188666Y118255017D01*
X138210721Y118122518D01*
X138283585Y118047567D01*
X138417307Y118022555D01*
X138492454Y118024997D01*
X138621156Y118045459D01*
X138692444Y118091384D01*
X138717288Y118133417D01*
X138778728Y118207068D01*
X138838294Y118228667D01*
X138892108Y118214036D01*
X138897961Y118154569D01*
X138888970Y118112250D01*
X138845779Y118001933D01*
X138798988Y117933120D01*
X138718447Y117894808D01*
X138581097Y117868608D01*
X138414085Y117855683D01*
X138244557Y117857196D01*
X138099660Y117874308D01*
X138020167Y117899773D01*
X137921834Y117971271D01*
X137858116Y118072367D01*
X137824026Y118218623D01*
X137814575Y118425602D01*
X137816756Y118534454D01*
X137828511Y118707033D01*
X138188666Y118707033D01*
X138193242Y118621184D01*
X138222323Y118580529D01*
X138298939Y118568181D01*
X138379166Y118567333D01*
X138496338Y118571101D01*
X138551838Y118592363D01*
X138568620Y118646059D01*
X138569666Y118691310D01*
X138539211Y118822947D01*
X138460667Y118916502D01*
X138363442Y118948333D01*
X138258760Y118912457D01*
X138200041Y118809003D01*
X138188666Y118707033D01*
X137828511Y118707033D01*
X137832200Y118761175D01*
X137868390Y118917656D01*
X137936256Y119017754D01*
X138046728Y119075324D01*
X138210735Y119104224D01*
X138270146Y119109240D01*
X138519264Y119113243D01*
X138698670Y119079478D01*
X138698670Y119079478D01*
G37*
X138698670Y119079478D02*
X138817294Y119001546D01*
X138884062Y118873051D01*
X138907905Y118687596D01*
X138908333Y118652000D01*
X138908333Y118398000D01*
X138188666Y118398000D01*
X138188666Y118255017D01*
X138210721Y118122518D01*
X138283585Y118047567D01*
X138417307Y118022555D01*
X138492454Y118024997D01*
X138621156Y118045459D01*
X138692444Y118091384D01*
X138717288Y118133417D01*
X138778728Y118207068D01*
X138838294Y118228667D01*
X138892108Y118214036D01*
X138897961Y118154569D01*
X138888970Y118112250D01*
X138845779Y118001933D01*
X138798988Y117933120D01*
X138718447Y117894808D01*
X138581097Y117868608D01*
X138414085Y117855683D01*
X138244557Y117857196D01*
X138099660Y117874308D01*
X138020167Y117899773D01*
X137921834Y117971271D01*
X137858116Y118072367D01*
X137824026Y118218623D01*
X137814575Y118425602D01*
X137816756Y118534454D01*
X137828511Y118707033D01*
X138188666Y118707033D01*
X138193242Y118621184D01*
X138222323Y118580529D01*
X138298939Y118568181D01*
X138379166Y118567333D01*
X138496338Y118571101D01*
X138551838Y118592363D01*
X138568620Y118646059D01*
X138569666Y118691310D01*
X138539211Y118822947D01*
X138460667Y118916502D01*
X138363442Y118948333D01*
X138258760Y118912457D01*
X138200041Y118809003D01*
X138188666Y118707033D01*
X137828511Y118707033D01*
X137832200Y118761175D01*
X137868390Y118917656D01*
X137936256Y119017754D01*
X138046728Y119075324D01*
X138210735Y119104224D01*
X138270146Y119109240D01*
X138519264Y119113243D01*
X138698670Y119079478D01*
G36*
X136687408Y119107062D02*
X136746651Y119077214D01*
X136749333Y119066867D01*
X136761828Y119037415D01*
X136800133Y119066867D01*
X136883153Y119103292D01*
X137012257Y119116024D01*
X137152214Y119104945D01*
X137267788Y119069940D01*
X137270699Y119068419D01*
X137348828Y119019381D01*
X137403073Y118959467D01*
X137437761Y118873251D01*
X137457217Y118745309D01*
X137465769Y118560217D01*
X137467653Y118366250D01*
X137469000Y117847667D01*
X137130333Y117847667D01*
X137130333Y118331476D01*
X137125825Y118577252D01*
X137109742Y118750207D01*
X137078241Y118861832D01*
X137027480Y118923617D01*
X136953618Y118947055D01*
X136924109Y118948333D01*
X136854333Y118937541D01*
X136805582Y118897033D01*
X136774311Y118814611D01*
X136756973Y118678080D01*
X136750022Y118475241D01*
X136749333Y118347200D01*
X136749333Y117847667D01*
X136368333Y117847667D01*
X136368333Y119117667D01*
X136558833Y119117667D01*
X136687408Y119107062D01*
X136687408Y119107062D01*
G37*
X136687408Y119107062D02*
X136746651Y119077214D01*
X136749333Y119066867D01*
X136761828Y119037415D01*
X136800133Y119066867D01*
X136883153Y119103292D01*
X137012257Y119116024D01*
X137152214Y119104945D01*
X137267788Y119069940D01*
X137270699Y119068419D01*
X137348828Y119019381D01*
X137403073Y118959467D01*
X137437761Y118873251D01*
X137457217Y118745309D01*
X137465769Y118560217D01*
X137467653Y118366250D01*
X137469000Y117847667D01*
X137130333Y117847667D01*
X137130333Y118331476D01*
X137125825Y118577252D01*
X137109742Y118750207D01*
X137078241Y118861832D01*
X137027480Y118923617D01*
X136953618Y118947055D01*
X136924109Y118948333D01*
X136854333Y118937541D01*
X136805582Y118897033D01*
X136774311Y118814611D01*
X136756973Y118678080D01*
X136750022Y118475241D01*
X136749333Y118347200D01*
X136749333Y117847667D01*
X136368333Y117847667D01*
X136368333Y119117667D01*
X136558833Y119117667D01*
X136687408Y119107062D01*
G36*
X134548000Y117847667D02*
X134167000Y117847667D01*
X134167000Y119117667D01*
X134548000Y119117667D01*
X134548000Y117847667D01*
X134548000Y117847667D01*
G37*
X134548000Y117847667D02*
X134167000Y117847667D01*
X134167000Y119117667D01*
X134548000Y119117667D01*
X134548000Y117847667D01*
G36*
X133508362Y119099757D02*
X133638845Y119039141D01*
X133739751Y118928210D01*
X133785443Y118796387D01*
X133786000Y118781102D01*
X133758742Y118737926D01*
X133695870Y118741682D01*
X133625736Y118783837D01*
X133582036Y118842500D01*
X133503639Y118929818D01*
X133383368Y118944900D01*
X133302629Y118922638D01*
X133238037Y118868350D01*
X133249140Y118788936D01*
X133332929Y118690489D01*
X133465807Y118592049D01*
X133654236Y118450475D01*
X133760482Y118316846D01*
X133786063Y118186363D01*
X133732499Y118054228D01*
X133662256Y117971410D01*
X133566741Y117891938D01*
X133466208Y117856673D01*
X133334173Y117850350D01*
X133192144Y117859420D01*
X133072997Y117879148D01*
X133039883Y117889359D01*
X132964117Y117952965D01*
X132904195Y118057052D01*
X132902300Y118062326D01*
X132866723Y118167853D01*
X132863445Y118215561D01*
X132899086Y118228307D01*
X132950461Y118228667D01*
X133047494Y118190364D01*
X133088044Y118133417D01*
X133153750Y118057883D01*
X133256833Y118038167D01*
X133347699Y118049659D01*
X133380899Y118098062D01*
X133383833Y118142314D01*
X133350423Y118241657D01*
X133243456Y118335739D01*
X133235666Y118340757D01*
X133069577Y118450827D01*
X132964357Y118535531D01*
X132906688Y118610302D01*
X132883252Y118690575D01*
X132880066Y118752839D01*
X132916436Y118913012D01*
X133018930Y119030485D01*
X133177627Y119099781D01*
X133382606Y119115421D01*
X133508362Y119099757D01*
X133508362Y119099757D01*
G37*
X133508362Y119099757D02*
X133638845Y119039141D01*
X133739751Y118928210D01*
X133785443Y118796387D01*
X133786000Y118781102D01*
X133758742Y118737926D01*
X133695870Y118741682D01*
X133625736Y118783837D01*
X133582036Y118842500D01*
X133503639Y118929818D01*
X133383368Y118944900D01*
X133302629Y118922638D01*
X133238037Y118868350D01*
X133249140Y118788936D01*
X133332929Y118690489D01*
X133465807Y118592049D01*
X133654236Y118450475D01*
X133760482Y118316846D01*
X133786063Y118186363D01*
X133732499Y118054228D01*
X133662256Y117971410D01*
X133566741Y117891938D01*
X133466208Y117856673D01*
X133334173Y117850350D01*
X133192144Y117859420D01*
X133072997Y117879148D01*
X133039883Y117889359D01*
X132964117Y117952965D01*
X132904195Y118057052D01*
X132902300Y118062326D01*
X132866723Y118167853D01*
X132863445Y118215561D01*
X132899086Y118228307D01*
X132950461Y118228667D01*
X133047494Y118190364D01*
X133088044Y118133417D01*
X133153750Y118057883D01*
X133256833Y118038167D01*
X133347699Y118049659D01*
X133380899Y118098062D01*
X133383833Y118142314D01*
X133350423Y118241657D01*
X133243456Y118335739D01*
X133235666Y118340757D01*
X133069577Y118450827D01*
X132964357Y118535531D01*
X132906688Y118610302D01*
X132883252Y118690575D01*
X132880066Y118752839D01*
X132916436Y118913012D01*
X133018930Y119030485D01*
X133177627Y119099781D01*
X133382606Y119115421D01*
X133508362Y119099757D01*
G36*
X132306337Y119079478D02*
X132424960Y119001546D01*
X132491729Y118873051D01*
X132515572Y118687596D01*
X132516000Y118652000D01*
X132516000Y118398000D01*
X131796333Y118398000D01*
X131796333Y118255017D01*
X131818388Y118122518D01*
X131891252Y118047567D01*
X132024974Y118022555D01*
X132100121Y118024997D01*
X132228823Y118045459D01*
X132300110Y118091384D01*
X132324955Y118133417D01*
X132386394Y118207068D01*
X132445961Y118228667D01*
X132499774Y118214036D01*
X132505628Y118154569D01*
X132496636Y118112250D01*
X132453446Y118001933D01*
X132406655Y117933120D01*
X132326114Y117894808D01*
X132188764Y117868608D01*
X132021752Y117855683D01*
X131852224Y117857196D01*
X131707327Y117874308D01*
X131627834Y117899773D01*
X131529500Y117971271D01*
X131465783Y118072367D01*
X131431692Y118218623D01*
X131422242Y118425602D01*
X131424423Y118534454D01*
X131436178Y118707033D01*
X131796333Y118707033D01*
X131800909Y118621184D01*
X131829990Y118580529D01*
X131906606Y118568181D01*
X131986833Y118567333D01*
X132104005Y118571101D01*
X132159504Y118592363D01*
X132176287Y118646059D01*
X132177333Y118691310D01*
X132146877Y118822947D01*
X132068334Y118916502D01*
X131971109Y118948333D01*
X131866427Y118912457D01*
X131807707Y118809003D01*
X131796333Y118707033D01*
X131436178Y118707033D01*
X131439867Y118761175D01*
X131476057Y118917656D01*
X131543923Y119017754D01*
X131654395Y119075324D01*
X131818402Y119104224D01*
X131877812Y119109240D01*
X132126930Y119113243D01*
X132306337Y119079478D01*
X132306337Y119079478D01*
G37*
X132306337Y119079478D02*
X132424960Y119001546D01*
X132491729Y118873051D01*
X132515572Y118687596D01*
X132516000Y118652000D01*
X132516000Y118398000D01*
X131796333Y118398000D01*
X131796333Y118255017D01*
X131818388Y118122518D01*
X131891252Y118047567D01*
X132024974Y118022555D01*
X132100121Y118024997D01*
X132228823Y118045459D01*
X132300110Y118091384D01*
X132324955Y118133417D01*
X132386394Y118207068D01*
X132445961Y118228667D01*
X132499774Y118214036D01*
X132505628Y118154569D01*
X132496636Y118112250D01*
X132453446Y118001933D01*
X132406655Y117933120D01*
X132326114Y117894808D01*
X132188764Y117868608D01*
X132021752Y117855683D01*
X131852224Y117857196D01*
X131707327Y117874308D01*
X131627834Y117899773D01*
X131529500Y117971271D01*
X131465783Y118072367D01*
X131431692Y118218623D01*
X131422242Y118425602D01*
X131424423Y118534454D01*
X131436178Y118707033D01*
X131796333Y118707033D01*
X131800909Y118621184D01*
X131829990Y118580529D01*
X131906606Y118568181D01*
X131986833Y118567333D01*
X132104005Y118571101D01*
X132159504Y118592363D01*
X132176287Y118646059D01*
X132177333Y118691310D01*
X132146877Y118822947D01*
X132068334Y118916502D01*
X131971109Y118948333D01*
X131866427Y118912457D01*
X131807707Y118809003D01*
X131796333Y118707033D01*
X131436178Y118707033D01*
X131439867Y118761175D01*
X131476057Y118917656D01*
X131543923Y119017754D01*
X131654395Y119075324D01*
X131818402Y119104224D01*
X131877812Y119109240D01*
X132126930Y119113243D01*
X132306337Y119079478D01*
G36*
X131034333Y117847667D02*
X130865000Y117847667D01*
X130758967Y117857385D01*
X130699987Y117881663D01*
X130695666Y117891490D01*
X130669752Y117913690D01*
X130613783Y117891490D01*
X130476218Y117853928D01*
X130309055Y117856046D01*
X130156947Y117896836D01*
X130146167Y117902042D01*
X130047976Y117971614D01*
X129984242Y118072018D01*
X129950076Y118218458D01*
X129940586Y118426138D01*
X129942756Y118534454D01*
X129943113Y118539801D01*
X130314527Y118539801D01*
X130316057Y118370013D01*
X130326842Y118217017D01*
X130346882Y118106049D01*
X130365466Y118067800D01*
X130465518Y118020176D01*
X130577428Y118044373D01*
X130629142Y118083524D01*
X130662756Y118139168D01*
X130683490Y118235141D01*
X130693634Y118387451D01*
X130695666Y118549191D01*
X130695666Y118948333D01*
X130555966Y118948333D01*
X130443789Y118933784D01*
X130366635Y118898668D01*
X130365466Y118897533D01*
X130339232Y118828798D01*
X130322252Y118701141D01*
X130314527Y118539801D01*
X129943113Y118539801D01*
X129957923Y118761200D01*
X129993650Y118917632D01*
X130061423Y119017612D01*
X130172732Y119075004D01*
X130339063Y119103672D01*
X130419613Y119109952D01*
X130695666Y119127530D01*
X130695666Y119498667D01*
X131034333Y119498667D01*
X131034333Y117847667D01*
X131034333Y117847667D01*
G37*
X131034333Y117847667D02*
X130865000Y117847667D01*
X130758967Y117857385D01*
X130699987Y117881663D01*
X130695666Y117891490D01*
X130669752Y117913690D01*
X130613783Y117891490D01*
X130476218Y117853928D01*
X130309055Y117856046D01*
X130156947Y117896836D01*
X130146167Y117902042D01*
X130047976Y117971614D01*
X129984242Y118072018D01*
X129950076Y118218458D01*
X129940586Y118426138D01*
X129942756Y118534454D01*
X129943113Y118539801D01*
X130314527Y118539801D01*
X130316057Y118370013D01*
X130326842Y118217017D01*
X130346882Y118106049D01*
X130365466Y118067800D01*
X130465518Y118020176D01*
X130577428Y118044373D01*
X130629142Y118083524D01*
X130662756Y118139168D01*
X130683490Y118235141D01*
X130693634Y118387451D01*
X130695666Y118549191D01*
X130695666Y118948333D01*
X130555966Y118948333D01*
X130443789Y118933784D01*
X130366635Y118898668D01*
X130365466Y118897533D01*
X130339232Y118828798D01*
X130322252Y118701141D01*
X130314527Y118539801D01*
X129943113Y118539801D01*
X129957923Y118761200D01*
X129993650Y118917632D01*
X130061423Y119017612D01*
X130172732Y119075004D01*
X130339063Y119103672D01*
X130419613Y119109952D01*
X130695666Y119127530D01*
X130695666Y119498667D01*
X131034333Y119498667D01*
X131034333Y117847667D01*
G36*
X128568701Y119489866D02*
X128758084Y119459068D01*
X128885318Y119399679D01*
X128960955Y119305104D01*
X128995547Y119168750D01*
X129000986Y119064750D01*
X128979809Y118906205D01*
X128921955Y118779371D01*
X128839305Y118705171D01*
X128790666Y118694333D01*
X128749563Y118662119D01*
X128748333Y118652000D01*
X128782447Y118614047D01*
X128809432Y118609667D01*
X128889618Y118571499D01*
X128953384Y118472572D01*
X128993897Y118336245D01*
X129004324Y118185882D01*
X128977831Y118044845D01*
X128976036Y118040063D01*
X128909120Y117953345D01*
X128781200Y117893702D01*
X128585339Y117859143D01*
X128314599Y117847675D01*
X128305935Y117847667D01*
X127901666Y117847667D01*
X127901666Y118567333D01*
X128282666Y118567333D01*
X128282666Y118017000D01*
X128406642Y118017000D01*
X128520619Y118039023D01*
X128597142Y118083524D01*
X128643009Y118174280D01*
X128661774Y118302722D01*
X128652025Y118429944D01*
X128612866Y118516533D01*
X128537354Y118552034D01*
X128425498Y118567321D01*
X128422366Y118567333D01*
X128282666Y118567333D01*
X127901666Y118567333D01*
X127901666Y119329333D01*
X128282666Y119329333D01*
X128282666Y118736667D01*
X128406642Y118736667D01*
X128520619Y118758690D01*
X128597142Y118803191D01*
X128642388Y118890716D01*
X128663391Y119017322D01*
X128663666Y119033000D01*
X128635392Y119195172D01*
X128551324Y119294372D01*
X128412596Y119329292D01*
X128406642Y119329333D01*
X128282666Y119329333D01*
X127901666Y119329333D01*
X127901666Y119498667D01*
X128306616Y119498667D01*
X128568701Y119489866D01*
X128568701Y119489866D01*
G37*
X128568701Y119489866D02*
X128758084Y119459068D01*
X128885318Y119399679D01*
X128960955Y119305104D01*
X128995547Y119168750D01*
X129000986Y119064750D01*
X128979809Y118906205D01*
X128921955Y118779371D01*
X128839305Y118705171D01*
X128790666Y118694333D01*
X128749563Y118662119D01*
X128748333Y118652000D01*
X128782447Y118614047D01*
X128809432Y118609667D01*
X128889618Y118571499D01*
X128953384Y118472572D01*
X128993897Y118336245D01*
X129004324Y118185882D01*
X128977831Y118044845D01*
X128976036Y118040063D01*
X128909120Y117953345D01*
X128781200Y117893702D01*
X128585339Y117859143D01*
X128314599Y117847675D01*
X128305935Y117847667D01*
X127901666Y117847667D01*
X127901666Y118567333D01*
X128282666Y118567333D01*
X128282666Y118017000D01*
X128406642Y118017000D01*
X128520619Y118039023D01*
X128597142Y118083524D01*
X128643009Y118174280D01*
X128661774Y118302722D01*
X128652025Y118429944D01*
X128612866Y118516533D01*
X128537354Y118552034D01*
X128425498Y118567321D01*
X128422366Y118567333D01*
X128282666Y118567333D01*
X127901666Y118567333D01*
X127901666Y119329333D01*
X128282666Y119329333D01*
X128282666Y118736667D01*
X128406642Y118736667D01*
X128520619Y118758690D01*
X128597142Y118803191D01*
X128642388Y118890716D01*
X128663391Y119017322D01*
X128663666Y119033000D01*
X128635392Y119195172D01*
X128551324Y119294372D01*
X128412596Y119329292D01*
X128406642Y119329333D01*
X128282666Y119329333D01*
X127901666Y119329333D01*
X127901666Y119498667D01*
X128306616Y119498667D01*
X128568701Y119489866D01*
G36*
X127291992Y119492502D02*
X127364651Y119471239D01*
X127423539Y119429105D01*
X127454719Y119399129D01*
X127527943Y119302963D01*
X127562578Y119212327D01*
X127563000Y119204258D01*
X127536676Y119133967D01*
X127474971Y119119658D01*
X127403779Y119158887D01*
X127359036Y119223500D01*
X127314930Y119290964D01*
X127245196Y119321914D01*
X127120897Y119329333D01*
X126987184Y119318756D01*
X126911862Y119281355D01*
X126887156Y119247450D01*
X126870248Y119174839D01*
X126856369Y119037141D01*
X126846929Y118853921D01*
X126843336Y118644743D01*
X126843333Y118638800D01*
X126845516Y118394880D01*
X126856048Y118223516D01*
X126880908Y118112633D01*
X126926072Y118050154D01*
X126997517Y118024003D01*
X127101219Y118022104D01*
X127147121Y118024997D01*
X127275823Y118045459D01*
X127347110Y118091384D01*
X127371955Y118133417D01*
X127429554Y118205480D01*
X127498815Y118227344D01*
X127551318Y118196738D01*
X127563000Y118148690D01*
X127537303Y118058380D01*
X127482927Y117969828D01*
X127428167Y117916711D01*
X127354989Y117884529D01*
X127240205Y117866641D01*
X127091344Y117857660D01*
X126875139Y117858802D01*
X126721137Y117882005D01*
X126674834Y117899773D01*
X126592979Y117953935D01*
X126534873Y118025466D01*
X126497149Y118128060D01*
X126476436Y118275412D01*
X126469367Y118481218D01*
X126471829Y118725029D01*
X126480105Y118992454D01*
X126497739Y119187245D01*
X126533188Y119321430D01*
X126594906Y119407039D01*
X126691349Y119456098D01*
X126830973Y119480636D01*
X127011122Y119492182D01*
X127182003Y119497835D01*
X127291992Y119492502D01*
X127291992Y119492502D01*
G37*
X127291992Y119492502D02*
X127364651Y119471239D01*
X127423539Y119429105D01*
X127454719Y119399129D01*
X127527943Y119302963D01*
X127562578Y119212327D01*
X127563000Y119204258D01*
X127536676Y119133967D01*
X127474971Y119119658D01*
X127403779Y119158887D01*
X127359036Y119223500D01*
X127314930Y119290964D01*
X127245196Y119321914D01*
X127120897Y119329333D01*
X126987184Y119318756D01*
X126911862Y119281355D01*
X126887156Y119247450D01*
X126870248Y119174839D01*
X126856369Y119037141D01*
X126846929Y118853921D01*
X126843336Y118644743D01*
X126843333Y118638800D01*
X126845516Y118394880D01*
X126856048Y118223516D01*
X126880908Y118112633D01*
X126926072Y118050154D01*
X126997517Y118024003D01*
X127101219Y118022104D01*
X127147121Y118024997D01*
X127275823Y118045459D01*
X127347110Y118091384D01*
X127371955Y118133417D01*
X127429554Y118205480D01*
X127498815Y118227344D01*
X127551318Y118196738D01*
X127563000Y118148690D01*
X127537303Y118058380D01*
X127482927Y117969828D01*
X127428167Y117916711D01*
X127354989Y117884529D01*
X127240205Y117866641D01*
X127091344Y117857660D01*
X126875139Y117858802D01*
X126721137Y117882005D01*
X126674834Y117899773D01*
X126592979Y117953935D01*
X126534873Y118025466D01*
X126497149Y118128060D01*
X126476436Y118275412D01*
X126469367Y118481218D01*
X126471829Y118725029D01*
X126480105Y118992454D01*
X126497739Y119187245D01*
X126533188Y119321430D01*
X126594906Y119407039D01*
X126691349Y119456098D01*
X126830973Y119480636D01*
X127011122Y119492182D01*
X127182003Y119497835D01*
X127291992Y119492502D01*
G36*
X125646458Y119490350D02*
X125834671Y119460543D01*
X125961095Y119401964D01*
X126036567Y119307331D01*
X126071926Y119169361D01*
X126078640Y119033000D01*
X126057463Y118830605D01*
X125988369Y118691195D01*
X125863017Y118607041D01*
X125673064Y118570411D01*
X125576116Y118567333D01*
X125361666Y118567333D01*
X125361666Y117847667D01*
X124980666Y117847667D01*
X124980666Y119329333D01*
X125361666Y119329333D01*
X125361666Y118736667D01*
X125485642Y118736667D01*
X125599619Y118758690D01*
X125676142Y118803191D01*
X125721388Y118890716D01*
X125742391Y119017322D01*
X125742666Y119033000D01*
X125714392Y119195172D01*
X125630324Y119294372D01*
X125491596Y119329292D01*
X125485642Y119329333D01*
X125361666Y119329333D01*
X124980666Y119329333D01*
X124980666Y119498667D01*
X125385616Y119498667D01*
X125646458Y119490350D01*
X125646458Y119490350D01*
G37*
X125646458Y119490350D02*
X125834671Y119460543D01*
X125961095Y119401964D01*
X126036567Y119307331D01*
X126071926Y119169361D01*
X126078640Y119033000D01*
X126057463Y118830605D01*
X125988369Y118691195D01*
X125863017Y118607041D01*
X125673064Y118570411D01*
X125576116Y118567333D01*
X125361666Y118567333D01*
X125361666Y117847667D01*
X124980666Y117847667D01*
X124980666Y119329333D01*
X125361666Y119329333D01*
X125361666Y118736667D01*
X125485642Y118736667D01*
X125599619Y118758690D01*
X125676142Y118803191D01*
X125721388Y118890716D01*
X125742391Y119017322D01*
X125742666Y119033000D01*
X125714392Y119195172D01*
X125630324Y119294372D01*
X125491596Y119329292D01*
X125485642Y119329333D01*
X125361666Y119329333D01*
X124980666Y119329333D01*
X124980666Y119498667D01*
X125385616Y119498667D01*
X125646458Y119490350D01*
G36*
X123710666Y117847667D02*
X123329666Y117847667D01*
X123329666Y118503833D01*
X123329143Y118752528D01*
X123326509Y118928933D01*
X123320167Y119045424D01*
X123308520Y119114378D01*
X123289972Y119148169D01*
X123262925Y119159174D01*
X123245000Y119160000D01*
X123174129Y119190050D01*
X123160333Y119243806D01*
X123197398Y119315898D01*
X123291493Y119391456D01*
X123416965Y119455715D01*
X123548165Y119493913D01*
X123603146Y119498667D01*
X123710666Y119498667D01*
X123710666Y117847667D01*
X123710666Y117847667D01*
G37*
X123710666Y117847667D02*
X123329666Y117847667D01*
X123329666Y118503833D01*
X123329143Y118752528D01*
X123326509Y118928933D01*
X123320167Y119045424D01*
X123308520Y119114378D01*
X123289972Y119148169D01*
X123262925Y119159174D01*
X123245000Y119160000D01*
X123174129Y119190050D01*
X123160333Y119243806D01*
X123197398Y119315898D01*
X123291493Y119391456D01*
X123416965Y119455715D01*
X123548165Y119493913D01*
X123603146Y119498667D01*
X123710666Y119498667D01*
X123710666Y117847667D01*
G36*
X122610000Y117847667D02*
X122229000Y117847667D01*
X122229000Y118228667D01*
X122610000Y118228667D01*
X122610000Y117847667D01*
X122610000Y117847667D01*
G37*
X122610000Y117847667D02*
X122229000Y117847667D01*
X122229000Y118228667D01*
X122610000Y118228667D01*
X122610000Y117847667D01*
G36*
X121509333Y117847667D02*
X121128333Y117847667D01*
X121128333Y118503833D01*
X121127810Y118752528D01*
X121125175Y118928933D01*
X121118833Y119045424D01*
X121107187Y119114378D01*
X121088638Y119148169D01*
X121061592Y119159174D01*
X121043666Y119160000D01*
X120972795Y119190050D01*
X120959000Y119243806D01*
X120996065Y119315898D01*
X121090159Y119391456D01*
X121215632Y119455715D01*
X121346831Y119493913D01*
X121401813Y119498667D01*
X121509333Y119498667D01*
X121509333Y117847667D01*
X121509333Y117847667D01*
G37*
X121509333Y117847667D02*
X121128333Y117847667D01*
X121128333Y118503833D01*
X121127810Y118752528D01*
X121125175Y118928933D01*
X121118833Y119045424D01*
X121107187Y119114378D01*
X121088638Y119148169D01*
X121061592Y119159174D01*
X121043666Y119160000D01*
X120972795Y119190050D01*
X120959000Y119243806D01*
X120996065Y119315898D01*
X121090159Y119391456D01*
X121215632Y119455715D01*
X121346831Y119493913D01*
X121401813Y119498667D01*
X121509333Y119498667D01*
X121509333Y117847667D01*
G36*
X120408666Y117847667D02*
X120027666Y117847667D01*
X120027666Y118228667D01*
X120408666Y118228667D01*
X120408666Y117847667D01*
X120408666Y117847667D01*
G37*
X120408666Y117847667D02*
X120027666Y117847667D01*
X120027666Y118228667D01*
X120408666Y118228667D01*
X120408666Y117847667D01*
G36*
X119310683Y119001250D02*
X119315267Y118906696D01*
X119327565Y118888634D01*
X119349976Y118933221D01*
X119442277Y119057705D01*
X119587069Y119138421D01*
X119719586Y119160000D01*
X119804852Y119155362D01*
X119845231Y119126094D01*
X119857493Y119049170D01*
X119858333Y118969500D01*
X119858333Y118779000D01*
X119633966Y118779000D01*
X119497285Y118769923D01*
X119392787Y118746699D01*
X119358800Y118728200D01*
X119331825Y118655668D01*
X119314651Y118506017D01*
X119308049Y118286311D01*
X119308000Y118262533D01*
X119308000Y117847667D01*
X118927000Y117847667D01*
X118927000Y119160000D01*
X119308000Y119160000D01*
X119310683Y119001250D01*
X119310683Y119001250D01*
G37*
X119310683Y119001250D02*
X119315267Y118906696D01*
X119327565Y118888634D01*
X119349976Y118933221D01*
X119442277Y119057705D01*
X119587069Y119138421D01*
X119719586Y119160000D01*
X119804852Y119155362D01*
X119845231Y119126094D01*
X119857493Y119049170D01*
X119858333Y118969500D01*
X119858333Y118779000D01*
X119633966Y118779000D01*
X119497285Y118769923D01*
X119392787Y118746699D01*
X119358800Y118728200D01*
X119331825Y118655668D01*
X119314651Y118506017D01*
X119308049Y118286311D01*
X119308000Y118262533D01*
X119308000Y117847667D01*
X118927000Y117847667D01*
X118927000Y119160000D01*
X119308000Y119160000D01*
X119310683Y119001250D01*
G36*
X118336337Y119079478D02*
X118454960Y119001546D01*
X118521729Y118873051D01*
X118545572Y118687596D01*
X118546000Y118652000D01*
X118546000Y118398000D01*
X117826333Y118398000D01*
X117826333Y118255017D01*
X117848388Y118122518D01*
X117921252Y118047567D01*
X118054974Y118022555D01*
X118130121Y118024997D01*
X118258823Y118045459D01*
X118330110Y118091384D01*
X118354955Y118133417D01*
X118416394Y118207068D01*
X118475961Y118228667D01*
X118529774Y118214036D01*
X118535628Y118154569D01*
X118526636Y118112250D01*
X118483446Y118001933D01*
X118436655Y117933120D01*
X118356114Y117894808D01*
X118218764Y117868608D01*
X118051752Y117855683D01*
X117882224Y117857196D01*
X117737327Y117874308D01*
X117657834Y117899773D01*
X117559500Y117971271D01*
X117495783Y118072367D01*
X117461692Y118218623D01*
X117452242Y118425602D01*
X117454423Y118534454D01*
X117466178Y118707033D01*
X117826333Y118707033D01*
X117830909Y118621184D01*
X117859990Y118580529D01*
X117936606Y118568181D01*
X118016833Y118567333D01*
X118134005Y118571101D01*
X118189504Y118592363D01*
X118206287Y118646059D01*
X118207333Y118691310D01*
X118176877Y118822947D01*
X118098334Y118916502D01*
X118001109Y118948333D01*
X117896427Y118912457D01*
X117837707Y118809003D01*
X117826333Y118707033D01*
X117466178Y118707033D01*
X117469867Y118761175D01*
X117506057Y118917656D01*
X117573923Y119017754D01*
X117684395Y119075324D01*
X117848402Y119104224D01*
X117907812Y119109240D01*
X118156930Y119113243D01*
X118336337Y119079478D01*
X118336337Y119079478D01*
G37*
X118336337Y119079478D02*
X118454960Y119001546D01*
X118521729Y118873051D01*
X118545572Y118687596D01*
X118546000Y118652000D01*
X118546000Y118398000D01*
X117826333Y118398000D01*
X117826333Y118255017D01*
X117848388Y118122518D01*
X117921252Y118047567D01*
X118054974Y118022555D01*
X118130121Y118024997D01*
X118258823Y118045459D01*
X118330110Y118091384D01*
X118354955Y118133417D01*
X118416394Y118207068D01*
X118475961Y118228667D01*
X118529774Y118214036D01*
X118535628Y118154569D01*
X118526636Y118112250D01*
X118483446Y118001933D01*
X118436655Y117933120D01*
X118356114Y117894808D01*
X118218764Y117868608D01*
X118051752Y117855683D01*
X117882224Y117857196D01*
X117737327Y117874308D01*
X117657834Y117899773D01*
X117559500Y117971271D01*
X117495783Y118072367D01*
X117461692Y118218623D01*
X117452242Y118425602D01*
X117454423Y118534454D01*
X117466178Y118707033D01*
X117826333Y118707033D01*
X117830909Y118621184D01*
X117859990Y118580529D01*
X117936606Y118568181D01*
X118016833Y118567333D01*
X118134005Y118571101D01*
X118189504Y118592363D01*
X118206287Y118646059D01*
X118207333Y118691310D01*
X118176877Y118822947D01*
X118098334Y118916502D01*
X118001109Y118948333D01*
X117896427Y118912457D01*
X117837707Y118809003D01*
X117826333Y118707033D01*
X117466178Y118707033D01*
X117469867Y118761175D01*
X117506057Y118917656D01*
X117573923Y119017754D01*
X117684395Y119075324D01*
X117848402Y119104224D01*
X117907812Y119109240D01*
X118156930Y119113243D01*
X118336337Y119079478D01*
G36*
X116387000Y118017000D02*
X116510976Y118017000D01*
X116600376Y118022756D01*
X116666352Y118047392D01*
X116712421Y118101958D01*
X116742102Y118197505D01*
X116758913Y118345082D01*
X116766372Y118555742D01*
X116768000Y118824357D01*
X116768000Y119498667D01*
X117106666Y119498667D01*
X117106666Y118891094D01*
X117105703Y118648967D01*
X117101423Y118475209D01*
X117091744Y118353527D01*
X117074583Y118267633D01*
X117047856Y118201236D01*
X117010572Y118139677D01*
X116880682Y117994672D01*
X116712796Y117902077D01*
X116492410Y117855823D01*
X116312916Y117847733D01*
X116006000Y117847667D01*
X116006000Y119498667D01*
X116387000Y119498667D01*
X116387000Y118017000D01*
X116387000Y118017000D01*
G37*
X116387000Y118017000D02*
X116510976Y118017000D01*
X116600376Y118022756D01*
X116666352Y118047392D01*
X116712421Y118101958D01*
X116742102Y118197505D01*
X116758913Y118345082D01*
X116766372Y118555742D01*
X116768000Y118824357D01*
X116768000Y119498667D01*
X117106666Y119498667D01*
X117106666Y118891094D01*
X117105703Y118648967D01*
X117101423Y118475209D01*
X117091744Y118353527D01*
X117074583Y118267633D01*
X117047856Y118201236D01*
X117010572Y118139677D01*
X116880682Y117994672D01*
X116712796Y117902077D01*
X116492410Y117855823D01*
X116312916Y117847733D01*
X116006000Y117847667D01*
X116006000Y119498667D01*
X116387000Y119498667D01*
X116387000Y118017000D01*
G36*
X156468083Y117847245D02*
X156661656Y117845093D01*
X156793875Y117839877D01*
X156876396Y117830266D01*
X156920875Y117814927D01*
X156938968Y117792529D01*
X156942333Y117763000D01*
X156938644Y117732534D01*
X156919809Y117710411D01*
X156874170Y117695300D01*
X156790072Y117685869D01*
X156655860Y117680786D01*
X156459876Y117678718D01*
X156201500Y117678333D01*
X155934916Y117678755D01*
X155741343Y117680908D01*
X155609124Y117686124D01*
X155526603Y117695735D01*
X155482124Y117711073D01*
X155464031Y117733471D01*
X155460666Y117763000D01*
X155464355Y117793467D01*
X155483190Y117815589D01*
X155528829Y117830700D01*
X155612927Y117840131D01*
X155747139Y117845215D01*
X155943123Y117847282D01*
X156201500Y117847667D01*
X156468083Y117847245D01*
X156468083Y117847245D01*
G37*
X156468083Y117847245D02*
X156661656Y117845093D01*
X156793875Y117839877D01*
X156876396Y117830266D01*
X156920875Y117814927D01*
X156938968Y117792529D01*
X156942333Y117763000D01*
X156938644Y117732534D01*
X156919809Y117710411D01*
X156874170Y117695300D01*
X156790072Y117685869D01*
X156655860Y117680786D01*
X156459876Y117678718D01*
X156201500Y117678333D01*
X155934916Y117678755D01*
X155741343Y117680908D01*
X155609124Y117686124D01*
X155526603Y117695735D01*
X155482124Y117711073D01*
X155464031Y117733471D01*
X155460666Y117763000D01*
X155464355Y117793467D01*
X155483190Y117815589D01*
X155528829Y117830700D01*
X155612927Y117840131D01*
X155747139Y117845215D01*
X155943123Y117847282D01*
X156201500Y117847667D01*
X156468083Y117847245D01*
G36*
X159651666Y118618133D02*
X159654804Y118378142D01*
X159666582Y118210467D01*
X159690545Y118102911D01*
X159730241Y118043278D01*
X159789215Y118019369D01*
X159826442Y118017000D01*
X159908609Y118030483D01*
X159966430Y118078592D01*
X160003747Y118172819D01*
X160024403Y118324654D01*
X160032239Y118545590D01*
X160032666Y118633857D01*
X160032666Y119117667D01*
X160371333Y119117667D01*
X160369986Y118323917D01*
X160368561Y118029675D01*
X160363792Y117807983D01*
X160353240Y117646731D01*
X160334463Y117533807D01*
X160305021Y117457100D01*
X160262474Y117404499D01*
X160204380Y117363893D01*
X160173033Y117346582D01*
X160061080Y117313853D01*
X159902919Y117298818D01*
X159729802Y117300884D01*
X159572983Y117319463D01*
X159463718Y117353963D01*
X159453791Y117360172D01*
X159374567Y117446051D01*
X159319574Y117550672D01*
X159294850Y117638488D01*
X159312527Y117672845D01*
X159368663Y117678333D01*
X159463102Y117640232D01*
X159504044Y117583083D01*
X159557222Y117515276D01*
X159655736Y117482098D01*
X159720546Y117475070D01*
X159882014Y117487068D01*
X159982309Y117555598D01*
X160028083Y117686893D01*
X160032666Y117767513D01*
X160029120Y117872904D01*
X160009907Y117910540D01*
X159962167Y117897288D01*
X159941801Y117886683D01*
X159811868Y117854653D01*
X159649111Y117862472D01*
X159492007Y117904339D01*
X159382341Y117971058D01*
X159343938Y118017298D01*
X159317311Y118076622D01*
X159299693Y118165397D01*
X159288317Y118299991D01*
X159280418Y118496769D01*
X159277797Y118589557D01*
X159263761Y119117667D01*
X159651666Y119117667D01*
X159651666Y118618133D01*
X159651666Y118618133D01*
G37*
X159651666Y118618133D02*
X159654804Y118378142D01*
X159666582Y118210467D01*
X159690545Y118102911D01*
X159730241Y118043278D01*
X159789215Y118019369D01*
X159826442Y118017000D01*
X159908609Y118030483D01*
X159966430Y118078592D01*
X160003747Y118172819D01*
X160024403Y118324654D01*
X160032239Y118545590D01*
X160032666Y118633857D01*
X160032666Y119117667D01*
X160371333Y119117667D01*
X160369986Y118323917D01*
X160368561Y118029675D01*
X160363792Y117807983D01*
X160353240Y117646731D01*
X160334463Y117533807D01*
X160305021Y117457100D01*
X160262474Y117404499D01*
X160204380Y117363893D01*
X160173033Y117346582D01*
X160061080Y117313853D01*
X159902919Y117298818D01*
X159729802Y117300884D01*
X159572983Y117319463D01*
X159463718Y117353963D01*
X159453791Y117360172D01*
X159374567Y117446051D01*
X159319574Y117550672D01*
X159294850Y117638488D01*
X159312527Y117672845D01*
X159368663Y117678333D01*
X159463102Y117640232D01*
X159504044Y117583083D01*
X159557222Y117515276D01*
X159655736Y117482098D01*
X159720546Y117475070D01*
X159882014Y117487068D01*
X159982309Y117555598D01*
X160028083Y117686893D01*
X160032666Y117767513D01*
X160029120Y117872904D01*
X160009907Y117910540D01*
X159962167Y117897288D01*
X159941801Y117886683D01*
X159811868Y117854653D01*
X159649111Y117862472D01*
X159492007Y117904339D01*
X159382341Y117971058D01*
X159343938Y118017298D01*
X159317311Y118076622D01*
X159299693Y118165397D01*
X159288317Y118299991D01*
X159280418Y118496769D01*
X159277797Y118589557D01*
X159263761Y119117667D01*
X159651666Y119117667D01*
X159651666Y118618133D01*
G36*
X143141666Y118618133D02*
X143144804Y118378142D01*
X143156582Y118210467D01*
X143180545Y118102911D01*
X143220241Y118043278D01*
X143279215Y118019369D01*
X143316442Y118017000D01*
X143398609Y118030483D01*
X143456430Y118078592D01*
X143493747Y118172819D01*
X143514403Y118324654D01*
X143522239Y118545590D01*
X143522666Y118633857D01*
X143522666Y119117667D01*
X143861333Y119117667D01*
X143859986Y118323917D01*
X143858561Y118029675D01*
X143853792Y117807983D01*
X143843240Y117646731D01*
X143824463Y117533807D01*
X143795021Y117457100D01*
X143752474Y117404499D01*
X143694380Y117363893D01*
X143663033Y117346582D01*
X143551080Y117313853D01*
X143392919Y117298818D01*
X143219802Y117300884D01*
X143062983Y117319463D01*
X142953718Y117353963D01*
X142943791Y117360172D01*
X142864567Y117446051D01*
X142809574Y117550672D01*
X142784850Y117638488D01*
X142802527Y117672845D01*
X142858663Y117678333D01*
X142953102Y117640232D01*
X142994044Y117583083D01*
X143047222Y117515276D01*
X143145736Y117482098D01*
X143210546Y117475070D01*
X143372014Y117487068D01*
X143472309Y117555598D01*
X143518083Y117686893D01*
X143522666Y117767513D01*
X143519120Y117872904D01*
X143499907Y117910540D01*
X143452167Y117897288D01*
X143431801Y117886683D01*
X143301868Y117854653D01*
X143139111Y117862472D01*
X142982007Y117904339D01*
X142872341Y117971058D01*
X142833938Y118017298D01*
X142807311Y118076622D01*
X142789693Y118165397D01*
X142778317Y118299991D01*
X142770418Y118496769D01*
X142767797Y118589557D01*
X142753761Y119117667D01*
X143141666Y119117667D01*
X143141666Y118618133D01*
X143141666Y118618133D01*
G37*
X143141666Y118618133D02*
X143144804Y118378142D01*
X143156582Y118210467D01*
X143180545Y118102911D01*
X143220241Y118043278D01*
X143279215Y118019369D01*
X143316442Y118017000D01*
X143398609Y118030483D01*
X143456430Y118078592D01*
X143493747Y118172819D01*
X143514403Y118324654D01*
X143522239Y118545590D01*
X143522666Y118633857D01*
X143522666Y119117667D01*
X143861333Y119117667D01*
X143859986Y118323917D01*
X143858561Y118029675D01*
X143853792Y117807983D01*
X143843240Y117646731D01*
X143824463Y117533807D01*
X143795021Y117457100D01*
X143752474Y117404499D01*
X143694380Y117363893D01*
X143663033Y117346582D01*
X143551080Y117313853D01*
X143392919Y117298818D01*
X143219802Y117300884D01*
X143062983Y117319463D01*
X142953718Y117353963D01*
X142943791Y117360172D01*
X142864567Y117446051D01*
X142809574Y117550672D01*
X142784850Y117638488D01*
X142802527Y117672845D01*
X142858663Y117678333D01*
X142953102Y117640232D01*
X142994044Y117583083D01*
X143047222Y117515276D01*
X143145736Y117482098D01*
X143210546Y117475070D01*
X143372014Y117487068D01*
X143472309Y117555598D01*
X143518083Y117686893D01*
X143522666Y117767513D01*
X143519120Y117872904D01*
X143499907Y117910540D01*
X143452167Y117897288D01*
X143431801Y117886683D01*
X143301868Y117854653D01*
X143139111Y117862472D01*
X142982007Y117904339D01*
X142872341Y117971058D01*
X142833938Y118017298D01*
X142807311Y118076622D01*
X142789693Y118165397D01*
X142778317Y118299991D01*
X142770418Y118496769D01*
X142767797Y118589557D01*
X142753761Y119117667D01*
X143141666Y119117667D01*
X143141666Y118618133D01*
G36*
X135985986Y118327770D02*
X135984573Y118032821D01*
X135979847Y117810456D01*
X135969385Y117648597D01*
X135950762Y117535164D01*
X135921553Y117458081D01*
X135879335Y117405268D01*
X135821682Y117364647D01*
X135789033Y117346582D01*
X135677080Y117313853D01*
X135518919Y117298818D01*
X135345802Y117300884D01*
X135188983Y117319463D01*
X135079718Y117353963D01*
X135069791Y117360172D01*
X134990567Y117446051D01*
X134935574Y117550672D01*
X134910850Y117638488D01*
X134928527Y117672845D01*
X134984663Y117678333D01*
X135079102Y117640232D01*
X135120044Y117583083D01*
X135173222Y117515276D01*
X135271736Y117482098D01*
X135336546Y117475070D01*
X135494518Y117485127D01*
X135593150Y117548817D01*
X135640900Y117674685D01*
X135648666Y117790214D01*
X135646185Y117903995D01*
X135633271Y117946895D01*
X135601719Y117932671D01*
X135577494Y117909542D01*
X135478467Y117862195D01*
X135336569Y117852215D01*
X135183200Y117876318D01*
X135049758Y117931223D01*
X134999550Y117969968D01*
X134956958Y118021234D01*
X134929938Y118084802D01*
X134915047Y118179903D01*
X134908848Y118325765D01*
X134907833Y118482667D01*
X135267666Y118482667D01*
X135273614Y118272592D01*
X135294612Y118133939D01*
X135335395Y118054095D01*
X135400697Y118020446D01*
X135442442Y118017000D01*
X135530731Y118045406D01*
X135582142Y118083524D01*
X135615756Y118139168D01*
X135636490Y118235141D01*
X135646634Y118387451D01*
X135648666Y118549191D01*
X135648666Y118948333D01*
X135508966Y118948333D01*
X135402515Y118938940D01*
X135332466Y118901358D01*
X135291513Y118821488D01*
X135272349Y118685228D01*
X135267666Y118482667D01*
X134907833Y118482667D01*
X134909585Y118679156D01*
X134917255Y118810464D01*
X134934464Y118896041D01*
X134964836Y118955341D01*
X135004162Y119000074D01*
X135056770Y119044247D01*
X135121532Y119073675D01*
X135217184Y119092205D01*
X135362460Y119103685D01*
X135543912Y119110937D01*
X135987333Y119125374D01*
X135985986Y118327770D01*
X135985986Y118327770D01*
G37*
X135985986Y118327770D02*
X135984573Y118032821D01*
X135979847Y117810456D01*
X135969385Y117648597D01*
X135950762Y117535164D01*
X135921553Y117458081D01*
X135879335Y117405268D01*
X135821682Y117364647D01*
X135789033Y117346582D01*
X135677080Y117313853D01*
X135518919Y117298818D01*
X135345802Y117300884D01*
X135188983Y117319463D01*
X135079718Y117353963D01*
X135069791Y117360172D01*
X134990567Y117446051D01*
X134935574Y117550672D01*
X134910850Y117638488D01*
X134928527Y117672845D01*
X134984663Y117678333D01*
X135079102Y117640232D01*
X135120044Y117583083D01*
X135173222Y117515276D01*
X135271736Y117482098D01*
X135336546Y117475070D01*
X135494518Y117485127D01*
X135593150Y117548817D01*
X135640900Y117674685D01*
X135648666Y117790214D01*
X135646185Y117903995D01*
X135633271Y117946895D01*
X135601719Y117932671D01*
X135577494Y117909542D01*
X135478467Y117862195D01*
X135336569Y117852215D01*
X135183200Y117876318D01*
X135049758Y117931223D01*
X134999550Y117969968D01*
X134956958Y118021234D01*
X134929938Y118084802D01*
X134915047Y118179903D01*
X134908848Y118325765D01*
X134907833Y118482667D01*
X135267666Y118482667D01*
X135273614Y118272592D01*
X135294612Y118133939D01*
X135335395Y118054095D01*
X135400697Y118020446D01*
X135442442Y118017000D01*
X135530731Y118045406D01*
X135582142Y118083524D01*
X135615756Y118139168D01*
X135636490Y118235141D01*
X135646634Y118387451D01*
X135648666Y118549191D01*
X135648666Y118948333D01*
X135508966Y118948333D01*
X135402515Y118938940D01*
X135332466Y118901358D01*
X135291513Y118821488D01*
X135272349Y118685228D01*
X135267666Y118482667D01*
X134907833Y118482667D01*
X134909585Y118679156D01*
X134917255Y118810464D01*
X134934464Y118896041D01*
X134964836Y118955341D01*
X135004162Y119000074D01*
X135056770Y119044247D01*
X135121532Y119073675D01*
X135217184Y119092205D01*
X135362460Y119103685D01*
X135543912Y119110937D01*
X135987333Y119125374D01*
X135985986Y118327770D01*
G04 #@! TO.C,U1*
D13*
G04 #@! TD*
M02*
